<?xml version="1.0" encoding="UTF-8" standalone="no"?>
<!-- Created with Inkscape (http://www.inkscape.org/) -->
<svg xmlns:dc="http://purl.org/dc/elements/1.1/" xmlns:cc="http://creativecommons.org/ns#" xmlns:rdf="http://www.w3.org/1999/02/22-rdf-syntax-ns#" xmlns:svg="http://www.w3.org/2000/svg" xmlns="http://www.w3.org/2000/svg" xmlns:sodipodi="http://sodipodi.sourceforge.net/DTD/sodipodi-0.dtd" xmlns:inkscape="http://www.inkscape.org/namespaces/inkscape" version="1.1" id="svg2" xml:space="preserve" width="350" height="70" viewBox="0 0 350 70" sodipodi:docname="tuxedocomputers.svg" inkscape:version="0.92.3 (2405546, 2018-03-11)"><metadata id="metadata8"><rdf:RDF><cc:Work rdf:about=""><dc:format>image/svg+xml</dc:format><dc:type rdf:resource="http://purl.org/dc/dcmitype/StillImage"/><dc:title/></cc:Work></rdf:RDF></metadata><defs id="defs6"/><sodipodi:namedview pagecolor="#ffffff" bordercolor="#666666" borderopacity="1" objecttolerance="10" gridtolerance="10" guidetolerance="10" inkscape:pageopacity="0" inkscape:pageshadow="2" inkscape:window-width="1920" inkscape:window-height="1052" id="namedview4" showgrid="false" showguides="true" inkscape:guide-bbox="true" inkscape:zoom="3.5257143" inkscape:cx="175" inkscape:cy="35" inkscape:window-x="1920" inkscape:window-y="0" inkscape:window-maximized="1" inkscape:current-layer="g10"><sodipodi:guide position="12.83565,67.687997" orientation="1,0" id="guide845" inkscape:locked="false"/></sodipodi:namedview><g id="g10" inkscape:groupmode="layer" inkscape:label="ink_ext_XXXXXX" transform="matrix(1.3333333,0,0,-1.3333333,0,70.000001)"><g id="g12" transform="matrix(0.23423117,0,0,0.23423117,9.378783,4.4157146)"><path d="M 378.242,35.9258 H 313.691 V 149.625 h 65.586 l -0.304,-3.113 -1.082,-11 -0.246,-2.512 -2.532,-0.031 -34.918,-0.446 v -29.582 l 32.719,-0.445 3.07,-0.043 -0.293,-3.0467 -0.957,-9.9571 -0.242,-2.5 -2.512,-0.0547 -31.785,-0.7382 V 53.0469 l 39.063,-0.7813 3.023,-0.0625 -0.265,-3.0039 -0.961,-10.6836 -0.239,-2.5898 h -2.574" style="fill:#231f20;fill-opacity:1;fill-rule:nonzero;stroke:none" id="path14" inkscape:connector-curvature="0"/><path d="m 605.32,93.2617 c 0,-8.7969 -1.125,-16.7617 -3.375,-23.9219 h -0.004 c -1.117,-3.6289 -2.535,-6.996 -4.238,-10.0898 -1.711,-3.1055 -3.738,-5.9687 -6.062,-8.5781 -2.313,-2.6094 -4.918,-4.9141 -7.805,-6.9141 -2.883,-2 -6.039,-3.6914 -9.449,-5.0781 h -0.012 c -3.426,-1.3789 -7.141,-2.418 -11.109,-3.1055 -3.938,-0.6797 -8.125,-1.0273 -12.543,-1.0273 -4.571,0 -8.836,0.3476 -12.793,1.0429 -3.973,0.6915 -7.66,1.7579 -11.047,3.1836 l -0.004,-0.0039 c -3.371,1.4063 -6.434,3.1172 -9.191,5.1172 -2.782,2.0235 -5.262,4.3516 -7.426,6.9688 v 0.0117 c -2.141,2.6094 -3.996,5.4805 -5.563,8.5937 -1.562,3.0977 -2.851,6.4649 -3.859,10.086 -1.004,3.5976 -1.754,7.3672 -2.25,11.3086 -0.492,3.9414 -0.742,8.082 -0.742,12.4062 0,4.2774 0.257,8.4103 0.761,12.3863 0.5,3.946 1.266,7.688 2.282,11.2 1.035,3.57 2.355,6.875 3.945,9.906 1.609,3.062 3.519,5.879 5.699,8.426 l 0.012,0.008 c 2.203,2.55 4.711,4.808 7.516,6.773 2.8,1.961 5.867,3.617 9.199,4.965 h 0.023 c 3.36,1.34 7.02,2.347 10.961,3.012 3.918,0.664 8.113,1 12.559,1 4.468,0 8.687,-0.34 12.644,-1.004 3.981,-0.661 7.676,-1.672 11.063,-2.996 l 0.011,-0.012 c 3.411,-1.352 6.543,-3.004 9.399,-4.942 2.883,-1.961 5.48,-4.211 7.773,-6.738 l 0.012,-0.012 c 2.277,-2.535 4.293,-5.355 6.016,-8.445 1.699,-3.047 3.113,-6.344 4.222,-9.887 l -0.004,-0.004 c 2.25,-7.05 3.379,-14.933 3.379,-23.6363 z m -27.711,0 c 0,3.2656 -0.136,6.3008 -0.394,9.0903 -0.27,2.804 -0.68,5.496 -1.219,8.043 H 576 c -0.543,2.445 -1.227,4.707 -2.062,6.773 -0.817,2.031 -1.778,3.871 -2.883,5.52 l -0.008,0.023 c -1.055,1.598 -2.27,3.016 -3.645,4.254 -1.367,1.23 -2.875,2.262 -4.515,3.098 l -0.004,-0.008 c -1.668,0.851 -3.492,1.496 -5.461,1.918 -2.02,0.433 -4.231,0.652 -6.617,0.652 -2.176,0 -4.254,-0.113 -6.227,-0.34 -2.008,-0.234 -3.922,-0.578 -5.719,-1.039 l -0.023,-0.012 c -1.754,-0.429 -3.332,-0.964 -4.711,-1.586 -1.352,-0.609 -2.508,-1.293 -3.449,-2.039 -0.746,-0.589 -1.446,-1.648 -2.082,-3.171 -0.742,-1.774 -1.356,-4.086 -1.84,-6.93 v -0.012 c -0.524,-2.957 -0.914,-6.433 -1.172,-10.43 -0.258,-4.003 -0.383,-8.6051 -0.383,-13.8043 0,-3.1601 0.114,-6.1601 0.34,-8.9844 0.227,-2.8828 0.57,-5.621 1.012,-8.1796 h -0.008 c 0.441,-2.4375 1.047,-4.7539 1.789,-6.918 0.719,-2.1016 1.578,-4.0313 2.57,-5.793 0.981,-1.7109 2.118,-3.2265 3.391,-4.5156 1.27,-1.2852 2.695,-2.3789 4.266,-3.2695 h 0.011 c 1.578,-0.9024 3.368,-1.586 5.34,-2.0391 2.028,-0.4687 4.293,-0.707 6.774,-0.707 2.691,0 5.109,0.125 7.25,0.3593 2.148,0.2383 4.058,0.5899 5.714,1.0508 1.625,0.4492 3.137,0.9961 4.524,1.625 1.375,0.6172 2.625,1.3242 3.738,2.0977 l 0.11,0.0664 c 0.238,0.1523 0.503,0.4453 0.781,0.8789 l 0.012,0.0078 c 0.375,0.582 0.738,1.3672 1.085,2.3438 l 0.02,0.0546 c 0.391,1.0313 0.758,2.2383 1.105,3.5938 0.352,1.3867 0.668,2.8867 0.95,4.4961 h 0.007 c 0.266,1.6328 0.516,3.4101 0.727,5.3008 0.207,1.8203 0.379,3.7461 0.516,5.7578 0.14,2.1523 0.242,4.2461 0.3,6.2812 0.059,1.8985 0.086,4.0782 0.086,6.4922" style="fill:#231f20;fill-opacity:1;fill-rule:nonzero;stroke:none" id="path16" inkscape:connector-curvature="0"/><path d="m 396.016,148.797 c 1.64,0.176 3.937,0.398 6.504,0.641 l 1.207,0.117 c 1.703,0.164 3.25,0.3 4.578,0.398 1.429,0.11 3.054,0.223 4.843,0.332 1.551,0.094 3.192,0.188 4.957,0.27 1.579,0.074 3.235,0.148 4.989,0.211 1.625,0.058 3.269,0.097 4.879,0.125 h 0.011 c 2.071,0.027 3.586,0.047 4.528,0.047 4.285,0 8.394,-0.239 12.316,-0.719 3.895,-0.477 7.645,-1.207 11.231,-2.192 h 0.011 c 3.567,-0.988 6.918,-2.281 10.024,-3.867 l 0.008,0.008 c 3.113,-1.586 5.984,-3.477 8.589,-5.652 l 0.008,-0.012 c 2.625,-2.219 4.961,-4.746 6.989,-7.574 2.011,-2.805 3.738,-5.926 5.16,-9.34 1.418,-3.418 2.496,-7.195 3.203,-11.309 0.699,-4.058 1.058,-8.445 1.058,-13.1365 0,-4.5156 -0.277,-8.8984 -0.82,-13.1132 -0.543,-4.2071 -1.367,-8.2071 -2.465,-11.9961 -1.117,-3.8516 -2.57,-7.4258 -4.336,-10.6993 -1.781,-3.3046 -3.898,-6.3398 -6.34,-9.0781 -2.449,-2.7461 -5.277,-5.1875 -8.449,-7.3125 -3.152,-2.1133 -6.636,-3.9101 -10.437,-5.3984 h -0.02 c -3.824,-1.4688 -8.031,-2.5742 -12.605,-3.3047 -4.578,-0.7266 -9.504,-1.0977 -14.762,-1.0977 l -4.418,0.043 c -1.574,0.0195 -3.156,0.0547 -4.73,0.0938 -1.645,0.039 -3.247,0.0898 -4.747,0.1523 -1.683,0.0664 -3.273,0.1523 -4.695,0.2461 l -4.469,0.3008 -4.289,0.3008 c -1.57,0.1054 -2.941,0.2109 -4.019,0.3007 -1.156,0.0977 -2.324,0.2149 -3.504,0.3477 l -2.524,0.2812 v 2.5313 106.2418 2.536 z m 29.535,-97.1486 h 0.035 z m -5.563,0.4532 1.289,-0.1368 v 0.004 l 1.508,-0.125 v 0 l 0.199,-0.0157 h 0.012 c 0.977,-0.0781 1.93,-0.1562 2.59,-0.1797 l 1.242,-0.039 0.965,-0.0039 v 0.0117 c 3.074,0 5.855,0.0937 8.336,0.2773 h 0.012 c 2.562,0.1914 4.824,0.4688 6.773,0.8243 v 0.0039 c 1.902,0.3593 3.668,0.8867 5.277,1.5625 1.586,0.6679 3.059,1.5039 4.411,2.4961 h 0.003 c 0.692,0.5468 1.36,1.1484 1.989,1.8046 l -0.004,0.0039 c 0.691,0.7266 1.332,1.4961 1.902,2.3008 v 0.0117 c 0.582,0.8204 1.145,1.7891 1.68,2.8985 0.57,1.1758 1.098,2.4687 1.586,3.875 h -0.004 c 0.476,1.418 0.91,3.0469 1.297,4.875 0.394,1.9023 0.738,3.9531 1.023,6.1484 0.285,2.2344 0.5,4.7578 0.641,7.5547 v 0.0078 c 0.137,2.6914 0.207,5.75 0.207,9.1602 0,8.0661 -0.945,14.6681 -2.828,19.7461 v 0.012 c -0.914,2.515 -1.992,4.738 -3.219,6.66 -1.207,1.89 -2.586,3.535 -4.117,4.941 l 0.008,0.008 c -1.512,1.359 -3.168,2.527 -4.961,3.492 -1.778,0.961 -3.711,1.719 -5.793,2.285 l 0.004,0.008 c -2.118,0.555 -4.36,0.981 -6.707,1.266 -2.329,0.285 -4.762,0.43 -7.274,0.43 -0.824,0 -1.816,-0.008 -2.527,-0.032 l -1.465,-0.082 v 0 l -1.496,-0.113 v -0.004 l -1.504,-0.125 v 0.008 c -0.344,-0.031 -0.688,-0.067 -1.055,-0.113 V 52.1016" style="fill:#231f20;fill-opacity:1;fill-rule:nonzero;stroke:none" id="path18" inkscape:connector-curvature="0"/><path d="m 202.82,76.9844 c 0,-2.8672 -0.269,-5.6719 -0.804,-8.4063 -0.539,-2.7343 -1.344,-5.3867 -2.414,-7.9609 -1.067,-2.5586 -2.403,-4.9922 -4.004,-7.2774 -1.594,-2.2851 -3.442,-4.3945 -5.535,-6.3164 -2.098,-1.9257 -4.454,-3.6562 -7.067,-5.1914 -2.59,-1.5156 -5.422,-2.832 -8.484,-3.9453 -3.039,-1.1094 -6.352,-1.9453 -9.907,-2.5 -3.57,-0.5586 -7.332,-0.8359 -11.257,-0.8359 -3.227,0 -6.34,0.1758 -9.309,0.5234 -2.98,0.3477 -5.828,0.875 -8.519,1.5742 -2.754,0.7149 -5.293,1.6563 -7.614,2.8086 -2.343,1.1641 -4.515,2.5782 -6.511,4.2227 l -0.024,0.0117 c -1.988,1.6641 -3.766,3.5859 -5.316,5.7617 -1.535,2.1563 -2.84,4.543 -3.895,7.1485 -1.051,2.5976 -1.84,5.4961 -2.355,8.6836 -0.516,3.1523 -0.774,6.5429 -0.774,10.1796 v 71.4802 2.832 h 2.836 20.84 2.836 v -2.832 -73.5973 c 0,-2.6094 0.113,-4.9141 0.328,-6.8985 0.215,-1.9883 0.539,-3.7031 0.949,-5.1211 0.414,-1.3633 0.93,-2.5781 1.532,-3.6211 0.55,-0.957 1.179,-1.7578 1.878,-2.3789 l 0.024,-0.0234 c 0.723,-0.6602 1.551,-1.2188 2.473,-1.6641 0.937,-0.4492 1.976,-0.7851 3.101,-1 v 0 c 1.254,-0.2304 2.652,-0.4101 4.18,-0.5273 1.492,-0.1172 3.109,-0.1758 4.859,-0.1758 2.117,0 4.059,0.1133 5.828,0.3281 1.805,0.2188 3.418,0.543 4.828,0.9532 1.411,0.4257 2.723,0.9296 3.926,1.496 1.156,0.5469 2.196,1.1563 3.094,1.8204 l 0.047,0.0312 c 0.75,0.5313 1.363,1.2227 1.832,2.0625 l -0.004,0.0039 c 0.523,0.9453 0.895,2.0899 1.102,3.4219 v 0.0234 c 0.257,1.5664 0.457,3.3438 0.593,5.3086 0.129,1.9219 0.2,4.0703 0.2,6.4375 v 73.1208 2.832 h 2.835 20.84 2.832 v -2.832 -69.9606" style="fill:#231f20;fill-opacity:1;fill-rule:nonzero;stroke:none" id="path20" inkscape:connector-curvature="0"/><path d="m 269.777,100.129 36.895,-59.7423 2.668,-4.3164 h -30.192 l -0.824,1.3828 -24.453,40.961 L 216.566,23.6445 1036.8,24.2227 1034.97,5.49609 470.797,5.09375 C 295.422,4.35156 289.918,4.32813 203.52,4.48828 l -0.004,-0.0039 h -1.493 -13.679 -5.449 l 3.136,4.46093 58.735,83.51169 -32.317,53.012 -2.625,4.308 h 5.043 23.438 1.621 l 0.828,-1.414 19.691,-33.812 30.032,47.457 -213.5551,-1.492 V 38.9063 36.0703 h -2.836 -25.7734 -2.8359 v 2.836 121.6287 l -41.63285,0.555 -2.78516,0.035 1.84375,19.273 299.46066,0.391 0.004,0.008 h 1.551 0.336 2.836 10.387 5.246 l -2.875,-4.387 -50.071,-76.281" style="fill:#231f20;fill-opacity:1;fill-rule:nonzero;stroke:none" id="path22" inkscape:connector-curvature="0"/><path d="m 709.113,62.4453 c 0,-4.0156 -0.508,-7.6367 -1.527,-10.8789 -1,-3.2422 -2.523,-6.0156 -4.578,-8.3125 -2.039,-2.3008 -4.586,-4.0547 -7.637,-5.2969 -3.055,-1.2265 -6.617,-1.8515 -10.652,-1.8515 -4.168,0 -7.731,0.625 -10.727,1.8867 -2.98,1.2461 -5.414,3.0156 -7.316,5.3164 -1.887,2.3008 -3.281,5.0742 -4.184,8.3164 -0.906,3.2422 -1.359,6.8438 -1.359,10.8203 0,3.9766 0.453,7.5586 1.379,10.7461 0.922,3.1836 2.355,5.8984 4.277,8.1445 1.941,2.2422 4.395,3.9571 7.371,5.1641 2.981,1.1875 6.524,1.793 10.598,1.793 4.09,0 7.652,-0.6055 10.687,-1.793 3.035,-1.207 5.563,-2.9219 7.598,-5.1641 2.02,-2.2461 3.543,-4.9609 4.543,-8.1445 1.019,-3.1875 1.527,-6.7695 1.527,-10.7461 z M 636.34,36.1055 c -3.805,0 -7.031,0.6406 -9.672,1.9414 -2.656,1.2851 -4.805,3.0937 -6.465,5.414 -1.656,2.3164 -2.867,5.1055 -3.621,8.3516 -0.754,3.2617 -1.129,6.8828 -1.129,10.8594 0,3.2031 0.375,6.0703 1.113,8.5781 0.735,2.5273 1.731,4.7305 2.997,6.6367 1.281,1.8867 2.753,3.5078 4.429,4.8242 1.68,1.3204 3.43,2.4141 5.301,3.2422 1.863,0.8125 3.77,1.4141 5.711,1.793 1.961,0.3555 3.848,0.5469 5.695,0.5469 1.129,0 2.336,-0.0391 3.617,-0.1133 1.262,-0.0781 2.508,-0.1719 3.696,-0.3047 1.207,-0.1289 2.32,-0.2812 3.336,-0.4336 1.039,-0.168 1.886,-0.3359 2.547,-0.4687 l -1.829,-7.2422 c -0.66,0.207 -1.586,0.457 -2.812,0.6836 -1.207,0.2422 -2.504,0.4687 -3.883,0.6953 -1.394,0.2265 -2.75,0.3945 -4.09,0.5469 -1.355,0.1523 -2.468,0.2265 -3.355,0.2265 -0.981,0 -1.867,-0.0195 -2.641,-0.0742 -0.773,-0.0586 -1.488,-0.1719 -2.129,-0.3398 -0.64,-0.1719 -1.246,-0.3946 -1.828,-0.6993 -0.566,-0.2851 -1.152,-0.6601 -1.734,-1.0937 -1.512,-1.0742 -2.528,-3.0899 -3.074,-6.0703 -0.528,-2.9766 -0.793,-6.711 -0.793,-11.1602 0,-6.8437 1.019,-12.0273 3.039,-15.5351 2.035,-3.5274 5.277,-5.2774 9.781,-5.2774 2.527,0 5.183,0.207 7.957,0.6406 2.75,0.4141 5.262,1.0157 7.504,1.7891 v -4.2578 c -1.246,-0.5859 -2.602,-1.1172 -4.055,-1.5664 -1.453,-0.4688 -2.961,-0.8477 -4.488,-1.1719 -1.524,-0.2969 -3.07,-0.543 -4.637,-0.7109 -1.566,-0.1719 -3.051,-0.25 -4.488,-0.25 z m 132.652,0.7187 -3.922,38.836 -17.457,-38.836 h -2.98 l -18.231,38.836 -3.297,-38.836 h -5.695 l 4.922,51.2617 h 9.215 L 748.5,52.0195 764.637,88.0859 h 8.992 l 5.355,-51.2617 z m 31.278,23.6055 1.316,0.2617 c 1.281,0.3008 2.508,0.6797 3.641,1.1328 1.148,0.4688 2.128,1.1485 2.961,2.0547 0.824,0.9024 1.488,2.0899 1.96,3.5625 0.469,1.4727 0.715,3.3359 0.715,5.6367 0,3.4102 -0.773,5.8985 -2.32,7.4649 -1.543,1.5664 -3.582,2.3593 -6.09,2.3593 -0.621,0 -1.262,-0.0195 -1.902,-0.0585 -0.641,-0.0391 -1.321,-0.1133 -2.016,-0.2266 v -45.793 h -9.824 v 50.6563 c 1.035,0.0742 2.148,0.1523 3.375,0.207 1.207,0.0781 2.469,0.1523 3.769,0.207 1.321,0.0586 2.622,0.0938 3.922,0.1133 1.321,0.0235 2.582,0.0235 3.789,0.0235 2.977,0 5.582,-0.3438 7.77,-1.0196 2.184,-0.6797 3.996,-1.6406 5.426,-2.9062 1.453,-1.2422 2.511,-2.7696 3.207,-4.543 0.699,-1.7891 1.054,-3.8086 1.054,-6.0508 0,-2.3554 -0.394,-4.5625 -1.168,-6.6367 -0.773,-2.0547 -1.96,-3.8633 -3.546,-5.4102 -1.602,-1.5468 -3.657,-2.75 -6.145,-3.6406 -2.469,-0.8867 -5.43,-1.3203 -8.859,-1.3203 h -0.434 z m 70.187,-5.6563 c 0,-2.5468 -0.473,-4.9414 -1.414,-7.2031 -0.945,-2.2617 -2.32,-4.2422 -4.168,-5.9375 -1.848,-1.6992 -4.129,-3.0351 -6.883,-4.0351 -2.73,-1 -5.918,-1.4922 -9.515,-1.4922 -2.981,0 -5.676,0.3203 -8.071,0.9453 -2.398,0.6211 -4.433,1.6367 -6.148,3.0547 -1.715,1.4336 -3.035,3.2773 -3.957,5.5586 -0.926,2.2851 -1.375,5.0742 -1.375,8.3906 v 33.6914 h 9.82 V 53.0547 c 0,-2.5234 0.227,-4.5391 0.66,-6.0313 0.449,-1.4882 1.114,-2.6601 2,-3.4492 0.883,-0.8125 1.977,-1.3398 3.278,-1.5859 1.32,-0.2422 2.808,-0.3555 4.504,-0.3555 2.113,0 3.906,0.2266 5.394,0.6602 1.488,0.4492 2.734,1.0351 3.731,1.7695 1.039,0.7344 1.679,1.8867 1.925,3.4727 0.266,1.582 0.395,3.5039 0.395,5.7461 v 34.4648 h 9.824 z m 21.039,-17.9492 v 45.5117 l -14.855,0.2266 0.488,5.1836 h 39.156 l -0.488,-5.0156 -14.422,-0.3946 V 36.8242 Z m 60.254,0 h -29.09 v 50.9219 h 28.11 L 950.258,82.5625 932.48,82.3359 V 65.7617 l 16.743,-0.2265 -0.453,-4.6914 -16.29,-0.379 V 42.2539 l 19.719,-0.3945 z m 81.88,14.9141 c 0,-1.8477 -0.44,-3.6992 -1.32,-5.5469 -0.89,-1.8633 -2.17,-3.543 -3.83,-5.0312 -1.64,-1.4883 -3.64,-2.7149 -6,-3.6368 -2.33,-0.9414 -4.95,-1.4179 -7.86,-1.4179 -1.54,0 -2.98,0.0976 -4.32,0.2851 -1.31,0.1719 -2.56,0.4336 -3.73,0.7344 -1.15,0.3203 -2.26,0.6953 -3.34,1.1719 -1.07,0.4492 -2.12,0.9609 -3.2,1.5078 l 2.43,7.5742 c 0.7,-0.4844 1.63,-0.9961 2.79,-1.543 1.17,-0.5625 2.41,-1.0742 3.79,-1.5468 1.36,-0.4883 2.74,-0.8868 4.11,-1.1875 1.38,-0.3203 2.64,-0.4727 3.79,-0.4727 1.28,0 2.34,0.0781 3.17,0.2461 0.83,0.1719 1.58,0.3984 2.24,0.6992 0.74,0.2813 1.32,1.0156 1.78,2.2031 0.43,1.168 0.66,2.6954 0.66,4.5821 0,1.7344 -0.57,3.1133 -1.72,4.1484 -1.13,1.0195 -2.57,1.9219 -4.28,2.6758 -1.72,0.7578 -3.56,1.5117 -5.54,2.2656 -2,0.7539 -3.85,1.7344 -5.57,2.9219 -1.71,1.1875 -3.14,2.7305 -4.27,4.6172 -1.16,1.8672 -1.72,4.3359 -1.72,7.3906 0,1.4688 0.4,3.0352 1.17,4.6563 0.77,1.6406 1.88,3.1484 3.35,4.5429 1.47,1.3789 3.31,2.5078 5.47,3.3946 2.19,0.8867 4.66,1.3203 7.41,1.3203 2.21,0 4.34,-0.1133 6.37,-0.3399 2.06,-0.207 4.04,-0.5117 5.94,-0.8672 l -1.54,-7.582 c -0.89,0.3438 -1.89,0.6445 -3,0.9453 -1.13,0.3008 -2.26,0.5469 -3.43,0.7735 -1.17,0.2265 -2.3,0.3945 -3.4,0.5273 -1.11,0.1328 -2.09,0.1875 -2.92,0.1875 -0.96,0 -1.85,-0.0352 -2.66,-0.1289 -0.81,-0.0938 -1.54,-0.3398 -2.2,-0.7539 -0.62,-0.3633 -1.08,-1.0039 -1.36,-1.9063 -0.28,-0.9062 -0.41,-1.9804 -0.41,-3.2226 0,-1.3008 0.34,-2.3594 1,-3.207 0.65,-0.8477 1.52,-1.6016 2.61,-2.2422 1.1,-0.6407 2.32,-1.2266 3.7,-1.7539 1.39,-0.5469 2.81,-1.1133 4.26,-1.7149 1.45,-0.6055 2.87,-1.3203 4.26,-2.1133 1.38,-0.789 2.6,-1.75 3.69,-2.9218 1.1,-1.1485 1.97,-2.5625 2.63,-4.2227 0.66,-1.6602 1,-3.6562 1,-6.0117 z m -60.278,6.0664 h -3.317 V 36.8242 h -9.82 v 50.8281 c 1.996,0.1485 4.238,0.2618 6.746,0.379 2.488,0.1132 4.883,0.1679 7.184,0.1679 5.843,0 10.293,-1.1328 13.328,-3.375 3.035,-2.2422 4.562,-5.75 4.562,-10.539 0,-2.1485 -0.262,-3.9961 -0.773,-5.5782 -0.508,-1.5859 -1.203,-2.9648 -2.051,-4.1523 -0.852,-1.168 -1.813,-2.1641 -2.926,-2.9766 -1.113,-0.8086 -2.262,-1.4883 -3.488,-2.0351 1.453,-2.6211 2.808,-5.0899 4.129,-7.4102 1.301,-2.3203 2.621,-4.3359 3.922,-6.0703 1.3,-1.7344 2.64,-3.1094 3.976,-4.1094 1.34,-1.0195 2.793,-1.5273 4.336,-1.5273 h 0.34 v -3.2617 c -0.789,-0.2618 -1.676,-0.4727 -2.695,-0.6407 -1,-0.1679 -2.129,-0.2461 -3.391,-0.2461 -1.812,0 -3.379,0.168 -4.715,0.4922 -1.359,0.3399 -2.66,1.0508 -3.941,2.168 -1.262,1.0938 -2.582,2.7148 -3.938,4.8438 -1.379,2.1289 -2.961,5.0351 -4.754,8.6718 z m -1.543,5.0351 c 1.355,0 2.675,0.1719 3.957,0.5274 1.261,0.3398 2.281,0.7734 3.019,1.3008 0.356,0.2461 0.731,0.5859 1.09,0.9804 0.375,0.4141 0.719,0.9454 1,1.6016 0.301,0.6836 0.547,1.5273 0.719,2.5469 0.187,1.039 0.281,2.3203 0.281,3.8828 0,1.7187 -0.187,3.1875 -0.586,4.3594 -0.375,1.1875 -0.961,2.125 -1.734,2.8437 -0.77,0.7188 -1.735,1.2266 -2.883,1.5469 -1.152,0.3203 -2.453,0.4726 -3.922,0.4726 -0.414,0 -0.867,0 -1.359,-0.0195 -0.508,-0.0195 -0.942,-0.0781 -1.356,-0.1523 V 62.8398 Z M 698.727,62.4453 c 0,3.0899 -0.266,5.8828 -0.793,8.3516 -0.547,2.4687 -1.375,4.5429 -2.528,6.2578 -1.129,1.7148 -2.582,3.0195 -4.355,3.9219 -1.77,0.9062 -3.863,1.3593 -6.293,1.3593 -2.133,0 -4.11,-0.2265 -5.961,-0.6992 -1.828,-0.4531 -3.277,-1.1094 -4.352,-1.9609 -1.078,-0.8477 -1.847,-2.6953 -2.34,-5.5781 -0.511,-2.8672 -0.753,-6.75 -0.753,-11.6524 0,-3.0547 0.226,-5.8281 0.66,-8.3164 0.453,-2.4844 1.187,-4.6172 2.207,-6.4258 1.035,-1.8125 2.41,-3.207 4.109,-4.1679 1.715,-0.9805 3.844,-1.4688 6.371,-1.4688 2.621,0 4.77,0.2422 6.469,0.7149 1.691,0.4726 3.129,1.1328 4.297,1.9414 0.566,0.3593 1.035,1.0937 1.433,2.207 0.415,1.0937 0.754,2.4492 1.036,4.0547 0.265,1.6015 0.472,3.3906 0.601,5.3554 0.133,1.9766 0.192,4.0118 0.192,6.1055" style="fill:#ed1c24;fill-opacity:1;fill-rule:nonzero;stroke:none" id="path24" inkscape:connector-curvature="0"/></g></g></svg>