<?xml version="1.0" encoding="UTF-8" standalone="no"?>
<svg
   xmlns:osb="http://www.openswatchbook.org/uri/2009/osb"
   xmlns:dc="http://purl.org/dc/elements/1.1/"
   xmlns:cc="http://creativecommons.org/ns#"
   xmlns:rdf="http://www.w3.org/1999/02/22-rdf-syntax-ns#"
   xmlns:svg="http://www.w3.org/2000/svg"
   xmlns="http://www.w3.org/2000/svg"
   xmlns:sodipodi="http://sodipodi.sourceforge.net/DTD/sodipodi-0.dtd"
   xmlns:inkscape="http://www.inkscape.org/namespaces/inkscape"
   height="29.905439"
   width="63.139"
   viewBox="0 0 63.138999 29.905441"
   version="1.1"
   id="Icon"
   sodipodi:docname="tcc_logo.svg"
   inkscape:version="0.92.3 (2405546, 2018-03-11)">
  <sodipodi:namedview
     pagecolor="#ffffff"
     bordercolor="#666666"
     borderopacity="1"
     objecttolerance="10"
     gridtolerance="10"
     guidetolerance="10"
     inkscape:pageopacity="0"
     inkscape:pageshadow="2"
     inkscape:window-width="1920"
     inkscape:window-height="1052"
     id="namedview9"
     showgrid="false"
     inkscape:zoom="0.4147595"
     inkscape:cx="-516.89485"
     inkscape:cy="175.47709"
     inkscape:window-x="3840"
     inkscape:window-y="0"
     inkscape:window-maximized="1"
     inkscape:current-layer="Icon"
     showguides="true"
     inkscape:guide-bbox="true"
     inkscape:snap-global="false">
    <sodipodi:guide
       position="-682.57299,107.89997"
       orientation="0,1"
       id="guide1178"
       inkscape:locked="false" />
    <sodipodi:guide
       position="98.828673,-27.030872"
       orientation="0,1"
       id="guide1180"
       inkscape:locked="false" />
    <sodipodi:guide
       position="-632.29912,35.342858"
       orientation="1,0"
       id="guide1190"
       inkscape:locked="false" />
    <sodipodi:guide
       position="-727.51741,17.687648"
       orientation="1,0"
       id="guide1337"
       inkscape:locked="false" />
    <sodipodi:guide
       position="-791.87587,29.408908"
       orientation="1,0"
       id="guide933"
       inkscape:locked="false" />
    <sodipodi:guide
       position="-723.04216,7.8435814e-05"
       orientation="0,1"
       id="guide935"
       inkscape:locked="false" />
    <sodipodi:guide
       position="-1013.2616,29.025718"
       orientation="0,1"
       id="guide1151"
       inkscape:locked="false" />
    <sodipodi:guide
       position="-1106.3879,73.02712"
       orientation="1,0"
       id="guide1153"
       inkscape:locked="false" />
    <sodipodi:guide
       position="188.63974,40.478138"
       orientation="0,1"
       id="guide932"
       inkscape:locked="false" />
    <sodipodi:guide
       position="50.537973,51.358978"
       orientation="1,0"
       id="guide934"
       inkscape:locked="false" />
    <sodipodi:guide
       position="-860.49647,31.113768"
       orientation="1,0"
       id="guide972"
       inkscape:locked="false" />
  </sodipodi:namedview>
  <defs
     id="defs2">
    <linearGradient
       id="linearGradient12666"
       osb:paint="solid">
      <stop
         style="stop-color:#e27b00;stop-opacity:1;"
         offset="0"
         id="stop12664" />
    </linearGradient>
  </defs>
  <metadata
     id="metadata5">
    <rdf:RDF>
      <cc:Work
         rdf:about="">
        <dc:format>image/svg+xml</dc:format>
        <dc:type
           rdf:resource="http://purl.org/dc/dcmitype/StillImage" />
        <dc:title></dc:title>
      </cc:Work>
    </rdf:RDF>
  </metadata>
  <path
     inkscape:connector-curvature="0"
     id="path968"
     d="m 47.685547,4.8964844 c -0.173065,-0.00176 -0.346722,-7.38e-5 -0.519531,0.00391 -4.608274,0.105957 -9.09863,2.2418438 -12.070313,6.1269536 -4.300025,5.621748 -4.233164,13.357721 -0.08789,18.878906 h 3.058594 C 33.371708,25.179642 32.885247,17.732768 36.935547,12.4375 40.995167,7.1300509 48.335773,5.6513765 54.132812,8.9746094 A 1.1591187,1.1591187 0 1 0 55.285156,6.9648438 C 52.898192,5.5964827 50.281509,4.9227863 47.685547,4.8964844 Z M 23.087891,10.152344 c -2.013058,0.01395 -4.028977,0.493843 -5.88086,1.449218 -4.232873,2.183714 -6.940061,6.507902 -7.052734,11.269532 -0.0596,2.518767 0.613206,4.951279 1.869141,7.035156 h 2.820312 c -1.565639,-1.940696 -2.432071,-4.403587 -2.371094,-6.980469 0.09272,-3.918249 2.313731,-7.466737 5.796875,-9.263672 3.483147,-1.796934 7.663421,-1.550914 10.910157,0.644532 a 1.1591187,1.1591187 0 1 0 1.298828,-1.919922 c -1.972788,-1.334001 -4.233709,-2.076957 -6.529297,-2.212891 -0.286948,-0.01699 -0.57375,-0.02348 -0.861328,-0.02148 z"
     style="color:#000000;font-style:normal;font-variant:normal;font-weight:normal;font-stretch:normal;font-size:medium;line-height:normal;font-family:sans-serif;font-variant-ligatures:normal;font-variant-position:normal;font-variant-caps:normal;font-variant-numeric:normal;font-variant-alternates:normal;font-feature-settings:normal;text-indent:0;text-align:start;text-decoration:none;text-decoration-line:none;text-decoration-style:solid;text-decoration-color:#000000;letter-spacing:normal;word-spacing:normal;text-transform:none;writing-mode:lr-tb;direction:ltr;text-orientation:mixed;dominant-baseline:auto;baseline-shift:baseline;text-anchor:start;white-space:normal;shape-padding:0;clip-rule:nonzero;display:inline;overflow:visible;visibility:visible;opacity:1;isolation:auto;mix-blend-mode:normal;color-interpolation:sRGB;color-interpolation-filters:linearRGB;solid-color:#000000;solid-opacity:1;vector-effect:none;fill:#ed1c24;fill-opacity:1;fill-rule:nonzero;stroke:none;stroke-width:10;stroke-linecap:round;stroke-linejoin:miter;stroke-miterlimit:4;stroke-dasharray:none;stroke-dashoffset:0;stroke-opacity:1;color-rendering:auto;image-rendering:auto;shape-rendering:auto;text-rendering:auto;enable-background:accumulate" />
  <path
     style="color:#000000;font-style:normal;font-variant:normal;font-weight:normal;font-stretch:normal;font-size:medium;line-height:normal;font-family:sans-serif;font-variant-ligatures:normal;font-variant-position:normal;font-variant-caps:normal;font-variant-numeric:normal;font-variant-alternates:normal;font-feature-settings:normal;text-indent:0;text-align:start;text-decoration:none;text-decoration-line:none;text-decoration-style:solid;text-decoration-color:#000000;letter-spacing:normal;word-spacing:normal;text-transform:none;writing-mode:lr-tb;direction:ltr;text-orientation:mixed;dominant-baseline:auto;baseline-shift:baseline;text-anchor:start;white-space:normal;shape-padding:0;clip-rule:nonzero;display:inline;overflow:visible;visibility:visible;opacity:1;isolation:auto;mix-blend-mode:normal;color-interpolation:sRGB;color-interpolation-filters:linearRGB;solid-color:#000000;solid-opacity:1;vector-effect:none;fill:#000000;fill-opacity:1;fill-rule:nonzero;stroke:none;stroke-width:10;stroke-linecap:butt;stroke-linejoin:miter;stroke-miterlimit:4;stroke-dasharray:none;stroke-dashoffset:0;stroke-opacity:1;color-rendering:auto;image-rendering:auto;shape-rendering:auto;text-rendering:auto;enable-background:accumulate"
     d="M 23.176886,4.6317245e-7 C 21.430151,4.6317245e-7 20.255596,0.2499554 19.468981,1.0584961 18.682364,1.8670366 18.686847,2.8825034 18.67579,3.5910982 18.664733,4.2996927 18.648535,4.8415884 18.420448,5.307871 18.192358,5.7741536 17.73901,6.301013 16.416186,6.8489823 15.093412,7.3969092 14.40059,7.3448406 13.909391,7.1763102 13.418194,7.0077796 13.023324,6.6360946 12.514061,6.142715 12.004797,5.6493354 11.288909,4.9278331 10.16074,4.912633 9.0325716,4.8974338 8.0249161,5.5517106 6.7892198,6.7874103 5.5535421,8.0231548 4.8992595,9.0307712 4.9144425,10.158931 c 0.015183,1.128161 0.7367177,1.844025 1.230082,2.353319 0.4933597,0.509294 0.8650588,0.904069 1.0335964,1.395331 0.1685375,0.491262 0.2205906,1.18439 -0.3273279,2.507249 -0.5479209,1.322871 -1.0750724,1.776077 -1.5415641,2.00426 -0.4664916,0.228182 -1.0082744,0.244543 -1.7172271,0.255795 -0.7089527,0.01125 -1.725069,0.0075 -2.5335059,0.794551 C 0.25005907,20.256462 6.543768e-6,21.43156 -4.1024849e-7,23.17915 c 0,1.747584 0.25002239024849,2.922707 1.05849631024849,3.709714 0.808474,0.787008 1.8245485,0.782891 2.5335059,0.794098 0.708955,0.01121 1.2512083,0.02765 1.7176791,0.255796 0.4616726,0.225794 0.9825238,0.675117 1.5243599,1.966683 H 9.2923945 C 9.2088258,29.629835 9.1136346,29.348772 8.9922314,29.055656 8.3003786,27.385326 7.3618298,26.361855 6.3278834,25.856175 5.293937,25.350494 4.3003912,25.376028 3.6286749,25.36541 2.9569564,25.354791 2.7472742,25.297925 2.6752144,25.227778 2.6031522,25.157631 2.3180051,24.671373 2.3180051,23.17915 c 6.9e-6,-1.492231 0.28511,-1.978894 0.3572093,-2.049081 0.072097,-0.07019 0.2817443,-0.12697 0.9534605,-0.137631 0.6717163,-0.01066 1.6652853,0.01452 2.6992085,-0.491218 1.0339232,-0.505742 1.9724952,-1.529108 2.664348,-3.199482 C 9.6840865,15.631369 9.7442248,14.244302 9.3707176,13.155587 8.9972128,12.066872 8.2766816,11.382152 7.8092326,10.899607 7.3417813,10.417061 7.233804,10.228348 7.232448,10.127693 7.2310572,10.027037 7.3730188,9.4814723 8.4281216,8.4263128 9.4832313,7.3711954 10.028918,7.2292831 10.129503,7.2306385 c 0.100585,0.00134 0.288942,0.1093166 0.77146,0.5767849 0.482518,0.4674682 1.167292,1.1879548 2.25598,1.5614845 1.088691,0.3735297 2.475855,0.3133944 4.146152,-0.3784867 1.670239,-0.6918825 2.693779,-1.6300817 3.199482,-2.6638955 0.505703,-1.0338135 0.480287,-2.0276009 0.490766,-2.6992087 0.01048,-0.6716078 0.06749,-0.8809255 0.137177,-0.9525554 0.06968,-0.07162 0.555058,-0.3566733 2.045912,-0.3567556 h 4.63e-4 c 1.490821,5.331e-4 1.977713,0.2857774 2.048628,0.3585664 0.07093,0.0728 0.127613,0.2821152 0.13899,0.9534611 0.01138,0.6713456 -0.01263,1.6646738 0.49348,2.6978505 0.506123,1.0331759 1.52907,1.9709519 3.198576,2.6625372 1.670295,0.6918817 3.057916,0.7520159 4.146604,0.3784867 C 33.330098,9.32536 33.450455,9.2760614 33.56672,9.2240326 34.809458,7.6902885 36.266939,6.4096306 37.865897,5.3943435 37.311121,5.0700962 36.770695,4.9049353 36.199378,4.912633 35.071207,4.9278321 34.355326,5.6493354 33.846058,6.142715 33.336792,6.6360949 32.941927,7.0077794 32.450728,7.1763102 31.959528,7.344841 31.266695,7.3969085 29.943932,6.8489823 28.621774,6.3012854 28.168201,5.7743833 27.939671,5.307871 27.711139,4.8413587 27.69453,4.2998564 27.682518,3.5910982 27.670511,2.8823399 27.672644,1.8666782 26.885704,1.0589488 26.098762,0.25121941 24.924115,5.2039181e-4 23.177347,4.6317245e-7 Z M 58.39744,9.4033159 a 0.23180054,0.23180054 0 0 0 -0.167061,0.06791 l -11.48635,10.1752291 0.0027,0.0027 a 1.1590027,1.1590027 0 0 0 -0.05705,0.05161 1.1590027,1.1590027 0 0 0 0,1.638902 1.1590027,1.1590027 0 0 0 1.639356,0 1.1590027,1.1590027 0 0 0 0.05206,-0.05614 l 0.0019,0.0018 10.182475,-11.4931419 -4.64e-4,-4.636e-4 a 0.23180054,0.23180054 0 0 0 -0.0068,-0.3205368 0.23180054,0.23180054 0 0 0 -0.160721,-0.06791 z m 1.62849,2.7648551 a 1.1591188,1.1591188 0 0 0 -0.95799,1.748012 c 2.976191,5.204433 2.110615,11.738234 -2.111557,15.989258 h 3.055059 c 3.699414,-4.928194 4.195184,-11.672435 1.068455,-17.140112 A 1.1591188,1.1591188 0 0 0 60.02593,12.168171 Z m -31.305752,5.475836 c -7.40877,0 -4.481303,0.01797 -11.890191,0.02762 l -0.132652,1.293013 c 6.677803,0.01488 3.11135,-0.04537 9.783613,-0.01358 l -2.088468,3.297273 -1.425663,-2.448394 h -2.090732 l 2.42802,3.98362 -4.300083,6.113739 c 7.409006,0 4.504621,-0.03221 11.913734,-0.06293 0.04239,-0.433846 0.08571,-0.865969 0.128123,-1.299804 l -9.702121,0.0326 2.592817,-3.807052 1.755708,2.941875 h 2.097976 l -2.749008,-4.451296 z"
     id="path970"
     inkscape:connector-curvature="0" />
</svg>
