<?xml version="1.0" encoding="UTF-8" standalone="no"?>
<svg
   xmlns:osb="http://www.openswatchbook.org/uri/2009/osb"
   xmlns:dc="http://purl.org/dc/elements/1.1/"
   xmlns:cc="http://creativecommons.org/ns#"
   xmlns:rdf="http://www.w3.org/1999/02/22-rdf-syntax-ns#"
   xmlns:svg="http://www.w3.org/2000/svg"
   xmlns="http://www.w3.org/2000/svg"
   id="Icon"
   version="1.1"
   viewBox="0 0 63.139423 29.818106"
   height="29.818106mm"
   width="63.139423mm">
  <defs
     id="defs2">
    <linearGradient
       osb:paint="solid"
       id="linearGradient12666">
      <stop
         id="stop12664"
         offset="0"
         style="stop-color:#e27b00;stop-opacity:1;" />
    </linearGradient>
  </defs>
  <metadata
     id="metadata5">
    <rdf:RDF>
      <cc:Work
         rdf:about="">
        <dc:format>image/svg+xml</dc:format>
        <dc:type
           rdf:resource="http://purl.org/dc/dcmitype/StillImage" />
        <dc:title></dc:title>
      </cc:Work>
    </rdf:RDF>
  </metadata>
  <path
     style="color:#000000;font-style:normal;font-variant:normal;font-weight:normal;font-stretch:normal;font-size:medium;line-height:normal;font-family:sans-serif;font-variant-ligatures:normal;font-variant-position:normal;font-variant-caps:normal;font-variant-numeric:normal;font-variant-alternates:normal;font-feature-settings:normal;text-indent:0;text-align:start;text-decoration:none;text-decoration-line:none;text-decoration-style:solid;text-decoration-color:#000000;letter-spacing:normal;word-spacing:normal;text-transform:none;writing-mode:lr-tb;direction:ltr;text-orientation:mixed;dominant-baseline:auto;baseline-shift:baseline;text-anchor:start;white-space:normal;shape-padding:0;clip-rule:nonzero;display:inline;overflow:visible;visibility:visible;opacity:1;isolation:auto;mix-blend-mode:normal;color-interpolation:sRGB;color-interpolation-filters:linearRGB;solid-color:#000000;solid-opacity:1;vector-effect:none;fill:var(--icon-main);fill-opacity:1;fill-rule:nonzero;stroke:none;stroke-width:2.79087043;stroke-linecap:butt;stroke-linejoin:miter;stroke-miterlimit:4;stroke-dasharray:none;stroke-dashoffset:0;stroke-opacity:1;color-rendering:auto;image-rendering:auto;shape-rendering:auto;text-rendering:auto;enable-background:accumulate"
     d="M 22.769669,0 C 16.072324,0 22.42727,4.4268834 16.236735,6.9913044 10.046173,9.5555931 11.407903,1.9295195 6.6698769,6.66781 1.9318248,11.406021 9.5575809,10.044384 6.9933716,16.235184 4.4291623,22.42617 0,16.070741 0,22.771736 c 0,6.700812 4.4291623,0.345754 6.9933716,6.536551 0.072284,0.174519 0.1341181,0.341048 0.190686,0.503846 H 9.8138712 C 8.6747606,27.720179 8.027417,25.321632 8.027417,22.771736 c 0,-8.144192 6.601575,-14.7463952 14.747937,-14.7438023 3.861118,0 7.372488,1.4855724 9.999906,3.9129393 C 34.258858,9.6778917 36.233089,7.7616769 38.548034,6.3536173 34.202147,2.2962055 35.350645,9.4939981 29.308806,6.9913044 23.121179,4.4281005 29.467013,0.00201083 22.769669,0 Z m 37.847819,13.392464 -1.902727,2.208134 c 1.03768,1.8208 1.632977,3.929235 1.632977,6.181535 0,3.0663 -1.099432,5.867402 -2.924371,8.036202 h 3.41943 c 1.45348,-2.3363 2.296501,-5.089202 2.296501,-8.036202 0,-3.0965 -0.929841,-5.979969 -2.52181,-8.389669 z m -33.772099,3.919657 c -6.268909,0 -3.792381,0.01274 -10.061401,0.02274 l -0.112138,1.094507 c 5.6504,0.012 2.631811,-0.03992 8.277531,-0.01292 l -1.765783,2.790527 -1.206645,-2.071708 h -1.770435 l 2.054655,3.370854 -3.63802,5.17281 c 6.269109,0 3.812344,-0.02671 10.081553,-0.05271 0.03585,-0.367099 0.0721,-0.734124 0.108006,-1.101225 l -8.209319,0.02791 2.193148,-3.220991 1.486731,2.490287 h 1.775085 l -2.325956,-3.766695 z"
     id="icon-maincolor" />
  <path
     style="opacity:1;fill:var(--icon-detail);fill-opacity:1;stroke:none;stroke-width:0.37589386;stroke-miterlimit:4;stroke-dasharray:none;stroke-opacity:1"
     d="m 47.873562,6.5153645 c -8.414668,0 -15.266252,6.8515515 -15.266252,15.2662515 0,2.9469 0.843021,5.700419 2.296502,8.036719 h 3.41943 c -1.824961,-2.1688 -2.924368,-4.970519 -2.924368,-8.036719 0,-6.9064 5.56832,-12.474174 12.474688,-12.474174 2.249112,0 4.354645,0.5934244 6.173785,1.628324 L 56.25548,9.0330403 C 53.84733,7.4439403 50.967044,6.5153645 47.873562,6.5153645 Z M 23.100915,10.177157 c -7.09241,0 -12.867431,5.775031 -12.867431,12.867431 0,2.4838 0.710709,4.804546 1.935799,6.773747 h 2.881995 c -1.538191,-1.828001 -2.464449,-4.189347 -2.464449,-6.773747 0,-5.8211 4.692966,-10.514087 10.514086,-10.514087 1.89569,0 3.670526,0.499809 5.203818,1.372009 l 1.861383,-1.603519 c -2.029729,-1.3395 -4.457821,-2.121834 -7.065201,-2.121834 z m 35.3689,0.724503 a 0.27908699,0.27908699 0 0 0 -0.20102,0.08165 h -5.29e-4 l -11.249959,9.690364 a 1.3954351,1.3954351 0 0 0 -0.138493,0.119373 1.3954351,1.3954351 0 0 0 0,1.973523 1.3954351,1.3954351 0 0 0 1.973524,0 1.3954351,1.3954351 0 0 0 0.119372,-0.138493 l 9.690365,-11.249959 a 0.27908699,0.27908699 0 0 0 0,-0.394808 0.27908699,0.27908699 0 0 0 -0.193271,-0.08165 z"
     id="icon-detailcolor" />
</svg>
