<?xml version="1.0" encoding="UTF-8" standalone="no"?>
<svg
   xmlns:dc="http://purl.org/dc/elements/1.1/"
   xmlns:cc="http://creativecommons.org/ns#"
   xmlns:rdf="http://www.w3.org/1999/02/22-rdf-syntax-ns#"
   xmlns:svg="http://www.w3.org/2000/svg"
   xmlns="http://www.w3.org/2000/svg"
   xmlns:sodipodi="http://sodipodi.sourceforge.net/DTD/sodipodi-0.dtd"
   xmlns:inkscape="http://www.inkscape.org/namespaces/inkscape"
   id="Icon"
   version="1.1"
   viewBox="0 0 63.138671 29.748047"
   width="63.138672"
   height="29.748047"
   sodipodi:docname="tcc_logo.svg"
   inkscape:version="0.92.3 (2405546, 2018-03-11)">
  <metadata
     id="metadata9">
    <rdf:RDF>
      <cc:Work
         rdf:about="">
        <dc:format>image/svg+xml</dc:format>
        <dc:type
           rdf:resource="http://purl.org/dc/dcmitype/StillImage" />
      </cc:Work>
    </rdf:RDF>
  </metadata>
  <defs
     id="defs7" />
  <sodipodi:namedview
     pagecolor="#ffffff"
     bordercolor="#666666"
     borderopacity="1"
     objecttolerance="10"
     gridtolerance="10"
     guidetolerance="10"
     inkscape:pageopacity="0"
     inkscape:pageshadow="2"
     inkscape:window-width="1920"
     inkscape:window-height="1008"
     id="namedview5"
     showgrid="false"
     inkscape:zoom="13.272373"
     inkscape:cx="24.944457"
     inkscape:cy="14.03937"
     inkscape:window-x="1920"
     inkscape:window-y="0"
     inkscape:window-maximized="1"
     inkscape:current-layer="Icon"
     showguides="true"
     inkscape:guide-bbox="true">
    <sodipodi:guide
       position="30.213135,4.0686018"
       orientation="1,0"
       id="guide821"
       inkscape:locked="false" />
  </sodipodi:namedview>
  <path
     d="m 22.66406,0 c -1.71101,0 -2.88005,0.242728 -3.67187,1.05664 -0.79182,0.814005 -0.78411,1.831716 -0.79492,2.523438 -0.0107,0.691816 -0.0279,1.202367 -0.24024,1.636718 -0.21242,0.43425 -0.63347,0.934052 -1.91015,1.462891 -1.2766,0.528745 -1.92924,0.473327 -2.38672,0.316406 C 13.20267,6.839064 12.82917,6.489403 12.33203,6.007812 11.83484,5.526019 11.11999,4.802294 9.98438,4.787109 8.84878,4.771249 7.8491,5.426179 6.63867,6.636718 5.42826,7.847156 4.77381,8.846824 4.78906,9.982421 c 0.0153,1.135606 0.73908,1.85243 1.22071,2.34961 0.48165,0.497272 0.83132,0.87055 0.98828,1.328125 0.15697,0.457574 0.21238,1.108022 -0.31641,2.384766 -0.52879,1.27655 -1.02842,1.697646 -1.46289,1.910156 -0.43449,0.21252 -0.94655,0.231268 -1.63867,0.242188 -0.69212,0.0119 -1.70965,0.0092 -2.52344,0.796875 C 0.24287,19.786401 0,20.955979 0,22.667969 c 0,1.71179 0.24282,2.881658 1.05664,3.673828 0.81381,0.79217 1.83132,0.785955 2.52344,0.796875 0.69212,0.0109 1.2042,0.02812 1.63867,0.240234 0.43445,0.2125 0.9341,0.633517 1.46289,1.910156 0.0676,0.163081 0.1263,0.315365 0.17578,0.458985 H 9.36523 C 9.26753,29.309237 9.12111,28.847088 8.91992,28.361328 8.24069,26.721508 7.31073,25.705555 6.2832,25.203125 5.25566,24.700585 4.27232,24.725174 3.61914,24.714844 c -0.65319,-0.0109 -0.82886,-0.0662 -0.87305,-0.109375 -0.0442,-0.0427 -0.32421,-0.49262 -0.32421,-1.9375 0,-1.44518 0.28001,-1.89452 0.32421,-1.9375 0.0443,-0.0427 0.21983,-0.100998 0.87305,-0.111328 0.6532,-0.0109 1.63654,0.01406 2.66406,-0.488282 1.02751,-0.50254 1.95749,-1.518273 2.63672,-3.158203 C 9.59915,15.332836 9.66022,13.956896 9.28906,12.875 8.91787,11.792995 8.20259,11.113814 7.74805,10.644531 7.29349,10.175341 7.21178,10.010959 7.21094,9.949218 c 0,-0.0615 0.12085,-0.576008 1.14258,-1.597656 1.02169,-1.02175 1.53598,-1.143371 1.59765,-1.142578 0.0616,0 0.22608,0.08602 0.69531,0.541016 0.4692,0.454596 1.14658,1.167843 2.22852,1.539062 1.08194,0.371227 2.45978,0.30822 4.09961,-0.371094 1.63973,-0.67922 2.65565,-1.607355 3.1582,-2.634765 0.50257,-1.02741 0.47614,-2.012912 0.48633,-2.666016 0.0101,-0.653012 0.0687,-0.827322 0.11133,-0.871094 0.0426,-0.04369 0.48945,-0.324218 1.93359,-0.324218 1.44412,0 1.89372,0.281209 1.9375,0.326171 0.0439,0.04471 0.1022,0.22023 0.11328,0.873047 0.011,0.652809 -0.0147,1.635299 0.48829,2.66211 0.50297,1.026811 1.52111,1.955747 3.16015,2.634765 1.63978,0.679314 3.01574,0.742321 4.09766,0.371094 1.08194,-0.371219 1.7593,-1.084466 2.22851,-1.539062 0.46922,-0.454597 0.63366,-0.540223 0.69532,-0.541016 0.053,0 0.44441,0.09147 1.20117,0.765625 0.6331,-0.524772 1.30262,-1.004216 2.0039,-1.439453 C 37.42758,5.393098 36.45523,4.77222 35.35352,4.787109 34.21789,4.802969 33.50109,5.526019 33.00391,6.007812 32.50674,6.489403 32.13132,6.839064 31.67383,6.996093 31.21636,7.153014 30.56566,7.208432 29.28906,6.679687 28.01305,6.151043 27.59178,5.651341 27.37891,5.216796 27.16605,4.782251 27.14844,4.271995 27.13672,3.580078 27.12512,2.888154 27.13072,1.86965 26.33789,1.05664 25.54581,0.243622 24.37708,4.97e-4 22.66602,0 Z m 37.97071,13.443359 -1.88672,2.191407 c 1.02997,1.80728 1.62109,3.899205 1.62109,6.134765 0,3.04352 -1.09292,5.823873 -2.9043,7.976563 h 3.39454 c 1.44268,-2.31894 2.27929,-5.051453 2.27929,-7.976563 0,-3.07349 -0.92376,-5.934382 -2.5039,-8.326172 z m -32.580486,4.812938 c -6.955856,0 -4.207611,0.01715 -11.16358,0.0262 l -0.124454,1.213954 c 6.269575,0.014 2.92107,-0.04292 9.185447,-0.0131 l -1.960672,3.09602 -1.3384,-2.29909 h -1.962852 l 2.279437,3.740115 -4.037056,5.740084 c 6.956081,0 4.229232,-0.03006 11.185413,-0.05896 0.0398,-0.407319 0.08026,-0.813192 0.120083,-1.220503 l -9.109017,0.03056 2.434454,-3.574179 1.648446,2.761965 h 1.969403 l -2.580741,-4.178972 z"
     id="icon-maincolor"
     inkscape:connector-curvature="0"
     sodipodi:nodetypes="sccccccccccccsccsccccccccccscccccccccccccccscccccccccccccccccsccsccscccccccccccccccccc" />
  <path
     d="m 47.98633,6.617187 c -8.35215,0 -15.15235,6.800171 -15.15235,15.152344 0,2.92501 0.83662,5.657623 2.2793,7.976563 h 3.39453 c -1.8114,-2.15269 -2.90234,-4.933143 -2.90234,-7.976563 0,-6.85508 5.5258,-12.38086 12.38086,-12.38086 2.23239,0 4.32328,0.588027 6.1289,1.615235 L 56.30664,9.115234 C 53.91638,7.537939 51.05682,6.617187 47.98633,6.617187 Z m -24.58789,3.634766 c -7.03971,0 -12.77149,5.731785 -12.77149,12.771485 0,2.46535 0.70394,4.768076 1.91993,6.722656 h 2.86132 c -1.52676,-1.81443 -2.44531,-4.157456 -2.44531,-6.722656 0,-5.777851 4.65768,-10.4375 10.43555,-10.4375 1.8816,0 3.64216,0.497557 5.16406,1.363281 l 1.84766,-1.591797 c -2.01465,-1.329549 -4.42372,-2.105469 -7.01172,-2.105469 z m 35.07812,0.71875 a 0.27701333,0.27701333 0 0 0 -0.17187,0.08008 L 47.14063,20.667969 A 1.3850666,1.3850666 0 0 0 47,20.789062 a 1.3850666,1.3850666 0 0 0 0,1.957032 1.3850666,1.3850666 0 0 0 1.95898,0 1.3850666,1.3850666 0 0 0 0.12696,-0.146485 l 9.60937,-11.15625 a 0.27701333,0.27701333 0 0 0 0,-0.392578 0.27701333,0.27701333 0 0 0 -0.21875,-0.08008 z"
     id="icon-detail"
     style="fill:var(--icon-detail);stroke:none;stroke-opacity:1;stroke-width:4.8;stroke-miterlimit:4;stroke-dasharray:none" />
</svg>
