<?xml version="1.0" encoding="UTF-8" standalone="no"?>
<svg
   xmlns:dc="http://purl.org/dc/elements/1.1/"
   xmlns:cc="http://creativecommons.org/ns#"
   xmlns:rdf="http://www.w3.org/1999/02/22-rdf-syntax-ns#"
   xmlns:svg="http://www.w3.org/2000/svg"
   xmlns="http://www.w3.org/2000/svg"
   xmlns:sodipodi="http://sodipodi.sourceforge.net/DTD/sodipodi-0.dtd"
   xmlns:inkscape="http://www.inkscape.org/namespaces/inkscape"
   xml:space="preserve"
   style="enable-background:new 0 0 512 512;"
   viewBox="0 0 512 512"
   y="0px"
   x="0px"
   id="Icon"
   version="1.1"
   sodipodi:docname="aquaris_logo.svg"
   inkscape:version="0.92.3 (2405546, 2018-03-11)"><sodipodi:namedview
   pagecolor="#ffffff"
   bordercolor="#666666"
   borderopacity="1"
   objecttolerance="10"
   gridtolerance="10"
   guidetolerance="10"
   inkscape:pageopacity="0"
   inkscape:pageshadow="2"
   inkscape:window-width="1920"
   inkscape:window-height="1052"
   id="namedview8"
   showgrid="false"
   inkscape:zoom="0.4609375"
   inkscape:cx="-206.10169"
   inkscape:cy="256"
   inkscape:window-x="1920"
   inkscape:window-y="0"
   inkscape:window-maximized="1"
   inkscape:current-layer="Icon" /><metadata
   id="metadata55"><rdf:RDF><cc:Work
       rdf:about=""><dc:format>image/svg+xml</dc:format><dc:type
         rdf:resource="http://purl.org/dc/dcmitype/StillImage" /><dc:title /></cc:Work></rdf:RDF></metadata><defs
   id="defs53">

</defs>



<path d="m 339.08921,4.65574 c -24.56552,-1.17921 -50.29979,28.839707 -47.17989,32.137477 1.56089,1.64758 8.74527,-2.03591 20.43964,2.2716 11.69584,4.30751 18.56149,9.24465 24.62858,9.53567 12.13731,0.58297 22.44403,-8.7854 23.03258,-20.9209 C 360.592,15.543667 351.22467,5.2391 339.08921,4.65574 Z m -8.497,5.658877 v 0 c 0.77963,-0.0433 1.55924,-0.0433 2.34771,0.0432 a 3.3047687,3.3047687 0 0 1 1.19144,0.27676 3.3047687,3.3047687 0 0 1 -1.6635,6.30106 c -4.17739,-0.30703 -8.24918,1.43224 -10.92942,4.65347 a 3.3047687,3.3047687 0 1 1 -5.076,-4.2228 c 3.53211,-4.25692 8.67037,-6.79616 14.12165,-7.05264 z m -202.73889,33.53943 c -4.15953,-0.16431 -8.38714,1.25231 -11.68914,4.29887 -13.35801,12.33356 -10.88269,41.46385 -7.52528,41.52914 1.67656,0.0432 3.45642,-5.66579 11.79045,-9.59449 8.33567,-3.92869 14.50132,-4.97736 17.80427,-8.02389 6.59469,-6.09303 7.01375,-16.3885 0.92019,-22.9901 -3.04734,-3.30079 -7.14123,-5.05304 -11.30098,-5.21953 z m 0.0489,4.77196 h 0.0653 a 1.9022267,1.9022267 0 1 1 -0.16822,3.80069 c -4.42254,-0.10762 -8.34431,2.73258 -9.58611,6.97652 a 1.8981241,1.8981241 0 1 1 -3.64852,-1.04733 c 1.73101,-5.8699 7.21903,-9.87686 13.3363,-9.72984 z m 154.08957,2.95614 c -20.88447,-0.28974 -41.76685,2.24435 -62.0025,7.559 -17.95382,2.82598 -35.77803,8.11513 -53.02416,16.19955 C 89.72796,111.54654 44.9481,196.08394 57.63927,277.71653 c 0,1.13756 0,2.27625 0.16822,3.41218 -11.50625,-43.66572 -9.95471,-90.93972 6.31749,-134.63862 a 4.3248084,4.3248084 0 1 0 -8.09948,-3.01496 c -22.42591,60.2207 -18.03835,126.89255 9.34097,182.74701 0,0.16822 0.16345,0.33687 0.16345,0.50683 7.56555,26.34538 20.53997,51.47421 39.26543,73.70021 66.98968,79.50978 190.21243,94.68017 270.63665,25.98003 14.13769,-12.07536 25.94626,-26.16032 35.3721,-41.51234 6.78114,-7.1417 13.13408,-14.84606 18.93609,-23.16748 9.46645,-13.57591 16.95926,-28.11624 22.5426,-43.20152 -10.39974,48.32325 -36.67993,93.33037 -76.03993,125.86299 a 3.2436063,3.2436063 0 1 0 4.14713,4.97473 c 54.57145,-45.10662 84.73774,-113.38112 83.3372,-182.04612 5.72029,-65.50656 -21.12852,-132.68163 -78.65824,-172.215073 -21.25694,-14.60559 -45.09467,-23.92072 -69.57012,-28.10845 -3.27014,-1.06383 -6.57228,-2.03374 -9.89029,-2.93928 36.11408,4.33779 71.37629,17.41427 101.91849,39.139073 a 5.4060105,5.4060105 0 1 0 6.26702,-8.809183 C 374.74801,66.613247 328.41609,52.227777 282.05276,51.582147 Z m -23.14229,11.75668 v 0 c 5.59182,0.22487 11.1681,0.6858 16.70629,1.37683 -45.1602,2.44934 -88.92461,22.04049 -119.38513,57.998973 3.36051,-0.85791 6.81172,0.27676 9.14731,2.60976 40.65086,-45.523143 104.66595,-61.775013 162.48501,-46.833433 47.20485,19.30835 87.63789,55.924563 110.10251,104.553773 9.47643,20.51575 15.32338,42.02182 17.85492,63.7423 0.60471,35.40362 -8.67479,71.24778 -28.19274,102.44214 12.45109,-36.33869 13.06511,-76.22441 0.59166,-112.67029 2.23605,15.42587 2.35896,30.61823 0.31222,46.38569 -0.24692,1.94379 -1.02968,3.566 -2.10299,4.87335 0.73549,34.71389 -9.55768,69.71133 -29.71325,98.91167 -16.28085,15.24447 -34.89777,27.21352 -54.84866,35.91261 5.96249,-10.50547 3.93778,-26.95713 1.75665,-26.9429 -1.2552,0.003 -2.50766,4.28316 -8.69078,7.3565 -6.17907,3.06421 -10.77795,3.93588 -13.20145,6.28389 -4.85584,4.66344 -5.00885,12.37818 -0.34639,17.22991 1.06236,1.10535 2.29668,1.93489 3.60614,2.55072 -60.17275,20.01252 -129.5363,11.72227 -184.01397,-26.71486 -2.57416,-1.8158 -5.08788,-3.68239 -7.55895,-5.59973 28.07652,18.8167 61.23281,29.37726 94.96723,29.60339 1.32386,2.62502 3.8003,4.7028 7.26361,5.1521 19.31694,2.50372 37.76356,1.81628 56.84184,-2.1115 4.63175,-0.95289 7.9421,-2.94175 10.95446,-6.58793 5.49015,-6.64355 9.57928,-13.89972 12.39881,-21.71477 -5.16637,3.35265 -10.53979,6.44172 -16.15712,9.18083 -22.97883,11.20177 -47.28135,16.24005 -71.29343,16.08127 -0.99699,-1.98221 -1.29282,-4.25048 -0.81886,-6.44432 23.33351,0.28455 46.96232,-4.57505 69.26611,-15.44784 7.72079,-3.76385 14.98362,-8.20035 21.79928,-13.15046 3.46724,-16.5641 1.59521,-35.47633 -5.59146,-56.71524 a 92.317215,92.317215 0 0 0 16.28394,-15.59984 c 9.98967,15.54635 16.07587,30.42406 18.27729,44.64581 16.28689,-20.38156 27.12516,-44.72883 31.09023,-70.21199 1.98696,1.78678 3.87238,3.61518 5.63332,5.48992 2.07228,-11.07819 2.93015,-22.38488 2.40699,-33.72508 -2.16871,-1.27647 -4.40489,-2.50992 -6.75697,-3.65713 0.80084,10.68527 0.34162,21.3732 -1.29282,31.87537 -8.02728,-7.21833 -17.94277,-13.70516 -29.63713,-19.49347 a 92.317215,92.317215 0 0 0 1.05584,-13.15894 92.317215,92.317215 0 0 0 -0.58185,-9.40889 c 11.43923,2.48457 21.60329,5.86834 30.45624,10.18593 -1.27482,-16.99051 -5.72025,-33.96274 -13.80912,-50.11039 a 3.2484048,3.2484048 0 1 1 5.81066,-2.90542 c 9.14615,18.258 13.8714,37.49823 14.75529,56.67294 10.08921,5.93703 18.23672,13.24591 24.3756,21.98508 3.91651,5.57678 11.55132,5.12708 15.30393,0.58285 -0.63742,-29.65031 -9.3596,-59.07397 -26.89193,-84.52802 6.83853,2.63234 13.23122,6.28898 19.15561,11.00519 3.75831,7.23032 6.92596,14.66859 9.52715,22.2638 -0.50668,-3.47167 -1.064,-6.95188 -1.7908,-10.45622 -0.94799,-4.63241 -2.93966,-7.94262 -6.58767,-10.95451 -0.37579,-0.30746 -0.76489,-0.56238 -1.14081,-0.8615 v 0 C 412.8738,203.2132 405.822,192.61488 397.2711,182.77454 c -3.54179,-4.07602 -7.27754,-7.92429 -11.17432,-11.56281 -0.42335,0 -0.85151,-0.0523 -1.29281,-0.13399 -3.66141,-0.64034 -7.3725,-0.99504 -11.13181,-1.05566 v 0 c -1.82268,-0.0476 -3.66089,0.004 -5.50666,0.13412 7.54266,5.79899 14.57876,12.3755 20.95463,19.71306 3.75325,4.31819 7.17587,8.81061 10.34663,13.41235 -19.0775,-7.33833 -41.70557,-6.5602 -67.88116,2.28886 a 92.317215,92.317215 0 0 0 -15.53225,-16.25019 c 18.28087,-11.73696 35.66495,-18.19801 52.11215,-19.14721 -22.70846,-17.45967 -50.02356,-27.78325 -77.86423,-30.16944 -7.18881,8.0109 -13.6387,17.90292 -19.40915,29.55278 a 92.317215,92.317215 0 0 0 -13.15043,-1.05554 92.317215,92.317215 0 0 0 -9.40897,0.58285 c 2.28064,-10.46496 5.3182,-19.85365 9.13044,-28.15943 -21.48773,3.11394 -42.30701,11.2749 -60.56664,24.81452 1.21113,6.79706 3.10519,13.88691 5.59133,21.24186 a 92.317215,92.317215 0 0 0 -16.28378,15.59992 c -15.8216,-24.60592 -21.9281,-47.56013 -18.20996,-68.84385 0.58839,-3.39031 -0.60471,-6.33002 -2.66031,-8.37848 v -0.0442 c -4.51426,5.0561 -8.75439,10.45725 -12.6523,16.23331 -15.70359,23.27164 -23.93023,50.18262 -24.96644,77.12093 9.21822,11.11896 22.13826,20.79346 38.76721,29.02063 a 92.317215,92.317215 0 0 0 -1.05579,13.11669 92.317215,92.317215 0 0 0 0.57367,9.35825 c -13.2639,-2.88907 -24.84925,-6.96768 -34.63756,-12.32278 5.38047,23.42696 16.50311,45.43218 33.20991,63.43827 6.21075,-1.2088 12.66307,-2.95533 19.3329,-5.21122 a 92.317215,92.317215 0 0 0 15.50682,16.21646 c -4.45493,2.85422 -8.87911,5.50756 -13.2265,7.72809 0.88262,0.61617 1.74542,1.26013 2.65219,1.85814 a 4.3253342,4.3253342 0 1 1 -4.75517,7.22135 c -2.36495,-1.55754 -4.65428,-3.18464 -6.89162,-4.85644 -16.31636,6.77967 -31.83749,8.88222 -46.5632,6.30918 -8.64279,-1.51016 -14.62816,8.39643 -9.27368,15.34648 11.88854,15.42928 25.41393,27.99415 41.6809,38.70822 3.95036,2.60146 7.69007,3.52998 12.39897,3.08285 29.19858,-2.77535 52.23099,-21.36588 69.14794,-55.61727 a 92.317215,92.317215 0 0 0 13.15866,1.05584 92.317215,92.317215 0 0 0 9.38345,-0.57433 c -6.20717,28.60371 -18.12381,49.16297 -35.81088,61.58858 -2.16397,1.51986 -3.32637,3.62037 -3.79248,5.81932 C 165.96711,419.19289 106.46547,382.42743 78.74359,324.31993 76.32155,319.24233 74.21592,314.09624 72.33308,308.91434 57.83439,237.72142 83.19081,159.86156 141.71739,111.1081 175.55425,82.920537 216.65653,67.108457 258.85552,63.328517 Z M 177.1849,344.24602 c 2.96954,-1.23396 5.97114,-2.67835 8.99479,-4.22302 -8.01186,-5.56369 -15.22453,-11.84888 -21.61328,-18.73332 -3.49106,0.67992 -6.90781,1.18215 -10.25344,1.52866 6.69275,7.83278 14.31234,15.03365 22.87193,21.42763 z M 154.31297,322.81839 C 136.79354,302.3157 125.692,277.48599 121.1959,251.3902 c -6.65858,-4.91469 -12.2798,-10.56951 -16.79929,-17.00189 -1.8923,-2.69288 -4.65739,-3.98249 -7.4323,-4.08792 -4.62229,-0.17817 -9.2771,2.9481 -9.98331,8.38695 -2.50377,19.31643 -1.81584,37.76408 2.11164,56.8419 0.94796,4.63223 2.94144,7.93419 6.58785,10.94608 16.09873,13.30441 35.65265,18.72641 58.63248,16.34307 z M 121.1959,251.3902 c 3.14949,2.32396 6.53371,4.47685 10.16065,6.46121 -2.93544,-12.78323 -4.15716,-25.97816 -3.64852,-39.17279 -3.02235,-3.64422 -5.64903,-7.44652 -7.87215,-11.40216 -1.6017,14.73829 -1.12447,29.62011 1.35985,44.11374 z m -1.35983,-44.11374 c 2.6907,-24.75438 11.19488,-49.10926 25.66776,-70.55816 3.32765,-4.93239 6.91991,-9.56941 10.67562,-14.00362 -1.20948,0.31135 -2.41728,0.85151 -3.53868,1.71461 -15.42898,11.88813 -27.98645,25.42301 -38.6997,41.68958 -2.60198,3.95074 -3.53898,7.69047 -3.0915,12.39884 0.98068,10.37137 4.0295,19.93673 8.9865,28.75875 z m 227.72248,156.42081 c -8.30103,10.38897 -18.02736,19.72322 -28.96977,27.66927 -0.70279,3.36262 -1.65321,6.61071 -2.79579,9.78052 12.27128,-7.96468 23.2228,-17.56803 32.63572,-28.38718 -0.1652,-2.99114 -0.38876,-6.01085 -0.86134,-9.06261 z m 0.8695,9.06261 c 0.1946,5.14167 -0.16346,10.19973 -0.96269,15.16064 -1.50363,8.64491 8.39535,14.62959 15.34648,9.27376 15.42881,-11.88853 27.99333,-25.41461 38.70822,-41.68124 2.59904,-3.9507 3.53098,-7.69881 3.08299,-12.40724 -1.58537,-16.73489 -8.38338,-31.4312 -20.31295,-44.1306 -5.06471,27.08448 -17.54014,52.725 -35.86156,73.78468 z M 321.38396,86.844407 c -12.16019,-0.76407 -25.12678,13.917133 -23.60676,15.574233 0.76,0.82899 4.35033,-0.94323 10.10996,1.27565 5.76127,2.21885 9.12621,4.71747 12.12862,4.90687 6.00613,0.37622 11.18673,-4.18815 11.56247,-10.194283 0.37579,-6.00612 -4.18945,-11.185 -10.19429,-11.56252 z m -62.99931,1.6891 v 0 c -11.79734,-0.0653 -23.48124,1.11793 -35.40575,3.5728 -4.63189,0.9527 -7.93389,2.94144 -10.94629,6.58776 -12.54247,15.177253 -18.04601,33.446883 -16.64712,54.738803 20.8028,-14.10264 44.31232,-22.04696 68.32,-24.25715 5.64197,-8.89307 12.42998,-16.17922 20.40573,-21.78231 7.18163,-5.04438 4.41095,-16.278683 -4.29065,-17.407343 -7.24549,-0.9383 -14.36596,-1.43011 -21.44458,-1.46934 z m 60.27963,1.03867 v 0 c 1.27487,0.0782 2.5497,0.36757 3.77566,0.87867 a 1.8045897,1.8045897 0 1 1 -1.39414,3.32761 c -3.41724,-1.42065 -7.33293,-0.3892 -9.59497,2.5423 a 1.8004611,1.8004611 0 1 1 -2.85452,-2.1877 c 2.42857,-3.15636 6.23662,-4.79703 10.05932,-4.56092 z m -179.85027,10.02564 c -1.34022,1.067253 -2.70494,2.106403 -4.02869,3.209543 -29.44372,24.52743 -50.90482,56.03743 -63.65779,90.42331 12.08139,-36.84818 35.62244,-70.05333 67.68648,-93.632853 z m 202.9079,14.240163 c -0.55569,0 -1.12612,0.0523 -1.72284,0.0999 -14.74271,1.40231 -27.90005,6.86754 -39.51087,16.29252 31.40875,4.57519 61.64701,18.59179 85.60924,40.97173 7.93164,0.3719 13.07461,-8.87447 7.99015,-15.47305 -11.88906,-15.42945 -25.42439,-27.99479 -41.69006,-38.70844 -3.45643,-2.27635 -6.75126,-3.27052 -10.67562,-3.18403 z m -41.23371,16.39371 c -7.61783,-1.11012 -15.29973,-1.67224 -22.9816,-1.65537 -4.59417,0 -9.19224,0.24649 -13.76696,0.66716 -2.28984,3.60957 -4.37812,7.49545 -6.28383,11.64684 10.86374,-1.57359 21.88917,-1.85039 32.83806,-0.91201 3.25231,-3.62468 6.64959,-6.8697 10.19433,-9.74671 z m 98.79335,-12.61852 c 10.88696,10.06021 20.22026,21.32219 27.99043,33.46331 -8.22107,-12.18264 -17.61976,-23.38103 -27.99043,-33.46331 z m -203.8619,35.88712 c -5.10457,3.45993 -10.0645,7.24203 -14.80627,11.45312 a 5.4060105,5.4060105 0 1 0 7.17933,8.08268 c 2.94534,-2.61539 5.99272,-5.03011 9.09629,-7.33111 -0.75184,-4.17951 -1.20785,-8.23751 -1.46935,-12.20469 z m 273.71086,9.84834 c -2.13191,-0.0432 -3.48799,0.3027 -3.6995,1.01363 -0.58184,1.8863 5.27328,5.7493 7.01898,16.44431 1.75012,10.69474 0.94959,18.00229 3.32765,22.71987 4.75288,9.4348 16.25044,13.23299 25.68411,8.4798 9.44704,-4.7517 13.24262,-16.24913 8.48828,-25.68441 -7.81623,-15.51751 -31.57301,-22.8145 -40.81121,-22.97316 z m 7.39862,8.60637 v 0 a 2.4096386,2.4096386 0 0 1 1.917,0.85315 c 2.52846,2.43463 4.06284,5.77088 4.06284,9.28228 a 2.4096386,2.4096386 0 0 1 -0.32866,1.30899 2.4096386,2.4096386 0 0 1 -4.49316,-1.23332 c -0.0489,-2.2357 -0.95776,-4.3607 -2.57646,-5.90363 a 2.4096386,2.4096386 0 0 1 1.41049,-4.30751 z m -218.79482,15.59992 a 73.25789,73.25789 0 0 1 73.26097,73.26099 73.25789,73.25789 0 0 1 -73.26097,73.26104 73.25789,73.25789 0 0 1 -73.2523,-73.26104 73.25789,73.25789 0 0 1 73.2523,-73.26099 z m -161.08302,1.9848 c -4.59464,0.29104 -8.79704,3.27002 -10.41396,7.88863 -4.36549,12.46578 7.15771,30.30803 9.33295,29.20644 1.0869,-0.55098 0.28586,-4.81633 4.29052,-10.17751 4.00611,-5.36102 7.60407,-8.13713 8.68262,-11.21635 2.15742,-6.1583 -1.08849,-12.90268 -7.2468,-15.05929 -1.53959,-0.53921 -3.11354,-0.73908 -4.64533,-0.64183 z m 0.37277,2.96458 v 0 a 2.1908673,2.1908673 0 0 1 0.85315,0.13584 2.1908673,2.1908673 0 0 1 0.26811,3.98651 c -2.29486,1.24918 -3.84134,3.48061 -4.29929,6.03894 a 2.195448,2.195448 0 1 1 -4.32434,-0.75165 c 0.67175,-3.86245 3.08934,-7.23114 6.5203,-9.13018 a 2.1908673,2.1908673 0 0 1 0.97087,-0.27893 z m -78.67523,24.71312 c -1.14899,-0.067 -2.32301,-0.0172 -3.50486,0.15178 -9.46339,1.36897 -16.03565,10.15481 -14.66262,19.62017 2.77196,19.16067 29.83209,34.53724 31.90909,31.63044 1.04113,-1.45269 -2.94355,-6.45721 -1.30916,-16.13196 1.56413,-9.68405 4.36026,-15.72295 3.67399,-20.45633 -1.19639,-8.28273 -8.06501,-14.34625 -16.10644,-14.81436 z m -3.38686,4.97473 a 2.7558712,2.7558712 0 0 1 1.32551,0.31264 l -0.0653,-0.009 a 2.7558712,2.7558712 0 0 1 0,4.93247 c -2.91757,1.48404 -5.00585,4.20425 -5.67579,7.40719 a 2.7558712,2.7558712 0 1 1 -5.38848,-1.14869 c 1.01005,-4.82834 4.16382,-8.93836 8.55578,-11.18258 a 2.7558712,2.7558712 0 0 1 1.24218,-0.31265 z m 452.19316,134.79893 c -1.42357,0.70067 -0.45599,6.25914 -5.75185,13.17581 -5.29397,6.91649 -10.02299,10.47783 -11.46127,14.46811 -2.89782,7.98145 1.22418,16.79656 9.20611,19.69615 7.98069,2.89944 16.80371,-1.21602 19.70445,-9.19774 5.87082,-16.15759 -8.85077,-39.54304 -11.69744,-38.14233 z m -5.99699,21.45297 a 2.2146342,2.2146342 0 0 1 1.09017,4.18076 c -2.56621,1.41865 -4.38495,3.92506 -4.92434,6.80751 a 2.2146342,2.2146342 0 0 1 -4.34115,0 2.2146342,2.2146342 0 0 1 0,-0.82768 c 0.78452,-4.17821 3.40203,-7.79827 7.12012,-9.8565 a 2.2146342,2.2146342 0 0 1 1.05585,-0.304 z m -356.99756,3.55576 c 9.57632,10.03202 20.15193,19.27499 31.77421,27.47501 68.73674,48.49701 160.10302,51.01591 229.82532,10.81093 -75.71421,62.16036 -190.25348,47.37013 -252.75623,-26.81623 -3.1417,-3.72808 -6.04162,-7.57575 -8.8433,-11.46971 z m -25.48143,21.08977 c -4.4654,-0.19029 -8.94104,1.76966 -11.79915,5.63353 -4.56996,6.18218 -3.26097,14.89635 2.92198,19.46813 12.51488,9.25486 36.59806,2.50294 36.12377,-0.32953 -0.24174,-1.41593 -5.32591,-2.00136 -9.96601,-8.37851 -4.6401,-6.37695 -6.51117,-11.38821 -9.60313,-13.67416 -2.31827,-1.71461 -4.99851,-2.60539 -7.67746,-2.71963 z m 260.22239,2.39025 v 0 a 1.8819418,1.8819418 0 0 1 0.0817,0 1.8819418,1.8819418 0 0 1 1.47751,3.00677 c -1.53966,2.02866 -3.69315,3.55512 -6.11514,4.3413 a 1.8698536,1.8698536 0 0 1 -1.19149,-0.009 h 0.0653 a 1.8698536,1.8698536 0 0 1 0,-3.55575 c 1.68785,-0.55326 3.15294,-1.61023 4.23131,-3.03213 a 1.8819418,1.8819418 0 0 1 1.44481,-0.75166 z m -259.97759,1.84123 a 1.7803362,1.7803362 0 0 1 1.30916,0.473 1.7803362,1.7803362 0 0 1 -1.0983,3.08284 c -2.89129,0.25341 -5.49291,1.80357 -7.09466,4.21451 a 1.7813944,1.7813944 0 0 1 -2.96431,-1.97638 c 2.19975,-3.30247 5.81148,-5.42596 9.76361,-5.78553 a 1.7803362,1.7803362 0 0 1 0.0817,-0.009 z m 166.23502,66.39439 c -0.62106,0.009 -1.21765,0.0636 -1.79034,0.16909 -9.16935,1.69338 -15.22223,10.50131 -13.53097,19.67084 1.69344,9.1692 10.50228,15.23258 19.67111,13.53902 18.562,-3.42901 32.51253,-30.3742 29.60342,-32.28924 -1.45463,-0.95825 -6.1717,3.05888 -15.66759,1.89191 -8.30593,-1.02052 -13.93747,-3.05673 -18.28563,-2.98145 z m -1.75652,3.58954 v 0 a 2.2146342,2.2146342 0 0 1 0.42336,0.0432 v 0.009 a 2.2146342,2.2146342 0 0 1 0,4.32442 c -2.24876,0.53246 -4.11378,2.05018 -5.14346,4.12168 a 2.2146342,2.2146342 0 1 1 -3.96982,-1.95876 c 1.60499,-3.25492 4.58467,-5.62442 8.11681,-6.46123 a 2.2146342,2.2146342 0 0 1 0.55733,-0.077 z"
   id="icon-maincolor" style="fill:var(--icon-main)" /><path d="m 257.66895,201.23756 a 3.734409,3.734409 0 0 0 -3.67398,3.76692 v 6.70619 l -2.42386,-2.42402 a 3.7344091,3.7344091 0 0 0 -2.67713,-1.15717 3.7344091,3.7344091 0 0 0 -2.59332,6.41897 l 7.69431,7.69437 v 7.19602 l -7.43231,-7.44938 a 3.7344091,3.7344091 0 0 0 -3.06602,-1.12335 v 0.009 a 3.7344091,3.7344091 0 0 0 -2.23813,6.41054 l 12.73646,12.70286 v 14.3667 l -12.4408,-7.18758 -4.67067,-17.35663 a 3.734409,3.734409 0 0 0 -3.50499,-2.84631 3.734409,3.734409 0 0 0 -3.70815,4.76357 l 2.72833,10.15216 -6.22498,-3.598 -2.78697,-10.48156 a 3.734409,3.734409 0 0 0 -3.54734,-2.8463 3.734409,3.734409 0 0 0 -3.67398,4.75509 l 0.87766,3.30243 -5.76014,-3.32778 a 3.734409,3.734409 0 0 0 -2.17084,-0.51516 3.734409,3.734409 0 0 0 -1.57066,6.99334 l 5.76046,3.32773 -3.30248,0.88681 a 3.736144,3.736144 0 0 0 1.95116,7.21292 l 10.50698,-2.81252 6.20763,3.5811 -10.13512,2.71121 a 3.734409,3.734409 0 1 0 1.917,7.21293 l 17.36497,-4.63691 12.43261,7.17916 -12.42398,7.17912 -17.3736,-4.67911 a 3.734409,3.734409 0 0 0 -1.11466,-0.12757 3.734409,3.734409 0 0 0 -0.80251,7.33964 l 10.16063,2.7365 -6.2418,3.59802 -10.49015,-2.82097 a 3.734409,3.734409 0 0 0 -1.50364,-0.12757 3.734409,3.734409 0 0 0 -0.43965,7.33963 l 3.29395,0.88685 -5.7601,3.32773 a 3.7396977,3.7396977 0 1 0 3.73328,6.47813 l 5.75186,-3.31931 -0.86952,3.26016 a 3.7401203,3.7401203 0 1 0 7.22128,1.95106 l 2.78701,-10.49003 6.225,-3.58952 -2.72835,10.11834 a 3.7362291,3.7362291 0 0 0 7.21316,1.9426 l 4.67067,-17.34819 12.44079,-7.18758 v 14.33292 l -12.73662,12.7298 a 3.7387104,3.7387104 0 1 0 5.30414,5.27033 l 7.43231,-7.44096 v 7.1876 l -7.69432,7.7197 a 3.7344091,3.7344091 0 1 0 5.27046,5.27034 l 2.42386,-2.42403 v 6.66391 a 3.7375689,3.7375689 0 0 0 7.47512,0 v -6.63013 l 2.39016,2.39025 a 3.7356661,3.7356661 0 1 0 5.29568,-5.27034 l -7.68584,-7.68593 v -7.20445 l 7.43235,7.42404 a 3.7344091,3.7344091 0 1 0 5.27045,-5.27033 l -12.7028,-12.70286 v -14.34993 l 12.43261,7.17916 4.64516,17.34819 a 3.7362291,3.7362291 0 1 0 7.21267,-1.9426 l -2.70264,-10.11834 6.20794,3.58952 2.81266,10.49004 a 3.7362291,3.7362291 0 0 0 7.21267,-1.95107 l -0.8695,-3.25172 5.75181,3.31931 a 3.7419853,3.7419853 0 1 0 3.73284,-6.48658 l -5.76015,-3.32773 3.27696,-0.87837 a 3.734409,3.734409 0 0 0 -1.30916,-7.34802 3.734409,3.734409 0 0 0 -0.59983,0.13584 l -10.5068,2.81253 -6.22464,-3.58954 10.16063,-2.73659 a 3.734409,3.734409 0 0 0 -0.93811,-7.33955 v -0.009 a 3.734409,3.734409 0 0 0 -1.01338,0.13583 l -17.3481,4.67064 -12.44128,-7.17912 12.43263,-7.17915 17.35675,4.63689 a 3.736223,3.736223 0 1 0 1.9425,-7.21292 l -10.14364,-2.71122 6.21634,-3.58953 10.5068,2.82096 a 3.734409,3.734409 0 1 0 1.91747,-7.21293 l -3.28567,-0.88684 5.76869,-3.32773 a 3.734409,3.734409 0 0 0 -2.07782,-6.99334 3.734409,3.734409 0 0 0 -1.65534,0.51516 l -5.77702,3.33621 0.88585,-3.31087 a 3.734409,3.734409 0 0 0 -3.4118,-4.75508 3.734409,3.734409 0 0 0 -3.80083,2.84631 l -2.82118,10.49841 -6.21628,3.58958 2.71964,-10.16061 a 3.734409,3.734409 0 0 0 -3.80065,-4.76355 3.734409,3.734409 0 0 0 -3.41198,2.8463 l -4.64533,17.35662 -12.43244,7.17915 v -14.39198 l 12.70275,-12.66904 a 3.7344091,3.7344091 0 0 0 -2.71128,-6.41054 3.7344091,3.7344091 0 0 0 -2.55917,1.11481 l -7.4323,7.43149 v -7.2045 l 7.68579,-7.66901 a 3.7344091,3.7344091 0 0 0 -2.71147,-6.41898 3.7344091,3.7344091 0 0 0 -2.5842,1.15716 l -2.39012,2.39017 v -6.67238 a 3.734409,3.734409 0 0 0 -3.80118,-3.76692 z"
   id="icon-detailcolor" style="fill:var(--icon-detail)" /></svg>
