<?xml version="1.0" encoding="UTF-8" standalone="no"?>
<!-- Generator: Adobe Illustrator 19.0.0, SVG Export Plug-In . SVG Version: 6.00 Build 0)  -->

<svg
   xmlns:dc="http://purl.org/dc/elements/1.1/"
   xmlns:cc="http://creativecommons.org/ns#"
   xmlns:rdf="http://www.w3.org/1999/02/22-rdf-syntax-ns#"
   xmlns:svg="http://www.w3.org/2000/svg"
   xmlns="http://www.w3.org/2000/svg"
   xmlns:sodipodi="http://sodipodi.sourceforge.net/DTD/sodipodi-0.dtd"
   xmlns:inkscape="http://www.inkscape.org/namespaces/inkscape"
   version="1.1"
   id="Layer_1"
   x="0px"
   y="0px"
   viewBox="0 0 511.6 511.6"
   style="enable-background:new 0 0 511.6 511.6;"
   xml:space="preserve"
   inkscape:version="0.91 r13725"
   sodipodi:docname="support.svg"><metadata
     id="metadata69"><rdf:RDF><cc:Work
         rdf:about=""><dc:format>image/svg+xml</dc:format><dc:type
           rdf:resource="http://purl.org/dc/dcmitype/StillImage" /><dc:title></dc:title></cc:Work></rdf:RDF></metadata><defs
     id="defs67" /><sodipodi:namedview
     pagecolor="#ffffff"
     bordercolor="#666666"
     borderopacity="1"
     objecttolerance="10"
     gridtolerance="10"
     guidetolerance="10"
     inkscape:pageopacity="0"
     inkscape:pageshadow="2"
     inkscape:window-width="1920"
     inkscape:window-height="1027"
     id="namedview65"
     showgrid="false"
     inkscape:zoom="1.1748256"
     inkscape:cx="180.01042"
     inkscape:cy="265.2737"
     inkscape:window-x="1920"
     inkscape:window-y="25"
     inkscape:window-maximized="1"
     inkscape:current-layer="g8145" /><g
     transform="matrix(1.5000234,0,0,1.5000234,-0.19999049,-264.21611)"
     id="g44"><g
       id="g46"><polygon
         style="fill:#ccd1d9"
         points="213.359,421.391 234.672,496 106.672,496 127.938,421.422 "
         id="polygon48" /></g><path
       style="fill:#f2f2f2"
       inkscape:connector-curvature="0"
       d="m 21.328,432 c -5.875,0 -10.656,-4.781 -10.656,-10.656 l 0,-202.672 C 10.672,212.797 15.453,208 21.328,208 L 320,208 c 5.875,0 10.672,4.797 10.672,10.672 l 0,202.672 C 330.672,427.219 325.875,432 320,432 l -298.672,0 z"
       id="path50" /><path
       style="fill:#e6e9ed"
       inkscape:connector-curvature="0"
       d="m 320,197.344 -298.672,0 C 9.547,197.344 0,206.891 0,218.672 l 0,202.672 c 0,11.781 9.547,21.328 21.328,21.328 l 298.672,0 c 11.781,0 21.328,-9.547 21.328,-21.328 l 0,-202.672 c 0,-11.781 -9.547,-21.328 -21.328,-21.328 z m 0,224 -298.672,0 0,-202.672 298.672,0 0,202.672 z"
       id="path52" /><rect
       style="fill:#e6e9ed"
       x="15.953"
       y="400"
       width="309.43799"
       height="31.062"
       id="rect54" /><path
       style="fill:#434a54"
       inkscape:connector-curvature="0"
       d="m 181.328,421.344 c 0,5.891 -4.766,10.656 -10.656,10.656 -5.89,0 -10.672,-4.766 -10.672,-10.656 0,-5.89 4.781,-10.672 10.672,-10.672 5.891,0 10.656,4.781 10.656,10.672 z"
       id="path56" /><path
       style="fill:#e6e9ed"
       inkscape:connector-curvature="0"
       d="m 234.672,474.672 -128,0 c -5.891,0 -10.672,4.781 -10.672,10.672 0,5.891 4.781,10.656 10.672,10.656 l 128,0 c 5.891,0 10.656,-4.766 10.656,-10.656 0,-5.89 -4.766,-10.672 -10.656,-10.672 z"
       id="path58" /></g><g
     id="g8102"
     transform="matrix(0.71010314,0,0,0.71010314,202.33024,8.3329812)"><path
       id="path23"
       d="m 350.88853,378.37255 -1.015,-0.312 c -17.424,-4.715 -30.195,-9.211 -37.877,-12.178 -27.229,-10.476 -34.333,-18.032 -36.128,-21.607 -0.062,-0.125 -0.125,-0.266 -0.188,-0.391 l -0.25,-33.318 -116.322,1.344 -0.227,31.975 c -0.055,0.125 -0.109,0.266 -0.172,0.391 -1.812,3.575 -8.899,11.132 -36.136,21.623 -7.682,2.951 -20.461,7.447 -37.712998,12.131 l -1.187,0.344 c -15.698,5.246 -26.261,19.969 -26.261,36.565 l 0,46.183 319.733998,0 0,-46.183 c 0.002,-16.598 -10.536,-31.321 -26.258,-36.567 z"
       style="fill:#656d78"
       inkscape:connector-curvature="0" /><polygon
       id="polygon25"
       points="227.377,424.406 284.215,424.406 273.551,360.456 238.025,360.456 "
       style="fill:#da4453"
       transform="translate(-38.510468,36.714552)" /><polygon
       id="polygon27"
       points="223.818,303.828 287.776,303.828 273.551,360.456 238.025,360.456 "
       style="fill:#ed5564"
       transform="translate(-38.510468,36.714552)" /><path
       id="path29"
       d="m 307.87453,249.72355 c 0,58.876 -56.111,115.473 -90.593,115.473 -34.48,0 -90.601,-56.597 -90.601,-115.473 0,-58.86 40.562,-97.704 90.601,-97.704 50.031,0 90.593,38.844 90.593,97.704 z"
       style="fill:#eac6bb"
       inkscape:connector-curvature="0" /><path
       id="path31"
       d="m 275.64953,141.37055 c -15.395,-13.958 -67.049,-31.085 -118.563,0 -26.089,15.737 -45.082,85.262 -45.082,85.262 0,0 50.891,28.837 117.136,-2.326 39.641,-18.657 38.75,-8.884 50.07,8.103 6.713,10.07 28.664,17.314 28.664,17.314 0,0 17.08,-63.731 -32.225,-108.353 z"
       style="fill:#656d78"
       inkscape:connector-curvature="0" /></g><g
     id="g8145"
     transform="matrix(1.2101995,0,0,1.2101995,566.00533,-47.078956)"><path
       inkscape:connector-curvature="0"
       id="path3"
       d="m -102.70503,195.28817 0,17.92706 c 0,5.25125 -2.3093,10.19784 -6.33524,13.56979 -4.02593,3.37194 -9.29985,4.77726 -14.46977,3.85727 l -23.11564,-4.1166 -1.75397,9.84518 23.11564,4.1166 c 1.62664,0.28999 3.25928,0.43199 4.88125,0.43199 6.44857,0 12.73047,-2.25263 17.76373,-6.46923 6.299904,-5.27725 9.913184,-13.01713 9.913184,-21.23567 l 0,-17.92705 -9.999184,0 z"
       style="fill:#5a5a5a;fill-opacity:1" /><path
       inkscape:connector-curvature="0"
       id="path5"
       d="m -102.70503,191.06157 0,1.89331 9.999844,0 0,-1.89331 c 0,-44.8313 -36.472094,-81.30339 -81.302734,-81.30339 -44.8313,0 -77.99816,36.47209 -77.99816,81.30339 l 9.99984,0 c 0,-39.31672 28.6816,-71.30355 67.99832,-71.30355 39.31672,0 71.30289,31.98683 71.30289,71.30355 z"
       style="fill:#5a5a5a;fill-opacity:1"
       sodipodi:nodetypes="sccssccss" /><path
       inkscape:connector-curvature="0"
       id="path7"
       d="m -233.43437,211.80925 c -10.4245,0 -18.90504,-8.48053 -18.90504,-18.90504 0,-10.4245 8.4812,-18.9057 18.90504,-18.9057 l 11.10116,0 0,37.81007 -11.10116,0 z"
       style="fill:#b58080;fill-opacity:1"
       sodipodi:nodetypes="csscccc" /><path
       inkscape:connector-curvature="0"
       id="path9"
       d="m -122.37806,211.80925 0,-37.81074 11.10116,0 c 10.42451,0 18.904374,8.4812 18.904374,18.90504 0,10.42383 -8.480534,18.90503 -18.904374,18.90503 l -11.10116,0 z"
       style="fill:#b58080;fill-opacity:1" /><circle
       id="circle45"
       r="8.7885294"
       cy="230.62099"
       cx="-153.00626"
       style="fill:#b58080;fill-opacity:1" /></g></svg>