<?xml version="1.0" encoding="UTF-8" standalone="no"?>
<!-- Generator: Adobe Illustrator 16.0.0, SVG Export Plug-In . SVG Version: 6.00 Build 0)  -->

<svg
   xmlns:dc="http://purl.org/dc/elements/1.1/"
   xmlns:cc="http://creativecommons.org/ns#"
   xmlns:rdf="http://www.w3.org/1999/02/22-rdf-syntax-ns#"
   xmlns:svg="http://www.w3.org/2000/svg"
   xmlns="http://www.w3.org/2000/svg"
   xmlns:sodipodi="http://sodipodi.sourceforge.net/DTD/sodipodi-0.dtd"
   xmlns:inkscape="http://www.inkscape.org/namespaces/inkscape"
   version="1.1"
   id="Layer_1"
   x="0px"
   y="0px"
   viewBox="0 0 512 512"
   enable-background="new 0 0 512 512"
   xml:space="preserve"
   inkscape:version="0.91 r13725"
   sodipodi:docname="cpu.svg"><metadata
     id="metadata136"><rdf:RDF><cc:Work
         rdf:about=""><dc:format>image/svg+xml</dc:format><dc:type
           rdf:resource="http://purl.org/dc/dcmitype/StillImage" /><dc:title></dc:title></cc:Work></rdf:RDF></metadata><defs
     id="defs134" /><sodipodi:namedview
     pagecolor="#ffffff"
     bordercolor="#666666"
     borderopacity="1"
     objecttolerance="10"
     gridtolerance="10"
     guidetolerance="10"
     inkscape:pageopacity="0"
     inkscape:pageshadow="2"
     inkscape:window-width="1118"
     inkscape:window-height="480"
     id="namedview132"
     showgrid="false"
     inkscape:zoom="0.4609375"
     inkscape:cx="256"
     inkscape:cy="256"
     inkscape:window-x="2587"
     inkscape:window-y="276"
     inkscape:window-maximized="0"
     inkscape:current-layer="Layer_1" /><g
     id="cpu"><g
       id="g4"><path
         fill="#FFCE54"
         d="M512,42.66c0,5.891-4.781,10.672-10.656,10.672c-5.906,0-10.688-4.781-10.688-10.672    s4.781-10.664,10.688-10.664C507.219,31.996,512,36.77,512,42.66z"
         id="path6" /><path
         fill="#FFCE54"
         d="M512,85.332c0,5.891-4.781,10.664-10.656,10.664c-5.906,0-10.688-4.773-10.688-10.664    s4.781-10.672,10.688-10.672C507.219,74.66,512,79.441,512,85.332z"
         id="path8" /><path
         fill="#FFCE54"
         d="M512,127.996c0,5.891-4.781,10.664-10.656,10.664c-5.906,0-10.688-4.773-10.688-10.664    s4.781-10.664,10.688-10.664C507.219,117.332,512,122.105,512,127.996z"
         id="path10" /><path
         fill="#FFCE54"
         d="M512,170.66c0,5.891-4.781,10.672-10.656,10.672c-5.906,0-10.688-4.781-10.688-10.672    s4.781-10.664,10.688-10.664C507.219,159.996,512,164.77,512,170.66z"
         id="path12" /><path
         fill="#FFCE54"
         d="M512,213.332c0,5.891-4.781,10.664-10.656,10.664c-5.906,0-10.688-4.773-10.688-10.664    s4.781-10.672,10.688-10.672C507.219,202.66,512,207.441,512,213.332z"
         id="path14" /><path
         fill="#FFCE54"
         d="M512,255.996c0,5.891-4.781,10.664-10.656,10.664c-5.906,0-10.688-4.773-10.688-10.664    s4.781-10.664,10.688-10.664C507.219,245.332,512,250.105,512,255.996z"
         id="path16" /><path
         fill="#FFCE54"
         d="M512,298.652c0,5.906-4.781,10.688-10.656,10.688c-5.906,0-10.688-4.781-10.688-10.688    c0-5.875,4.781-10.656,10.688-10.656C507.219,287.996,512,292.777,512,298.652z"
         id="path18" /><path
         fill="#FFCE54"
         d="M512,341.34c0,5.875-4.781,10.656-10.656,10.656c-5.906,0-10.688-4.781-10.688-10.656    c0-5.906,4.781-10.688,10.688-10.688C507.219,330.652,512,335.434,512,341.34z"
         id="path20" /><path
         fill="#FFCE54"
         d="M512,383.996c0,5.891-4.781,10.656-10.656,10.656c-5.906,0-10.688-4.766-10.688-10.656    s4.781-10.656,10.688-10.656C507.219,373.34,512,378.105,512,383.996z"
         id="path22" /><path
         fill="#FFCE54"
         d="M512,426.652c0,5.906-4.781,10.688-10.656,10.688c-5.906,0-10.688-4.781-10.688-10.688    c0-5.875,4.781-10.656,10.688-10.656C507.219,415.996,512,420.777,512,426.652z"
         id="path24" /><path
         fill="#FFCE54"
         d="M512,469.34c0,5.875-4.781,10.656-10.656,10.656c-5.906,0-10.688-4.781-10.688-10.656    c0-5.906,4.781-10.688,10.688-10.688C507.219,458.652,512,463.434,512,469.34z"
         id="path26" /><g
         id="g28"><path
           fill="#FFCE54"
           d="M469.344,501.34c-5.906,0-10.688-4.781-10.688-10.688c0-5.875,4.781-10.656,10.688-10.656     c5.875,0,10.656,4.781,10.656,10.656C480,496.559,475.219,501.34,469.344,501.34z"
           id="path30" /><path
           fill="#FFCE54"
           d="M426.656,501.34c-5.875,0-10.656-4.781-10.656-10.688c0-5.875,4.781-10.656,10.656-10.656     c5.906,0,10.688,4.781,10.688,10.656C437.344,496.559,432.562,501.34,426.656,501.34z"
           id="path32" /><path
           fill="#FFCE54"
           d="M384,501.34c-5.891,0-10.656-4.781-10.656-10.688c0-5.875,4.766-10.656,10.656-10.656     s10.656,4.781,10.656,10.656C394.656,496.559,389.891,501.34,384,501.34z"
           id="path34" /><path
           fill="#FFCE54"
           d="M341.344,501.34c-5.906,0-10.688-4.781-10.688-10.688c0-5.875,4.781-10.656,10.688-10.656     c5.875,0,10.656,4.781,10.656,10.656C352,496.559,347.219,501.34,341.344,501.34z"
           id="path36" /><path
           fill="#FFCE54"
           d="M298.656,501.34c-5.875,0-10.656-4.781-10.656-10.688c0-5.875,4.781-10.656,10.656-10.656     c5.906,0,10.688,4.781,10.688,10.656C309.344,496.559,304.562,501.34,298.656,501.34z"
           id="path38" /><path
           fill="#FFCE54"
           d="M256,501.34c-5.891,0-10.664-4.781-10.664-10.688c0-5.875,4.773-10.656,10.664-10.656     s10.664,4.781,10.664,10.656C266.664,496.559,261.891,501.34,256,501.34z"
           id="path40" /><path
           fill="#FFCE54"
           d="M213.336,501.34c-5.891,0-10.672-4.781-10.672-10.688c0-5.875,4.781-10.656,10.672-10.656     S224,484.777,224,490.652C224,496.559,219.227,501.34,213.336,501.34z"
           id="path42" /><path
           fill="#FFCE54"
           d="M170.664,501.34c-5.891,0-10.664-4.781-10.664-10.688c0-5.875,4.773-10.656,10.664-10.656     s10.672,4.781,10.672,10.656C181.336,496.559,176.555,501.34,170.664,501.34z"
           id="path44" /><path
           fill="#FFCE54"
           d="M128,501.34c-5.891,0-10.664-4.781-10.664-10.688c0-5.875,4.773-10.656,10.664-10.656     s10.664,4.781,10.664,10.656C138.664,496.559,133.891,501.34,128,501.34z"
           id="path46" /><path
           fill="#FFCE54"
           d="M85.336,501.34c-5.891,0-10.672-4.781-10.672-10.688c0-5.875,4.781-10.656,10.672-10.656     S96,484.777,96,490.652C96,496.559,91.227,501.34,85.336,501.34z"
           id="path48" /><path
           fill="#FFCE54"
           d="M42.664,501.34c-5.891,0-10.664-4.781-10.664-10.688c0-5.875,4.773-10.656,10.664-10.656     s10.672,4.781,10.672,10.656C53.336,496.559,48.555,501.34,42.664,501.34z"
           id="path50" /></g><g
         id="g52"><path
           fill="#FFCE54"
           d="M469.344,31.996c-5.891,0-10.656-4.773-10.656-10.664s4.766-10.672,10.656-10.672     s10.672,4.781,10.672,10.672S475.234,31.996,469.344,31.996z"
           id="path54" /><path
           fill="#FFCE54"
           d="M426.688,31.996c-5.906,0-10.688-4.773-10.688-10.664s4.781-10.672,10.688-10.672     c5.875,0,10.656,4.781,10.656,10.672S432.562,31.996,426.688,31.996z"
           id="path56" /><path
           fill="#FFCE54"
           d="M384,31.996c-5.875,0-10.656-4.773-10.656-10.664S378.125,10.66,384,10.66     c5.906,0,10.688,4.781,10.688,10.672S389.906,31.996,384,31.996z"
           id="path58" /><path
           fill="#FFCE54"
           d="M341.344,31.996c-5.891,0-10.656-4.773-10.656-10.664s4.766-10.672,10.656-10.672S352,15.441,352,21.332     S347.234,31.996,341.344,31.996z"
           id="path60" /><path
           fill="#FFCE54"
           d="M298.688,31.996c-5.906,0-10.672-4.773-10.672-10.664s4.766-10.672,10.672-10.672     c5.875,0,10.656,4.781,10.656,10.672S304.562,31.996,298.688,31.996z"
           id="path62" /><path
           fill="#FFCE54"
           d="M256.016,31.996c-5.891,0-10.672-4.773-10.672-10.664s4.781-10.672,10.672-10.672     s10.664,4.781,10.664,10.672S261.906,31.996,256.016,31.996z"
           id="path64" /><path
           fill="#FFCE54"
           d="M213.344,31.996c-5.891,0-10.664-4.773-10.664-10.664s4.773-10.672,10.664-10.672     s10.672,4.781,10.672,10.672S219.234,31.996,213.344,31.996z"
           id="path66" /><path
           fill="#FFCE54"
           d="M170.68,31.996c-5.891,0-10.672-4.773-10.672-10.664s4.781-10.672,10.672-10.672     s10.664,4.781,10.664,10.672S176.57,31.996,170.68,31.996z"
           id="path68" /><path
           fill="#FFCE54"
           d="M128.008,31.996c-5.891,0-10.664-4.773-10.664-10.664s4.773-10.672,10.664-10.672     s10.672,4.781,10.672,10.672S133.898,31.996,128.008,31.996z"
           id="path70" /><path
           fill="#FFCE54"
           d="M85.344,31.996c-5.891,0-10.664-4.773-10.664-10.664S79.453,10.66,85.344,10.66     s10.664,4.781,10.664,10.672S91.234,31.996,85.344,31.996z"
           id="path72" /><path
           fill="#FFCE54"
           d="M42.68,31.996c-5.891,0-10.672-4.773-10.672-10.664S36.789,10.66,42.68,10.66s10.664,4.781,10.664,10.672     S48.57,31.996,42.68,31.996z"
           id="path74" /></g><g
         id="g76"><path
           fill="#FFCE54"
           d="M21.336,42.66c0,5.891-4.781,10.672-10.672,10.672S0,48.551,0,42.66s4.773-10.664,10.664-10.664     S21.336,36.77,21.336,42.66z"
           id="path78" /><path
           fill="#FFCE54"
           d="M21.336,85.332c0,5.891-4.781,10.664-10.672,10.664S0,91.223,0,85.332S4.773,74.66,10.664,74.66     S21.336,79.441,21.336,85.332z"
           id="path80" /><path
           fill="#FFCE54"
           d="M21.336,127.996c0,5.891-4.781,10.664-10.672,10.664S0,133.887,0,127.996s4.773-10.664,10.664-10.664     S21.336,122.105,21.336,127.996z"
           id="path82" /><path
           fill="#FFCE54"
           d="M21.336,170.66c0,5.891-4.781,10.672-10.672,10.672S0,176.551,0,170.66s4.773-10.664,10.664-10.664     S21.336,164.77,21.336,170.66z"
           id="path84" /><path
           fill="#FFCE54"
           d="M21.336,213.332c0,5.891-4.781,10.664-10.672,10.664S0,219.223,0,213.332s4.773-10.672,10.664-10.672     S21.336,207.441,21.336,213.332z"
           id="path86" /><path
           fill="#FFCE54"
           d="M21.336,255.996c0,5.891-4.781,10.664-10.672,10.664S0,261.887,0,255.996s4.773-10.664,10.664-10.664     S21.336,250.105,21.336,255.996z"
           id="path88" /><path
           fill="#FFCE54"
           d="M21.336,298.652c0,5.906-4.781,10.688-10.672,10.688S0,304.559,0,298.652     c0-5.875,4.773-10.656,10.664-10.656S21.336,292.777,21.336,298.652z"
           id="path90" /><path
           fill="#FFCE54"
           d="M21.336,341.34c0,5.875-4.781,10.656-10.672,10.656S0,347.215,0,341.34     c0-5.906,4.773-10.688,10.664-10.688S21.336,335.434,21.336,341.34z"
           id="path92" /><path
           fill="#FFCE54"
           d="M21.336,383.996c0,5.891-4.781,10.656-10.672,10.656S0,389.887,0,383.996s4.773-10.656,10.664-10.656     S21.336,378.105,21.336,383.996z"
           id="path94" /><path
           fill="#FFCE54"
           d="M21.336,426.652c0,5.906-4.781,10.688-10.672,10.688S0,432.559,0,426.652     c0-5.875,4.773-10.656,10.664-10.656S21.336,420.777,21.336,426.652z"
           id="path96" /><path
           fill="#FFCE54"
           d="M21.336,469.34c0,5.875-4.781,10.656-10.672,10.656S0,475.215,0,469.34     c0-5.906,4.773-10.688,10.664-10.688S21.336,463.434,21.336,469.34z"
           id="path98" /></g></g><rect
       x="21.336"
       y="31.996"
       fill="#A0D468"
       width="469.32"
       height="448"
       id="rect100" /><polygon
       fill="#434A54"
       points="21.336,426.652 21.336,479.996 51.109,479.996 82.211,472.465 28.875,419.121  "
       id="polygon102" /><path
       fill="#8CC153"
       d="M10.664,21.332v469.32h490.68V21.332H10.664z M480,469.34H32V42.66h448V469.34z"
       id="path104" /><g
       id="g106"><path
         fill="#CCD1D9"
         d="M448,170.66V85.332c0-11.781-9.562-21.336-21.344-21.336H85.359c-11.789,0-21.336,9.555-21.336,21.336    v85.328l-10.688,21.336v128l10.688,21.344v85.312c0,11.781,9.547,21.344,21.336,21.344h96l21.328-10.656H320l21.344,10.656h85.312    c11.781,0,21.344-9.562,21.344-21.344V341.34l10.688-21.344v-128L448,170.66z"
         id="path108" /></g><path
       fill="#8CC153"
       d="M490.656,117.332c0,5.891-4.766,10.664-10.656,10.664s-10.656-4.773-10.656-10.664   S474.109,106.66,480,106.66S490.656,111.441,490.656,117.332z"
       id="path110" /><path
       fill="#8CC153"
       d="M42.664,117.332c0,5.891-4.773,10.664-10.664,10.664s-10.664-4.773-10.664-10.664S26.109,106.66,32,106.66   S42.664,111.441,42.664,117.332z"
       id="path112" /><path
       fill="#8CC153"
       d="M224,458.652c0,5.906-4.773,10.688-10.664,10.688s-10.672-4.781-10.672-10.688   c0-5.875,4.781-10.656,10.672-10.656S224,452.777,224,458.652z"
       id="path114" /><path
       fill="#8CC153"
       d="M266.664,458.652c0,5.906-4.773,10.688-10.664,10.688s-10.664-4.781-10.664-10.688   c0-5.875,4.773-10.656,10.664-10.656S266.664,452.777,266.664,458.652z"
       id="path116" /><path
       fill="#8CC153"
       d="M309.344,458.652c0,5.906-4.781,10.688-10.688,10.688c-5.875,0-10.656-4.781-10.656-10.688   c0-5.875,4.781-10.656,10.656-10.656C304.562,447.996,309.344,452.777,309.344,458.652z"
       id="path118" /><g
       id="g120"><rect
         x="106.664"
         y="106.66"
         fill="#E6E9ED"
         width="298.68"
         height="298.68"
         id="rect122" /></g><g
       id="g124"><path
         fill="#434A54"
         d="M187.383,285.715c-10.945,0-17.891-8.938-17.891-22.938c0-11.336,5.039-23.039,18.086-23.039    c7.992,0,13.516,4.375,15.039,11.805h14.562c-1.141-14-13.039-24.281-29.32-24.281c-20.75,0-33.32,15.711-33.32,35.414    c0,21.414,13.047,35.602,32.75,35.602c18.562,0,28.844-11.219,30.367-27.789h-14.75    C201.664,280.387,196.336,285.715,187.383,285.715z"
         id="path126" /><path
         fill="#434A54"
         d="M261.961,228.887h-29.227v67.781h14.758v-24.375h15.234c13.617,0,24.086-6.852,24.086-21.609    C286.812,235.738,276.625,228.887,261.961,228.887z M260.727,260.582h-13.234v-19.516h13.328c6.57,0,11.523,2.57,11.523,9.805    C272.344,258.395,267.391,260.582,260.727,260.582z"
         id="path128" /><path
         fill="#434A54"
         d="M342.719,228.887v40.555c0,9.992-2.375,16.273-13.812,16.273c-11.609,0-14.562-5.906-14.562-16.273    v-40.555H299.5v40.555c0,19.32,9.031,28.555,29.219,28.555c19.812,0,28.844-9.031,28.844-28.367v-40.742H342.719z"
         id="path130" /></g></g></svg>