<?xml version="1.0" encoding="UTF-8" standalone="no"?>
<!-- Generator: Adobe Illustrator 19.0.0, SVG Export Plug-In . SVG Version: 6.00 Build 0)  -->

<svg
   xmlns:dc="http://purl.org/dc/elements/1.1/"
   xmlns:cc="http://creativecommons.org/ns#"
   xmlns:rdf="http://www.w3.org/1999/02/22-rdf-syntax-ns#"
   xmlns:svg="http://www.w3.org/2000/svg"
   xmlns="http://www.w3.org/2000/svg"
   xmlns:sodipodi="http://sodipodi.sourceforge.net/DTD/sodipodi-0.dtd"
   xmlns:inkscape="http://www.inkscape.org/namespaces/inkscape"
   version="1.1"
   id="Layer_1"
   x="0px"
   y="0px"
   viewBox="0 0 511.992 511.992"
   style="enable-background:new 0 0 511.992 511.992;"
   xml:space="preserve"
   inkscape:version="0.91 r13725"
   sodipodi:docname="displaylight.svg"><metadata
     id="metadata59"><rdf:RDF><cc:Work
         rdf:about=""><dc:format>image/svg+xml</dc:format><dc:type
           rdf:resource="http://purl.org/dc/dcmitype/StillImage" /><dc:title></dc:title></cc:Work></rdf:RDF></metadata><defs
     id="defs57" /><sodipodi:namedview
     pagecolor="#ffffff"
     bordercolor="#666666"
     borderopacity="1"
     objecttolerance="10"
     gridtolerance="10"
     guidetolerance="10"
     inkscape:pageopacity="0"
     inkscape:pageshadow="2"
     inkscape:window-width="1920"
     inkscape:window-height="1027"
     id="namedview55"
     showgrid="false"
     inkscape:zoom="1.1739261"
     inkscape:cx="200.10826"
     inkscape:cy="291.17534"
     inkscape:window-x="1920"
     inkscape:window-y="25"
     inkscape:window-maximized="1"
     inkscape:current-layer="Layer_1"
     showguides="true"
     inkscape:guide-bbox="true"><sodipodi:guide
       position="256.40456,143.10952"
       orientation="1,0"
       id="guide8152" /></sodipodi:namedview><g
     transform="matrix(1.5000234,0,0,1.5000234,-0.00399134,-264.02011)"
     id="g44"><g
       id="g46"><polygon
         style="fill:#ccd1d9"
         points="106.672,496 127.938,421.422 213.359,421.391 234.672,496 "
         id="polygon48" /></g><path
       style="fill:#f9f9f9"
       inkscape:connector-curvature="0"
       d="m 21.328,432 c -5.875,0 -10.656,-4.781 -10.656,-10.656 l 0,-202.672 C 10.672,212.797 15.453,208 21.328,208 L 320,208 c 5.875,0 10.672,4.797 10.672,10.672 l 0,202.672 C 330.672,427.219 325.875,432 320,432 l -298.672,0 z"
       id="path50" /><path
       style="fill:#e6e9ed"
       inkscape:connector-curvature="0"
       d="m 320,197.344 -298.672,0 C 9.547,197.344 0,206.891 0,218.672 l 0,202.672 c 0,11.781 9.547,21.328 21.328,21.328 l 298.672,0 c 11.781,0 21.328,-9.547 21.328,-21.328 l 0,-202.672 c 0,-11.781 -9.547,-21.328 -21.328,-21.328 z m 0,224 -298.672,0 0,-202.672 298.672,0 0,202.672 z"
       id="path52" /><rect
       style="fill:#e6e9ed"
       x="15.953"
       y="400"
       width="309.43799"
       height="31.062"
       id="rect54" /><path
       style="fill:#434a54"
       inkscape:connector-curvature="0"
       d="m 181.328,421.344 c 0,5.891 -4.766,10.656 -10.656,10.656 -5.89,0 -10.672,-4.766 -10.672,-10.656 0,-5.89 4.781,-10.672 10.672,-10.672 5.891,0 10.656,4.781 10.656,10.672 z"
       id="path56" /><path
       style="fill:#e6e9ed"
       inkscape:connector-curvature="0"
       d="m 234.672,474.672 -128,0 c -5.891,0 -10.672,4.781 -10.672,10.672 0,5.891 4.781,10.656 10.672,10.656 l 128,0 c 5.891,0 10.656,-4.766 10.656,-10.656 0,-5.89 -4.766,-10.672 -10.656,-10.672 z"
       id="path58" /></g><g
     id="g8105"
     transform="translate(21.29606,0)"><path
       inkscape:connector-curvature="0"
       id="path3"
       d="m 239.14195,76.782056 c 0.93659,0.937087 1.51971,2.232033 1.51971,3.664471 l -0.004,51.961233 c 0,2.86439 -2.3193,5.18759 -5.18759,5.18759 -2.86439,0 -5.18418,-2.32369 -5.18808,-5.18759 l 0.004,-51.961233 c 0,-2.864388 2.31979,-5.188079 5.18808,-5.188079 1.43195,0 2.7269,0.578723 3.66788,1.523608 z"
       style="fill:#f6bb42" /><g
       transform="matrix(0.48755555,0,0,0.48755555,131.18398,75.258448)"
       id="g5"><path
         inkscape:connector-curvature="0"
         id="path7"
         d="m 10.644,84.201 c 2.727,0 5.445,1.031 7.523,3.109 l 75.357,75.356 c 4.148,4.156 4.156,10.891 0,15.047 -4.156,4.156 -10.898,4.156 -15.046,0 L 3.121,102.356 c -4.156,-4.156 -4.156,-10.89 0,-15.046 2.078,-2.078 4.797,-3.109 7.523,-3.109 z"
         style="fill:#ffce54" /><path
         inkscape:connector-curvature="0"
         id="path9"
         d="m 341.805,415.347 c 2.719,0 5.438,1.047 7.516,3.125 l 75.357,75.356 c 4.156,4.156 4.156,10.891 0,15.047 -4.156,4.156 -10.889,4.156 -15.045,0 l -75.357,-75.356 c -4.156,-4.156 -4.156,-10.891 0,-15.047 2.077,-2.079 4.812,-3.125 7.529,-3.125 z"
         style="fill:#ffce54" /></g><path
       inkscape:connector-curvature="0"
       id="path11"
       d="m 319.99377,216.92698 c 0.93709,-0.93709 2.23203,-1.52362 3.66447,-1.52362 l 51.96074,0.007 c 2.8644,0 5.18808,2.31588 5.18808,5.18808 0,2.86439 -2.32368,5.18759 -5.18808,5.18759 l -51.96123,0 c -2.86438,-0.008 -5.18028,-2.33051 -5.18028,-5.19491 0,-1.43292 0.57922,-2.72787 1.5163,-3.66495 z"
       style="fill:#f6bb42" /><g
       transform="matrix(0.48755555,0,0,0.48755555,131.18398,75.258448)"
       id="g13"><path
         inkscape:connector-curvature="0"
         id="path15"
         d="m 331.166,170.198 c -0.016,-2.734 1.031,-5.453 3.109,-7.531 l 75.357,-75.356 c 4.156,-4.156 10.889,-4.156 15.045,0 4.156,4.156 4.156,10.89 0,15.046 l -75.357,75.357 c -4.156,4.156 -10.889,4.156 -15.045,0 -2.078,-2.079 -3.125,-4.798 -3.109,-7.516 z"
         style="fill:#ffce54" /><path
         inkscape:connector-curvature="0"
         id="path17"
         d="m 213.904,436.409 c -76.271,0 -138.324,-62.046 -138.324,-138.324 0,-76.263 62.053,-138.309 138.324,-138.309 76.262,0 138.307,62.045 138.307,138.309 0,76.278 -62.045,138.324 -138.307,138.324 z"
         style="fill:#ffce54" /></g><path
       inkscape:connector-curvature="0"
       id="path19"
       d="m 235.47407,147.97053 c -40.11169,0 -72.62823,32.51313 -72.62823,72.62091 0,40.1151 32.51654,72.62823 72.62823,72.62823 40.1073,0 72.62773,-32.51313 72.62773,-72.62823 0,-40.10778 -32.52043,-72.62091 -72.62773,-72.62091 z m 44.01554,116.64377 c -11.76228,11.75448 -27.3899,18.23019 -44.01554,18.23019 -16.62955,0 -32.26155,-6.47523 -44.01993,-18.23019 -11.75789,-11.76179 -18.23312,-27.3938 -18.23312,-44.02286 0,-16.62222 6.47523,-32.25424 18.23312,-44.01602 11.75838,-11.75399 27.3899,-18.2297 44.01993,-18.2297 16.62564,0 32.25326,6.47522 44.01554,18.2297 11.76227,11.76178 18.23652,27.3938 18.23652,44.01602 0,16.62906 -6.47425,32.26107 -18.23652,44.02286 z"
       style="fill:#f6bb42" /><path
       inkscape:connector-curvature="0"
       id="path21"
       d="m 268.44306,241.21261 c -29.59072,0 -53.58723,-23.99602 -53.58723,-53.59113 0,-6.65757 1.21499,-13.02652 3.4319,-18.89961 -20.27109,7.64048 -34.69152,27.21828 -34.69152,50.16362 0,29.59511 23.9926,53.58333 53.59162,53.58333 22.94094,0 42.51484,-14.41312 50.16312,-34.69153 -5.88138,2.21643 -12.24934,3.43532 -18.90789,3.43532 z"
       style="fill:#646c77" /><path
       inkscape:connector-curvature="0"
       id="path23"
       d="m 247.5635,262.09266 c -29.59902,0 -53.59114,-23.98822 -53.59114,-53.58284 0,-12.15866 4.04525,-23.36415 10.85933,-32.35321 -12.90072,9.78914 -21.235,25.28366 -21.235,42.7284 0,29.5951 23.99261,53.58332 53.59162,53.58332 17.44084,0 32.93097,-8.33427 42.72059,-21.23061 -8.99004,6.81018 -20.19503,10.85494 -32.3454,10.85494 z"
       style="fill:#434a54" /><g
       transform="matrix(0.48755555,0,0,0.48755555,131.18398,75.258448)"
       id="g25" /><g
       transform="matrix(0.48755555,0,0,0.48755555,131.18398,75.258448)"
       id="g27" /><g
       transform="matrix(0.48755555,0,0,0.48755555,131.18398,75.258448)"
       id="g29" /><g
       transform="matrix(0.48755555,0,0,0.48755555,131.18398,75.258448)"
       id="g31" /><g
       transform="matrix(0.48755555,0,0,0.48755555,131.18398,75.258448)"
       id="g33" /><g
       transform="matrix(0.48755555,0,0,0.48755555,131.18398,75.258448)"
       id="g35" /><g
       transform="matrix(0.48755555,0,0,0.48755555,131.18398,75.258448)"
       id="g37" /><g
       transform="matrix(0.48755555,0,0,0.48755555,131.18398,75.258448)"
       id="g39" /><g
       transform="matrix(0.48755555,0,0,0.48755555,131.18398,75.258448)"
       id="g41" /><g
       transform="matrix(0.48755555,0,0,0.48755555,131.18398,75.258448)"
       id="g43" /><g
       transform="matrix(0.48755555,0,0,0.48755555,131.18398,75.258448)"
       id="g45" /><g
       transform="matrix(0.48755555,0,0,0.48755555,131.18398,75.258448)"
       id="g47" /><g
       transform="matrix(0.48755555,0,0,0.48755555,131.18398,75.258448)"
       id="g49" /><g
       transform="matrix(0.48755555,0,0,0.48755555,131.18398,75.258448)"
       id="g51" /><g
       transform="matrix(0.48755555,0,0,0.48755555,131.18398,75.258448)"
       id="g53" /></g></svg>