<?xml version="1.0" encoding="UTF-8" standalone="no"?>
<!-- Generator: Adobe Illustrator 19.0.0, SVG Export Plug-In . SVG Version: 6.00 Build 0)  -->

<svg
   xmlns:dc="http://purl.org/dc/elements/1.1/"
   xmlns:cc="http://creativecommons.org/ns#"
   xmlns:rdf="http://www.w3.org/1999/02/22-rdf-syntax-ns#"
   xmlns:svg="http://www.w3.org/2000/svg"
   xmlns="http://www.w3.org/2000/svg"
   xmlns:sodipodi="http://sodipodi.sourceforge.net/DTD/sodipodi-0.dtd"
   xmlns:inkscape="http://www.inkscape.org/namespaces/inkscape"
   version="1.1"
   id="Layer_1"
   x="0px"
   y="0px"
   viewBox="0 0 512 512"
   style="enable-background:new 0 0 512 512;"
   xml:space="preserve"
   sodipodi:docname="english.svg"
   inkscape:version="0.92.2 5c3e80d, 2017-08-06"><metadata
     id="metadata141"><rdf:RDF><cc:Work
         rdf:about=""><dc:format>image/svg+xml</dc:format><dc:type
           rdf:resource="http://purl.org/dc/dcmitype/StillImage" /><dc:title></dc:title></cc:Work></rdf:RDF></metadata><defs
     id="defs139" /><sodipodi:namedview
     pagecolor="#ffffff"
     bordercolor="#666666"
     borderopacity="1"
     objecttolerance="10"
     gridtolerance="10"
     guidetolerance="10"
     inkscape:pageopacity="0"
     inkscape:pageshadow="2"
     inkscape:window-width="1920"
     inkscape:window-height="1013"
     id="namedview137"
     showgrid="false"
     showguides="false"
     inkscape:zoom="1.6777344"
     inkscape:cx="256"
     inkscape:cy="256"
     inkscape:window-x="1920"
     inkscape:window-y="0"
     inkscape:window-maximized="1"
     inkscape:current-layer="Layer_1" /><g
     id="g1152"><path
       id="path1076"
       d="M 473.655,88.276 H 38.345 C 17.167,88.276 0,105.443 0,126.621 V 385.38 c 0,21.177 17.167,38.345 38.345,38.345 h 435.31 C 494.832,423.725 512,406.558 512,385.38 V 126.621 c 0,-21.178 -17.167,-38.345 -38.345,-38.345 z"
       style="fill:#41479b"
       inkscape:connector-curvature="0" /><path
       id="path1078"
       d="M 511.469,120.282 C 508.447,102.123 492.672,88.275 473.655,88.275 h -9.977 L 300.138,195.422 V 88.276 H 211.862 V 195.423 L 48.322,88.276 h -9.977 c -19.017,0 -34.792,13.847 -37.814,32.007 l 139.778,91.58 H 0 v 88.276 H 140.309 L 0.531,391.717 c 3.022,18.159 18.797,32.007 37.814,32.007 h 9.977 l 163.54,-107.147 v 107.147 h 88.276 V 316.577 l 163.54,107.147 h 9.977 c 19.017,0 34.792,-13.847 37.814,-32.007 L 371.691,300.137 H 512 V 211.861 H 371.691 Z"
       style="fill:#f5f5f5"
       inkscape:connector-curvature="0" /><g
       id="g1090"><polygon
         id="polygon1080"
         points="0,282.483 229.517,282.483 229.517,423.724 282.483,423.724 282.483,282.483 512,282.483 512,229.517 282.483,229.517 282.483,88.276 229.517,88.276 229.517,229.517 0,229.517 "
         style="fill:#ff4b55" /><path
         id="path1082"
         d="M 24.793,421.252 211.376,300.138 H 178.948 L 9.224,410.31 c 4.153,4.847 9.49,8.645 15.569,10.942 z"
         style="fill:#ff4b55"
         inkscape:connector-curvature="0" /><path
         id="path1084"
         d="M 346.388,300.138 H 313.96 l 180.716,117.305 c 5.057,-3.321 9.277,-7.807 12.287,-13.075 z"
         style="fill:#ff4b55"
         inkscape:connector-curvature="0" /><path
         id="path1086"
         d="m 4.049,109.475 157.73,102.387 h 32.428 L 15.475,95.842 c -4.799,3.572 -8.726,8.242 -11.426,13.633 z"
         style="fill:#ff4b55"
         inkscape:connector-curvature="0" /><path
         id="path1088"
         d="M 332.566,211.862 502.601,101.487 c -4.199,-4.831 -9.578,-8.607 -15.699,-10.86 L 300.138,211.862 Z"
         style="fill:#ff4b55"
         inkscape:connector-curvature="0" /></g><g
       id="g1092" /><g
       id="g1094" /><g
       id="g1096" /><g
       id="g1098" /><g
       id="g1100" /><g
       id="g1102" /><g
       id="g1104" /><g
       id="g1106" /><g
       id="g1108" /><g
       id="g1110" /><g
       id="g1112" /><g
       id="g1114" /><g
       id="g1116" /><g
       id="g1118" /><g
       id="g1120" /></g><path
     style="fill:#F5F5F5;"
     d="M 38.345703 88.275391 C 17.167703 88.275391 0 105.44309 0 126.62109 L 0 385.38086 C 0 406.55786 17.167703 423.72461 38.345703 423.72461 L 131.64844 423.72461 L 380.41602 88.275391 L 38.345703 88.275391 z "
     id="path2" /><g
     id="g18"><path
       style="fill:#FF4B55;"
       d="M 38.345703 88.275391 C 21.561703 88.275391 7.306375 99.063076 2.109375 114.08008 L 361.2793 114.08008 L 380.41602 88.275391 L 38.345703 88.275391 z M 0 139.88086 L 0 165.68359 L 323.00977 165.68359 L 342.14453 139.88086 L 0 139.88086 z M 0 191.49023 L 0 217.29297 L 284.73633 217.29297 L 303.87305 191.49023 L 0 191.49023 z M 0 243.09766 L 0 260.07422 C 0 264.94922 3.953125 268.90234 8.828125 268.90234 L 246.46484 268.90234 L 265.60156 243.09766 L 0 243.09766 z M 0 294.71094 L 0 320.51367 L 208.18945 320.51367 L 227.32422 294.71094 L 0 294.71094 z M 0 346.32031 L 0 372.12305 L 169.91602 372.12305 L 189.05078 346.32031 L 0 346.32031 z M 2.109375 397.91992 C 7.306375 412.93692 21.562703 423.72461 38.345703 423.72461 L 131.64844 423.72461 L 150.78516 397.91992 L 2.109375 397.91992 z "
       id="path4" /></g><path
     style="fill:#41479B;"
     d="M8.828,268.902h220.69c4.875,0,8.828-3.953,8.828-8.828V97.103c0-4.876-3.953-8.828-8.828-8.828  H38.345C17.167,88.276,0,105.443,0,126.621v133.453C0,264.95,3.953,268.902,8.828,268.902z"
     id="path20" /><g
     id="g104"><path
       style="fill:#F5F5F5;"
       d="M24.789,108.537l1.954,5.86l6.177,0.047c0.8,0.007,1.131,1.027,0.488,1.502l-4.969,3.669   l1.864,5.889c0.242,0.762-0.627,1.394-1.278,0.928L24,122.841l-5.025,3.592c-0.651,0.466-1.518-0.166-1.278-0.928l1.864-5.889   l-4.969-3.669c-0.643-0.476-0.312-1.496,0.488-1.502l6.177-0.047l1.954-5.86C23.463,107.778,24.535,107.778,24.789,108.537z"
       id="path22" /><path
       style="fill:#F5F5F5;"
       d="M24.789,139.191l1.954,5.86l6.177,0.047c0.8,0.007,1.131,1.026,0.488,1.502l-4.969,3.67l1.864,5.889   c0.242,0.762-0.627,1.394-1.278,0.928L24,153.496l-5.025,3.592c-0.651,0.465-1.518-0.166-1.278-0.928l1.864-5.889l-4.969-3.67   c-0.643-0.476-0.312-1.495,0.488-1.502l6.177-0.047l1.954-5.86C23.463,138.433,24.535,138.433,24.789,139.191z"
       id="path24" /><path
       style="fill:#F5F5F5;"
       d="M24.789,169.846l1.954,5.86l6.177,0.047c0.8,0.007,1.131,1.026,0.488,1.502l-4.969,3.67l1.864,5.889   c0.242,0.762-0.627,1.394-1.278,0.928L24,184.151l-5.025,3.592c-0.651,0.465-1.518-0.165-1.278-0.928l1.864-5.889l-4.969-3.67   c-0.643-0.476-0.312-1.495,0.488-1.502l6.177-0.047l1.954-5.86C23.463,169.087,24.535,169.087,24.789,169.846z"
       id="path26" /><path
       style="fill:#F5F5F5;"
       d="M24.789,200.5l1.954,5.86l6.177,0.047c0.8,0.007,1.131,1.027,0.488,1.502l-4.969,3.67l1.864,5.889   c0.242,0.762-0.627,1.394-1.278,0.928L24,214.805l-5.025,3.592c-0.651,0.465-1.518-0.166-1.278-0.928l1.864-5.889l-4.969-3.67   c-0.643-0.474-0.312-1.495,0.488-1.502l6.177-0.047l1.954-5.86C23.463,199.741,24.535,199.741,24.789,200.5z"
       id="path28" /><path
       style="fill:#F5F5F5;"
       d="M24.789,231.154l1.954,5.86l6.177,0.047c0.8,0.007,1.131,1.026,0.488,1.502l-4.969,3.67l1.864,5.889   c0.242,0.762-0.627,1.394-1.278,0.928L24,245.459l-5.025,3.592c-0.651,0.465-1.518-0.166-1.278-0.928l1.864-5.889l-4.969-3.67   c-0.643-0.476-0.312-1.495,0.488-1.502l6.177-0.047l1.954-5.86C23.463,230.396,24.535,230.396,24.789,231.154z"
       id="path30" /><path
       style="fill:#F5F5F5;"
       d="M48.582,123.566l1.954,5.86l6.177,0.047c0.8,0.007,1.131,1.027,0.488,1.502l-4.969,3.67l1.864,5.889   c0.242,0.762-0.627,1.394-1.278,0.928l-5.025-3.592l-5.025,3.592c-0.651,0.465-1.518-0.166-1.278-0.928l1.864-5.889l-4.969-3.67   c-0.643-0.476-0.312-1.495,0.488-1.502l6.177-0.047l1.954-5.86C47.256,122.808,48.329,122.808,48.582,123.566z"
       id="path32" /><path
       style="fill:#F5F5F5;"
       d="M48.582,154.221l1.954,5.86l6.177,0.047c0.8,0.007,1.131,1.027,0.488,1.502l-4.969,3.67l1.864,5.889   c0.242,0.762-0.627,1.394-1.278,0.928l-5.025-3.592l-5.025,3.592c-0.651,0.465-1.518-0.165-1.278-0.928l1.864-5.889l-4.969-3.67   c-0.643-0.474-0.312-1.495,0.488-1.502l6.177-0.047l1.954-5.86C47.256,153.462,48.329,153.462,48.582,154.221z"
       id="path34" /><path
       style="fill:#F5F5F5;"
       d="M48.582,184.875l1.954,5.86l6.177,0.047c0.8,0.007,1.131,1.026,0.488,1.502l-4.969,3.67l1.864,5.889   c0.242,0.762-0.627,1.394-1.278,0.928l-5.025-3.592l-5.025,3.592c-0.651,0.465-1.518-0.166-1.278-0.928l1.864-5.889l-4.969-3.67   c-0.643-0.476-0.312-1.495,0.488-1.502l6.177-0.047l1.954-5.86C47.256,184.116,48.329,184.116,48.582,184.875z"
       id="path36" /><path
       style="fill:#F5F5F5;"
       d="M48.582,215.529l1.954,5.86l6.177,0.047c0.8,0.007,1.131,1.026,0.488,1.502l-4.969,3.67l1.864,5.889   c0.242,0.762-0.627,1.394-1.278,0.928l-5.025-3.592l-5.025,3.592c-0.651,0.466-1.518-0.166-1.278-0.928l1.864-5.889l-4.969-3.67   c-0.643-0.476-0.312-1.495,0.488-1.502l6.177-0.047l1.954-5.86C47.256,214.771,48.329,214.771,48.582,215.529z"
       id="path38" /><path
       style="fill:#F5F5F5;"
       d="M72.375,108.537l1.954,5.86l6.177,0.047c0.8,0.007,1.131,1.027,0.488,1.502l-4.969,3.669   l1.864,5.889c0.242,0.762-0.627,1.394-1.278,0.928l-5.025-3.592l-5.025,3.592c-0.651,0.466-1.518-0.166-1.278-0.928l1.864-5.889   l-4.969-3.669c-0.643-0.476-0.312-1.496,0.488-1.502l6.177-0.047l1.954-5.86C71.049,107.778,72.122,107.778,72.375,108.537z"
       id="path40" /><path
       style="fill:#F5F5F5;"
       d="M72.375,139.191l1.954,5.86l6.177,0.047c0.8,0.007,1.131,1.026,0.488,1.502l-4.969,3.67l1.864,5.889   c0.242,0.762-0.627,1.394-1.278,0.928l-5.025-3.592l-5.025,3.592c-0.651,0.465-1.518-0.166-1.278-0.928l1.864-5.889l-4.969-3.67   c-0.643-0.476-0.312-1.495,0.488-1.502l6.177-0.047l1.954-5.86C71.049,138.433,72.122,138.433,72.375,139.191z"
       id="path42" /><path
       style="fill:#F5F5F5;"
       d="M72.375,169.846l1.954,5.86l6.177,0.047c0.8,0.007,1.131,1.026,0.488,1.502l-4.969,3.67l1.864,5.889   c0.242,0.762-0.627,1.394-1.278,0.928l-5.025-3.592l-5.025,3.592c-0.651,0.465-1.518-0.165-1.278-0.928l1.864-5.889l-4.969-3.67   c-0.643-0.476-0.312-1.495,0.488-1.502l6.177-0.047l1.954-5.86C71.049,169.087,72.122,169.087,72.375,169.846z"
       id="path44" /><path
       style="fill:#F5F5F5;"
       d="M72.375,200.5l1.954,5.86l6.177,0.047c0.8,0.007,1.131,1.027,0.488,1.502l-4.969,3.67l1.864,5.889   c0.242,0.762-0.627,1.394-1.278,0.928l-5.025-3.592l-5.025,3.592c-0.651,0.465-1.518-0.166-1.278-0.928l1.864-5.889l-4.969-3.67   c-0.643-0.474-0.312-1.495,0.488-1.502l6.177-0.047l1.954-5.86C71.049,199.741,72.122,199.741,72.375,200.5z"
       id="path46" /><path
       style="fill:#F5F5F5;"
       d="M72.375,231.154l1.954,5.86l6.177,0.047c0.8,0.007,1.131,1.026,0.488,1.502l-4.969,3.67l1.864,5.889   c0.242,0.762-0.627,1.394-1.278,0.928l-5.025-3.592l-5.025,3.592c-0.651,0.465-1.518-0.166-1.278-0.928l1.864-5.889l-4.969-3.67   c-0.643-0.476-0.312-1.495,0.488-1.502l6.177-0.047l1.954-5.86C71.049,230.396,72.122,230.396,72.375,231.154z"
       id="path48" /><path
       style="fill:#F5F5F5;"
       d="M96.169,123.566l1.954,5.86l6.177,0.047c0.8,0.007,1.131,1.027,0.488,1.502l-4.969,3.67l1.864,5.889   c0.242,0.762-0.627,1.394-1.278,0.928l-5.025-3.592l-5.025,3.592c-0.651,0.465-1.518-0.166-1.278-0.928l1.864-5.889l-4.969-3.67   c-0.643-0.476-0.312-1.495,0.488-1.502l6.177-0.047l1.954-5.86C94.842,122.808,95.916,122.808,96.169,123.566z"
       id="path50" /><path
       style="fill:#F5F5F5;"
       d="M96.169,154.221l1.954,5.86l6.177,0.047c0.8,0.007,1.131,1.027,0.488,1.502l-4.969,3.67l1.864,5.889   c0.242,0.762-0.627,1.394-1.278,0.928l-5.025-3.592l-5.025,3.592c-0.651,0.465-1.518-0.165-1.278-0.928l1.864-5.889l-4.969-3.67   c-0.643-0.474-0.312-1.495,0.488-1.502l6.177-0.047l1.954-5.86C94.842,153.462,95.916,153.462,96.169,154.221z"
       id="path52" /><path
       style="fill:#F5F5F5;"
       d="M96.169,184.875l1.954,5.86l6.177,0.047c0.8,0.007,1.131,1.026,0.488,1.502l-4.969,3.67l1.864,5.889   c0.242,0.762-0.627,1.394-1.278,0.928l-5.025-3.592l-5.025,3.592c-0.651,0.465-1.518-0.166-1.278-0.928l1.864-5.889l-4.969-3.67   c-0.643-0.476-0.312-1.495,0.488-1.502l6.177-0.047l1.954-5.86C94.842,184.116,95.916,184.116,96.169,184.875z"
       id="path54" /><path
       style="fill:#F5F5F5;"
       d="M96.169,215.529l1.954,5.86l6.177,0.047c0.8,0.007,1.131,1.026,0.488,1.502l-4.969,3.67l1.864,5.889   c0.242,0.762-0.627,1.394-1.278,0.928l-5.025-3.592l-5.025,3.592c-0.651,0.466-1.518-0.166-1.278-0.928l1.864-5.889l-4.969-3.67   c-0.643-0.476-0.312-1.495,0.488-1.502l6.177-0.047l1.954-5.86C94.842,214.771,95.916,214.771,96.169,215.529z"
       id="path56" /><path
       style="fill:#F5F5F5;"
       d="M119.962,108.537l1.954,5.86l6.177,0.047c0.8,0.007,1.131,1.027,0.488,1.502l-4.969,3.669   l1.864,5.889c0.242,0.762-0.627,1.394-1.278,0.928l-5.026-3.591l-5.025,3.592c-0.651,0.466-1.518-0.166-1.278-0.928l1.864-5.889   l-4.969-3.669c-0.643-0.476-0.312-1.496,0.488-1.502l6.177-0.047l1.954-5.86C118.636,107.778,119.709,107.778,119.962,108.537z"
       id="path58" /><path
       style="fill:#F5F5F5;"
       d="M119.962,139.191l1.954,5.86l6.177,0.047c0.8,0.007,1.131,1.026,0.488,1.502l-4.969,3.67   l1.864,5.889c0.242,0.762-0.627,1.394-1.278,0.928l-5.026-3.592l-5.025,3.592c-0.651,0.465-1.518-0.166-1.278-0.928l1.864-5.889   l-4.969-3.67c-0.643-0.476-0.312-1.495,0.488-1.502l6.177-0.047l1.954-5.86C118.636,138.433,119.709,138.433,119.962,139.191z"
       id="path60" /><path
       style="fill:#F5F5F5;"
       d="M119.962,169.846l1.954,5.86l6.177,0.047c0.8,0.007,1.131,1.026,0.488,1.502l-4.969,3.67   l1.864,5.889c0.242,0.762-0.627,1.394-1.278,0.928l-5.026-3.593l-5.025,3.592c-0.651,0.465-1.518-0.166-1.278-0.928l1.864-5.889   l-4.969-3.67c-0.643-0.476-0.312-1.495,0.488-1.502l6.177-0.047l1.954-5.86C118.636,169.087,119.709,169.087,119.962,169.846z"
       id="path62" /><path
       style="fill:#F5F5F5;"
       d="M119.962,200.5l1.954,5.86l6.177,0.047c0.8,0.007,1.131,1.027,0.488,1.502l-4.969,3.67l1.864,5.889   c0.242,0.762-0.627,1.394-1.278,0.928l-5.026-3.592l-5.025,3.592c-0.651,0.465-1.518-0.166-1.278-0.928l1.864-5.889l-4.969-3.67   c-0.643-0.474-0.312-1.495,0.488-1.502l6.177-0.047l1.954-5.86C118.636,199.741,119.709,199.741,119.962,200.5z"
       id="path64" /><path
       style="fill:#F5F5F5;"
       d="M119.962,231.154l1.954,5.86l6.177,0.047c0.8,0.007,1.131,1.026,0.488,1.502l-4.969,3.67   l1.864,5.889c0.242,0.762-0.627,1.394-1.278,0.928l-5.026-3.592l-5.025,3.592c-0.651,0.465-1.518-0.166-1.278-0.928l1.864-5.889   l-4.969-3.67c-0.643-0.476-0.312-1.495,0.488-1.502l6.177-0.047l1.954-5.86C118.636,230.396,119.709,230.396,119.962,231.154z"
       id="path66" /><path
       style="fill:#F5F5F5;"
       d="M143.755,123.566l1.954,5.86l6.177,0.047c0.8,0.007,1.131,1.027,0.488,1.502l-4.969,3.67   l1.864,5.889c0.242,0.762-0.627,1.394-1.278,0.928l-5.025-3.592l-5.025,3.592c-0.651,0.465-1.518-0.166-1.278-0.928l1.864-5.889   l-4.969-3.67c-0.643-0.476-0.312-1.495,0.488-1.502l6.177-0.047l1.954-5.86C142.43,122.808,143.502,122.808,143.755,123.566z"
       id="path68" /><path
       style="fill:#F5F5F5;"
       d="M143.755,154.221l1.954,5.86l6.177,0.047c0.8,0.007,1.131,1.027,0.488,1.502l-4.969,3.67   l1.864,5.889c0.242,0.762-0.627,1.394-1.278,0.928l-5.025-3.592l-5.025,3.592c-0.651,0.465-1.518-0.165-1.278-0.928l1.864-5.889   l-4.969-3.67c-0.643-0.474-0.312-1.495,0.488-1.502l6.177-0.047l1.954-5.86C142.43,153.462,143.502,153.462,143.755,154.221z"
       id="path70" /><path
       style="fill:#F5F5F5;"
       d="M143.755,184.875l1.954,5.86l6.177,0.047c0.8,0.007,1.131,1.026,0.488,1.502l-4.969,3.67   l1.864,5.889c0.242,0.762-0.627,1.394-1.278,0.928l-5.025-3.592l-5.025,3.592c-0.651,0.465-1.518-0.166-1.278-0.928l1.864-5.889   l-4.969-3.67c-0.643-0.476-0.312-1.495,0.488-1.502l6.177-0.047l1.954-5.86C142.43,184.116,143.502,184.116,143.755,184.875z"
       id="path72" /><path
       style="fill:#F5F5F5;"
       d="M143.755,215.529l1.954,5.86l6.177,0.047c0.8,0.007,1.131,1.026,0.488,1.502l-4.969,3.67   l1.864,5.889c0.242,0.762-0.627,1.394-1.278,0.928l-5.025-3.592l-5.025,3.592c-0.651,0.466-1.518-0.166-1.278-0.928l1.864-5.889   l-4.969-3.67c-0.643-0.476-0.312-1.495,0.488-1.502l6.177-0.047l1.954-5.86C142.43,214.771,143.502,214.771,143.755,215.529z"
       id="path74" /><path
       style="fill:#F5F5F5;"
       d="M167.549,108.537l1.954,5.86l6.177,0.047c0.8,0.007,1.131,1.027,0.488,1.502l-4.969,3.669   l1.864,5.889c0.242,0.762-0.627,1.394-1.278,0.928l-5.025-3.592l-5.025,3.592c-0.651,0.466-1.518-0.166-1.278-0.928l1.864-5.889   l-4.969-3.669c-0.643-0.476-0.312-1.496,0.488-1.502l6.177-0.047l1.954-5.86C166.222,107.778,167.296,107.778,167.549,108.537z"
       id="path76" /><path
       style="fill:#F5F5F5;"
       d="M167.549,139.191l1.954,5.86l6.177,0.047c0.8,0.007,1.131,1.026,0.488,1.502l-4.969,3.67   l1.864,5.889c0.242,0.762-0.627,1.394-1.278,0.928l-5.025-3.592l-5.025,3.592c-0.651,0.465-1.518-0.166-1.278-0.928l1.864-5.889   l-4.969-3.67c-0.643-0.476-0.312-1.495,0.488-1.502l6.177-0.047l1.954-5.86C166.222,138.433,167.296,138.433,167.549,139.191z"
       id="path78" /><path
       style="fill:#F5F5F5;"
       d="M167.549,169.846l1.954,5.86l6.177,0.047c0.8,0.007,1.131,1.026,0.488,1.502l-4.969,3.67   l1.864,5.889c0.242,0.762-0.627,1.394-1.278,0.928l-5.025-3.592l-5.025,3.592c-0.651,0.465-1.518-0.165-1.278-0.928l1.864-5.889   l-4.969-3.67c-0.643-0.476-0.312-1.495,0.488-1.502l6.177-0.047l1.954-5.86C166.222,169.087,167.296,169.087,167.549,169.846z"
       id="path80" /><path
       style="fill:#F5F5F5;"
       d="M167.549,200.5l1.954,5.86l6.177,0.047c0.8,0.007,1.131,1.027,0.488,1.502l-4.969,3.67l1.864,5.889   c0.242,0.762-0.627,1.394-1.278,0.928l-5.025-3.592l-5.025,3.592c-0.651,0.465-1.518-0.166-1.278-0.928l1.864-5.889l-4.969-3.67   c-0.643-0.474-0.312-1.495,0.488-1.502l6.177-0.047l1.954-5.86C166.222,199.741,167.296,199.741,167.549,200.5z"
       id="path82" /><path
       style="fill:#F5F5F5;"
       d="M167.549,231.154l1.954,5.86l6.177,0.047c0.8,0.007,1.131,1.026,0.488,1.502l-4.969,3.67   l1.864,5.889c0.242,0.762-0.627,1.394-1.278,0.928l-5.025-3.592l-5.025,3.592c-0.651,0.465-1.518-0.166-1.278-0.928l1.864-5.889   l-4.969-3.67c-0.643-0.476-0.312-1.495,0.488-1.502l6.177-0.047l1.954-5.86C166.222,230.396,167.296,230.396,167.549,231.154z"
       id="path84" /><path
       style="fill:#F5F5F5;"
       d="M191.342,123.566l1.954,5.86l6.177,0.047c0.8,0.007,1.131,1.027,0.488,1.502l-4.969,3.67   l1.864,5.889c0.242,0.762-0.627,1.394-1.278,0.928l-5.025-3.592l-5.025,3.592c-0.651,0.465-1.518-0.166-1.278-0.928l1.864-5.889   l-4.969-3.67c-0.643-0.476-0.312-1.495,0.488-1.502l6.177-0.047l1.954-5.86C190.016,122.808,191.089,122.808,191.342,123.566z"
       id="path86" /><path
       style="fill:#F5F5F5;"
       d="M191.342,154.221l1.954,5.86l6.177,0.047c0.8,0.007,1.131,1.027,0.488,1.502l-4.969,3.67   l1.864,5.889c0.242,0.762-0.627,1.394-1.278,0.928l-5.025-3.592l-5.025,3.592c-0.651,0.465-1.518-0.165-1.278-0.928l1.864-5.889   l-4.969-3.67c-0.643-0.474-0.312-1.495,0.488-1.502l6.177-0.047l1.954-5.86C190.016,153.462,191.089,153.462,191.342,154.221z"
       id="path88" /><path
       style="fill:#F5F5F5;"
       d="M191.342,184.875l1.954,5.86l6.177,0.047c0.8,0.007,1.131,1.026,0.488,1.502l-4.969,3.67   l1.864,5.889c0.242,0.762-0.627,1.394-1.278,0.928l-5.025-3.592l-5.025,3.592c-0.651,0.465-1.518-0.166-1.278-0.928l1.864-5.889   l-4.969-3.67c-0.643-0.476-0.312-1.495,0.488-1.502l6.177-0.047l1.954-5.86C190.016,184.116,191.089,184.116,191.342,184.875z"
       id="path90" /><path
       style="fill:#F5F5F5;"
       d="M191.342,215.529l1.954,5.86l6.177,0.047c0.8,0.007,1.131,1.026,0.488,1.502l-4.969,3.67   l1.864,5.889c0.242,0.762-0.627,1.394-1.278,0.928l-5.025-3.592l-5.025,3.592c-0.651,0.466-1.518-0.166-1.278-0.928l1.864-5.889   l-4.969-3.67c-0.643-0.476-0.312-1.495,0.488-1.502l6.177-0.047l1.954-5.86C190.016,214.771,191.089,214.771,191.342,215.529z"
       id="path92" /><path
       style="fill:#F5F5F5;"
       d="M215.136,108.537l1.954,5.86l6.177,0.047c0.8,0.007,1.131,1.027,0.488,1.502l-4.969,3.669   l1.864,5.889c0.242,0.762-0.627,1.394-1.278,0.928l-5.025-3.592l-5.025,3.592c-0.651,0.466-1.518-0.166-1.278-0.928l1.864-5.889   l-4.969-3.669c-0.643-0.476-0.312-1.496,0.488-1.502l6.177-0.047l1.954-5.86C213.81,107.778,214.882,107.778,215.136,108.537z"
       id="path94" /><path
       style="fill:#F5F5F5;"
       d="M215.136,139.191l1.954,5.86l6.177,0.047c0.8,0.007,1.131,1.026,0.488,1.502l-4.969,3.67   l1.864,5.889c0.242,0.762-0.627,1.394-1.278,0.928l-5.025-3.592l-5.025,3.592c-0.651,0.465-1.518-0.166-1.278-0.928l1.864-5.889   l-4.969-3.67c-0.643-0.476-0.312-1.495,0.488-1.502l6.177-0.047l1.954-5.86C213.81,138.433,214.882,138.433,215.136,139.191z"
       id="path96" /><path
       style="fill:#F5F5F5;"
       d="M215.136,169.846l1.954,5.86l6.177,0.047c0.8,0.007,1.131,1.026,0.488,1.502l-4.969,3.67   l1.864,5.889c0.242,0.762-0.627,1.394-1.278,0.928l-5.025-3.592l-5.025,3.592c-0.651,0.465-1.518-0.165-1.278-0.928l1.864-5.889   l-4.969-3.67c-0.643-0.476-0.312-1.495,0.488-1.502l6.177-0.047l1.954-5.86C213.81,169.087,214.882,169.087,215.136,169.846z"
       id="path98" /><path
       style="fill:#F5F5F5;"
       d="M215.136,200.5l1.954,5.86l6.177,0.047c0.8,0.007,1.131,1.027,0.488,1.502l-4.969,3.67l1.864,5.889   c0.242,0.762-0.627,1.394-1.278,0.928l-5.025-3.592l-5.025,3.592c-0.651,0.465-1.518-0.166-1.278-0.928l1.864-5.889l-4.969-3.67   c-0.643-0.474-0.312-1.495,0.488-1.502l6.177-0.047l1.954-5.86C213.81,199.741,214.882,199.741,215.136,200.5z"
       id="path100" /><path
       style="fill:#F5F5F5;"
       d="M215.136,231.154l1.954,5.86l6.177,0.047c0.8,0.007,1.131,1.026,0.488,1.502l-4.969,3.67   l1.864,5.889c0.242,0.762-0.627,1.394-1.278,0.928l-5.025-3.592l-5.025,3.592c-0.651,0.465-1.518-0.166-1.278-0.928l1.864-5.889   l-4.969-3.67c-0.643-0.476-0.312-1.495,0.488-1.502l6.177-0.047l1.954-5.86C213.81,230.396,214.882,230.396,215.136,231.154z"
       id="path102" /></g><g
     id="g106" /><g
     id="g108" /><g
     id="g110" /><g
     id="g112" /><g
     id="g114" /><g
     id="g116" /><g
     id="g118" /><g
     id="g120" /><g
     id="g122" /><g
     id="g124" /><g
     id="g126" /><g
     id="g128" /><g
     id="g130" /><g
     id="g132" /><g
     id="g134" /></svg>