<?xml version="1.0" encoding="UTF-8" standalone="no"?>
<svg
   xmlns:dc="http://purl.org/dc/elements/1.1/"
   xmlns:cc="http://creativecommons.org/ns#"
   xmlns:rdf="http://www.w3.org/1999/02/22-rdf-syntax-ns#"
   xmlns:svg="http://www.w3.org/2000/svg"
   xmlns="http://www.w3.org/2000/svg"
   xmlns:sodipodi="http://sodipodi.sourceforge.net/DTD/sodipodi-0.dtd"
   xmlns:inkscape="http://www.inkscape.org/namespaces/inkscape"
   version="1.1"
   id="Layer_1"
   x="0px"
   y="0px"
   viewBox="0 0 512 512"
   style="enable-background:new 0 0 512 512;"
   xml:space="preserve"
   sodipodi:docname="french.svg"
   inkscape:version="1.0.2 (e86c870879, 2021-01-15)"><metadata
     id="metadata141"><rdf:RDF><cc:Work
         rdf:about=""><dc:format>image/svg+xml</dc:format><dc:type
           rdf:resource="http://purl.org/dc/dcmitype/StillImage" /><dc:title></dc:title></cc:Work></rdf:RDF></metadata><defs
     id="defs139" /><sodipodi:namedview
     pagecolor="#ffffff"
     bordercolor="#666666"
     borderopacity="1"
     objecttolerance="10"
     gridtolerance="10"
     guidetolerance="10"
     inkscape:pageopacity="0"
     inkscape:pageshadow="2"
     inkscape:window-width="1920"
     inkscape:window-height="1030"
     id="namedview137"
     showgrid="false"
     showguides="false"
     inkscape:zoom="0.5"
     inkscape:cx="180.27092"
     inkscape:cy="70.146892"
     inkscape:window-x="0"
     inkscape:window-y="27"
     inkscape:window-maximized="1"
     inkscape:current-layer="Layer_1"
     inkscape:document-rotation="0"
     inkscape:snap-global="true"
     inkscape:object-paths="true"
     inkscape:snap-intersection-paths="true"
     inkscape:snap-smooth-nodes="true"
     inkscape:snap-midpoints="true"
     inkscape:snap-object-midpoints="true"
     inkscape:snap-center="true"
     inkscape:snap-text-baseline="true"
     inkscape:snap-bbox="true"
     inkscape:bbox-paths="true"
     inkscape:bbox-nodes="true"
     inkscape:snap-bbox-edge-midpoints="true"
     inkscape:snap-bbox-midpoints="true" /><g
     id="g383"
     transform="matrix(0.71915125,0,0,1,-2.6933396e-4,0)"><path
       style="fill:#41479b"
       d="m 8.828,268.903 h 220.68996 c 4.875,0 8.828,-3.953 8.828,-8.828 V 97.104 c 0,-4.876 -3.953,-8.828 -8.828,-8.828 H 38.345 C 17.167,88.277 -3e-7,105.444 -3e-7,126.622 v 133.453 c 0,4.876 3.953,8.828 8.8280003,8.828 z"
       id="path20" /><path
       style="fill:#41479b"
       d="M 8.827041,243.097 H 229.517 c 4.875,0 8.828,3.953 8.828,8.828 v 162.971 c 0,4.876 -3.953,8.828 -8.828,8.828 H 38.344041 c -21.178,-10e-4 -38.345,-17.168 -38.345,-38.346 V 251.925 c 0,-4.876 3.953,-8.828 8.828,-8.828 z"
       id="path20-3" /></g><g
     id="g238"
     style="fill:#ff4b55;fill-opacity:1"
     transform="matrix(0.71573602,0,0,1,145.54316,0)"><path
       style="fill:#ff4b55;fill-opacity:1"
       d="M 503.17104,268.905 H 282.48108 c -4.875,0 -8.828,-3.953 -8.828,-8.828 V 97.105995 c 0,-4.876 3.953,-8.828 8.828,-8.828 h 191.17296 c 21.178,10e-4 38.345,17.168005 38.345,38.346005 v 133.453 c 0,4.876 -3.953,8.828 -8.828,8.828 z"
       id="path20-6" /><path
       style="fill:#ff4b55;fill-opacity:1"
       d="M 503.172,243.099 H 282.48204 c -4.875,0 -8.828,3.953 -8.828,8.828 v 162.971 c 0,4.876 3.953,8.828 8.828,8.828 H 473.655 C 494.833,423.725 512,406.558 512,385.38 V 251.927 c 0,-4.876 -3.953,-8.828 -8.828,-8.828 z"
       id="path20-3-7" /></g><rect
     style="fill:#f5f5f5;stroke-width:1.01777"
     id="rect272"
     width="170"
     height="335.448"
     x="171.40652"
     y="88.276001" /><rect
     style="fill:#41479b;fill-opacity:1;stroke-width:2.42485"
     id="rect15"
     width="75.089806"
     height="335.44803"
     x="96.316719"
     y="88.276001" /><rect
     style="fill:#ff4b55;fill-opacity:1;stroke-width:2.32016"
     id="rect17"
     width="59.096588"
     height="335.448"
     x="341.40652"
     y="88.276001" /></svg>
