<?xml version="1.0" encoding="UTF-8" standalone="no"?>
<!-- Generator: Adobe Illustrator 19.0.0, SVG Export Plug-In . SVG Version: 6.00 Build 0)  -->

<svg
   xmlns:dc="http://purl.org/dc/elements/1.1/"
   xmlns:cc="http://creativecommons.org/ns#"
   xmlns:rdf="http://www.w3.org/1999/02/22-rdf-syntax-ns#"
   xmlns:svg="http://www.w3.org/2000/svg"
   xmlns="http://www.w3.org/2000/svg"
   xmlns:sodipodi="http://sodipodi.sourceforge.net/DTD/sodipodi-0.dtd"
   xmlns:inkscape="http://www.inkscape.org/namespaces/inkscape"
   version="1.1"
   id="Layer_1"
   x="0px"
   y="0px"
   viewBox="0 0 511.6 511.6"
   style="enable-background:new 0 0 511.6 511.6;"
   xml:space="preserve"
   inkscape:version="0.91 r13725"
   sodipodi:docname="allgemein.svg"><metadata
     id="metadata69"><rdf:RDF><cc:Work
         rdf:about=""><dc:format>image/svg+xml</dc:format><dc:type
           rdf:resource="http://purl.org/dc/dcmitype/StillImage" /><dc:title></dc:title></cc:Work></rdf:RDF></metadata><defs
     id="defs67" /><sodipodi:namedview
     pagecolor="#ffffff"
     bordercolor="#666666"
     borderopacity="1"
     objecttolerance="10"
     gridtolerance="10"
     guidetolerance="10"
     inkscape:pageopacity="0"
     inkscape:pageshadow="2"
     inkscape:window-width="1920"
     inkscape:window-height="1027"
     id="namedview65"
     showgrid="false"
     inkscape:zoom="1.1775899"
     inkscape:cx="246.09982"
     inkscape:cy="340.54119"
     inkscape:window-x="1920"
     inkscape:window-y="25"
     inkscape:window-maximized="1"
     inkscape:current-layer="Layer_1" /><g
     transform="matrix(1.5000234,0,0,1.5000234,-0.19999049,-264.21611)"
     id="g44"><g
       id="g46"><polygon
         style="fill:#ccd1d9"
         points="213.359,421.391 234.672,496 106.672,496 127.938,421.422 "
         id="polygon48" /></g><path
       style="fill:#f2f2f2"
       inkscape:connector-curvature="0"
       d="m 21.328,432 c -5.875,0 -10.656,-4.781 -10.656,-10.656 l 0,-202.672 C 10.672,212.797 15.453,208 21.328,208 L 320,208 c 5.875,0 10.672,4.797 10.672,10.672 l 0,202.672 C 330.672,427.219 325.875,432 320,432 l -298.672,0 z"
       id="path50" /><path
       id="path8103"
       d="M 21.328,432 C 121.41845,507.30654 323.40811,135.55337 330.672,218.672 l 0,202.672 C 330.672,427.219 325.875,432 320,432 Z"
       inkscape:connector-curvature="0"
       style="fill:#d4e1eb;fill-opacity:1"
       sodipodi:nodetypes="ccssc" /><path
       style="fill:#e6e9ed"
       inkscape:connector-curvature="0"
       d="m 320,197.344 -298.672,0 C 9.547,197.344 0,206.891 0,218.672 l 0,202.672 c 0,11.781 9.547,21.328 21.328,21.328 l 298.672,0 c 11.781,0 21.328,-9.547 21.328,-21.328 l 0,-202.672 c 0,-11.781 -9.547,-21.328 -21.328,-21.328 z m 0,224 -298.672,0 0,-202.672 298.672,0 0,202.672 z"
       id="path52" /><rect
       style="fill:#e6e9ed"
       x="15.953"
       y="400"
       width="309.43799"
       height="31.062"
       id="rect54" /><path
       style="fill:#434a54"
       inkscape:connector-curvature="0"
       d="m 181.328,421.344 c 0,5.891 -4.766,10.656 -10.656,10.656 -5.89,0 -10.672,-4.766 -10.672,-10.656 0,-5.89 4.781,-10.672 10.672,-10.672 5.891,0 10.656,4.781 10.656,10.672 z"
       id="path56" /><path
       style="fill:#e6e9ed"
       inkscape:connector-curvature="0"
       d="m 234.672,474.672 -128,0 c -5.891,0 -10.672,4.781 -10.672,10.672 0,5.891 4.781,10.656 10.672,10.656 l 128,0 c 5.891,0 10.656,-4.766 10.656,-10.656 0,-5.89 -4.766,-10.672 -10.656,-10.672 z"
       id="path58" /></g><g
     id="g8075"
     transform="matrix(0.49792675,0,0,0.49792675,134.99974,78.779578)"><g
       id="g8031"><g
         id="g8033"><g
           id="g8098"
           transform="translate(-10.97836,0)"><path
             style="fill:#e7ba00;fill-opacity:1"
             inkscape:connector-curvature="0"
             d="m 363.909,333.584 0,-60.654 -49.13,0 c -3.463,-15.158 -9.507,-29.286 -17.534,-42.05 l 34.83,-34.828 -42.914,-42.881 -34.812,34.795 C 241.571,179.941 227.443,173.9 212.283,170.437 l 0,-49.133 -60.654,0 0,49.133 c -15.163,3.463 -29.288,9.504 -42.069,17.558 L 74.732,153.171 31.851,196.052 66.68,230.88 c -8.039,12.764 -14.083,26.892 -17.548,42.05 l -49.131,0 0,60.654 49.13,0 c 3.465,15.163 9.493,29.29 17.534,42.055 l -34.814,34.825 42.886,42.914 34.823,-34.83 c 12.781,8.027 26.906,14.071 42.069,17.534 l 0,49.13 60.654,0 0,-49.13 c 15.161,-3.463 29.271,-9.507 42.053,-17.534 l 34.825,34.83 42.914,-42.914 -34.83,-34.825 c 8.027,-12.797 14.071,-26.892 17.534,-42.055 l 49.13,0 z m -181.953,45.49 c -41.875,0 -75.816,-33.943 -75.816,-75.816 0,-41.878 33.941,-75.812 75.816,-75.812 41.875,0 75.814,33.934 75.814,75.812 0.001,41.872 -33.938,75.816 -75.814,75.816 z"
             id="path8035" /><path
             style="fill:#2c7ca0;fill-opacity:1"
             inkscape:connector-curvature="0"
             d="m 485.212,106.141 0,-30.325 -24.577,0 c -1.718,-7.584 -4.737,-14.631 -8.77,-21.027 L 469.282,37.373 447.837,15.933 430.425,33.346 C 424.027,29.321 416.984,26.299 409.4,24.581 l 0,-24.581 -30.331,0 0,24.582 c -7.575,1.717 -14.627,4.739 -21.025,8.767 L 340.63,15.936 319.19,37.374 336.603,54.79 c -4.028,6.396 -7.053,13.443 -8.765,21.027 l -24.582,0 0,30.327 24.586,0 c 1.718,7.58 4.737,14.629 8.761,21.027 l -17.413,17.411 21.44,21.442 17.413,-17.415 c 6.398,4.03 13.45,7.052 21.034,8.77 l 0,24.577 30.322,0 0,-24.582 c 7.584,-1.717 14.631,-4.737 21.029,-8.767 l 17.413,17.416 21.44,-21.44 -17.417,-17.413 c 4.032,-6.398 7.052,-13.446 8.77,-21.027 l 24.578,0 0,-0.002 z m -90.976,22.742 c -20.937,0 -37.906,-16.967 -37.906,-37.906 0,-20.939 16.97,-37.906 37.906,-37.906 20.94,0 37.905,16.967 37.905,37.906 0,20.939 -16.964,37.906 -37.905,37.906 z"
             id="path8037" /><path
             id="path8096"
             d="m 507.16871,260.62207 0,-16.21044 -13.13781,0 c -0.91837,-4.05409 -2.5322,-7.82111 -4.68807,-11.24014 l 9.31038,-9.30984 -11.46358,-11.46091 -9.3077,9.30825 c -3.4201,-2.1516 -7.18499,-3.76703 -11.23907,-4.6854 l 0,-13.13995 -16.21365,0 0,13.14049 c -4.04927,0.91783 -7.81896,2.53326 -11.23906,4.68646 l -9.30878,-9.30824 -11.4609,11.45983 9.30824,9.30985 c -2.1532,3.41903 -3.77023,7.18605 -4.68539,11.24013 l -13.14049,0 0,16.21151 13.14263,0 c 0.91836,4.05195 2.53219,7.82004 4.68325,11.24013 l -9.30824,9.30718 11.4609,11.46197 9.30824,-9.30931 c 3.4201,2.15427 7.1898,3.7697 11.24388,4.68807 l 0,13.13781 16.20884,0 0,-13.14049 c 4.05408,-0.91783 7.8211,-2.53219 11.2412,-4.68646 l 9.30824,9.30985 11.46091,-11.46091 -9.31038,-9.30824 c 2.15533,-3.4201 3.76969,-7.18765 4.68806,-11.24013 l 13.13835,0 0,-10e-4 z m -48.63187,12.1569 c -11.19202,0 -20.26292,-9.06983 -20.26292,-20.26292 0,-11.1931 9.07143,-20.26293 20.26292,-20.26293 11.19362,0 20.26239,9.06983 20.26239,20.26293 0,11.19309 -9.06823,20.26292 -20.26239,20.26292 z"
             inkscape:connector-curvature="0"
             style="fill:#a02c6e;fill-opacity:1" /></g></g></g><g
       id="g8039" /><g
       id="g8041" /><g
       id="g8043" /><g
       id="g8045" /><g
       id="g8047" /><g
       id="g8049" /><g
       id="g8051" /><g
       id="g8053" /><g
       id="g8055" /><g
       id="g8057" /><g
       id="g8059" /><g
       id="g8061" /><g
       id="g8063" /><g
       id="g8065" /><g
       id="g8067" /></g></svg>