<?xml version="1.0" encoding="UTF-8" standalone="no"?>
<svg
   xmlns:dc="http://purl.org/dc/elements/1.1/"
   xmlns:cc="http://creativecommons.org/ns#"
   xmlns:rdf="http://www.w3.org/1999/02/22-rdf-syntax-ns#"
   xmlns:svg="http://www.w3.org/2000/svg"
   xmlns="http://www.w3.org/2000/svg"
   xml:space="preserve"
   style="enable-background:new 0 0 512 512;"
   viewBox="0 0 512 512"
   y="0px"
   x="0px"
   id="Icon"
   version="1.1"><metadata
   id="metadata55"><rdf:RDF><cc:Work
       rdf:about=""><dc:format>image/svg+xml</dc:format><dc:type
         rdf:resource="http://purl.org/dc/dcmitype/StillImage" /><dc:title></dc:title></cc:Work></rdf:RDF></metadata><defs
   id="defs53">
	
</defs>


<path
   style="fill:var(--icon-main);"
   d="M 155.75391 128.92188 C 142.80612 128.92188 132.12109 139.6069 132.12109 152.55469 L 132.12109 349.8418 C 132.12109 362.78959 142.80612 373.47461 155.75391 373.47461 L 353.04102 373.47461 C 365.9888 373.47461 376.67383 362.78959 376.67383 349.8418 L 376.67383 152.55469 C 376.67383 139.6069 365.9888 128.92187 353.04102 128.92188 L 155.75391 128.92188 z M 155.75391 145.67188 L 353.04102 145.67188 C 356.99903 145.67188 359.92383 148.59667 359.92383 152.55469 L 359.92383 349.8418 C 359.92383 353.79981 356.99903 356.72461 353.04102 356.72461 L 155.75391 356.72461 C 151.79588 356.72461 148.87109 353.79981 148.87109 349.8418 L 148.87109 152.55469 C 148.87109 148.59667 151.79588 145.67187 155.75391 145.67188 z M 254.39453 170.44922 C 217.99973 170.44922 194.76098 200.73897 191.36523 239.9043 L 170.75977 254.81445 L 191.92773 265.78125 C 194.01149 281.81651 199.34688 296.08681 207.76562 307.04883 C 202.64307 309.68995 199.47656 313.32907 199.47656 317.34766 C 199.47656 325.41013 212.19805 331.94922 227.89062 331.94922 C 239.96251 331.94922 250.27158 328.0835 254.39453 322.63477 C 258.51749 328.0835 268.82988 331.94922 280.89844 331.94922 C 296.59141 331.94922 309.32031 325.41013 309.32031 317.34766 C 309.32031 313.31303 306.15714 309.70602 301.03125 307.04883 C 309.45293 296.08681 314.77757 281.81651 316.86133 265.78125 L 338.03711 254.81445 L 317.42383 239.9043 C 314.02808 200.73897 290.79267 170.44922 254.39453 170.44922 z M 236.44922 186.66992 C 245.96506 186.66992 253.83152 196.04409 255.16016 208.25977 C 257.78203 201.14365 264.61962 196.08203 272.64062 196.08203 C 282.92699 196.08203 291.26172 204.42894 291.26172 214.71875 C 291.26172 222.96162 285.90895 229.93749 278.49023 232.38672 C 300.96677 240.85348 302.97656 263.05652 302.97656 289.0957 C 302.97656 294.88225 303.44291 300.27832 300.51953 305.75586 C 300.39831 306.00946 300.20578 306.26151 300.00586 306.55273 C 294.95785 304.19158 288.25553 302.75391 280.89844 302.75391 C 268.82988 302.75391 258.51791 306.6284 254.39453 312.07617 C 250.27158 306.6284 239.96251 302.75391 227.89062 302.75391 C 220.52811 302.75391 213.83528 304.16896 208.79102 306.55273 C 208.58685 306.25993 208.40264 306.0093 208.27734 305.75586 C 205.35224 300.27832 205.83789 294.88225 205.83789 289.0957 C 205.83789 264.3949 207.6349 243.14487 227.00391 233.80273 C 221.34156 229.44524 217.53516 221.29152 217.53516 211.93555 C 217.53516 197.99127 225.99836 186.66992 236.44922 186.66992 z M 245.82812 210.09766 C 241.73475 210.09766 238.42578 213.65148 238.42578 218.0293 C 238.42578 222.41731 241.73475 225.97656 245.82812 225.97656 C 249.91192 225.97656 253.23047 222.41731 253.23047 218.0293 C 253.23047 213.65148 249.91193 210.09766 245.82812 210.09766 z M 260.56836 212.31836 C 257.73699 212.31836 255.43555 214.77106 255.43555 217.78516 C 255.43555 220.81105 257.7374 223.25977 260.56836 223.25977 C 263.41017 223.25977 265.70117 220.81133 265.70117 217.78516 C 265.70117 214.77121 263.41017 212.31836 260.56836 212.31836 z M 254.56445 219.20117 C 253.97759 221.81288 253.08208 224.23655 251.9375 226.41602 L 240.61328 226.91211 L 255.14258 247.76953 L 267.83398 225.73242 L 257.94141 226.16406 L 257.94141 226.14648 C 256.362 224.12507 255.19888 221.77615 254.56445 219.20117 z "
   id="icon-maincolor" />

<path
   id="icon-detailcolor" style="fill:var(--icon-detail);"
   d="M 254.52734 56.066406 A 8.3758375 8.3758375 0 0 0 246.2793 64.560547 L 246.2793 103.67773 A 8.3758375 8.3758375 0 1 0 263.0293 103.67773 L 263.0293 64.560547 A 8.3758375 8.3758375 0 0 0 254.52734 56.066406 z M 92.884766 82.970703 A 8.3758375 8.3758375 0 0 0 87.050781 97.351562 L 114.71289 125.01367 A 8.3758375 8.3758375 0 1 0 126.55664 113.16992 L 98.894531 85.507812 A 8.3758375 8.3758375 0 0 0 92.884766 82.970703 z M 415.58398 82.974609 A 8.3758375 8.3758375 0 0 0 409.82812 85.507812 L 382.16602 113.16992 A 8.3758375 8.3758375 0 1 0 394.00977 125.01367 L 421.67188 97.351562 A 8.3758375 8.3758375 0 0 0 415.58398 82.974609 z M 68.015625 242.82422 A 8.3758375 8.3758375 0 1 0 68.015625 259.57422 L 107.13281 259.57422 A 8.3758375 8.3758375 0 1 0 107.13281 242.82422 L 68.015625 242.82422 z M 402.17578 242.82422 A 8.3758375 8.3758375 0 1 0 402.17578 259.57422 L 441.29297 259.57422 A 8.3758375 8.3758375 0 1 0 441.29297 242.82422 L 402.17578 242.82422 z M 388 374.82617 A 8.3758375 8.3758375 0 0 0 382.16602 389.20703 L 409.82812 416.86914 A 8.3758375 8.3758375 0 1 0 421.67188 405.02539 L 394.00977 377.36328 A 8.3758375 8.3758375 0 0 0 388 374.82617 z M 120.46875 374.83008 A 8.3758375 8.3758375 0 0 0 114.71289 377.36328 L 87.050781 405.02539 A 8.3758375 8.3758375 0 1 0 98.894531 416.86914 L 126.55664 389.20703 A 8.3758375 8.3758375 0 0 0 120.46875 374.83008 z M 254.52734 390.22656 A 8.3758375 8.3758375 0 0 0 246.2793 398.71875 L 246.2793 437.83789 A 8.3758375 8.3758375 0 1 0 263.0293 437.83789 L 263.0293 398.71875 A 8.3758375 8.3758375 0 0 0 254.52734 390.22656 z "
 /></svg>
