<?xml version="1.0" encoding="UTF-8" standalone="no"?>
<svg
   xmlns:dc="http://purl.org/dc/elements/1.1/"
   xmlns:cc="http://creativecommons.org/ns#"
   xmlns:rdf="http://www.w3.org/1999/02/22-rdf-syntax-ns#"
   xmlns:svg="http://www.w3.org/2000/svg"
   xmlns="http://www.w3.org/2000/svg"
   version="1.1"
   id="Icon"
   x="0px"
   y="0px"
   viewBox="0 0 512 512"
   style="enable-background:new 0 0 512 512;"
   xml:space="preserve"><metadata
   id="metadata55"><rdf:RDF><cc:Work
       rdf:about=""><dc:format>image/svg+xml</dc:format><dc:type
         rdf:resource="http://purl.org/dc/dcmitype/StillImage" /><dc:title></dc:title></cc:Work></rdf:RDF></metadata><defs
   id="defs53">
	
</defs>

<path
   id="icon-maincolor" style="fill:var(--icon-main)"
   d="m 256.00097,104.97165 c -14.59912,0 -29.1974,1.90588 -43.41992,5.7168 a 8.39584,8.39584 0 1 0 4.34375,16.2168 c 25.59903,-6.85924 52.55136,-6.85924 78.15039,0 a 8.39584,8.39584 0 1 0 4.3457,-16.2168 c -14.22252,-3.81092 -28.8208,-5.7168 -43.41992,-5.7168 z m -79.3125,21.29492 a 8.39584,8.39584 0 0 0 -4.57031,1.18164 c -12.69696,7.33059 -24.37712,16.29313 -34.74414,26.66015 a 8.39584,8.39584 0 1 0 11.87109,11.87305 c 9.3295,-9.3295 19.84132,-17.39719 31.26758,-23.99414 a 8.39584,8.39584 0 0 0 -3.82422,-15.7207 z m 159.21094,0.002 a 8.39584,8.39584 0 0 0 -4.41016,15.71874 c 11.42626,6.59695 21.93808,14.66464 31.26758,23.99415 a 8.39584,8.39584 0 1 0 11.87109,-11.87306 c -10.36701,-10.367 -22.04719,-19.32955 -34.74414,-26.66015 a 8.39584,8.39584 0 0 0 -3.98437,-1.17968 z m -79.89844,12.17577 c -74.06799,0 -134.29297,60.22303 -134.29297,134.29103 0,74.06799 60.22498,134.29296 134.29297,134.29296 74.06799,0 134.29102,-60.22498 134.29102,-134.29296 0,-74.06799 -60.22303,-134.29102 -134.29102,-134.29103 z m 0,16.78906 c 64.994,0 117.50195,52.50796 117.50195,117.50197 0,64.994 -52.50795,117.50194 -117.50195,117.50194 -64.994,0 -117.50195,-52.50795 -117.50195,-117.50194 0,-64.994 52.50795,-117.50196 117.50195,-117.50197 z m -0.0527,108.95899 a 8.39584,8.39584 0 0 0 -5.85938,14.41211 l 65.28516,65.38673 a 8.39584,8.39584 0 1 0 11.88086,-11.86328 l -65.28516,-65.38672 a 8.39584,8.39584 0 0 0 -6.02148,-2.54884 z" />

<path
   id="icon-detailcolor" style="fill:var(--icon-detail)"
   d="m 256.00097,171.89938 a 8.39584,8.39584 0 1 0 0,16.78906 c 28.3942,0 54.84364,14.31808 70.36914,38.0918 15.5255,23.77372 18.00195,53.74988 6.58594,79.74806 a 8.39584,8.39584 0 1 0 15.37304,6.75 c 13.68747,-31.17109 10.71424,-67.17373 -7.90039,-95.67774 -18.61462,-28.504 -50.3839,-45.70117 -84.42773,-45.70118 z" /></svg>
