<?xml version="1.0" encoding="UTF-8" standalone="no"?>
<svg
   xmlns:dc="http://purl.org/dc/elements/1.1/"
   xmlns:cc="http://creativecommons.org/ns#"
   xmlns:rdf="http://www.w3.org/1999/02/22-rdf-syntax-ns#"
   xmlns:svg="http://www.w3.org/2000/svg"
   xmlns="http://www.w3.org/2000/svg"
   version="1.1"
   id="Icon"
   x="0px"
   y="0px"
   viewBox="0 0 512 512"
   style="enable-background:new 0 0 512 512;"
   xml:space="preserve"><metadata
   id="metadata55"><rdf:RDF><cc:Work
       rdf:about=""><dc:format>image/svg+xml</dc:format><dc:type
         rdf:resource="http://purl.org/dc/dcmitype/StillImage" /><dc:title></dc:title></cc:Work></rdf:RDF></metadata><defs
   id="defs53">
</defs>

<path
   id="icon-maincolor"
   d="M 239.22461 245.0957 C 228.04571 245.0957 218.86143 252.31532 215.49023 261.87109 L 215.35352 261.87109 C 214.44208 264.47995 213.94141 267.2854 213.94141 270.21289 C 213.94141 273.17524 214.45246 276.01332 215.38477 278.64844 L 215.50391 278.64844 C 218.07783 285.90573 223.89339 291.63627 231.19922 294.10352 C 231.3071 294.13892 231.41295 294.17892 231.52148 294.21289 C 231.93963 294.34777 232.36565 294.46296 232.79297 294.57617 C 232.79358 294.57633 232.79587 294.57601 232.79688 294.57617 C 234.80851 295.09119 236.91909 295.36523 239.0957 295.36523 L 255.91992 295.36523 C 269.85443 295.36523 281.07227 284.1474 281.07227 270.21289 C 281.07227 263.24564 278.26898 256.95844 273.72266 252.41211 C 273.45935 252.1488 273.18885 251.89206 272.91406 251.64062 C 272.91106 251.63763 272.90534 251.63581 272.90234 251.63281 C 268.43226 247.57317 262.5017 245.0957 256.00195 245.0957 L 239.22461 245.0957 z M 348.26953 373.43359 C 343.63927 373.43359 339.88086 377.19202 339.88086 381.82227 C 339.88086 386.45253 343.63927 390.21094 348.26953 390.21094 C 352.89978 390.21094 356.6582 386.45253 356.6582 381.82227 C 356.6582 377.19202 352.89978 373.43359 348.26953 373.43359 z M 377.46289 389.45117 C 375.04727 389.53379 372.68436 390.65502 371.0957 392.7207 C 368.27057 396.39302 368.95937 401.65729 372.63086 404.48242 C 380.56101 410.58311 387.11727 418.54731 391.5957 427.51172 C 393.67008 431.66301 398.71258 433.33442 402.84961 431.26758 C 406.99335 429.19739 408.67482 424.15825 406.60547 420.01367 C 400.99967 408.79285 392.7884 398.8238 382.85938 391.18555 C 381.25272 389.94919 379.3417 389.38691 377.46289 389.45117 z "
   style="fill:var(--icon-main);" /><path
   style="fill:var(--icon-main);"
   d="m 255.99902,41.263673 c -69.55616,0 -125.82226,56.282054 -125.82226,125.822267 v 52.84571 c 0,10.93479 7.01438,20.25807 16.77734,23.7207 v 9.83008 c 0,13.87567 11.28839,25.16601 25.16406,25.16601 h 7.36719 c 3.63626,7.89911 8.34289,15.215 14.07031,21.78711 1.18776,1.36559 2.42618,2.68898 3.69531,3.97656 l -14.30468,28.60938 -39.8711,13.28906 c -46.35707,15.45766 -80.00195,64.25795 -80.00195,116.03711 0,4.63277 3.75395,8.38867 8.38672,8.38867 h 369.07812 c 4.63193,0 8.38868,-3.7559 8.38868,-8.38867 0,-51.77916 -33.64517,-100.58056 -80.00391,-116.03906 l -39.86914,-13.28711 -14.3125,-28.625 c 12.89426,-13.12409 21.84634,-30.48904 24.86523,-48.60156 l 1.78516,-10.69922 h 15.26563 c 13.87566,0 25.16406,-11.28839 25.16406,-25.16406 v -52.84571 c 0,-69.378323 -56.44395,-125.822267 -125.82227,-125.822267 z m 0,16.775391 c 57.3061,0 104.42932,44.434166 108.72656,100.658206 h -16.4707 C 347.65093,112.37208 309.92681,74.816407 263.50683,74.816407 h -15.01367 c -46.41914,0 -84.14493,37.555673 -84.74804,83.880863 H 147.27246 C 151.52105,102.4791 198.43707,58.039064 255.99902,58.039064 Z m -7.50586,33.552733 h 15.01367 c 37.58643,0 68.00814,30.744573 67.98633,68.289063 0,2.63974 -0.022,4.93813 -0.0664,7.0293 0,0.0268 0,0.0543 0,0.082 l -10.49219,-1.5 c -28.50291,-4.06993 -55.41457,-17.52589 -75.7793,-37.89062 -1.57362,-1.57278 -3.7071,-2.45703 -5.93164,-2.45703 -22.52719,0 -44.09089,10.26354 -58.3457,27.60351 3.51296,-34.15568 32.38755,-61.156253 67.61523,-61.156253 z m -12.58398,50.423833 c 22.57836,21.48706 51.78761,35.67685 82.65429,40.08398 l 12.34766,1.76563 c -0.82539,17.51863 -2.5111,35.09747 -4.92773,51.26562 -8.4e-4,0.005 -0.003,0.0117 -0.004,0.0176 -0.76836,5.19813 -1.37315,8.54316 -2.91992,17.88672 -4.44236,26.64493 -24.32465,50.73874 -50.57031,57.30078 -10.80141,2.69679 -22.18103,2.69595 -32.97657,0 -16.38791,-4.09677 -31.41379,-15.43464 -41.11132,-31.6875 h 16.98437 c -0.93231,-2.63512 -1.44336,-5.4732 -1.44336,-8.43555 0,-2.92749 0.50067,-5.73293 1.41211,-8.34179 h -24.33008 c -4.19911,-13.96877 -9.00251,-55.06945 -10.06445,-81.40821 l 11.28906,-15.05468 c 10.36858,-13.8203 26.50054,-22.40697 43.66016,-23.39258 z m -88.95508,33.45898 h 17.02539 c 0.0277,0.87488 0.0571,1.75373 0.0898,2.63868 8.4e-4,0.0302 0.004,0.0596 0.004,0.0898 v 0.008 c 0.58717,16.83668 1.98866,33.95521 4.07227,50.10742 h -12.80274 -0.002 c -4.62432,-0.001 -8.38672,-3.76214 -8.38672,-8.38671 z m 201.07031,0 h 17.02149 v 44.45704 c 0,4.62522 -3.76346,8.38671 -8.38867,8.38671 h -12.80274 c 2.13226,-16.51626 3.55376,-34.09173 4.125,-51.40234 0.0168,-0.48819 0.0298,-0.96161 0.0449,-1.44141 z m -184.29492,69.6211 h 6.87695 l 1.78516,10.70117 c 0.34056,2.03412 0.7582,4.06107 1.24219,6.07422 h -1.51563 c -4.62523,0 -8.38867,-3.76345 -8.38867,-8.38867 z m 110.02344,7.34765 c 4.52792,4.54387 7.31836,10.81826 7.31836,17.76953 0,13.93451 -11.21784,25.15235 -25.15235,25.15235 h -16.82421 c -2.17727,0 -4.28859,-0.27374 -6.30079,-0.78906 2.05463,0.54412 4.20603,0.84765 6.42969,0.84765 h 16.77539 c 13.90334,0 25.16406,-11.25988 25.16406,-25.16406 0,-6.9537 -2.83514,-13.25729 -7.41015,-17.81641 z m -42.5918,41.64649 c 0.12776,0.0434 0.25415,0.0895 0.38281,0.13086 -0.12906,-0.0403 -0.25466,-0.0885 -0.38281,-0.13086 z m 71.44727,23.55859 11.41211,22.82227 c -5.17045,14.96277 -11.46624,29.55933 -18.78321,43.5625 l -28.47656,-28.47656 z m -94.64063,2.8418 35.39453,35.39453 -26.60547,28.13477 C 209.4323,369.9996 203.1396,355.41026 197.97754,340.47266 Z m 30.55078,6.82226 c 5.75343,1.21209 11.61799,1.83204 17.48047,1.83204 4.58915,0 9.17882,-0.38404 13.7168,-1.12891 l -14.82031,15.67383 z m -54.82812,23.14454 c 6.46893,17.88772 14.4828,35.27449 23.875,51.78906 0.0159,0.0285 0.0309,0.0563 0.0469,0.084 0,0 0.002,0.002 0.002,0.002 6.86234,12.0697 14.5851,23.86517 22.95898,35.0625 l 10.31836,16.5664 H 80.18457 c 3.32422,-41.55402 30.97907,-79.32524 68.19726,-91.73633 z m 144.61914,0 35.30664,11.76757 c 37.21903,12.41109 64.875,50.18231 68.19922,91.73633 H 271.10644 l 10.31836,-16.5664 c 8.41079,-11.24011 16.18998,-23.12839 23.1211,-35.33985 0.0419,-0.0738 0.0811,-0.1508 0.12304,-0.22461 0.005,-0.009 0.0106,-0.0162 0.0156,-0.0254 9.27309,-16.35688 17.20388,-33.59331 23.625,-51.34765 z m -73.08008,17.29492 31.52148,31.52148 c -5.80961,9.76967 -12.1682,19.28427 -18.96679,28.34766 -0.41101,0.54775 0.17213,-0.31564 -11.78516,18.86133 l -11.375,-18.26368 c -0.1275,-0.20467 -0.26392,-0.40278 -0.4082,-0.5957 -6.79271,-9.06087 -13.12935,-18.53712 -18.90039,-28.23633 z"
   id="path5" /></svg>