<?xml version="1.0" encoding="UTF-8" standalone="no"?>
<svg
   xmlns:dc="http://purl.org/dc/elements/1.1/"
   xmlns:cc="http://creativecommons.org/ns#"
   xmlns:rdf="http://www.w3.org/1999/02/22-rdf-syntax-ns#"
   xmlns:svg="http://www.w3.org/2000/svg"
   xmlns="http://www.w3.org/2000/svg"
   xml:space="preserve"
   style="enable-background:new 0 0 512 512;"
   viewBox="0 0 512 512"
   y="0px"
   x="0px"
   id="Icon"
   version="1.1"><metadata
   id="metadata55"><rdf:RDF><cc:Work
       rdf:about=""><dc:format>image/svg+xml</dc:format><dc:type
         rdf:resource="http://purl.org/dc/dcmitype/StillImage" /><dc:title></dc:title></cc:Work></rdf:RDF></metadata><defs
   id="defs53">
	
</defs>
<path
   d="m 344.131,104.918 c -56.755,0 -106.985,28.338 -137.383,71.579 -21.62,-13.893 -46.536,-21.219 -72.453,-21.219 C 60.245,155.279 0,215.523 0,289.574 c 0,47.844 25.767,92.44 67.246,116.383 1.276,0.738 2.722,1.125 4.196,1.125 h 125.706 c 1.473,0 2.92,-0.387 4.197,-1.125 7.99,-4.611 15.482,-10.04 22.365,-16.188 5.381,5.518 11.172,10.717 17.369,15.542 1.474,1.148 3.289,1.771 5.157,1.771 h 195.791 c 1.868,0 3.682,-0.623 5.157,-1.771 C 488.375,373.238 512,324.935 512,272.787 512,180.223 436.695,104.918 344.131,104.918 Z M 194.858,390.295 h -52.169 v -25.18 c 0,-4.635 -3.758,-8.393 -8.393,-8.393 -4.635,0 -8.393,3.758 -8.393,8.393 v 25.18 H 73.733 C 64.645,384.817 56.461,378.185 49.308,370.663 L 69.71,350.26 c 3.278,-3.277 3.278,-8.592 -10e-4,-11.869 -3.277,-3.279 -8.591,-3.279 -11.87,0 l -19.251,19.252 c -13.923,-19.609 -21.8,-43.341 -21.8,-68.07 h 25.18 c 4.635,0 8.393,-3.758 8.393,-8.393 0,-4.635 -3.758,-8.393 -8.393,-8.393 H 18.005 c 3.57,-24.842 14.942,-47.183 31.541,-64.486 l 16.686,16.686 c 1.639,1.639 3.787,2.459 5.935,2.459 2.147,0 4.296,-0.82 5.934,-2.459 3.279,-3.277 3.279,-8.592 0.001,-11.869 l -16.09,-16.09 c 17.883,-13.999 39.897,-22.927 63.889,-24.63 v 24.847 c 0,4.635 3.758,8.393 8.393,8.393 4.635,0 8.393,-3.758 8.393,-8.393 V 172.37 c 19.689,1.384 38.509,7.633 55.1,18.319 -13.681,24.291 -21.526,52.287 -21.526,82.097 0,38.574 12.94,75.037 36.342,104.391 -5.497,4.919 -11.435,9.315 -17.745,13.118 z M 456.75,373.537 433.157,349.943 c -3.277,-3.277 -8.59,-3.279 -11.871,0 -3.278,3.277 -3.278,8.592 0,11.869 l 23.575,23.576 c -1.875,1.674 -3.79,3.316 -5.759,4.908 h -86.577 v -25.18 c 0,-4.635 -3.758,-8.393 -8.393,-8.393 -4.635,0 -8.393,3.758 -8.393,8.393 v 25.18 h -86.577 c -1.969,-1.592 -3.884,-3.233 -5.759,-4.908 l 23.574,-23.576 c 3.278,-3.277 3.278,-8.592 -10e-4,-11.869 -3.277,-3.279 -8.591,-3.279 -11.87,0 l -23.592,23.594 c -0.141,-0.157 -0.287,-0.311 -0.427,-0.469 -0.308,-0.453 -0.662,-0.884 -1.068,-1.283 -0.055,-0.054 -0.121,-0.09 -0.178,-0.143 -21.835,-25.134 -34.724,-56.708 -36.561,-90.462 h 33.344 c 4.635,0 8.393,-3.758 8.393,-8.393 0,-4.635 -3.758,-8.393 -8.393,-8.393 h -33.329 c 1.945,-35.345 16.099,-67.48 38.301,-92.274 l 23.509,23.511 c 1.639,1.639 3.787,2.459 5.935,2.459 2.147,0 4.296,-0.82 5.934,-2.459 3.279,-3.277 3.279,-8.592 0.001,-11.869 l -23.51,-23.512 c 24.794,-22.201 56.928,-36.355 92.273,-38.3 v 33.329 c 0,4.635 3.758,8.393 8.393,8.393 4.635,0 8.393,-3.758 8.393,-8.393 V 121.95 c 35.345,1.945 67.479,16.099 92.272,38.3 l -23.511,23.512 c -3.278,3.277 -3.278,8.592 0,11.869 1.639,1.639 3.787,2.459 5.935,2.459 2.148,0 4.296,-0.82 5.935,-2.459 l 23.51,-23.511 c 22.202,24.794 36.356,56.929 38.301,92.274 h -33.328 c -4.635,0 -8.393,3.758 -8.393,8.393 0,4.635 3.758,8.393 8.393,8.393 h 33.344 C 493.1,315.789 479.6,348.105 456.75,373.537 Z"
   id="icon-maincolor)"
   style="display:inline;fill:var(--icon-main);fill-opacity:1" />
<path
   id="icon-detailcolor)"
   d="m 384.67383,219.17383 c -0.78527,0.0461 -1.57074,0.20331 -2.33399,0.47656 -9.556,3.42 -57.76457,21.01649 -68.39257,31.64649 -6.341,6.33999 -9.83399,14.76928 -9.83399,23.73828 0,8.967 3.49299,17.39828 9.83399,23.73828 6.342,6.342 14.77223,9.83398 23.74023,9.83398 8.968,0 17.40023,-3.49203 23.74023,-9.83203 10.629,-10.627 28.22358,-58.83658 31.64258,-68.39258 1.092,-3.056 0.32721,-6.46867 -1.96679,-8.76367 -1.722,-1.72275 -4.07389,-2.58359 -6.42969,-2.44531 z m -13.83399,22.70703 c -7.631,19.58 -16.7982,40.53944 -21.2832,45.02344 -3.17,3.17 -7.38609,4.91601 -11.87109,4.91601 -4.484,0 -8.69914,-1.74601 -11.86914,-4.91601 h -0.002 c -3.17,-3.17 -4.91601,-7.38514 -4.91601,-11.86914 0,-4.486 1.74697,-8.7011 4.91797,-11.8711 4.481,-4.482 25.44043,-13.6502 45.02343,-21.2832 z m -273.357418,2.00976 c -2.356453,-0.13814 -4.706485,0.72257 -6.427734,2.44532 -2.294,2.295 -3.059797,5.70672 -1.966797,8.76172 3.563,9.955 15.799559,43.05156 23.726559,50.97656 5.073,5.074 11.81719,7.86719 18.99219,7.86719 7.173,0 13.91723,-2.79324 18.99024,-7.86524 5.073,-5.072 7.86523,-11.81819 7.86523,-18.99219 -0.001,-7.172 -2.79224,-13.91728 -7.86523,-18.98828 -7.927,-7.928 -41.02352,-20.16651 -50.978521,-23.72851 -0.764,-0.273 -1.550453,-0.43052 -2.335937,-0.47657 z m 13.998048,22.86915 c 13.257,5.332 24.98831,10.74612 27.44531,13.20312 1.903,1.904 2.94922,4.43209 2.94922,7.12109 0,2.691 -1.04722,5.21714 -2.94922,7.11914 v 0.002 c -1.902,1.901 -4.43109,2.94922 -7.12109,2.94922 -2.69,0 -5.2181,-1.04718 -7.1211,-2.95118 -2.457,-2.45499 -7.87012,-14.18635 -13.20312,-27.44335 z"
   style="display:inline;fill:var(--icon-detail);fill-opacity:1" />
















</svg>
