<?xml version="1.0" encoding="UTF-8" standalone="no"?>
<svg
   xmlns:dc="http://purl.org/dc/elements/1.1/"
   xmlns:cc="http://creativecommons.org/ns#"
   xmlns:rdf="http://www.w3.org/1999/02/22-rdf-syntax-ns#"
   xmlns:svg="http://www.w3.org/2000/svg"
   xmlns="http://www.w3.org/2000/svg"
   xml:space="preserve"
   style="enable-background:new 0 0 512 512;"
   viewBox="0 0 512 512"
   y="0px"
   x="0px"
   id="Icon"
   version="1.1">

<path
   id="icon-maincolor" style="fill:var(--icon-main)"
   d="m 231.9004,96.5742 c -74.068,0 -134.293,60.22301 -134.293,134.29101 0,73.90994 59.9695,134.03088 133.8203,134.28708 -2.0379,-5.4342 -3.6297,-11.0846 -4.7304,-16.9062 -62.5691,-2.715 -112.2989,-54.13138 -112.2989,-117.38088 0,-64.994 52.508,-117.50193 117.502,-117.50195 64.0895,0 116.0352,51.05771 117.4687,114.79687 5.7901,1.22414 11.4031,2.93398 16.793,5.08789 0.014,-0.79353 0.029,-1.58602 0.029,-2.38281 0,-74.06799 -60.223,-134.291 -134.291,-134.29101 z m 96.1094,146.10937 c -25.4011,0 -1.2983,16.78964 -24.7774,26.51563 -23.479,9.72565 -18.3149,-19.19686 -36.2851,-1.22657 -17.97,17.97095 10.952,12.80679 1.2265,36.28711 -9.7253,23.48045 -26.5234,-0.6237 -26.5234,24.79105 0,25.4146 16.7981,1.3094 26.5234,24.789 9.7255,23.481 -19.1965,18.3161 -1.2265,36.2871 17.9702,17.9708 12.8061,-10.9518 36.2851,-1.2265 23.4792,9.7267 -0.6237,26.5251 24.7774,26.5254 25.4012,0 1.3325,-16.8035 24.8008,-26.5254 23.479,-9.7253 18.3149,19.1973 36.2851,1.2265 17.9701,-17.971 -10.9518,-12.8061 -1.2266,-36.2871 9.7255,-23.4796 26.5235,0.6256 26.5235,-24.789 0,-25.41475 -16.798,-1.3106 -26.5235,-24.79105 -9.7252,-23.48032 19.1967,-18.31616 1.2266,-36.28711 -17.9702,-17.97029 -12.8061,10.95222 -36.2851,1.22657 -23.4683,-9.72155 0.6004,-26.50807 -24.8008,-26.51563 z m 0.012,55.1582 a 31.212,31.212 0 0 1 31.2129,31.21292 31.212,31.212 0 0 1 -31.2129,31.2129 31.212,31.212 0 0 1 -31.2109,-31.2129 31.212,31.212 0 0 1 31.2109,-31.21292 z" />

<path
   id="icon-detailcolor" style="fill:var(--icon-detail)"
   d="m 231.8496,145.05271 c -23.5058,0 -42.7349,19.19979 -42.8711,42.69531 -14.1501,0.36909 -25.6817,12.11543 -25.6816,26.34766 v 59.94727 c 0,14.46146 11.9037,26.36523 26.3652,26.36523 h 39.291 c 1.6844,-5.81415 3.8688,-11.41682 6.502,-16.76172 h -45.793 c -5.4653,0 -9.6035,-4.13826 -9.6035,-9.60351 v -59.94727 c 0,-5.46525 4.1382,-9.60352 9.6035,-9.60351 h 84.4746 c 5.4652,0 9.6035,4.13826 9.6035,9.60351 v 21.8418 c 5.3502,-2.55511 10.9543,-4.65897 16.7618,-6.26953 v -15.57227 c 0,-14.26628 -11.5868,-26.0343 -25.7832,-26.34961 -0.1373,-23.49463 -19.3641,-42.69336 -42.8692,-42.69336 z m 0,16.76172 c 14.423,0 25.9657,11.47312 26.1074,25.91602 h -52.2168 c 0.1419,-14.4429 11.6864,-25.91602 26.1094,-25.91602 z m 0.057,59.31641 c -2.9248,0 -5.8491,1.15673 -8.0254,3.47265 -4.0338,4.29247 -4.3255,10.94371 -0.8829,15.58203 l -6.0683,23.81055 c -0.3893,1.52722 0.7657,3.01157 2.3418,3.01172 h 25.2558 c 1.576,-1.5e-4 2.7312,-1.4845 2.3418,-3.01172 l -6.0625,-23.79492 c 3.454,-4.63892 3.1631,-11.30072 -0.875,-15.59766 -2.1762,-2.31592 -5.1005,-3.47265 -8.0253,-3.47265 z" />

</svg>
