<?xml version="1.0" encoding="UTF-8" standalone="no"?>
<svg
   xmlns:dc="http://purl.org/dc/elements/1.1/"
   xmlns:cc="http://creativecommons.org/ns#"
   xmlns:rdf="http://www.w3.org/1999/02/22-rdf-syntax-ns#"
   xmlns:svg="http://www.w3.org/2000/svg"
   xmlns="http://www.w3.org/2000/svg"
   xml:space="preserve"
   style="enable-background:new 0 0 512 512;"
   viewBox="0 0 512 512"
   y="0px"
   x="0px"
   id="Icon"
   version="1.1"><metadata
   id="metadata55"><rdf:RDF><cc:Work
       rdf:about=""><dc:format>image/svg+xml</dc:format><dc:type
         rdf:resource="http://purl.org/dc/dcmitype/StillImage" /><dc:title></dc:title></cc:Work></rdf:RDF></metadata><defs
   id="defs53" />

<path
   id="icon-maincolor"
   d="M 144.27344 113.58398 C 127.34931 113.58398 113.58398 127.34931 113.58398 144.27344 L 113.58398 251.53125 C 113.58398 268.4532 127.34931 282.2207 144.27344 282.2207 L 229.78125 282.2207 L 229.78125 318.74219 L 201.99219 338.5918 C 199.79953 340.1586 198.49805 342.68817 198.49805 345.38281 C 198.49805 348.07746 199.79953 350.60529 201.99219 352.16992 L 230.11523 372.25977 C 232.31223 387.04121 245.08948 398.41602 260.4707 398.41602 L 367.72852 398.41602 C 384.65046 398.41602 398.41602 384.64851 398.41602 367.72656 L 398.41602 260.4707 C 398.41602 243.54658 384.65046 229.7793 367.72852 229.7793 L 282.21875 229.7793 L 282.21875 193.25781 L 310.00781 173.4082 C 312.20047 171.84139 313.50195 169.31574 313.50195 166.62109 C 313.50195 163.92427 312.20047 161.39689 310.00781 159.83008 L 281.88477 139.74023 C 279.68776 124.95879 266.91052 113.58398 251.5293 113.58398 L 144.27344 113.58398 z M 144.27344 130.27344 L 251.5293 130.27344 C 259.24816 130.27344 265.5293 136.55262 265.5293 144.27148 C 265.5293 146.9683 266.83078 149.49786 269.02344 151.0625 L 290.80078 166.61719 L 269.02344 182.17383 C 266.83078 183.74064 265.5293 186.27019 265.5293 188.96484 L 265.5293 229.7793 L 260.4707 229.7793 C 243.54875 229.7793 229.78125 243.5468 229.78125 260.46875 L 229.78125 265.53125 L 144.27344 265.53125 C 136.5524 265.53125 130.27344 259.25034 130.27344 251.5293 L 130.27344 144.27148 C 130.27344 136.55262 136.5524 130.27344 144.27344 130.27344 z M 197.90039 164.96289 C 195.30353 164.96289 193.19531 167.07089 193.19531 169.66992 L 193.19531 181.0957 L 172.26172 181.0957 C 169.66486 181.0957 167.55664 183.2037 167.55664 185.80273 C 167.55664 188.40176 169.66486 190.50977 172.26172 190.50977 L 178.74805 190.50977 C 179.78462 200.44737 184.07021 209.42867 190.51562 216.38477 C 185.17197 219.58358 178.93097 221.42969 172.26172 221.42969 C 169.66486 221.42969 167.55664 223.53574 167.55664 226.13477 C 167.55664 228.7338 169.66486 230.8418 172.26172 230.8418 C 181.78426 230.8418 190.61833 227.86411 197.90039 222.80078 C 205.18463 227.86411 214.01848 230.8418 223.54102 230.8418 C 226.13787 230.8418 228.24609 228.7338 228.24609 226.13477 C 228.24609 223.53574 226.13787 221.42969 223.54102 221.42969 C 216.87176 221.42969 210.63076 219.58792 205.28711 216.38477 C 211.73253 209.42867 216.01616 200.44737 217.05273 190.50977 L 223.54102 190.50977 C 226.13787 190.50977 228.24609 188.40176 228.24609 185.80273 C 228.24609 183.2037 226.13787 181.0957 223.54102 181.0957 L 202.60742 181.0957 L 202.60742 169.66992 C 202.60742 167.07089 200.49942 164.96289 197.90039 164.96289 z M 188.23242 190.50977 L 207.57031 190.50977 C 206.54678 198.22211 203.05064 205.16025 197.90039 210.50391 C 192.75231 205.16025 189.25595 198.22211 188.23242 190.50977 z M 260.4707 246.46875 L 273.85156 246.46875 L 273.87305 246.46875 L 273.89648 246.46875 L 367.72852 246.46875 C 375.44738 246.46875 381.72656 252.74967 381.72656 260.4707 L 381.72656 367.72656 C 381.72656 375.44759 375.44737 381.72656 367.72852 381.72656 L 260.4707 381.72656 C 252.75184 381.72656 246.4707 375.44759 246.4707 367.72656 C 246.4707 365.03191 245.16923 362.50213 242.97656 360.9375 L 221.19922 345.38281 L 242.97656 329.82617 C 245.16923 328.25937 246.4707 325.72981 246.4707 323.03516 L 246.4707 260.4707 C 246.4707 252.74967 252.75184 246.46875 260.4707 246.46875 z "
   style="fill:var(--icon-main);fill-opacity:1;stroke-width:1.33333349" /><path
   style="fill:var(--icon-detail);fill-opacity:1;stroke-width:1.33333349"
   d="m 321.5625,285.09349 c -0.80405,-2.68161 -4.11151,-3.93548 -7.50807,-3.93548 -3.30746,0 -6.61493,1.25387 -7.41897,3.93548 l -17.25226,56.2225 c -0.0891,0.35857 -0.1782,0.71496 -0.1782,0.89315 0,2.86198 4.20061,4.82646 7.32988,4.82646 1.96666,0 3.48565,-0.62368 3.93331,-2.32305 l 3.39439,-11.88904 h 20.47062 l 3.39874,11.88904 c 0.44548,1.69937 1.96448,2.32305 3.93114,2.32305 3.12926,0 7.32987,-2.05358 7.32987,-4.82646 0,-0.26729 -0.0891,-0.53675 -0.17819,-0.89315 z m -15.28561,38.61168 7.77536,-27.43976 7.77971,27.43976 z m 0,0"
   id="icon-detailcolor" /></svg>
