<?xml version="1.0" encoding="UTF-8" standalone="no"?>
<svg
   xmlns:dc="http://purl.org/dc/elements/1.1/"
   xmlns:cc="http://creativecommons.org/ns#"
   xmlns:rdf="http://www.w3.org/1999/02/22-rdf-syntax-ns#"
   xmlns:svg="http://www.w3.org/2000/svg"
   xmlns="http://www.w3.org/2000/svg"
   xml:space="preserve"
   style="enable-background:new 0 0 512 512;"
   viewBox="0 0 512 512"
   y="0px"
   x="0px"
   id="Icon"
   version="1.1">


<path
   id="icon-maincolor" style="fill:var(--icon-main)"
   d="m 123.70898,99.951172 c -12.61092,0 -23.02539,10.414478 -23.02539,23.025388 v 203.01953 c 0,12.61092 10.41447,23.02539 23.02539,23.02539 h 68.03321 c -2.10255,-5.37584 -3.745,-10.97978 -4.88477,-16.76171 h -63.14844 c -3.61471,0 -6.26367,-2.64897 -6.26367,-6.26368 V 122.97656 c 0,-3.61471 2.64896,-6.26367 6.26367,-6.26367 h 120.39649 c 3.6148,0 6.26367,2.64896 6.26367,6.26367 v 97.03516 c 5.38732,-1.95 10.98942,-3.44279 16.76172,-4.43555 v -92.59961 c 0,-12.61092 -10.41439,-23.025388 -23.02539,-23.025388 z m 62.67383,33.486328 a 25.143,25.143 0 0 0 -25.14258,25.14258 25.143,25.143 0 0 0 25.14258,25.14258 25.143,25.143 0 0 0 25.14453,-25.14258 25.143,25.143 0 0 0 -25.14453,-25.14258 z m -43.74023,64.76758 a 8.3818386,8.3818386 0 1 0 0,16.76172 h 82.71875 a 8.3818386,8.3818386 0 1 0 0,-16.76172 z m 8.2832,33.50195 a 16.761999,16.761999 0 0 0 -16.76172,16.76172 16.761999,16.761999 0 0 0 16.76172,16.76172 16.761999,16.761999 0 0 0 16.76172,-16.76172 16.761999,16.761999 0 0 0 -16.76172,-16.76172 z m 173.34961,32.40039 a 8.3818377,8.3818377 0 0 0 -5.76172,2.53516 l -39.86328,39.86328 a 8.3818377,8.3818377 0 0 0 -1.98633,2.35547 8.3818377,8.3818377 0 0 0 -1.09961,5.5332 v 38.8457 a 8.3818377,8.3818377 0 1 0 16.76172,0 v -36.70507 l 38.04102,-38.04102 a 8.3818377,8.3818377 0 0 0 -6.0918,-14.38672 z m -173.34961,17.99414 a 16.761999,16.761999 0 0 0 -16.76172,16.76172 16.761999,16.761999 0 0 0 16.76172,16.76172 16.761999,16.761999 0 0 0 16.76172,-16.76172 16.761999,16.761999 0 0 0 -16.76172,-16.76172 z" />


<path
   id="icon-detailcolor" style="fill:var(--icon-detail)"
   d="m 283.94531,214.14062 c -40.00041,0 -76.11828,24.13234 -91.42578,61.0879 -15.30749,36.95556 -6.83339,79.55723 21.45117,107.84179 28.28456,28.28456 70.88819,36.75867 107.84375,21.45117 36.90186,-15.28524 61.01397,-51.31902 61.08399,-91.25 l 14.02734,14.02735 a 8.3818377,8.3818377 0 1 0 11.85156,-11.85352 l -27.41015,-27.41015 a 8.3818377,8.3818377 0 0 0 -6.78516,-3.4961 8.3818377,8.3818377 0 0 0 -0.19531,-0.01 8.3818377,8.3818377 0 0 0 -0.0762,0.004 8.3818377,8.3818377 0 0 0 -6.7168,3.49024 l -27.42187,27.42187 a 8.3818377,8.3818377 0 1 0 11.85351,11.85352 l 14.11328,-14.11524 c -0.0345,33.23446 -20.03028,63.13108 -50.74023,75.85157 -30.73651,12.73147 -66.04952,5.70829 -89.57422,-17.81641 -23.5247,-23.5247 -30.54984,-58.83967 -17.81836,-89.57617 12.73148,-30.73651 42.6705,-50.74024 75.93945,-50.74024 a 8.3818377,8.3818377 0 1 0 0,-16.76172 z" />

</svg>
