<?xml version="1.0" encoding="UTF-8" standalone="no"?>
<svg
   xmlns:dc="http://purl.org/dc/elements/1.1/"
   xmlns:cc="http://creativecommons.org/ns#"
   xmlns:rdf="http://www.w3.org/1999/02/22-rdf-syntax-ns#"
   xmlns:svg="http://www.w3.org/2000/svg"
   xmlns="http://www.w3.org/2000/svg"
   xml:space="preserve"
   style="enable-background:new 0 0 512 512;"
   viewBox="0 0 512 512"
   y="0px"
   x="0px"
   id="Icon"
   version="1.1"><metadata
   id="metadata55"><rdf:RDF><cc:Work
       rdf:about=""><dc:format>image/svg+xml</dc:format><dc:type
         rdf:resource="http://purl.org/dc/dcmitype/StillImage" /><dc:title></dc:title></cc:Work></rdf:RDF></metadata><defs
   id="defs53">
	
</defs>

<path
   id="icon-maincolor" style="fill:var(--icon-main);"
   d="m 435.87427,247.625 c 12.94779,0 23.63281,-10.68502 23.63281,-23.63281 v -77.28711 c 0,-12.94779 -10.68502,-23.63281 -23.63281,-23.63281 h -77.28711 c -12.94778,0 -23.63281,10.68502 -23.63281,23.63281 v 77.28711 c 0,12.94779 10.68503,23.63281 23.63281,23.63281 z m -141.30273,0 c 12.94779,0 23.63281,-10.68502 23.63281,-23.63281 v -77.28711 c 0,-12.94779 -10.68502,-23.63281 -23.63281,-23.63281 h -77.28516 c -12.94779,0 -23.63281,10.68502 -23.63281,23.63281 v 77.28711 c 0,12.94779 10.68502,23.63281 23.63281,23.63281 z m -141.30078,0 c 12.94778,0 23.63281,-10.68502 23.63281,-23.63281 v -77.28711 c 0,-12.94779 -10.68503,-23.63281 -23.63281,-23.63281 H 75.983643 c -12.94779,0 -23.63282,10.68502 -23.63281,23.63281 v 77.28711 c 0,12.94779 10.68502,23.63281 23.63281,23.63281 z m 282.60351,-16.75 h -77.28711 c -3.95801,0 -6.88281,-2.9248 -6.88281,-6.88281 v -77.28711 c 0,-3.95802 2.9248,-6.88281 6.88281,-6.88281 h 77.28711 c 3.95801,0 6.88281,2.92479 6.88281,6.88281 v 77.28711 c 0,3.95801 -2.9248,6.88281 -6.88281,6.88281 z m -141.30273,0 h -77.28516 c -3.95801,0 -6.88281,-2.9248 -6.88281,-6.88281 v -77.28711 c 0,-3.95802 2.9248,-6.88281 6.88281,-6.88281 h 77.28516 c 3.95801,0 6.88281,2.92479 6.88281,6.88281 v 77.28711 c 0,3.95801 -2.9248,6.88281 -6.88281,6.88281 z m -141.30078,0 H 75.983643 c -3.958021,0 -6.882811,-2.9248 -6.882811,-6.88281 v -77.28711 c 0,-3.95802 2.92479,-6.88281 6.882811,-6.88281 h 77.287117 c 3.95801,0 6.88281,2.92479 6.88281,6.88281 v 77.28711 c 0,3.95801 -2.9248,6.88281 -6.88281,6.88281 z"
    /><path
   id="icon-detailcolor" style="fill:var(--icon-detail);"
   d="m 436.01636,388.92773 c 12.94779,0 23.63281,-10.68502 23.63281,-23.63281 v -77.28711 c 0,-12.94779 -10.68502,-23.63281 -23.63281,-23.63281 H 75.983643 c -12.94779,0 -23.63281,10.68502 -23.63281,23.63281 v 77.28711 c 0,12.94779 10.68502,23.63281 23.63281,23.63281 z m 0,-16.75 H 75.983643 c -3.958011,0 -6.882811,-2.92479 -6.882811,-6.88281 v -77.28711 c 0,-3.95801 2.9248,-6.88281 6.882811,-6.88281 H 436.01636 c 3.95801,0 6.88281,2.9248 6.88281,6.88281 v 77.28711 c 0,3.95802 -2.9248,6.88281 -6.88281,6.88281 z"
    /></svg>
