<?xml version="1.0" encoding="UTF-8" standalone="no"?>
<svg
   xmlns:dc="http://purl.org/dc/elements/1.1/"
   xmlns:cc="http://creativecommons.org/ns#"
   xmlns:rdf="http://www.w3.org/1999/02/22-rdf-syntax-ns#"
   xmlns:svg="http://www.w3.org/2000/svg"
   xmlns="http://www.w3.org/2000/svg"
   xml:space="preserve"
   viewBox="0 0 512 512"
   y="0px"
   x="0px"
   id="Icon"
   version="1.1"
   width="512"
   height="512"><metadata
   id="metadata55"><rdf:RDF><cc:Work
       rdf:about=""><dc:format>image/svg+xml</dc:format><dc:type
         rdf:resource="http://purl.org/dc/dcmitype/StillImage" /><dc:title></dc:title></cc:Work></rdf:RDF></metadata><defs
   id="defs53">
</defs>






<path
   id="icon-detailcolor"
   d="m 256,173.35742 c -45.55235,0 -82.64258,37.09023 -82.64258,82.64258 0,45.55235 37.09023,82.64258 82.64258,82.64258 45.55235,0 82.64258,-37.09023 82.64258,-82.64258 0,-45.55235 -37.09023,-82.64258 -82.64258,-82.64258 z m 0,15.10938 c 37.38728,0 67.5332,30.14592 67.5332,67.5332 0,37.38728 -30.14592,67.5332 -67.5332,67.5332 -37.38728,0 -67.5332,-30.14592 -67.5332,-67.5332 0,-37.38728 30.14592,-67.5332 67.5332,-67.5332 z"
   style="fill:var(--icon-detail)" />

<path
   id="icon-maincolor"
   d="m 255.98047,104.91797 c -11.38479,0 -19.041,1.62856 -24.16797,6.89844 -5.12697,5.26987 -5.09786,11.89132 -5.16992,16.50976 -0.0721,4.61845 -0.17744,8.14838 -1.66406,11.1875 -1.48663,3.03912 -4.4426,6.47144 -13.06446,10.04297 -8.62147,3.57125 -13.13637,3.23321 -16.33789,2.13477 -3.20151,-1.09845 -5.77644,-3.52256 -9.0957,-6.73829 -3.31927,-3.21572 -7.98281,-7.91655 -15.33594,-8.01562 -7.35313,-0.0991 -13.92264,4.16476 -21.97656,12.21875 -8.05385,8.05429 -12.3177,14.62349 -12.21875,21.97656 0.099,7.35307 4.80002,12.01844 8.01562,15.33789 3.21561,3.31946 5.6398,5.89182 6.73828,9.09375 1.09849,3.20193 1.43644,7.71973 -2.13476,16.3418 -3.5712,8.62216 -7.00446,11.57722 -10.04492,13.06445 -3.04047,1.48724 -6.57258,1.59268 -11.19336,1.66602 -4.62078,0.0733 -11.24448,0.0481 -16.51367,5.17773 -5.2692,5.12966 -6.89843,12.78932 -6.89844,24.17969 0,11.39032 1.62901,19.05016 6.89844,24.17969 5.26942,5.12952 11.89288,5.10273 16.51367,5.17578 4.62079,0.0731 8.15498,0.17905 11.19531,1.66601 3.04033,1.48697 6.47183,4.44075 10.04297,13.0625 3.57121,8.62239 3.23326,13.13982 2.13476,16.3418 -1.09849,3.20198 -3.52269,5.77634 -6.73828,9.0957 -3.21558,3.31937 -7.91668,7.98288 -8.01562,15.33594 -0.0989,7.35306 4.1649,13.9223 12.21875,21.97656 8.05389,8.05428 14.62336,12.31765 21.97656,12.21876 7.3532,-0.0989 12.01664,-4.79984 15.33594,-8.01563 3.3193,-3.21579 5.89416,-5.63976 9.0957,-6.73828 3.20155,-1.09853 7.71647,-1.43634 16.33789,2.13476 8.62153,3.57165 11.57556,7.00425 13.0625,10.04493 1.48694,3.04067 1.59396,6.57314 1.66602,11.19336 0.0721,4.62021 0.0417,11.24195 5.16797,16.51367 5.12627,5.27172 12.78471,6.90218 24.16992,6.90234 11.38546,0 19.04439,-1.63201 24.17383,-6.89844 5.12943,-5.26642 5.11312,-11.88764 5.1914,-16.50976 0.0783,-4.62212 0.18768,-8.15792 1.67774,-11.20117 1.49005,-3.04325 4.44569,-6.47533 13.0625,-10.04493 8.62142,-3.5711 13.13634,-3.23329 16.33789,-2.13476 3.20155,1.09853 5.7764,3.52249 9.0957,6.73828 3.3193,3.21579 7.98274,7.91673 15.33594,8.01563 7.3532,0.0989 13.92269,-4.16448 21.97656,-12.21876 8.05388,-8.05426 12.31768,-14.62349 12.21875,-21.97656 -0.0989,-7.35307 -4.80003,-12.01657 -8.01562,-15.33594 -3.2156,-3.31936 -5.63979,-5.89372 -6.73828,-9.0957 -1.0985,-3.20198 -1.43645,-7.71941 2.13476,-16.3418 3.57116,-8.62175 7.00458,-11.57553 10.04492,-13.0625 3.04034,-1.48696 6.57257,-1.59296 11.19336,-1.66601 4.62079,-0.073 11.24426,-0.0462 16.51367,-5.17578 5.26942,-5.12954 6.89846,-12.78937 6.89844,-24.17969 0,-11.39037 -1.62924,-19.05003 -6.89844,-24.17969 -5.26919,-5.12965 -11.89288,-5.10439 -16.51367,-5.17773 -4.62078,-0.0733 -8.15289,-0.17878 -11.19336,-1.66602 -3.04046,-1.48723 -6.47373,-4.4423 -10.04492,-13.06445 -3.5712,-8.62207 -3.23325,-13.13987 -2.13476,-16.3418 1.09848,-3.20192 3.52266,-5.77429 6.73828,-9.09375 3.21561,-3.31945 7.91668,-7.98481 8.01562,-15.33789 0.0989,-7.35308 -4.16487,-13.92227 -12.21875,-21.97656 -8.0539,-8.05399 -14.62343,-12.31782 -21.97656,-12.21875 -7.35313,0.0991 -12.01667,4.7999 -15.33594,8.01562 -3.31927,3.21573 -5.89418,5.63984 -9.0957,6.73829 -3.20152,1.09844 -7.71643,1.43648 -16.33789,-2.13477 -8.61748,-3.56976 -11.57494,-7.00039 -13.06446,-10.04102 -1.48951,-3.04062 -1.59748,-6.57384 -1.67578,-11.19335 -0.0783,-4.61952 -0.0623,-11.23934 -5.1914,-16.50391 -5.1291,-5.26458 -12.78688,-6.89701 -24.17188,-6.90039 z m -0.002,15.10742 h 0.002 c 9.71828,0.003 12.88931,1.86148 13.35156,2.33594 0.46229,0.47449 0.83209,1.84113 0.90625,6.21679 0.0742,4.37567 -0.082,10.84805 3.2168,17.58204 3.29878,6.73399 9.96623,12.84787 20.84765,17.35546 10.88657,4.50952 19.92959,4.90138 27.02539,2.4668 7.09581,-2.43457 11.55818,-7.13089 14.70313,-10.17773 3.14495,-3.04685 4.37175,-3.75093 5.02734,-3.75977 0.65559,-0.009 4.21293,0.91793 11.08985,7.79492 6.87694,6.87729 7.80375,10.4338 7.79492,11.08985 -0.009,0.65604 -0.71304,1.88418 -3.75977,5.02929 -3.04673,3.14512 -7.74331,7.60715 -10.17773,14.70313 -2.43442,7.09598 -2.04255,16.13833 2.4668,27.02539 4.50929,10.8871 10.62636,17.55721 17.36523,20.85352 6.73887,3.2963 13.21372,3.13363 17.5918,3.20312 4.37808,0.0695 5.74495,0.43708 6.21484,0.89453 0.4699,0.45745 2.33008,3.62946 2.33008,13.35547 1e-5,9.72595 -1.86042,12.89633 -2.33008,13.35352 -0.46966,0.45719 -1.83481,0.82727 -6.21289,0.89648 -4.37808,0.0692 -10.85475,-0.0967 -17.59375,3.19922 -6.739,3.2959 -12.85588,9.96671 -17.36523,20.85352 -4.5093,10.88732 -4.90123,19.92935 -2.4668,27.02539 2.43442,7.09603 7.13099,11.56001 10.17773,14.70507 3.04675,3.14507 3.75095,4.37147 3.75977,5.02735 0.009,0.65587 -0.91795,4.21254 -7.79492,11.08984 -6.87695,6.87729 -10.43433,7.80569 -11.08985,7.79688 -0.65551,-0.009 -1.88242,-0.71487 -5.02734,-3.76172 -3.14492,-3.04686 -7.60735,-7.74106 -14.70313,-10.17578 -7.09577,-2.43473 -16.13879,-2.04453 -27.02539,2.46484 -10.88213,4.50803 -17.55136,10.62506 -20.84961,17.36133 -3.29824,6.73626 -3.14068,13.20947 -3.21484,17.58789 -0.0742,4.37842 -0.44431,5.74838 -0.90625,6.22265 -0.46194,0.47428 -3.63193,2.33399 -13.35156,2.33399 -9.71986,-1.3e-4 -12.88301,-1.86034 -13.33789,-2.32813 -0.45488,-0.46778 -0.82623,-1.83558 -0.89453,-6.21484 -0.0683,-4.37925 0.0965,-10.8562 -3.19922,-17.5957 -3.29573,-6.7395 -9.96499,-12.85721 -20.85156,-17.36719 -10.8866,-4.50937 -19.92963,-4.89957 -27.02539,-2.46484 -7.09577,2.43472 -11.55821,7.12892 -14.70313,10.17578 -3.14492,3.04685 -4.37182,3.7529 -5.02734,3.76172 -0.65553,0.009 -4.21289,-0.91959 -11.08985,-7.79688 -6.87694,-6.8773 -7.80374,-10.43396 -7.79492,-11.08984 0.009,-0.65589 0.71302,-1.88228 3.75977,-5.02735 3.04674,-3.14506 7.74332,-7.60904 10.17773,-14.70507 2.43441,-7.09604 2.04251,-16.13807 -2.4668,-27.02539 -4.50933,-10.88681 -10.62623,-17.55762 -17.36523,-20.85352 -6.739,-3.29591 -13.21567,-3.13001 -17.59375,-3.19922 -4.37808,-0.0692 -5.74322,-0.43929 -6.21289,-0.89648 -0.46967,-0.4572 -2.33008,-3.62757 -2.33008,-13.35352 1e-5,-9.72601 1.86018,-12.89802 2.33008,-13.35547 0.4699,-0.45745 1.83677,-0.82504 6.21484,-0.89453 4.37808,-0.0695 10.85294,0.0932 17.5918,-3.20312 6.73886,-3.29631 12.85593,-9.96643 17.36523,-20.85352 4.50935,-10.88706 4.90121,-19.92941 2.4668,-27.02539 -2.43441,-7.09598 -7.13101,-11.55801 -10.17773,-14.70313 -3.04673,-3.14511 -3.75094,-4.37324 -3.75977,-5.02929 -0.009,-0.65606 0.91801,-4.21256 7.79492,-11.08985 6.87693,-6.87699 10.43426,-7.80375 11.08985,-7.79492 0.65559,0.009 1.8824,0.71292 5.02734,3.75977 3.14494,3.04684 7.60732,7.74316 14.70313,10.17773 7.0958,2.43458 16.13881,2.04272 27.02539,-2.4668 10.88621,-4.50952 17.55551,-10.62513 20.85156,-17.36328 3.29605,-6.73814 3.13091,-13.21441 3.19922,-17.59179 0.0683,-4.37738 0.43838,-5.74213 0.89257,-6.20899 0.45417,-0.46682 3.61943,-2.32587 13.3379,-2.32617 z"
   style="fill:var(--icon-main)" /></svg>
