<?xml version="1.0" encoding="UTF-8" standalone="no"?>
<svg
   xmlns:dc="http://purl.org/dc/elements/1.1/"
   xmlns:cc="http://creativecommons.org/ns#"
   xmlns:rdf="http://www.w3.org/1999/02/22-rdf-syntax-ns#"
   xmlns:svg="http://www.w3.org/2000/svg"
   xmlns="http://www.w3.org/2000/svg"
   height="512"
   width="351.42575"
   version="1.1"
   id="Icon"
   x="0px"
   y="0px"
   viewBox="0 0 351.42575 512"
   xml:space="preserve"><metadata
   id="metadata55"><rdf:RDF><cc:Work
       rdf:about=""><dc:format>image/svg+xml</dc:format><dc:type
         rdf:resource="http://purl.org/dc/dcmitype/StillImage" /><dc:title></dc:title></cc:Work></rdf:RDF></metadata><defs
   id="defs53">
</defs>


<path
   d="M 8.81835,284.42578 V 301.1875 H 338.43358 V 284.42578 Z"
   id="icon-detailcolor" style="fill:var(--icon-detail)"/>

<path
   d="M 31.972651,95.89063 C 14.238702,95.89063 -1e-5,110.84427 -1e-5,128.73438 v 189.8164 c 0,17.89011 14.238712,32.84375 31.972661,32.84375 H 146.48827 c -0.0361,0.31503 -0.0589,0.63412 -0.0586,0.95899 0,0 -0.2266,23.03839 -3.52149,31.61523 -1.64744,4.28842 -4.00161,8.2161 -6.9707,10.85156 -2.96907,2.63547 -6.39989,4.30079 -12.13867,4.30078 -4.6787,-0.0715 -8.51172,3.70162 -8.51172,8.38086 0,4.67924 3.833,8.45233 8.51172,8.38086 0.509,0 1.0111,-0.0156 1.51172,-0.0351 h 109.45312 c 0.50063,0.0196 1.00272,0.0351 1.51172,0.0351 4.6787,0.0715 8.51172,-3.70162 8.51172,-8.38086 0,-4.67924 -3.83303,-8.45236 -8.51172,-8.38086 -5.73879,1e-5 -9.16959,-1.66531 -12.13867,-4.30078 -2.96908,-2.63546 -5.32327,-6.56314 -6.97071,-10.85156 -3.29489,-8.57684 -3.52148,-31.61523 -3.52148,-31.61523 2.7e-4,-0.32487 -0.0224,-0.64396 -0.0586,-0.95899 h 105.86718 c 17.73394,0 31.97266,-14.95364 31.97266,-32.84375 v -189.8164 c 0,-17.89011 -14.23872,-32.84375 -31.97266,-32.84375 z m 0,16.76171 H 319.45311 c 8.4059,0 15.21094,6.86811 15.21094,16.08204 v 189.8164 c 0,9.21393 -6.80504,16.08203 -15.21094,16.08203 H 31.972651 c -8.40591,0 -15.210942,-6.8681 -15.210942,-16.08203 v -189.8164 c 0,-9.21393 6.805032,-16.08204 15.210942,-16.08204 z M 163.22265,351.39453 h 33.52343 v 30.82227 a 16.763675,16.763675 0 1 1 -33.52343,0 z"
   id="icon-maincolor" style="fill:var(--icon-main)" />

</svg>
