<?xml version="1.0" encoding="UTF-8" standalone="no"?>
<svg
   xmlns:dc="http://purl.org/dc/elements/1.1/"
   xmlns:cc="http://creativecommons.org/ns#"
   xmlns:rdf="http://www.w3.org/1999/02/22-rdf-syntax-ns#"
   xmlns:svg="http://www.w3.org/2000/svg"
   xmlns="http://www.w3.org/2000/svg"
   xml:space="preserve"
   style="enable-background:new 0 0 512 512;"
   viewBox="0 0 512 512"
   y="0px"
   x="0px"
   id="Icon"
   version="1.1"><metadata
   id="metadata55"><rdf:RDF><cc:Work
       rdf:about=""><dc:format>image/svg+xml</dc:format><dc:type
         rdf:resource="http://purl.org/dc/dcmitype/StillImage" /><dc:title></dc:title></cc:Work></rdf:RDF></metadata><defs
   id="defs53">
</defs>


<path
   id="icon-maincolor"
   d="m 180.55859,96.042969 a 8.3818377,8.3818377 0 0 0 -8.2539,8.500001 v 28.8125 h -7.16407 c -17.73393,0 -31.97265,14.95169 -31.97265,32.8418 v 6.29296 h -28.60938 a 8.38184,8.38184 0 1 0 0,16.76368 h 28.60938 v 33.45117 h -28.60938 a 8.3818377,8.3818377 0 1 0 0,16.76172 h 28.60938 v 33.48047 h -28.60938 a 8.3818377,8.3818377 0 1 0 0,16.76171 h 28.60938 v 33.42188 h -28.60938 a 8.3818377,8.3818377 0 1 0 0,16.76172 h 28.60938 v 6.29297 c 0,17.89011 14.23872,32.84179 31.97265,32.84179 h 7.16407 v 28.42969 a 8.3818377,8.3818377 0 1 0 16.76172,0 v -28.42969 h 33.45117 v 28.42969 a 8.3818377,8.3818377 0 1 0 16.76172,0 v -28.42969 h 33.48047 v 28.42969 a 8.3818377,8.3818377 0 1 0 16.76367,0 v -28.42969 h 33.41992 v 28.42969 a 8.3818377,8.3818377 0 1 0 16.76172,0 v -28.42969 h 7.16406 c 17.73395,0 31.97266,-14.95168 31.97266,-32.84179 v -6.29297 h 28.59961 a 8.3818377,8.3818377 0 1 0 0,-16.76172 H 378.8418 v -33.42188 h 28.59961 a 8.3818377,8.3818377 0 1 0 0,-16.76171 H 378.8418 V 239.4668 h 28.59961 a 8.3818377,8.3818377 0 1 0 0,-16.76172 H 378.8418 v -33.45117 h 28.59961 a 8.38184,8.38184 0 1 0 0,-16.76368 H 378.8418 v -6.29296 c 0,-17.89011 -14.23871,-32.8418 -31.97266,-32.8418 h -7.16406 v -28.8125 a 8.3818377,8.3818377 0 0 0 -8.50781,-8.500001 8.3818377,8.3818377 0 0 0 -8.25391,8.500001 v 28.8125 h -33.41992 v -28.8125 a 8.3818377,8.3818377 0 0 0 -8.50782,-8.500001 8.3818377,8.3818377 0 0 0 -8.25585,8.500001 v 28.8125 H 239.2793 v -28.8125 a 8.3818377,8.3818377 0 0 0 -8.50782,-8.500001 8.3818377,8.3818377 0 0 0 -8.2539,8.500001 v 28.8125 h -33.45117 v -28.8125 a 8.3818377,8.3818377 0 0 0 -8.50782,-8.500001 z m -15.41797,54.074221 h 181.72852 c 8.40591,0 15.21094,6.86615 15.21094,16.08008 v 179.98828 c 0,9.21392 -6.80503,16.08009 -15.21094,16.08007 H 165.14062 c -8.4059,0 -15.21093,-6.86615 -15.21093,-16.08007 V 166.19727 c 0,-9.21393 6.80503,-16.08008 15.21093,-16.08008 z m 26.23047,16.27734 c -13.96089,0 -25.16406,11.8023 -25.16406,25.78125 v 128.03125 c 0,13.97895 11.20199,25.7832 25.16406,25.7832 h 129.26758 c 13.96207,0 25.16406,-11.80425 25.16406,-25.7832 V 205.45508 l -39.0625,-39.06055 z m 0,16.76172 h 108.42579 l 29.24414,29.24219 v 107.80859 c 0,5.30111 -3.77021,9.02149 -8.40235,9.02149 H 191.37109 c -4.63214,0 -8.40234,-3.72038 -8.40234,-9.02149 V 192.17578 c 0,-5.30111 3.76902,-9.01953 8.40234,-9.01953 z"
   style="fill:var(--icon-main);" /><path
   id="icon-detailcolor"
   d="M 246.46289 196.98047 A 8.3818377 8.3818377 0 0 0 240.70117 199.51562 L 201.51172 238.70508 A 8.3818377 8.3818377 0 1 0 213.36523 250.55859 L 252.55469 211.36914 A 8.3818377 8.3818377 0 0 0 246.46289 196.98047 z M 305.4043 252.40234 A 8.3818377 8.3818377 0 0 0 299.64258 254.93945 L 260.45312 294.12891 A 8.3818377 8.3818377 0 1 0 272.30664 305.98047 L 311.49609 266.79102 A 8.3818377 8.3818377 0 0 0 305.4043 252.40234 z M 254.89648 259 A 8.3818377 8.3818377 0 0 0 249.13477 261.53711 L 209.94531 300.72656 A 8.3818377 8.3818377 0 1 0 221.79688 312.57812 L 260.98633 273.38867 A 8.3818377 8.3818377 0 0 0 254.89648 259 z "
   style="fill:var(--icon-detail);" /></svg>
