<?xml version="1.0" encoding="UTF-8" standalone="no"?>
<svg
   xmlns:dc="http://purl.org/dc/elements/1.1/"
   xmlns:cc="http://creativecommons.org/ns#"
   xmlns:rdf="http://www.w3.org/1999/02/22-rdf-syntax-ns#"
   xmlns:svg="http://www.w3.org/2000/svg"
   xmlns="http://www.w3.org/2000/svg"
   height="512"
   width="257.71094"
   version="1.1"
   id="Icon"
   x="0px"
   y="0px"
   viewBox="0 0 257.71094 512"
   xml:space="preserve"><metadata
   id="metadata55"><rdf:RDF><cc:Work
       rdf:about=""><dc:format>image/svg+xml</dc:format><dc:type
         rdf:resource="http://purl.org/dc/dcmitype/StillImage" /><dc:title></dc:title></cc:Work></rdf:RDF></metadata><defs
   id="defs53">
</defs>

<path
   d="M 128.85547,96.480475 C 57.78991,96.480475 0,154.27039 0,225.33595 0,286.8457 43.29655,338.40126 101.01953,351.15626 l -4.49414,16.77148 H 74.82617 c -21.29863,0 -38.70703,17.4084 -38.70703,38.70704 0,0.46647 0.0143,0.68024 0.0137,0.63867 l 0.13282,8.24609 h 185.16406 l 0.14648,-8.23242 c -0.002,0.0881 0.0156,-0.12971 0.0156,-0.65234 -1e-5,-21.29864 -17.41035,-38.70704 -38.70899,-38.70704 h -21.69726 l -4.49414,-16.77148 c 57.72298,-12.755 101.01953,-64.31056 101.01953,-125.82031 0,-71.06556 -57.78991,-128.855475 -128.85547,-128.855475 z m 0,16.761725 c 62.00671,0 112.09375,50.08704 112.09375,112.09375 0,62.0067 -50.08704,112.09375 -112.09375,112.09375 -62.00671,0 -112.09375,-50.08705 -112.09375,-112.09375 0,-62.00671 50.08704,-112.09375 112.09375,-112.09375 z m 0,41.44531 c -38.91885,0 -70.64844,31.72959 -70.64844,70.64844 0,38.91884 31.72959,70.64844 70.64844,70.64844 38.91885,0 70.64844,-31.7296 70.64844,-70.64844 0,-38.91885 -31.72959,-70.64844 -70.64844,-70.64844 z m 0,16.76172 c 29.85999,0 53.88672,24.02673 53.88672,53.88672 0,29.85999 -24.02673,53.88672 -53.88672,53.88672 -29.85999,0 -53.88672,-24.02673 -53.88672,-53.88672 0,-29.85999 24.02673,-53.88672 53.88672,-53.88672 z m -11.16602,182.2539 c 3.68113,0.31732 7.40388,0.48829 11.16602,0.48829 3.76214,0 7.48489,-0.17097 11.16602,-0.48829 l 3.81054,14.22461 h -29.95312 z m -42.86328,30.98633 h 108.05664 c 9.50192,0 17.36348,5.78073 20.47461,14.06836 H 54.35352 c 3.11113,-8.28763 10.97075,-14.06836 20.47265,-14.06836 z"
   id="icon-maincolor" style="fill:var(--icon-main)" /><path
   d="m 181.22656,142.2461 a 8.3809996,8.3809996 0 0 0 -8.38086,8.38086 8.3809996,8.3809996 0 0 0 8.38086,8.38086 8.3809996,8.3809996 0 0 0 8.38086,-8.38086 8.3809996,8.3809996 0 0 0 -8.38086,-8.38086 z m -52.37109,49.29493 c -18.56486,0 -33.79492,15.23005 -33.79492,33.79492 0,18.56486 15.23006,33.79492 33.79492,33.79492 18.56486,0 33.79492,-15.23006 33.79492,-33.79492 0,-18.56487 -15.23006,-33.79492 -33.79492,-33.79492 z m 0,16.76171 c 9.50601,0 17.0332,7.5272 17.0332,17.03321 0,9.506 -7.52719,17.0332 -17.0332,17.0332 -9.50601,0 -17.0332,-7.5272 -17.0332,-17.0332 0,-9.50601 7.52719,-17.03321 17.0332,-17.03321 z"
   id="icon-detailcolor" style="fill:var(--icon-detail)" /></svg>
