<?xml version="1.0" encoding="UTF-8" standalone="no"?>
<svg
   xmlns:dc="http://purl.org/dc/elements/1.1/"
   xmlns:cc="http://creativecommons.org/ns#"
   xmlns:rdf="http://www.w3.org/1999/02/22-rdf-syntax-ns#"
   xmlns:svg="http://www.w3.org/2000/svg"
   xmlns="http://www.w3.org/2000/svg"
   height="512"
   width="319.90329"
   version="1.1"
   id="Icon"
   x="0px"
   y="0px"
   viewBox="0 0 319.90329 512"
   xml:space="preserve"><metadata
   id="metadata55"><rdf:RDF><cc:Work
       rdf:about=""><dc:format>image/svg+xml</dc:format><dc:type
         rdf:resource="http://purl.org/dc/dcmitype/StillImage" /><dc:title></dc:title></cc:Work></rdf:RDF></metadata><defs
   id="defs53">
</defs>


<path
   d="m 84.510237,96.042969 a 8.3818377,8.3818377 0 0 0 -8.2539,8.500001 v 28.8125 h -7.16407 c -17.73393,0 -31.97265,14.95169 -31.97265,32.8418 v 6.29296 H 8.5102372 a 8.38184,8.38184 0 1 0 0,16.76368 H 37.119617 v 33.45117 H 8.5102372 a 8.3818377,8.3818377 0 1 0 0,16.76172 H 37.119617 v 33.48047 H 8.5102372 a 8.3818377,8.3818377 0 1 0 0,16.76171 H 37.119617 v 33.42188 H 8.5102372 a 8.3818377,8.3818377 0 1 0 0,16.76172 H 37.119617 v 6.29297 c 0,17.89011 14.23872,32.84179 31.97265,32.84179 h 7.16407 v 28.42969 a 8.3818377,8.3818377 0 1 0 16.76172,0 v -28.42969 h 33.451173 v 28.42969 a 8.3818377,8.3818377 0 1 0 16.76172,0 v -28.42969 h 33.48047 v 28.42969 a 8.3818377,8.3818377 0 1 0 16.76367,0 v -28.42969 h 33.41992 v 28.42969 a 8.3818377,8.3818377 0 1 0 16.76172,0 v -28.42969 h 7.16406 c 17.73395,0 31.97266,-14.95168 31.97266,-32.84179 v -6.29297 h 28.59961 a 8.3818377,8.3818377 0 1 0 0,-16.76172 h -28.59961 v -33.42188 h 28.59961 a 8.3818377,8.3818377 0 1 0 0,-16.76171 H 282.79345 V 239.4668 h 28.59961 a 8.3818377,8.3818377 0 1 0 0,-16.76172 h -28.59961 v -33.45117 h 28.59961 a 8.38184,8.38184 0 1 0 0,-16.76368 h -28.59961 v -6.29296 c 0,-17.89011 -14.23871,-32.8418 -31.97266,-32.8418 h -7.16406 v -28.8125 a 8.3818377,8.3818377 0 0 0 -8.50781,-8.500001 8.3818377,8.3818377 0 0 0 -8.25391,8.500001 v 28.8125 h -33.41992 v -28.8125 a 8.3818377,8.3818377 0 0 0 -8.50782,-8.500001 8.3818377,8.3818377 0 0 0 -8.25585,8.500001 v 28.8125 h -33.48047 v -28.8125 a 8.3818377,8.3818377 0 0 0 -8.50782,-8.500001 8.3818377,8.3818377 0 0 0 -8.2539,8.500001 v 28.8125 H 93.018057 v -28.8125 a 8.3818377,8.3818377 0 0 0 -8.50782,-8.500001 z M 69.092267,150.11719 H 250.82079 c 8.40591,0 15.21094,6.86615 15.21094,16.08008 v 179.98828 c 0,9.21392 -6.80503,16.08009 -15.21094,16.08007 H 69.092267 c -8.4059,0 -15.21093,-6.86615 -15.21093,-16.08007 V 166.19727 c 0,-9.21393 6.80503,-16.08008 15.21093,-16.08008 z m 26.23047,16.27734 c -13.96089,0 -25.16406,11.8023 -25.16406,25.78125 v 128.03125 c 0,13.97895 11.20199,25.7832 25.16406,25.7832 H 224.59032 c 13.96207,0 25.16406,-11.80425 25.16406,-25.7832 V 205.45508 l -39.0625,-39.06055 z m 0,16.76172 H 203.74853 l 29.24414,29.24219 v 107.80859 c 0,5.30111 -3.77021,9.02149 -8.40235,9.02149 H 95.322737 c -4.63214,0 -8.40234,-3.72038 -8.40234,-9.02149 V 192.17578 c 0,-5.30111 3.76902,-9.01953 8.40234,-9.01953 z"
   id="icon-maincolor" style="fill:var(--icon-main)" />

<path
   d="m 150.41454,196.98047 a 8.3818377,8.3818377 0 0 0 -5.76172,2.53515 l -39.18945,39.18946 a 8.3818377,8.3818377 0 1 0 11.85351,11.85351 l 39.18946,-39.18945 a 8.3818377,8.3818377 0 0 0 -6.0918,-14.38867 z m 58.94141,55.42187 a 8.3818377,8.3818377 0 0 0 -5.76172,2.53711 l -39.18946,39.18946 a 8.3818377,8.3818377 0 1 0 11.85352,11.85156 l 39.18945,-39.18945 a 8.3818377,8.3818377 0 0 0 -6.09179,-14.38868 z M 158.84813,259 a 8.3818377,8.3818377 0 0 0 -5.76171,2.53711 l -39.18946,39.18945 a 8.3818377,8.3818377 0 1 0 11.85157,11.85156 l 39.18945,-39.18945 A 8.3818377,8.3818377 0 0 0 158.84813,259 Z"
   id="icon-detailcolor" style="fill:var(--icon-detail)" /></svg>
