<?xml version="1.0" encoding="UTF-8" standalone="no"?>
<svg
   xmlns:dc="http://purl.org/dc/elements/1.1/"
   xmlns:cc="http://creativecommons.org/ns#"
   xmlns:rdf="http://www.w3.org/1999/02/22-rdf-syntax-ns#"
   xmlns:svg="http://www.w3.org/2000/svg"
   xmlns="http://www.w3.org/2000/svg"
   xml:space="preserve"
   style="enable-background:new 0 0 512 512;"
   viewBox="0 0 512 512"
   y="0px"
   x="0px"
   id="Icon"
   version="1.1"><metadata
   id="metadata55"><rdf:RDF><cc:Work
       rdf:about=""><dc:format>image/svg+xml</dc:format><dc:type
         rdf:resource="http://purl.org/dc/dcmitype/StillImage" /><dc:title></dc:title></cc:Work></rdf:RDF></metadata><defs
   id="defs53" />

<path
   id="icon-maincolor"
   d="M 201.3457 174.25586 C 190.2611 174.25586 181.07617 183.44078 181.07617 194.52539 L 181.07617 254.91602 L 181.26172 254.91602 C 181.26172 281.82223 195.79172 306.69504 219.27539 320.11328 C 228.16353 325.19184 237.83204 328.33436 247.68945 329.56641 L 247.68945 353.89258 L 247.67969 353.89258 C 246.06966 370.58357 231.95019 383.68945 214.83398 383.68945 C 206.00798 383.68645 196.92795 383.66321 189.33594 383.66211 C 184.71504 383.59771 180.93359 387.32592 180.93359 391.94727 C 180.93359 396.56861 184.71504 400.29679 189.33594 400.23242 L 191.39453 400.23242 C 199.56203 400.30282 207.74628 400.271 214.79297 400.2832 C 241.07321 400.2832 262.64611 379.75678 264.32227 353.89648 L 264.32422 353.89648 L 264.32422 329.70117 C 274.57223 328.57428 284.64155 325.3858 293.86914 320.11328 C 317.35281 306.69504 331.88281 281.82223 331.88281 254.91602 L 332.06836 254.91602 L 332.06836 194.52539 C 332.06836 183.44078 322.88343 174.25586 311.79883 174.25586 L 256.57227 174.25586 L 201.3457 174.25586 z M 201.3457 191.01758 L 256.57227 191.01758 L 311.79883 191.01758 C 313.88722 191.01758 315.30664 192.437 315.30664 194.52539 L 315.30664 254.91602 L 315.12109 254.91602 C 315.12109 275.79839 303.88914 295.0845 285.55469 305.56055 C 276.58155 310.68767 266.58746 313.29965 256.57227 313.4082 C 246.55708 313.29965 236.56298 310.68767 227.58984 305.56055 C 209.25539 295.0845 198.02344 275.79839 198.02344 254.91602 L 197.83789 254.91602 L 197.83789 194.52539 C 197.83789 192.437 199.25731 191.01758 201.3457 191.01758 z "
   style="fill:var(--icon-main);fill-opacity:1;stroke-width:1" /><path
   id="icon-detailcolor"
   d="m 232.23839,111.7288 c -4.59583,0 -8.29687,3.70105 -8.29687,8.29687 l 0,54.23103 h -7.89063 c -0.0654,0 -0.12835,0.008 -0.19336,0.01 h 83.0293 c -0.065,-0.002 -0.12799,-0.01 -0.19336,-0.01 h -7.88867 l 0,-54.23103 c 0,-4.59582 -3.70105,-8.29687 -8.29688,-8.29687 -4.59583,0 -8.29882,3.70105 -8.29882,8.29687 l 0,54.23103 h -33.67383 l 0,-54.23103 c 0,-4.59582 -3.70106,-8.29687 -8.29688,-8.29687 z"
   style="fill:var(--icon-detail);fill-opacity:1;stroke-width:1" /></svg>
