<?xml version="1.0" encoding="UTF-8" standalone="no"?>
<svg
   xmlns:dc="http://purl.org/dc/elements/1.1/"
   xmlns:cc="http://creativecommons.org/ns#"
   xmlns:rdf="http://www.w3.org/1999/02/22-rdf-syntax-ns#"
   xmlns:svg="http://www.w3.org/2000/svg"
   xmlns="http://www.w3.org/2000/svg"
   xml:space="preserve"
   style="enable-background:new 0 0 512 512;"
   viewBox="0 0 512 512"
   y="0px"
   x="0px"
   id="Icon"
   version="1.1"><metadata
   id="metadata55"><rdf:RDF><cc:Work
       rdf:about=""><dc:format>image/svg+xml</dc:format><dc:type
         rdf:resource="http://purl.org/dc/dcmitype/StillImage" /><dc:title></dc:title></cc:Work></rdf:RDF></metadata><defs
   id="defs53" />


<path
   id="icon-maincolor"
   d="M 123.36719 113.34375 C 117.82719 113.34375 113.36719 117.80375 113.36719 123.34375 L 113.36719 216.69922 C 113.36719 222.23922 117.82719 226.69922 123.36719 226.69922 L 216.72266 226.69922 C 222.26266 226.69922 226.72266 222.23922 226.72266 216.69922 L 226.72266 123.34375 C 226.72266 117.80375 222.26266 113.34375 216.72266 113.34375 L 123.36719 113.34375 z M 123.36719 285.30078 C 117.82719 285.30078 113.36719 289.76078 113.36719 295.30078 L 113.36719 388.65625 C 113.36719 394.19625 117.82719 398.65625 123.36719 398.65625 L 216.72266 398.65625 C 222.26266 398.65625 226.72266 394.19625 226.72266 388.65625 L 226.72266 295.30078 C 226.72266 289.76078 222.26266 285.30078 216.72266 285.30078 L 123.36719 285.30078 z M 295.27734 285.30078 C 289.73734 285.30078 285.27734 289.76078 285.27734 295.30078 L 285.27734 388.65625 C 285.27734 394.19625 289.73734 398.65625 295.27734 398.65625 L 388.63281 398.65625 C 394.17281 398.65625 398.63281 394.19625 398.63281 388.65625 L 398.63281 295.30078 C 398.63281 289.76078 394.17281 285.30078 388.63281 285.30078 L 295.27734 285.30078 z "
   style="display:inline;opacity:1;fill:none;fill-opacity:1;stroke:var(--icon-main);stroke-width:16.76199913;stroke-linecap:butt;stroke-miterlimit:4;stroke-dasharray:none;stroke-opacity:1" /><rect
   transform="scale(-1,1)"
   rx="10"
   ry="10"
   y="113.34305"
   x="-398.63342"
   height="113.35593"
   width="113.35593"
   id="icon-detailcolor"
   style="opacity:1;fill:none;fill-opacity:1;stroke:var(--icon-detail);stroke-width:16.76199913;stroke-linecap:butt;stroke-miterlimit:4;stroke-dasharray:none;stroke-opacity:1" /></svg>
