<?xml version="1.0" encoding="UTF-8" standalone="no"?>
<svg
   xmlns:dc="http://purl.org/dc/elements/1.1/"
   xmlns:cc="http://creativecommons.org/ns#"
   xmlns:rdf="http://www.w3.org/1999/02/22-rdf-syntax-ns#"
   xmlns:svg="http://www.w3.org/2000/svg"
   xmlns="http://www.w3.org/2000/svg"
   height="512"
   width="490"
   xml:space="preserve"
   viewBox="0 0 490 512"
   y="0px"
   x="0px"
   id="Icon"
   version="1.1"><metadata
   id="metadata55"><rdf:RDF><cc:Work
       rdf:about=""><dc:format>image/svg+xml</dc:format><dc:type
         rdf:resource="http://purl.org/dc/dcmitype/StillImage" /><dc:title></dc:title></cc:Work></rdf:RDF></metadata><defs
   id="defs53">
</defs>


<path
   d="m 24.882812,157.92968 c -4.509603,0 -8.167968,3.65845 -8.167968,8.16797 v 49.00195 c 0,4.50953 3.658364,8.16797 8.167968,8.16797 h 29.777344 v -65.33789 z m 8.171876,16.33985 H 49.382812 V 206.9375 H 33.054688 Z m -8.171876,81.50194 c -4.509603,0 -8.167968,3.65844 -8.167968,8.16798 v 32.66211 c 0,4.50952 3.658364,8.16797 8.167968,8.16797 h 29.777344 v -48.99805 z m 8.171876,16.33594 h 16.328124 v 16.33203 H 33.054688 Z m 73.113282,92.48828 v 54.40039 c 0,4.50953 3.66227,8.16798 8.17187,8.16798 h 32.62305 c 0.0125,4e-5 0.0246,0.002 0.0371,0.002 0.0125,0 0.0246,-0.002 0.0371,-0.002 h 32.63086 c 4.50214,0 8.16245,-3.65844 8.16992,-8.16798 V 364.5957 Z m 113.57812,0 v 54.40039 c 0,4.50953 3.65836,8.16798 8.16797,8.16798 h 30.9668 c 0.4522,0.0777 0.91441,0.12696 1.38867,0.12696 0.47426,0 0.93651,-0.0493 1.38867,-0.12696 h 31.23242 c 0.0125,4e-5 0.0246,0.002 0.0371,0.002 0.0125,0 0.0246,-0.002 0.0371,-0.002 h 32.59375 c 0.0125,4e-5 0.0246,0.002 0.0371,0.002 0.0125,0 0.0246,-0.002 0.0371,-0.002 h 32.58789 c 0.0125,4e-5 0.0246,0.002 0.0371,0.002 0.0125,0 0.0246,-0.002 0.0371,-0.002 h 32.5957 c 0.0125,4e-5 0.0246,0.002 0.0371,0.002 0.0125,0 0.0246,-0.002 0.0371,-0.002 h 32.60352 c 4.5096,0 8.17026,-3.65844 8.17773,-8.16798 V 364.5957 Z M 122.5,370.00391 h 49 v 40.83203 h -16.33008 v -16.33985 c 0,-4.50954 -3.66031,-8.16796 -8.16992,-8.16797 -4.5096,0 -8.16992,3.65843 -8.16992,8.16797 v 16.33985 H 122.5 Z m 113.57812,0 h 179.32227 v 40.83203 H 399.0957 v -16.33985 c 0,-4.50954 -3.65843,-8.16796 -8.16797,-8.16797 -4.50953,0 -8.16992,3.65843 -8.16992,8.16797 v 16.33985 h -16.33008 v -16.33985 c 0,-4.50954 -3.66039,-8.16796 -8.16992,-8.16797 -4.50953,0 -8.16992,3.65843 -8.16992,8.16797 v 16.33985 h -16.32227 v -16.33985 c 0,-4.50954 -3.66039,-8.16796 -8.16992,-8.16797 -4.50953,0 -8.16797,3.65843 -8.16797,8.16797 v 16.33985 H 301.0957 v -16.33985 c 0,-4.50954 -3.65844,-8.16796 -8.16797,-8.16797 -4.50954,0 -8.16992,3.65843 -8.16992,8.16797 v 16.33985 H 268.4375 v -16.21289 c 0,-4.50954 -3.65844,-8.16993 -8.16797,-8.16993 -4.50954,0 -8.16992,3.66039 -8.16992,8.16993 v 16.21289 h -16.02149 z"
   id="icon-detailcolor" style="fill:var(--icon-detail)" />

<path
   d="M 8.169922,84.437495 C 3.660317,84.437495 0,88.095935 0,92.605464 c 0,4.501875 3.660317,8.162116 8.169922,8.162116 H 49 v 24.5 H 24.5 c -4.509604,0 -8.169922,3.66038 -8.169922,8.16992 0,4.50953 3.660318,8.16796 8.169922,8.16796 H 49 v 146.99414 40.8379 c 0,22.50938 18.312971,40.83008 40.83008,40.83008 H 449.16211 C 471.67922,370.26758 490,351.95454 490,329.4375 V 166.09961 c 0,-22.50937 -18.31332,-40.83203 -40.83789,-40.83203 H 65.339844 V 92.605464 c 0,-1.972919 -0.701454,-3.783021 -1.867188,-5.195313 -1.4988,-1.815804 -3.766081,-2.972656 -6.302734,-2.972656 z M 65.339844,141.60546 H 449.1543 c 13.51282,0 24.50781,10.99439 24.50781,24.5 V 329.4375 c 0,13.50562 -10.99499,24.5 -24.50781,24.5 H 89.83008 c -13.505362,0 -24.500002,-10.99438 -24.500002,-24.5 v -40.64259 c 0.0015,-0.0636 0.0098,-0.12553 0.0098,-0.18945 z M 171.56055,157.9375 c -29.01881,0 -54.86474,13.8384 -71.29883,35.25781 -0.39646,0.42389 -0.74713,0.88979 -1.04688,1.39062 -10.982884,14.90006 -17.484371,33.29538 -17.484371,53.18165 0,29.05597 13.875151,54.93392 35.341801,71.36719 0.37188,0.33819 0.77347,0.64244 1.20312,0.9082 14.91824,11.03066 33.35266,17.5625 53.28516,17.5625 29.06841,0 54.9547,-13.88638 71.38476,-35.36914 0.32883,-0.36366 0.62495,-0.7553 0.88477,-1.17383 11.0301,-14.91864 17.5625,-33.35398 17.5625,-53.28711 0,-29.00977 -13.83176,-54.85193 -35.24024,-71.28906 -0.43682,-0.411 -0.91854,-0.77436 -1.4375,-1.08203 -14.89523,-10.97229 -33.28038,-17.4668 -53.15429,-17.4668 z m 195.93945,0 c -29.01846,0 -54.86459,13.83841 -71.29883,35.25781 -0.39644,0.42389 -0.74715,0.88979 -1.04687,1.39062 -10.98299,14.90006 -17.48438,33.29538 -17.48438,53.18165 0,29.05597 13.87507,54.93392 35.3418,71.36719 0.37187,0.33819 0.77349,0.64244 1.20312,0.9082 14.91829,11.03066 33.3529,17.5625 53.28516,17.5625 29.06867,0 54.95476,-13.88638 71.38477,-35.36914 0.32881,-0.36366 0.62496,-0.7553 0.88476,-1.17383 11.03006,-14.91864 17.5625,-33.35398 17.5625,-53.28711 0,-29.01523 -13.83661,-54.86215 -35.25195,-71.29883 -0.4309,-0.40407 -0.90545,-0.76061 -1.41602,-1.06445 C 405.76713,164.43552 387.37839,157.9375 367.5,157.9375 Z m -195.93945,16.33008 c 9.22903,0 18.05831,1.72658 26.20312,4.8457 -16.28816,6.84673 -30.35177,20.36877 -33.63867,36.84961 -2.8749,0.67199 -5.6077,1.71471 -8.13672,3.0918 -6.51218,-12.86631 -2.03045,-32.73834 8.00586,-44.39844 2.48833,-0.25565 5.01161,-0.38867 7.56641,-0.38867 z m 195.93945,0 c 9.22842,0 18.05684,1.72699 26.20117,4.8457 -16.28742,6.84692 -30.34995,20.36928 -33.63672,36.84961 -2.8749,0.67199 -5.60773,1.71471 -8.13672,3.0918 -6.51235,-12.8665 -2.03093,-32.73841 8.00586,-44.39844 2.48833,-0.25565 5.01162,-0.38867 7.56641,-0.38867 z m -225.93945,6.42773 c -6.67986,16.35771 -7.06583,35.86531 2.25781,49.84571 -1.52537,2.44764 -2.73331,5.10999 -3.57227,7.93163 -13.6812,-4.48194 -24.55367,-21.65566 -25.73828,-36.97657 7.22334,-8.88973 16.47981,-16.05286 27.05274,-20.80077 z m 195.93945,0 c -6.68011,16.35803 -7.06475,35.86525 2.25977,49.84571 -1.5256,2.44789 -2.73519,5.10964 -3.57422,7.93163 -13.68123,-4.48194 -24.55372,-21.65566 -25.73828,-36.97657 7.2233,-8.88973 16.47982,-16.05285 27.05273,-20.80077 z m -119.66797,10.01953 c 8.8835,7.21839 16.04313,16.46643 20.79102,27.0293 -5.42415,-2.22898 -11.19733,-3.78067 -16.99805,-4.48242 -12.65422,-1.56084 -24.06009,0.83827 -32.85352,6.7539 -2.44351,-1.52083 -5.1002,-2.72534 -7.91601,-3.5625 4.48055,-13.68122 21.6505,-24.55371 36.97656,-25.73828 z m 195.93945,0 c 8.88348,7.21839 16.04316,16.46643 20.79102,27.0293 -5.42414,-2.22898 -11.19726,-3.78067 -16.99805,-4.48242 -12.6546,-1.56084 -24.06195,0.83827 -32.85547,6.7539 -2.4431,-1.52042 -5.09879,-2.7255 -7.91406,-3.5625 4.48072,-13.68155 21.65028,-24.55415 36.97656,-25.73828 z M 298.84766,221.5625 c 6.84754,16.28729 20.36876,30.35265 36.84765,33.64258 0.6701,2.86644 1.70887,5.59251 3.08008,8.11523 -5.27249,2.64949 -12.00492,3.65356 -19.37109,2.75391 -9.33274,-1.13103 -18.47359,-5.0921 -25.01368,-10.73047 C 294.13435,252.85256 294,250.32529 294,247.76758 c 0,-9.22968 1.72753,-18.05897 4.84766,-26.20508 z m -195.94141,0.002 c 6.84734,16.2866 20.37073,30.35081 36.84961,33.64062 0.67012,2.86645 1.70883,5.59252 3.08008,8.11523 -5.27235,2.6495 -12.00438,3.65357 -19.3711,2.75392 -9.33257,-1.13103 -18.47384,-5.09211 -25.01367,-10.73047 -0.25627,-2.49118 -0.39062,-5.01845 -0.39062,-7.57617 0,-9.22878 1.72613,-18.05768 4.8457,-26.20313 z m 111.06836,7.58985 c 1.83782,-0.0225 3.73501,0.0805 5.67578,0.31445 9.33753,1.13164 18.48212,5.09707 25.02344,10.74023 0.25507,2.48547 0.38672,5.00693 0.38672,7.5586 0,9.23103 -1.72665,18.06188 -4.84766,26.20898 -6.84486,-16.28831 -20.36627,-30.35435 -36.8457,-33.64453 -0.66977,-2.86531 -1.70972,-5.58944 -3.08008,-8.11133 3.88122,-1.94611 8.5494,-3.00358 13.6875,-3.0664 z m 195.93945,0 c 1.83787,-0.0225 3.73492,0.0805 5.67578,0.31445 9.33771,1.13163 18.48268,5.09707 25.02344,10.74023 0.25508,2.48547 0.38672,5.00693 0.38672,7.5586 0,9.23103 -1.72666,18.06188 -4.84766,26.20898 -6.84502,-16.28893 -20.36725,-30.35505 -36.84765,-33.64453 -0.66975,-2.86531 -1.7078,-5.58944 -3.07813,-8.11133 3.88105,-1.94611 8.54927,-3.00358 13.6875,-3.0664 z m -238.35351,2.2832 c 9.01175,0 16.33203,7.32632 16.33203,16.33008 0,9.0114 -7.32881,16.33203 -16.33203,16.33203 -9.00428,0 -16.33008,-7.32828 -16.33008,-16.33203 0,-9.00376 7.31834,-16.33008 16.33008,-16.33008 z m 195.93945,0 c 9.0114,0 16.33203,7.32633 16.33203,16.33008 0,9.0114 -7.32828,16.33203 -16.33203,16.33203 -9.00375,0 -16.33008,-7.32828 -16.33008,-16.33203 0,-9.00375 7.31866,-16.33008 16.33008,-16.33008 z m -164.62305,25.62499 c 13.68055,4.48262 24.55174,21.65616 25.73633,36.97656 -7.22265,8.8886 -16.47733,16.05302 -27.04883,20.80078 6.67729,-16.35774 7.06199,-35.86343 -2.26367,-49.84179 1.5266,-2.44885 2.73676,-5.11224 3.57617,-7.93555 z m 195.93946,0 c 13.68117,4.48282 24.55257,21.65761 25.73632,36.97852 -7.22247,8.88804 -16.47781,16.05127 -27.04882,20.79882 6.67746,-16.35774 7.06175,-35.86343 -2.26368,-49.84179 1.52659,-2.44889 2.73679,-5.11219 3.57618,-7.93555 z m -244.47266,18.45313 c 2.44453,1.52219 5.10457,2.7286 7.92187,3.56641 -4.48064,13.68232 -21.65153,24.55491 -36.97851,25.73827 -8.88051,-7.21681 -16.0398,-16.46406 -20.78711,-27.02343 5.42593,2.23034 11.201,3.78429 17.00391,4.48632 2.49574,0.3139 4.95462,0.45899 7.34375,0.45899 9.71455,0 18.44182,-2.48063 25.49609,-7.22656 z m 195.93945,0 c 2.44503,1.52253 5.1039,2.73052 7.92188,3.56835 -4.48167,13.68144 -21.6523,24.55301 -36.97852,25.73633 -8.88048,-7.21681 -16.03982,-16.46406 -20.78711,-27.02343 5.42593,2.23034 11.20093,3.78429 17.00391,4.48632 2.49593,0.3139 4.955,0.45899 7.34375,0.45899 9.71452,0 18.44165,-2.48038 25.49609,-7.22656 z m -163.14843,0.96485 c 6.51238,12.86669 2.02912,32.74043 -8.00782,44.40039 -2.4877,0.25552 -5.01227,0.38672 -7.5664,0.38672 -9.23185,0 -18.06212,-1.72672 -26.20899,-4.84766 16.28967,-6.84483 30.35688,-20.36675 33.64649,-36.84765 2.8746,-0.672 5.60794,-1.71485 8.13672,-3.0918 z m 195.9375,0.002 c 6.51143,12.86674 2.0309,32.7389 -8.00586,44.39844 -2.48771,0.25552 -5.01227,0.38672 -7.56641,0.38672 -9.23188,0 -18.06212,-1.72672 -26.20898,-4.84766 16.28955,-6.84483 30.3569,-20.36676 33.64648,-36.84765 2.87371,-0.6718 5.60668,-1.71352 8.13477,-3.08985 z"
   id="icon-maincolor" style="fill:var(--icon-main)" /></svg>
