<?xml version="1.0" encoding="UTF-8" standalone="no"?>
<svg
   xmlns:dc="http://purl.org/dc/elements/1.1/"
   xmlns:cc="http://creativecommons.org/ns#"
   xmlns:rdf="http://www.w3.org/1999/02/22-rdf-syntax-ns#"
   xmlns:svg="http://www.w3.org/2000/svg"
   xmlns="http://www.w3.org/2000/svg"
   version="1.1"
   id="Icon"
   x="0px"
   y="0px"
   viewBox="0 0 512 512"
   style="enable-background:new 0 0 512 512;"
   xml:space="preserve"><metadata
   id="metadata55"><rdf:RDF><cc:Work
       rdf:about=""><dc:format>image/svg+xml</dc:format><dc:type
         rdf:resource="http://purl.org/dc/dcmitype/StillImage" /><dc:title></dc:title></cc:Work></rdf:RDF></metadata><defs
   id="defs53">
	
</defs>



<path
   d="m 194.26067,111.34766 c -7.89426,0 -14.25,6.35574 -14.25,14.25 v 8.02539 h -8.4668 c -13.79409,0 -25.01172,11.2208 -25.01172,25.01367 v 216.87305 c 0,13.78981 11.22069,25.01367 25.01172,25.01367 h 101.90821 c 13.79837,0 25.01368,-11.22386 25.01368,-25.01367 V 158.63672 c 0,-13.79226 -11.21527,-25.01367 -25.01368,-25.01367 h -8.46093 v -8.02539 c 0,-7.89426 -6.35575,-14.25 -14.25001,-14.25 z m -22.7168,38.95117 h 101.90821 c 4.59947,0 8.3418,3.7421 8.3418,8.33789 v 216.875 c 0,4.59517 -3.74233,8.33594 -8.3418,8.33594 h -101.9082 c -4.59946,0 -8.33985,-3.73403 -8.33985,-8.33594 v -216.875 c 0,-4.59518 3.74038,-8.33789 8.33984,-8.33789 z m 168.67188,16.68164 a 8.3758375,8.3758375 0 0 0 -8.24804,8.49219 v 51.23828 h 16.75 v -51.23828 a 8.3758375,8.3758375 0 0 0 -8.50196,-8.49219 z m -145.95508,0.0508 c -7.89426,0 -14.25,6.35574 -14.25,14.25 v 19.25391 h 84.98047 v -19.25391 c 0,-7.89426 -6.35574,-14.25 -14.25,-14.25 z m 137.70704,139.41016 v 52.10937 a 8.3758375,8.3758375 0 1 0 16.75,0 v -52.10937 z m -151.95704,27.11328 v 19.2539 c 0,7.89426 6.35574,14.25 14.25,14.25 h 56.48047 c 7.89426,0 14.25001,-6.35574 14.25001,-14.25 v -19.2539 z"
   id="icon-maincolor" style="fill:var(--icon-main);" />

<path
   d="m 180.01067,217.28516 v 99.51953 h 84.98048 v -99.51953 z m 143.70118,0 a 8.3758375,8.3758375 0 1 0 0,16.75 h 8.25586 v 66.01953 h -8.25586 a 8.3758375,8.3758375 0 1 0 0,16.75 h 33.26171 a 8.3758375,8.3758375 0 1 0 0,-16.75 h -8.25585 v -66.01953 h 8.25585 a 8.3758375,8.3758375 0 1 0 0,-16.75 z"
   id="icon-detailcolor" style="fill:var(--icon-detail);" />

</svg>
