<?xml version="1.0" encoding="UTF-8" standalone="no"?>
<svg
   xmlns:dc="http://purl.org/dc/elements/1.1/"
   xmlns:cc="http://creativecommons.org/ns#"
   xmlns:rdf="http://www.w3.org/1999/02/22-rdf-syntax-ns#"
   xmlns:svg="http://www.w3.org/2000/svg"
   xmlns="http://www.w3.org/2000/svg"
   xmlns:xlink="http://www.w3.org/1999/xlink"
   xmlns:sodipodi="http://sodipodi.sourceforge.net/DTD/sodipodi-0.dtd"
   xmlns:inkscape="http://www.inkscape.org/namespaces/inkscape"
   inkscape:version="0.92.3 (2405546, 2018-03-11)"
   sodipodi:docname="icon_profile_breezy.svg"
   version="1.1"
   id="Icon"
   x="0px"
   y="0px"
   viewBox="0 0 512 512"
   style="enable-background:new 0 0 512 512;"
   xml:space="preserve"><sodipodi:namedview
   inkscape:guide-bbox="true"
   showguides="true"
   inkscape:current-layer="Icon"
   inkscape:window-maximized="1"
   inkscape:window-y="0"
   inkscape:window-x="1920"
   inkscape:cy="73.316458"
   inkscape:cx="99.091855"
   inkscape:zoom="2.6074563"
   showgrid="false"
   id="namedview57"
   inkscape:window-height="1008"
   inkscape:window-width="1920"
   inkscape:pageshadow="2"
   inkscape:pageopacity="0"
   guidetolerance="10"
   gridtolerance="10"
   objecttolerance="10"
   borderopacity="1"
   bordercolor="#666666"
   pagecolor="#ffffff"
   inkscape:snap-global="false"><sodipodi:guide
     position="461.08156,265.58451"
     orientation="1,0"
     id="guide908"
     inkscape:locked="false" /><sodipodi:guide
     position="1199.7288,375.05085"
     orientation="1,0"
     id="guide985"
     inkscape:locked="false" /></sodipodi:namedview><metadata
   id="metadata55"><rdf:RDF><cc:Work
       rdf:about=""><dc:format>image/svg+xml</dc:format><dc:type
         rdf:resource="http://purl.org/dc/dcmitype/StillImage" /><dc:title /></cc:Work></rdf:RDF></metadata>
<defs
   id="defs53"><linearGradient
   id="linearGradient5375"><stop
     id="stop5371"
     offset="0"
     style="stop-color:#bebebe;stop-opacity:1" /><stop
     id="stop5373"
     offset="1"
     style="stop-color:#a0a0a0;stop-opacity:1" /></linearGradient><linearGradient
   id="linearGradient1770"><stop
     style="stop-color:#d7d7d7;stop-opacity:1"
     offset="0"
     id="stop1766" /><stop
     style="stop-color:#a5a5a5;stop-opacity:1"
     offset="1"
     id="stop1768" /></linearGradient>
<radialGradient
   gradientUnits="userSpaceOnUse"
   gradientTransform="matrix(2.392908,0,0,0.6407124,-456.09383,-4.7988023)"
   r="23.804689"
   fy="71.987305"
   fx="103.17969"
   cy="71.987305"
   cx="103.17969"
   id="radialGradient918"
   xlink:href="#linearGradient916" /><linearGradient
   id="linearGradient916"><stop
     id="stop912"
     offset="0"
     style="stop-color:#000000;stop-opacity:1" /><stop
     id="stop914"
     offset="1"
     style="stop-color:#000000;stop-opacity:0" /></linearGradient><radialGradient
   r="23.804689"
   fy="71.987305"
   fx="103.17969"
   cy="71.987305"
   cx="103.17969"
   gradientTransform="matrix(4.0815279,0,0,1.0595314,-452.87015,547.50073)"
   gradientUnits="userSpaceOnUse"
   id="radialGradient839"
   xlink:href="#linearGradient916" /><radialGradient
   r="23.804689"
   fy="71.987305"
   fx="103.17969"
   cy="71.987305"
   cx="103.17969"
   gradientTransform="matrix(4.0815279,0,0,1.0595314,-452.87015,547.50073)"
   gradientUnits="userSpaceOnUse"
   id="radialGradient847"
   xlink:href="#linearGradient916" /><radialGradient
   gradientUnits="userSpaceOnUse"
   gradientTransform="matrix(1.0018943,0,0,0.26826195,305.26064,96.21482)"
   r="23.804689"
   fy="71.987305"
   fx="103.17969"
   cy="71.987305"
   cx="103.17969"
   id="radialGradient918-2"
   xlink:href="#linearGradient916" /><radialGradient
   r="23.804689"
   fy="71.987305"
   fx="103.17969"
   cy="71.987305"
   cx="103.17969"
   gradientTransform="matrix(6.810858,0,0,1.8279666,242.232,212.73574)"
   gradientUnits="userSpaceOnUse"
   id="radialGradient839-7"
   xlink:href="#linearGradient916" /><radialGradient
   r="23.804689"
   fy="71.987305"
   fx="103.17969"
   cy="71.987305"
   cx="103.17969"
   gradientTransform="matrix(6.810858,0,0,1.8279666,242.232,212.73574)"
   gradientUnits="userSpaceOnUse"
   id="radialGradient847-2"
   xlink:href="#linearGradient916" /><linearGradient
   gradientTransform="matrix(1.0070038,0,0,1,-1.61386,-49.033017)"
   gradientUnits="userSpaceOnUse"
   y2="315.23819"
   x2="211.74911"
   y1="236.59412"
   x1="211.74911"
   id="linearGradient1764"
   xlink:href="#linearGradient1770" /><radialGradient
   r="23.804689"
   fy="71.987305"
   fx="103.17969"
   cy="71.987305"
   cx="103.17969"
   gradientTransform="matrix(0.93187232,0,0,0.24190646,-127.46427,573.74494)"
   gradientUnits="userSpaceOnUse"
   id="radialGradient1811"
   xlink:href="#linearGradient916" /><linearGradient
   gradientTransform="matrix(1.0070037,0,0,1,-2.2917,-49.033017)"
   gradientUnits="userSpaceOnUse"
   y2="314.15344"
   x2="511.12286"
   y1="237.13649"
   x1="511.12286"
   id="linearGradient1946"
   xlink:href="#linearGradient1770" /><radialGradient
   r="23.804689"
   fy="71.987305"
   fx="103.17969"
   cy="71.987305"
   cx="103.17969"
   gradientTransform="matrix(1.0018943,0,0,0.26826195,305.07404,47.181803)"
   gradientUnits="userSpaceOnUse"
   id="radialGradient2014"
   xlink:href="#linearGradient916" /><linearGradient
   id="linearGradient1770-2"><stop
     style="stop-color:#c8c8c8;stop-opacity:1"
     offset="0"
     id="stop1766-8" /><stop
     style="stop-color:#aaaaaa;stop-opacity:1"
     offset="1"
     id="stop1768-9" /></linearGradient><radialGradient
   gradientUnits="userSpaceOnUse"
   gradientTransform="matrix(2.392908,0,0,0.6407124,-456.09383,-4.7988023)"
   r="23.804689"
   fy="71.987305"
   fx="103.17969"
   cy="71.987305"
   cx="103.17969"
   id="radialGradient918-3"
   xlink:href="#linearGradient916" /><radialGradient
   r="23.804689"
   fy="71.987305"
   fx="103.17969"
   cy="71.987305"
   cx="103.17969"
   gradientTransform="matrix(5.1365166,0,0,1.3333978,33.568546,454.83796)"
   gradientUnits="userSpaceOnUse"
   id="radialGradient839-0"
   xlink:href="#linearGradient916" /><radialGradient
   r="23.804689"
   fy="71.987305"
   fx="103.17969"
   cy="71.987305"
   cx="103.17969"
   gradientTransform="matrix(5.2490258,0,0,1.3626043,-154.8408,381.47333)"
   gradientUnits="userSpaceOnUse"
   id="radialGradient847-21"
   xlink:href="#linearGradient916" /><radialGradient
   gradientUnits="userSpaceOnUse"
   gradientTransform="matrix(1.0018943,0,0,0.26826195,305.10183,47.1818)"
   r="23.804689"
   fy="71.987305"
   fx="103.17969"
   cy="71.987305"
   cx="103.17969"
   id="radialGradient918-2-0"
   xlink:href="#linearGradient916" /><radialGradient
   r="23.804689"
   fy="71.987305"
   fx="103.17969"
   cy="71.987305"
   cx="103.17969"
   gradientTransform="matrix(6.810858,0,0,1.8279666,242.232,212.73574)"
   gradientUnits="userSpaceOnUse"
   id="radialGradient839-7-5"
   xlink:href="#linearGradient916" /><radialGradient
   r="23.804689"
   fy="71.987305"
   fx="103.17969"
   cy="71.987305"
   cx="103.17969"
   gradientTransform="matrix(6.810858,0,0,1.8279666,242.232,212.73574)"
   gradientUnits="userSpaceOnUse"
   id="radialGradient847-2-1"
   xlink:href="#linearGradient916" /><radialGradient
   r="23.804689"
   fy="71.987305"
   fx="103.17969"
   cy="71.987305"
   cx="103.17969"
   gradientTransform="matrix(1.1171167,0,0,0.2899944,272.02363,418.00512)"
   gradientUnits="userSpaceOnUse"
   id="radialGradient1811-0"
   xlink:href="#linearGradient916"
   inkscape:collect="always" /><linearGradient
   inkscape:collect="always"
   xlink:href="#linearGradient5375"
   id="linearGradient5267"
   gradientUnits="userSpaceOnUse"
   x1="857.6214"
   y1="108.76357"
   x2="960.55829"
   y2="108.76357" /></defs>

<path
   id="path5631"
   d="m 210.49673,430.33691 c -70.58327,-20.42389 -92.46981,50.89693 -135.906602,62.23071 -40.49599,9.41318 71.818232,23.93698 116.018652,11.43553 44.19718,-12.50169 70.86927,-54.06115 19.88795,-73.66624 z"
   style="opacity:0.04;fill:#000000;fill-opacity:1;stroke-width:0.49931931"
   inkscape:connector-curvature="0" /><circle
   style="opacity:0.30800003;fill:#000000;fill-opacity:1;stroke:none;stroke-width:20;stroke-linecap:round;stroke-linejoin:round;stroke-miterlimit:4;stroke-dasharray:none;stroke-opacity:1"
   id="path916"
   cx="1330.124"
   cy="-65.456505"
   r="136.13559" />






















<path
   sodipodi:nodetypes="csscccscscscscc"
   inkscape:connector-curvature="0"
   style="color:#000000;font-style:normal;font-variant:normal;font-weight:normal;font-stretch:normal;font-size:medium;line-height:normal;font-family:sans-serif;font-variant-ligatures:normal;font-variant-position:normal;font-variant-caps:normal;font-variant-numeric:normal;font-variant-alternates:normal;font-feature-settings:normal;text-indent:0;text-align:start;text-decoration:none;text-decoration-line:none;text-decoration-style:solid;text-decoration-color:#000000;letter-spacing:normal;word-spacing:normal;text-transform:none;writing-mode:lr-tb;direction:ltr;text-orientation:mixed;dominant-baseline:auto;baseline-shift:baseline;text-anchor:start;white-space:normal;shape-padding:0;clip-rule:nonzero;display:inline;overflow:visible;visibility:visible;opacity:1;isolation:auto;mix-blend-mode:normal;color-interpolation:sRGB;color-interpolation-filters:linearRGB;solid-color:#000000;solid-opacity:1;vector-effect:none;fill:#ceebf9;fill-opacity:1;fill-rule:nonzero;stroke:none;stroke-width:10.36306858;stroke-linecap:round;stroke-linejoin:round;stroke-miterlimit:4;stroke-dasharray:none;stroke-dashoffset:0;stroke-opacity:1;color-rendering:auto;image-rendering:auto;shape-rendering:auto;text-rendering:auto;enable-background:accumulate"
   d="m 73.046328,114.43594 c -12.818115,0 -24.612861,7.20787 -30.919922,18.67968 -6.307061,11.47182 -6.307061,25.50866 0,36.98047 6.239434,11.34882 17.851309,18.51344 30.509766,18.66602 0.136484,0.01 0.27331,0.0145 0.410156,0.0137 H 187.47976 c 2.88731,0.0364 5.24743,-2.29411 5.24743,-5.18164 0,-2.88753 -2.36012,-5.21807 -5.24743,-5.18164 H 73.046328 c -8.947582,0 -17.264057,-4.98576 -21.839844,-13.3086 -4.575787,-8.32282 -4.575787,-18.67326 0,-26.99609 4.575787,-8.32283 12.892262,-13.30859 21.839844,-13.30859 2.887306,0.0364 5.247426,-2.29411 5.247426,-5.18164 0,-2.88753 -2.36012,-5.21807 -5.247426,-5.18164 z"
   id="path889" /><path
   sodipodi:nodetypes="sssccccsscscs"
   inkscape:connector-curvature="0"
   style="color:#000000;font-style:normal;font-variant:normal;font-weight:normal;font-stretch:normal;font-size:medium;line-height:normal;font-family:sans-serif;font-variant-ligatures:normal;font-variant-position:normal;font-variant-caps:normal;font-variant-numeric:normal;font-variant-alternates:normal;font-feature-settings:normal;text-indent:0;text-align:start;text-decoration:none;text-decoration-line:none;text-decoration-style:solid;text-decoration-color:#000000;letter-spacing:normal;word-spacing:normal;text-transform:none;writing-mode:lr-tb;direction:ltr;text-orientation:mixed;dominant-baseline:auto;baseline-shift:baseline;text-anchor:start;white-space:normal;shape-padding:0;clip-rule:nonzero;display:inline;overflow:visible;visibility:visible;opacity:1;isolation:auto;mix-blend-mode:normal;color-interpolation:sRGB;color-interpolation-filters:linearRGB;solid-color:#000000;solid-opacity:1;vector-effect:none;fill:#ceebf9;fill-opacity:1;fill-rule:nonzero;stroke:none;stroke-width:10.36306858;stroke-linecap:round;stroke-linejoin:round;stroke-miterlimit:4;stroke-dasharray:none;stroke-dashoffset:0;stroke-opacity:1;color-rendering:auto;image-rendering:auto;shape-rendering:auto;text-rendering:auto;enable-background:accumulate"
   d="m 70.745235,250.39545 c -11.789595,0 -21.720668,8.99729 -23.695313,20.88086 -1.974644,11.88357 4.350108,23.71845 15.375,27.97656 2.756223,1.06453 5.601977,1.55751 8.410157,1.53321 8.424538,-0.073 16.508642,-4.79933 20.804687,-12.69532 3.379684,-6.09175 -5.824497,-11.09964 -9.103516,-4.95312 -3.429716,6.3037 -10.190855,8.8365 -16.376953,6.44726 -6.186098,-2.38923 -10.092537,-9.35461 -8.886718,-16.61132 1.205818,-7.25672 6.946698,-12.21485 13.472656,-12.21485 H 188.16367 c 2.88731,0.0364 5.24743,-2.29411 5.24743,-5.18164 0,-2.88753 -2.36012,-5.21807 -5.24743,-5.18164 z"
   id="path900" /><path
   sodipodi:nodetypes="ccscccscssccc"
   inkscape:connector-curvature="0"
   style="color:#000000;font-style:normal;font-variant:normal;font-weight:normal;font-stretch:normal;font-size:medium;line-height:normal;font-family:sans-serif;font-variant-ligatures:normal;font-variant-position:normal;font-variant-caps:normal;font-variant-numeric:normal;font-variant-alternates:normal;font-feature-settings:normal;text-indent:0;text-align:start;text-decoration:none;text-decoration-line:none;text-decoration-style:solid;text-decoration-color:#000000;letter-spacing:normal;word-spacing:normal;text-transform:none;writing-mode:lr-tb;direction:ltr;text-orientation:mixed;dominant-baseline:auto;baseline-shift:baseline;text-anchor:start;white-space:normal;shape-padding:0;clip-rule:nonzero;display:inline;overflow:visible;visibility:visible;opacity:1;isolation:auto;mix-blend-mode:normal;color-interpolation:sRGB;color-interpolation-filters:linearRGB;solid-color:#000000;solid-opacity:1;vector-effect:none;fill:#ceebf9;fill-opacity:1;fill-rule:nonzero;stroke:none;stroke-width:10.36306858;stroke-linecap:round;stroke-linejoin:round;stroke-miterlimit:4;stroke-dasharray:none;stroke-dashoffset:0;stroke-opacity:1;color-rendering:auto;image-rendering:auto;shape-rendering:auto;text-rendering:auto;enable-background:accumulate"
   d="m 7.0820312,174.58387 c -2.4617403,-0.0855 -4.6435075,1.57363 -5.21875,3.96875 -2.83168326,11.0978 -0.6062234,22.92248 6.09375,32.0918 6.5979368,9.02968 16.8769568,14.4594 27.8437498,14.62305 0.168914,0.0135 0.338389,0.0187 0.507813,0.0156 H 183.54035 c 2.90813,0.0673 5.30195,-2.27175 5.30195,-5.18067 0,-2.90891 -2.39382,-5.24797 -5.30195,-5.18066 H 36.308594 c -7.783022,0 -15.154201,-3.78024 -19.984375,-10.39062 -4.830175,-6.61039 -6.4903584,-15.30166 -4.419922,-23.41602 0.87102,-3.22204 -1.486593,-6.41517 -4.8222658,-6.53125 z"
   id="path904" /><path
   sodipodi:nodetypes="cc"
   inkscape:connector-curvature="0"
   id="path910"
   d="m -201.06088,287.15257 -1e-4,254.832"
   style="fill:none;stroke:#000000;stroke-width:20;stroke-linecap:round;stroke-linejoin:miter;stroke-miterlimit:4;stroke-dasharray:none;stroke-opacity:1" /><path
   style="fill:none;stroke:#000000;stroke-width:20;stroke-linecap:round;stroke-linejoin:miter;stroke-miterlimit:4;stroke-dasharray:none;stroke-opacity:1"
   d="m 1539.5235,113.93992 0,254.832"
   id="path923"
   inkscape:connector-curvature="0"
   sodipodi:nodetypes="cc" /><path
   sodipodi:nodetypes="cc"
   inkscape:connector-curvature="0"
   id="path925"
   d="m 1429.3156,177.64792 220.4158,127.416"
   style="fill:none;stroke:#000000;stroke-width:20;stroke-linecap:round;stroke-linejoin:miter;stroke-miterlimit:4;stroke-dasharray:none;stroke-opacity:1" /><path
   style="fill:none;stroke:#000000;stroke-width:20;stroke-linecap:round;stroke-linejoin:miter;stroke-miterlimit:4;stroke-dasharray:none;stroke-opacity:1"
   d="m 1649.7314,177.64792 -220.4158,127.416"
   id="path927"
   inkscape:connector-curvature="0"
   sodipodi:nodetypes="cc" /><path
   sodipodi:nodetypes="cc"
   inkscape:connector-curvature="0"
   id="path934"
   d="m -159.94398,315.13696 -30.8192,17.79351"
   style="fill:none;stroke:#000000;stroke-width:20;stroke-linecap:round;stroke-linejoin:miter;stroke-miterlimit:4;stroke-dasharray:none;stroke-opacity:1" /><path
   style="fill:none;stroke:#000000;stroke-width:20;stroke-linecap:round;stroke-linejoin:miter;stroke-miterlimit:4;stroke-dasharray:none;stroke-opacity:1"
   d="m -241.88178,315.13696 30.8192,17.79351"
   id="path988"
   inkscape:connector-curvature="0"
   sodipodi:nodetypes="cc" /><path
   style="fill:none;stroke:#000000;stroke-width:20;stroke-linecap:round;stroke-linejoin:miter;stroke-miterlimit:4;stroke-dasharray:none;stroke-opacity:1"
   d="m -159.94398,513.83309 -30.8192,-17.79351"
   id="path990"
   inkscape:connector-curvature="0"
   sodipodi:nodetypes="cc" /><path
   sodipodi:nodetypes="cc"
   inkscape:connector-curvature="0"
   id="path992"
   d="m -241.88178,513.83309 30.8192,-17.79351"
   style="fill:none;stroke:#000000;stroke-width:20;stroke-linecap:round;stroke-linejoin:miter;stroke-miterlimit:4;stroke-dasharray:none;stroke-opacity:1" /><path
   style="fill:none;stroke:#000000;stroke-width:20;stroke-linecap:round;stroke-linejoin:miter;stroke-miterlimit:4;stroke-dasharray:none;stroke-opacity:1"
   d="M -311.33928,350.99792 -90.648279,478.41401"
   id="path995"
   inkscape:connector-curvature="0"
   sodipodi:nodetypes="cc" /><path
   style="fill:none;stroke:#000000;stroke-width:20;stroke-linecap:round;stroke-linejoin:miter;stroke-miterlimit:4;stroke-dasharray:none;stroke-opacity:1"
   d="M -266.54558,329.38184 V 364.9688"
   id="path997"
   inkscape:connector-curvature="0"
   sodipodi:nodetypes="cc" /><path
   sodipodi:nodetypes="cc"
   inkscape:connector-curvature="0"
   id="path999"
   d="m -307.51458,400.34204 30.8193,-17.79345"
   style="fill:none;stroke:#000000;stroke-width:20;stroke-linecap:round;stroke-linejoin:miter;stroke-miterlimit:4;stroke-dasharray:none;stroke-opacity:1" /><path
   sodipodi:nodetypes="cc"
   inkscape:connector-curvature="0"
   id="path1001"
   d="m -94.469779,428.7299 -30.819201,17.79345"
   style="fill:none;stroke:#000000;stroke-width:20;stroke-linecap:round;stroke-linejoin:miter;stroke-miterlimit:4;stroke-dasharray:none;stroke-opacity:1" /><path
   style="fill:none;stroke:#000000;stroke-width:20;stroke-linecap:round;stroke-linejoin:miter;stroke-miterlimit:4;stroke-dasharray:none;stroke-opacity:1"
   d="M -135.43868,499.69011 V 464.10315"
   id="path1003"
   inkscape:connector-curvature="0"
   sodipodi:nodetypes="cc" /><path
   sodipodi:nodetypes="cc"
   inkscape:connector-curvature="0"
   id="path1015"
   d="M -311.18028,478.37132 -90.489279,350.95539"
   style="fill:none;stroke:#000000;stroke-width:20;stroke-linecap:round;stroke-linejoin:miter;stroke-miterlimit:4;stroke-dasharray:none;stroke-opacity:1" /><path
   sodipodi:nodetypes="cc"
   inkscape:connector-curvature="0"
   id="path1017"
   d="m -307.50358,428.77083 30.8193,17.79347"
   style="fill:none;stroke:#000000;stroke-width:20;stroke-linecap:round;stroke-linejoin:miter;stroke-miterlimit:4;stroke-dasharray:none;stroke-opacity:1" /><path
   style="fill:none;stroke:#000000;stroke-width:20;stroke-linecap:round;stroke-linejoin:miter;stroke-miterlimit:4;stroke-dasharray:none;stroke-opacity:1"
   d="M -266.53468,499.73107 V 464.14411"
   id="path1019"
   inkscape:connector-curvature="0"
   sodipodi:nodetypes="cc" /><path
   style="fill:none;stroke:#000000;stroke-width:20;stroke-linecap:round;stroke-linejoin:miter;stroke-miterlimit:4;stroke-dasharray:none;stroke-opacity:1"
   d="m -135.42768,329.42278 v 35.58696"
   id="path1021"
   inkscape:connector-curvature="0"
   sodipodi:nodetypes="cc" /><path
   sodipodi:nodetypes="cc"
   inkscape:connector-curvature="0"
   id="path1023"
   d="M -94.458779,400.38303 -125.27798,382.58956"
   style="fill:none;stroke:#000000;stroke-width:20;stroke-linecap:round;stroke-linejoin:miter;stroke-miterlimit:4;stroke-dasharray:none;stroke-opacity:1" /><path
   style="fill:url(#linearGradient5267);fill-opacity:1;stroke:none;stroke-width:1px;stroke-linecap:butt;stroke-linejoin:miter;stroke-opacity:1"
   d="m 903.78434,190.86621 c -11.90543,-7.59371 -60.20209,-61.76428 -42.18009,-117.284133 16.79927,-51.753072 70.64351,-54.192122 82.3077,-49.736145 42.4287,16.208694 -11.82741,35.317608 6.23729,139.661008 6.26339,36.17791 -34.45946,34.95298 -46.3649,27.35927 z"
   id="path1433"
   inkscape:connector-curvature="0"
   sodipodi:nodetypes="zsssz"
   inkscape:transform-center-y="-81.898305"
   inkscape:tile-cx="663.42786"
   inkscape:tile-cy="290.46508"
   inkscape:tile-w="77.167557"
   inkscape:tile-h="165.0111"
   inkscape:tile-x0="624.84408"
   inkscape:tile-y0="126.06123" /><use
   x="0"
   y="0"
   inkscape:tiled-clone-of="#path1433"
   xlink:href="#path1433"
   transform="translate(-169.81645,125.89253)"
   id="use5138"
   inkscape:transform-center-y="-81.898301"
   width="100%"
   height="100%"
   style="fill:#220000;fill-opacity:1" /><use
   x="0"
   y="0"
   inkscape:tiled-clone-of="#path1433"
   xlink:href="#path1433"
   transform="rotate(72,748.87823,141.88265)"
   id="use5140"
   inkscape:transform-center-x="-81.222283"
   inkscape:transform-center-y="-22.53046"
   width="100%"
   height="100%" /><use
   x="0"
   y="0"
   inkscape:tiled-clone-of="#path1433"
   xlink:href="#path1433"
   transform="rotate(144,815.06385,231.16045)"
   id="use5142"
   inkscape:transform-center-x="-41.969548"
   inkscape:transform-center-y="72.226626"
   width="100%"
   height="100%" /><use
   x="0"
   y="0"
   inkscape:tiled-clone-of="#path1433"
   xlink:href="#path1433"
   transform="rotate(-144,855.9688,286.33716)"
   id="use5144"
   inkscape:transform-center-x="55.918486"
   inkscape:transform-center-y="60.04326"
   width="100%"
   height="100%" /><use
   x="0"
   y="0"
   inkscape:tiled-clone-of="#path1433"
   xlink:href="#path1433"
   transform="rotate(-72,922.15442,375.61493)"
   id="use5146"
   inkscape:transform-center-x="74.210973"
   inkscape:transform-center-y="-32.515875"
   width="100%"
   height="100%" /><path
   id="path5227"
   d="M 907.01466,-277.45783 A 120.59054,120.59054 0 0 1 786.42415,-156.86729 120.59054,120.59054 0 0 1 665.83359,-277.45783 120.59054,120.59054 0 0 1 786.42415,-398.04836 120.59054,120.59054 0 0 1 907.01466,-277.45783 Z"
   style="opacity:1;fill:#c8c8c8;fill-opacity:1;stroke:none;stroke-width:9.29999924;stroke-linecap:round;stroke-linejoin:round;stroke-miterlimit:4;stroke-dasharray:none;stroke-opacity:1"
   inkscape:connector-curvature="0" /><path
   inkscape:connector-curvature="0"
   style="opacity:1;fill:none;fill-opacity:1;stroke:#2ac8c8;stroke-width:5;stroke-linecap:round;stroke-linejoin:round;stroke-miterlimit:4;stroke-dasharray:none;stroke-opacity:1"
   d="M 887.07185,-277.45783 A 100.64773,100.64773 0 0 1 786.42415,-176.8101 100.64773,100.64773 0 0 1 685.7764,-277.45783 100.64773,100.64773 0 0 1 786.42415,-378.10555 100.64773,100.64773 0 0 1 887.07185,-277.45783 Z"
   id="path5229" /><path
   id="path5231"
   d="m 866.59329,-277.45783 a 80.169163,80.169163 0 0 1 -80.16914,80.16917 80.169163,80.169163 0 0 1 -80.16917,-80.16917 80.169163,80.169163 0 0 1 80.16917,-80.16915 80.169163,80.169163 0 0 1 80.16914,80.16915 z"
   style="opacity:1;fill:none;fill-opacity:1;stroke:#2ac8c8;stroke-width:5;stroke-linecap:round;stroke-linejoin:round;stroke-miterlimit:4;stroke-dasharray:none;stroke-opacity:1"
   inkscape:connector-curvature="0" /><path
   inkscape:connector-curvature="0"
   style="opacity:1;fill:none;fill-opacity:1;stroke:#2ac8c8;stroke-width:5;stroke-linecap:round;stroke-linejoin:round;stroke-miterlimit:4;stroke-dasharray:none;stroke-opacity:1"
   d="m 844.73294,-277.45782 a 58.308777,58.308777 0 0 1 -58.30876,58.30877 58.308777,58.308777 0 0 1 -58.30879,-58.30877 58.308777,58.308777 0 0 1 58.30879,-58.30878 58.308777,58.308777 0 0 1 58.30876,58.30878 z"
   id="path5233" /><path
   id="path5235"
   d="m 812.19054,-277.45782 a 25.766402,25.766402 0 0 1 -25.76639,25.7664 25.766402,25.766402 0 0 1 -25.7664,-25.7664 25.766402,25.766402 0 0 1 25.7664,-25.7664 25.766402,25.766402 0 0 1 25.76639,25.7664 z"
   style="opacity:1;fill:#46c8c8;fill-opacity:1;stroke:none;stroke-width:9.30000114;stroke-linecap:round;stroke-linejoin:round;stroke-miterlimit:4;stroke-dasharray:none;stroke-opacity:1"
   inkscape:connector-curvature="0" /><path
   d="M 386.75203,447.12722 A 125.24804,32.44059 0 0 0 261.50407,479.56872 125.24804,32.44059 0 0 0 386.75203,512 125.24804,32.44059 0 0 0 512,479.56872 125.24804,32.44059 0 0 0 386.75203,447.12722 Z"
   id="groundshadow1-5"
   style="opacity:0.35;fill:url(#radialGradient847-21);stroke-width:7.89006424"
   inkscape:connector-curvature="0" /><path
   style="fill:#c8c8c8;fill-opacity:1;stroke-width:1.11296725"
   d="m 300.08138,434.3636 c -0.0492,0.0126 -0.0959,0.0228 -0.14534,0.0356 0,0 -17.28236,18.41933 -17.37054,40.1753 -0.0229,0.13833 -0.0415,0.27683 -0.0561,0.41528 0.0271,0.17309 0.0609,0.34615 0.10094,0.51911 0.0436,0.4183 0.11968,0.81416 0.23431,1.18057 3.5194,14.2869 49.1919,25.41268 104.44276,25.41268 55.25088,0 100.92339,-11.12579 104.44275,-25.41268 0.11478,-0.36641 0.19061,-0.76227 0.23436,-1.18057 0.0401,-0.17296 0.0736,-0.34602 0.10094,-0.51911 -0.0151,-0.13848 -0.0333,-0.2769 -0.0561,-0.41528 -0.0885,-21.75597 -17.37056,-40.1753 -17.37056,-40.1753 -0.0493,-0.0126 -0.096,-0.0237 -0.14535,-0.0356 1.1789,1.48469 1.79093,2.9959 1.82724,4.51174 -9.06772,8.51743 -39.68803,16.78696 -88.84114,16.78696 -49.15313,0 -72.09118,-4.98512 -78.4743,-13.88607 0.0362,-1.51584 -10.10204,-5.92794 -8.92315,-7.41263 z"
   id="bottomrim-64"
   inkscape:connector-curvature="0"
   sodipodi:nodetypes="cccccccccccccccccc" /><path
   style="fill:#dcdcdc;fill-opacity:1;stroke-width:1.11296737"
   d="m 387.25873,415.74061 a 89.327216,23.166642 0 0 0 -89.32336,23.14042 89.327216,23.166642 0 0 0 89.32336,23.14041 89.327216,23.166642 0 0 0 89.30554,-23.05257 h 0.0751 v -0.0878 -0.0877 h -0.0751 a 89.327216,23.166642 0 0 0 -89.30554,-23.05245 z"
   id="path956-6"
   inkscape:connector-curvature="0" /><path
   inkscape:connector-curvature="0"
   d="m 387.28737,431.9778 a 26.655739,6.9041235 0 0 0 -26.65571,6.90433 26.655739,6.9041235 0 0 0 26.65571,6.90213 26.655739,6.9041235 0 0 0 26.65573,-6.90213 26.655739,6.9041235 0 0 0 -26.65573,-6.90433 z"
   id="path1809-2"
   style="opacity:0.5;fill:url(#radialGradient1811-0);stroke-width:7.72094584" /><path
   sodipodi:nodetypes="ccccccccccccc"
   inkscape:connector-curvature="0"
   id="path1780"
   d="m 367.10686,202.03436 v 235.13342 c -0.0338,0.12031 -0.0512,0.24109 -0.0523,0.36181 0.0128,2.81748 8.81971,5.10013 19.68357,5.10004 10.82983,-8.6e-4 19.62251,-2.27052 19.67663,-5.07916 h 0.0181 v -0.0208 -0.0181 h -0.0181 c -0.01,-0.0605 -0.0214,-0.12069 -0.0383,-0.18095 h 0.0731 V 202.03436 Z"
   style="opacity:1;fill:#c8c8c8;fill-opacity:1;stroke:none;stroke-width:18.65555763;stroke-linecap:round;stroke-linejoin:round;stroke-miterlimit:4;stroke-dasharray:none;stroke-opacity:1" /><path
   style="opacity:0.5;fill:#ffffff;fill-opacity:1;stroke:none;stroke-width:18.65555763;stroke-linecap:round;stroke-linejoin:round;stroke-miterlimit:4;stroke-dasharray:none;stroke-opacity:1"
   d="m 385.23547,202.03357 v 240.55696 c 0.50447,0.01 0.98742,0.0393 1.50182,0.0393 3.88558,-3.2e-4 7.48817,-0.3017 10.53977,-0.80622 V 202.03357 Z"
   id="rect967-5"
   inkscape:connector-curvature="0"
   sodipodi:nodetypes="cccccc" /><path
   inkscape:connector-curvature="0"
   style="opacity:0.98000004;fill:#e6e6e6;fill-opacity:1;stroke:#a0a0a0;stroke-width:6;stroke-linecap:round;stroke-linejoin:round;stroke-miterlimit:4;stroke-dasharray:none;stroke-opacity:1"
   d="M 445.4151,220.07384 A 114.2836,177.51942 0 0 1 331.13155,397.59325 114.2836,177.51942 0 0 1 216.84793,220.07384 114.2836,177.51942 0 0 1 331.13155,42.554429 114.2836,177.51942 0 0 1 445.4151,220.07384 Z"
   id="path5215" /><g
   id="g5253"
   transform="matrix(0.47036163,0,0,0.96289375,-208.50305,-87.715809)"
   style="opacity:0.697;fill:#dddfc6;fill-opacity:1;stroke-width:1.7755152"><use
     x="0"
     y="0"
     inkscape:tiled-clone-of="#path1433"
     xlink:href="#path1433"
     transform="translate(198.99711,126.97728)"
     id="use5243"
     inkscape:transform-center-y="-81.898301"
     width="100%"
     height="100%"
     style="fill:#dddfc6;fill-opacity:1;stroke-width:1.7755152" /><use
     x="0"
     y="0"
     inkscape:tiled-clone-of="#path1433"
     xlink:href="#path1433"
     transform="rotate(72,932.5385,396.23918)"
     id="use5245"
     inkscape:transform-center-x="-81.222283"
     inkscape:transform-center-y="-22.53046"
     width="100%"
     height="100%"
     style="fill:#dddfc6;fill-opacity:1;stroke-width:1.7755152" /><use
     x="0"
     y="0"
     inkscape:tiled-clone-of="#path1433"
     xlink:href="#path1433"
     transform="rotate(144,999.2944,291.62022)"
     id="use5247"
     inkscape:transform-center-x="-41.969548"
     inkscape:transform-center-y="72.226626"
     width="100%"
     height="100%"
     style="fill:#dddfc6;fill-opacity:1;stroke-width:1.7755152" /><use
     x="0"
     y="0"
     inkscape:tiled-clone-of="#path1433"
     xlink:href="#path1433"
     transform="rotate(-144,1040.5518,226.96213)"
     id="use5249"
     inkscape:transform-center-x="55.918486"
     inkscape:transform-center-y="60.04326"
     width="100%"
     height="100%"
     style="fill:#dddfc6;fill-opacity:1;stroke-width:1.7755152" /><use
     x="0"
     y="0"
     inkscape:tiled-clone-of="#path1433"
     xlink:href="#path1433"
     transform="rotate(-72,1107.3077,122.34315)"
     id="use5251"
     inkscape:transform-center-x="74.210973"
     inkscape:transform-center-y="-32.515875"
     width="100%"
     height="100%"
     style="fill:#dddfc6;fill-opacity:1;stroke-width:1.7755152" /></g><g
   style="opacity:1;fill:#878889;fill-opacity:1;stroke-width:1.7755152"
   transform="matrix(0.47036163,0,0,0.96289375,-213.59295,-87.316601)"
   id="g5209"><use
     style="fill:#878889;fill-opacity:1;stroke-width:1.7755152"
     height="100%"
     width="100%"
     inkscape:transform-center-y="-81.898301"
     id="use5199"
     transform="translate(198.99711,126.97728)"
     xlink:href="#path1433"
     inkscape:tiled-clone-of="#path1433"
     y="0"
     x="0" /><use
     style="fill:#878889;fill-opacity:1;stroke-width:1.7755152"
     height="100%"
     width="100%"
     inkscape:transform-center-y="-22.53046"
     inkscape:transform-center-x="-81.222283"
     id="use5201"
     transform="rotate(72,932.5385,396.23918)"
     xlink:href="#path1433"
     inkscape:tiled-clone-of="#path1433"
     y="0"
     x="0" /><use
     style="fill:#878889;fill-opacity:1;stroke-width:1.7755152"
     height="100%"
     width="100%"
     inkscape:transform-center-y="72.226626"
     inkscape:transform-center-x="-41.969548"
     id="use5203"
     transform="rotate(144,999.2944,291.62022)"
     xlink:href="#path1433"
     inkscape:tiled-clone-of="#path1433"
     y="0"
     x="0" /><use
     style="fill:#878889;fill-opacity:1;stroke-width:1.7755152"
     height="100%"
     width="100%"
     inkscape:transform-center-y="60.04326"
     inkscape:transform-center-x="55.918486"
     id="use5205"
     transform="rotate(-144,1040.5518,226.96213)"
     xlink:href="#path1433"
     inkscape:tiled-clone-of="#path1433"
     y="0"
     x="0" /><use
     style="fill:#878889;fill-opacity:1;stroke-width:1.7755152"
     height="100%"
     width="100%"
     inkscape:transform-center-y="-32.515875"
     inkscape:transform-center-x="74.210973"
     id="use5207"
     transform="rotate(-72,1107.3077,122.34315)"
     xlink:href="#path1433"
     inkscape:tiled-clone-of="#path1433"
     y="0"
     x="0" /></g><path
   id="path5217"
   d="M 389.25862,220.07384 A 80.716498,148.2145 0 0 1 308.54213,368.28832 80.716498,148.2145 0 0 1 227.82561,220.07384 80.716498,148.2145 0 0 1 308.54213,71.859346 80.716498,148.2145 0 0 1 389.25862,220.07384 Z"
   style="opacity:1;fill:none;fill-opacity:1;stroke:#a0a0a0;stroke-width:4.74820328;stroke-linecap:round;stroke-linejoin:round;stroke-miterlimit:4;stroke-dasharray:none;stroke-opacity:1"
   inkscape:connector-curvature="0" /><path
   inkscape:connector-curvature="0"
   style="opacity:1;fill:none;fill-opacity:1;stroke:#a0a0a0;stroke-width:4.70304537;stroke-linecap:round;stroke-linejoin:round;stroke-miterlimit:4;stroke-dasharray:none;stroke-opacity:1"
   d="m 359.38201,220.07384 a 61.605579,118.01575 0 0 1 -61.60556,118.01574 61.605579,118.01575 0 0 1 -61.6056,-118.01574 61.605579,118.01575 0 0 1 61.6056,-118.01575 61.605579,118.01575 0 0 1 61.60556,118.01575 z"
   id="path5221" /><path
   id="path5223"
   d="m 338.62928,220.07384 a 43.592,85.863992 0 0 1 -43.59198,85.86398 43.592,85.863992 0 0 1 -43.59201,-85.86398 43.592,85.863992 0 0 1 43.59201,-85.86399 43.592,85.863992 0 0 1 43.59198,85.86399 z"
   style="opacity:1;fill:none;fill-opacity:1;stroke:#a0a0a0;stroke-width:4.63961029;stroke-linecap:round;stroke-linejoin:round;stroke-miterlimit:4;stroke-dasharray:none;stroke-opacity:1"
   inkscape:connector-curvature="0" /><path
   inkscape:connector-curvature="0"
   style="opacity:1;fill:none;fill-opacity:1;stroke:#a0a0a0;stroke-width:5.56351137;stroke-linecap:round;stroke-linejoin:round;stroke-miterlimit:4;stroke-dasharray:none;stroke-opacity:1"
   d="M 425.175,220.07384 A 94.03678,174.22603 0 0 1 331.13825,394.29985 94.03678,174.22603 0 0 1 237.10145,220.07384 94.03678,174.22603 0 0 1 331.13825,45.847805 94.03678,174.22603 0 0 1 425.175,220.07384 Z"
   id="path5237" /><path
   style="fill:none;stroke:#a0a0a0;stroke-width:5.20749807;stroke-linecap:butt;stroke-linejoin:miter;stroke-miterlimit:4;stroke-dasharray:none;stroke-opacity:0.98039216"
   d="m 216.72761,220.07384 h 229.0343"
   id="path5241"
   inkscape:connector-curvature="0"
   sodipodi:nodetypes="cc" /><path
   style="color:#000000;font-style:normal;font-variant:normal;font-weight:normal;font-stretch:normal;font-size:medium;line-height:normal;font-family:sans-serif;font-variant-ligatures:normal;font-variant-position:normal;font-variant-caps:normal;font-variant-numeric:normal;font-variant-alternates:normal;font-feature-settings:normal;text-indent:0;text-align:start;text-decoration:none;text-decoration-line:none;text-decoration-style:solid;text-decoration-color:#000000;letter-spacing:normal;word-spacing:normal;text-transform:none;writing-mode:lr-tb;direction:ltr;text-orientation:mixed;dominant-baseline:auto;baseline-shift:baseline;text-anchor:start;white-space:normal;shape-padding:0;clip-rule:nonzero;display:inline;overflow:visible;visibility:visible;opacity:1;isolation:auto;mix-blend-mode:normal;color-interpolation:sRGB;color-interpolation-filters:linearRGB;solid-color:#000000;solid-opacity:1;vector-effect:none;fill:#a0a0a0;fill-opacity:0.98039216;fill-rule:nonzero;stroke:none;stroke-width:5.20749807;stroke-linecap:butt;stroke-linejoin:miter;stroke-miterlimit:4;stroke-dasharray:none;stroke-dashoffset:0;stroke-opacity:1;color-rendering:auto;image-rendering:auto;shape-rendering:auto;text-rendering:auto;enable-background:accumulate"
   d="M 382.34961 58.298828 L 291.72266 215.26562 L 235.42383 117.75195 A 116.20245 180.50001 0 0 0 232.95898 123.89648 L 288.7168 220.47266 L 233.07422 316.84961 A 116.20245 180.50001 0 0 0 235.70312 322.71094 L 291.72266 225.68164 L 382.07031 382.16797 A 116.20245 180.50001 0 0 0 386.17383 378.85742 L 294.73047 220.47266 L 386.54492 61.447266 A 116.20245 180.50001 0 0 0 382.34961 58.298828 z "
   id="path5303" /><path
   id="path5239"
   d="m 318.77227,220.07384 a 20.621987,39.035844 0 0 1 -20.62199,39.03585 20.621987,39.035844 0 0 1 -20.62196,-39.03585 20.621987,39.035844 0 0 1 20.62196,-39.03587 20.621987,39.035844 0 0 1 20.62199,39.03587 z"
   style="opacity:1;fill:#505050;fill-opacity:1;stroke:none;stroke-width:9.05655003;stroke-linecap:round;stroke-linejoin:round;stroke-miterlimit:4;stroke-dasharray:none;stroke-opacity:1"
   inkscape:connector-curvature="0" /><path
   inkscape:connector-curvature="0"
   style="opacity:1;fill:#767575;fill-opacity:1;stroke:none;stroke-width:9.37381172;stroke-linecap:round;stroke-linejoin:round;stroke-miterlimit:4;stroke-dasharray:none;stroke-opacity:1"
   d="m 314.90592,220.07384 a 22.092116,39.035844 0 0 1 -22.09213,39.03585 22.092116,39.035844 0 0 1 -22.09209,-39.03585 22.092116,39.035844 0 0 1 22.09209,-39.03587 22.092116,39.035844 0 0 1 22.09213,39.03587 z"
   id="path5225" /><path
   id="path5367"
   d="m 306.99182,220.07384 a 15.435464,29.218147 0 0 1 -15.43547,29.21815 15.435464,29.218147 0 0 1 -15.43547,-29.21815 15.435464,29.218147 0 0 1 15.43547,-29.21816 15.435464,29.218147 0 0 1 15.43547,29.21816 z"
   style="opacity:0.18600003;fill:#000000;fill-opacity:1;stroke:none;stroke-width:6.77878618;stroke-linecap:round;stroke-linejoin:round;stroke-miterlimit:4;stroke-dasharray:none;stroke-opacity:1"
   inkscape:connector-curvature="0" /><path
   inkscape:connector-curvature="0"
   style="opacity:0.49599998;fill:#9b9b9b;fill-opacity:1;stroke:none;stroke-width:6.66233969;stroke-linecap:round;stroke-linejoin:round;stroke-miterlimit:4;stroke-dasharray:none;stroke-opacity:1"
   d="m 308.68299,220.06141 a 14.868662,29.298826 0 0 1 -14.86864,29.29883 14.868662,29.298826 0 0 1 -14.86869,-29.29883 14.868662,29.298826 0 0 1 14.86869,-29.29883 14.868662,29.298826 0 0 1 14.86864,29.29883 z"
   id="path5369" /><path
   id="path5625"
   d="m 18.546784,333.89056 c -19.9568353,49.27018 44.973314,66.92582 54.582827,97.97852 7.902727,28.91503 23.196139,-50.03562 12.530784,-81.6639 C 74.994739,318.57921 37.406052,298.45196 18.546784,333.89056 Z"
   style="fill:#50b657;stroke-width:0.40192965"
   inkscape:connector-curvature="0" /><path
   id="path5627"
   d="M 77.174765,425.23808 C 77.695988,369.46472 11.527187,337.24706 10.087128,294.74796"
   style="fill:none;stroke:#348335;stroke-width:4.41499996;stroke-linecap:round;stroke-miterlimit:4;stroke-dasharray:none;stroke-opacity:1"
   inkscape:connector-curvature="0" /><path
   style="opacity:0.17000002;fill:#000000;fill-opacity:1;stroke-width:0.53598493"
   d="m 88.664062,365.60929 c -9.932623,17.41983 -13.404344,39.92178 -18.347656,59.88477 1.176517,2.06971 2.135753,4.18812 2.8125,6.375 6.812367,24.92555 19.101371,-30.28526 15.535156,-66.25977 z"
   id="path5629"
   inkscape:connector-curvature="0" /><path
   inkscape:connector-curvature="0"
   style="fill:#50b657;stroke-width:0.53598493"
   d="m 145.50898,343.25247 c -70.463448,7.75058 -50.102482,95.14019 -80.472787,126.06946 -28.941025,27.57311 73.411697,-4.43248 103.789507,-36.96536 30.37497,-32.53175 30.21611,-89.3908 -23.31672,-89.1041 z"
   id="leaf" /><path
   inkscape:connector-curvature="0"
   style="fill:none;stroke:#348335;stroke-width:5.48799992;stroke-linecap:round;stroke-miterlimit:4;stroke-dasharray:none;stroke-opacity:1"
   d="M 75.379591,469.87439 C 141.17844,435.19449 137.1272,337.13647 186.10312,308.55392"
   id="leafstem" /></svg>