<?xml version="1.0" encoding="UTF-8" standalone="no"?>
<svg
   height="512"
   width="512"
   version="1.1"
   id="Icon"
   x="0px"
   y="0px"
   viewBox="0 0 512 512"
   xml:space="preserve"
   sodipodi:docname="icon_speedometer.svg"
   inkscape:version="1.2.2 (1:1.2.2+202212051552+b0a8486541)"
   xmlns:inkscape="http://www.inkscape.org/namespaces/inkscape"
   xmlns:sodipodi="http://sodipodi.sourceforge.net/DTD/sodipodi-0.dtd"
   xmlns="http://www.w3.org/2000/svg"
   xmlns:svg="http://www.w3.org/2000/svg"
   xmlns:rdf="http://www.w3.org/1999/02/22-rdf-syntax-ns#"
   xmlns:cc="http://creativecommons.org/ns#"
   xmlns:dc="http://purl.org/dc/elements/1.1/"><defs
   id="defs7" /><sodipodi:namedview
   id="namedview5"
   pagecolor="#ffffff"
   bordercolor="#cccccc"
   borderopacity="1"
   inkscape:showpageshadow="0"
   inkscape:pageopacity="1"
   inkscape:pagecheckerboard="0"
   inkscape:deskcolor="#d1d1d1"
   showgrid="false"
   inkscape:zoom="1.451171"
   inkscape:cx="157.45904"
   inkscape:cy="256.3447"
   inkscape:window-width="1920"
   inkscape:window-height="1051"
   inkscape:window-x="0"
   inkscape:window-y="0"
   inkscape:window-maximized="1"
   inkscape:current-layer="Icon" /><metadata
   id="metadata55"><rdf:RDF><cc:Work
       rdf:about=""><dc:format>image/svg+xml</dc:format><dc:type
         rdf:resource="http://purl.org/dc/dcmitype/StillImage" /></cc:Work></rdf:RDF></metadata>

<path
   d="m 256.00012,104.91813 c -55.52318,0 -104.78899,27.12955 -135.36328,68.79297 l -0.006,0.01 c -0.0185,0.0271 -7.33943,10.74156 -11.40234,17.75391 -13.411303,24.10962 -21.09766,51.81897 -21.09766,81.31055 0,38.574 12.9398,75.03857 36.3418,104.39257 -0.006,0.006 -0.0133,0.0101 -0.0195,0.0156 2.2515,2.77783 7.66667,9.34728 11.12696,12.57617 5.381,5.518 11.1702,10.71602 17.36719,15.54102 1.474,1.148 3.2902,1.77148 5.1582,1.77148 H 353.8965 c 1.868,0 3.68125,-0.62348 5.15625,-1.77148 41.1911,-32.07321 64.81641,-80.37544 64.81641,-132.52344 0,-92.564 -75.30514,-167.86914 -167.86914,-167.86914 z m -8.39258,17.03125 v 33.33008 c 0,4.635 3.75758,8.39256 8.39258,8.39258 4.635,0 8.39258,-3.75758 8.39258,-8.39258 v -33.33008 c 35.345,1.945 67.48043,16.09978 92.27344,38.30078 l -23.51172,23.51172 c -3.278,3.277 -3.278,8.59214 0,11.86914 1.639,1.639 3.78754,2.45898 5.93554,2.45898 2.148,0 4.2946,-0.81998 5.9336,-2.45898 l 23.50976,-23.51172 c 22.202,24.794 36.35774,56.93039 38.30274,92.27539 h -33.32813 c -4.635,0 -8.39453,3.75758 -8.39453,8.39258 0,4.635 3.75953,8.39258 8.39453,8.39258 h 33.34375 c -1.882,34.609 -15.38242,66.92542 -38.23242,92.35742 l -23.59375,-23.59375 c -3.277,-3.277 -8.59009,-3.279 -11.87109,0 -3.278,3.277 -3.278,8.59214 0,11.86914 l 23.57617,23.57617 c -1.875,1.674 -3.79077,3.31619 -5.75977,4.90821 h -86.57617 v -25.18165 c 0,-4.635 -3.75758,-8.39257 -8.39258,-8.39257 -4.635,0 -8.39453,3.75757 -8.39453,8.39257 v 25.18165 h -86.57617 c -1.969,-1.592 -3.88477,-3.23321 -5.75977,-4.90821 l 23.57422,-23.57617 c 3.278,-3.277 3.279,-8.59214 0,-11.86914 -3.277,-3.279 -8.59209,-3.279 -11.87109,0 l -23.5918,23.59375 c -0.141,-0.157 -0.28578,-0.31075 -0.42578,-0.46875 -0.308,-0.453 -0.66236,-0.8842 -1.06836,-1.2832 -0.055,-0.054 -0.12073,-0.0896 -0.17773,-0.14258 -21.835,-25.134 -34.7255,-56.70889 -36.5625,-90.46289 h 33.34375 c 4.635,0 8.39453,-3.75758 8.39453,-8.39258 0,-4.635 -3.75953,-8.39258 -8.39453,-8.39258 h -33.32813 c 1.945,-35.345 16.09878,-67.48139 38.30078,-92.27539 l 23.50977,23.51172 c 1.639,1.639 3.78559,2.45898 5.93359,2.45898 2.147,0 4.29755,-0.81998 5.93555,-2.45898 3.279,-3.277 3.278,-8.59214 0,-11.86914 L 155.3341,160.25016 c 24.794,-22.201 56.92844,-36.35578 92.27344,-38.30078 z m 48.93555,97.22461 c -0.78527,0.0461 -1.57074,0.20331 -2.33399,0.47656 -9.556,3.42 -57.76457,21.01649 -68.39257,31.64649 -6.341,6.33999 -9.83399,14.76928 -9.83399,23.73828 0,8.967 3.49299,17.39828 9.83399,23.73828 6.342,6.342 14.77223,9.83398 23.74023,9.83398 8.968,0 17.40023,-3.49203 23.74024,-9.83203 10.629,-10.627 28.22357,-58.83658 31.64257,-68.39258 1.092,-3.056 0.32721,-6.46867 -1.96679,-8.76367 -1.722,-1.72275 -4.07389,-2.58359 -6.42969,-2.44531 z m -13.83399,22.70703 c -7.631,19.58 -16.7982,40.53944 -21.2832,45.02344 -3.17,3.17 -7.38609,4.91601 -11.87109,4.91601 -4.484,0 -8.69914,-1.74601 -11.86914,-4.91601 h -0.002 c -3.17,-3.17 -4.91601,-7.38514 -4.91601,-11.86914 0,-4.486 1.74697,-8.7011 4.91797,-11.8711 4.481,-4.482 25.44043,-13.6502 45.02343,-21.2832 z"
   id="icon-maincolor" style="fill:var(--icon-main)" />
















</svg>
