<?xml version="1.0" encoding="UTF-8" standalone="no"?>
<svg
   xmlns:dc="http://purl.org/dc/elements/1.1/"
   xmlns:cc="http://creativecommons.org/ns#"
   xmlns:rdf="http://www.w3.org/1999/02/22-rdf-syntax-ns#"
   xmlns:svg="http://www.w3.org/2000/svg"
   xmlns="http://www.w3.org/2000/svg"
   xmlns:xlink="http://www.w3.org/1999/xlink"
   version="1.1"
   id="Icon"
   x="0px"
   y="0px"
   viewBox="0 0 512 512"
   style="enable-background:new 0 0 512 512;"
   xml:space="preserve"><metadata
   id="metadata55"><rdf:RDF><cc:Work
       rdf:about=""><dc:format>image/svg+xml</dc:format><dc:type
         rdf:resource="http://purl.org/dc/dcmitype/StillImage" /><dc:title></dc:title></cc:Work></rdf:RDF></metadata>
<defs
   id="defs53">
<radialGradient
   xlink:href="#linearGradient916"
   id="radialGradient918"
   cx="103.17969"
   cy="71.987305"
   fx="103.17969"
   fy="71.987305"
   r="23.804689"
   gradientTransform="matrix(1,0,0,0.25931241,0,53.320103)"
   gradientUnits="userSpaceOnUse" /><linearGradient
   id="linearGradient916"><stop
     style="stop-color:#000000;stop-opacity:1"
     offset="0"
     id="stop912" /><stop
     style="stop-color:#000000;stop-opacity:0"
     offset="1"
     id="stop914" /></linearGradient><radialGradient
   xlink:href="#linearGradient916"
   id="radialGradient839"
   gradientUnits="userSpaceOnUse"
   gradientTransform="matrix(0.99763266,0,0,0.25931241,0.24426123,53.320103)"
   cx="103.17969"
   cy="71.987305"
   fx="103.17969"
   fy="71.987305"
   r="23.804689" /><radialGradient
   xlink:href="#linearGradient916"
   id="radialGradient847"
   gradientUnits="userSpaceOnUse"
   gradientTransform="matrix(0.99763266,0,0,0.25931241,0.24426123,53.320103)"
   cx="103.17969"
   cy="71.987305"
   fx="103.17969"
   fy="71.987305"
   r="23.804689" /></defs>

<path
   d="m 103.17969,65.814453 a 23.804708,6.1736522 0 0 0 -23.80469,6.173828 23.804708,6.1736522 0 0 0 23.80469,6.171875 23.804708,6.1736522 0 0 0 23.80469,-6.171875 23.804708,6.1736522 0 0 0 -23.80469,-6.173828 z"
   id="groundshadow1"
   style="fill:url(#radialGradient847)"
   transform="matrix(6.8270199,0,0,7.0492832,-353.87844,-38.973067)" />

<path
   transform="matrix(6.8270199,0,0,7.0492832,-353.87844,-38.973067)"
   style="opacity:0.7;fill:url(#radialGradient839);"
   id="groundshadow2"
   d="m 103.17969,65.814453 a 23.804708,6.1736522 0 0 0 -23.80469,6.173828 23.804708,6.1736522 0 0 0 23.80469,6.171875 23.804708,6.1736522 0 0 0 23.80469,-6.171875 23.804708,6.1736522 0 0 0 -23.80469,-6.173828 z" />

<path
   id="backgroundleaf"
   d="m 222.87478,216.36122 c -87.48842,-56.97416 -145.906165,61.56511 -209.379173,68.42865 -58.711381,4.37569 87.747523,63.50692 152.723293,54.82308 64.97001,-8.68383 117.88914,-73.58752 56.65588,-123.25173 z"
   style="fill:#50aa57;" />

<path
   id="backgroundleafstem"
   d="M 24.75769,295.07723 C 132.08143,317.02718 219.03439,201.56836 301.50784,214.752"
   style="stroke:#4f9957;stroke-width:6;stroke-linecap:round;fill:none;" />

<path
   style="fill:#464646;"
   d="m 350.53621,427.54034 a 137.06063,35.546106 0 0 0 -116.32879,16.83175 h -20.58958 v 17.97126 a 137.06063,35.546106 0 0 0 -0.11517,0.7409 137.06063,35.546106 0 0 0 137.06233,35.54684 137.06063,35.546106 0 0 0 137.02777,-35.37128 h 0.11517 V 444.37209 H 466.98018 A 137.06063,35.546106 0 0 0 350.55925,427.54034 Z"
   id="bottomrim" />

<ellipse
   style="fill:#646464;"
   id="bottomrimsurface"
   cx="350.53076"
   cy="444.80478"
   rx="137.06064"
   ry="35.546104" />
<rect
   y="148.47618"
   x="221.80318"
   height="296.0376"
   width="257.45905"
   id="liquid"
   style="fill:#3da921;" />
<ellipse
   ry="30.823235"
   rx="128.4678"
   cy="148.70531"
   cx="350.53076"
   id="liquidsurface"
   style="fill:#41b121;" />
<ellipse
   style="fill:#39a321;"
   id="liquidbottom"
   cx="350.53076"
   cy="443.98718"
   rx="128.85252"
   ry="30.823235" />
<path
   style="opacity:0.3;fill:#87f3f5;"
   d="M 213.61784,59.170501 V 446.38942 c 3.19552,18.89577 63.26572,33.961 136.91837,33.96094 73.64688,6e-5 133.71708,-15.06517 136.91261,-33.96094 V 59.170501 Z"
   id="glass" />
<path
   style="fill:#464646;"
   d="m 350.53621,23.77241 a 137.06063,35.546106 0 0 0 -121.1077,18.9502 h -15.94885 v 16.552015 a 137.06063,35.546106 0 0 0 0,0.04494 137.06063,35.546106 0 0 0 0,0.03001 v 0.127965 0 a 137.06063,35.546106 0 0 0 137.03351,35.377255 137.06063,35.546106 0 0 0 137.05657,-35.534957 137.06063,35.546106 0 0 0 0,-0.122024 V 42.723158 H 471.64391 A 137.06063,35.546106 0 0 0 350.53621,23.772974 Z"
   id="toprim" />
<path
   d="m 103.17969,65.814453 a 23.804708,6.1736522 0 0 0 -23.80469,6.173828 23.804708,6.1736522 0 0 0 23.80469,6.171875 23.804708,6.1736522 0 0 0 23.80469,-6.171875 23.804708,6.1736522 0 0 0 -23.80469,-6.173828 z"
   id="toprimsurface"
   style="fill:#646464;"
   transform="matrix(5.7577112,0,0,5.7577112,-243.54355,-370.19689)" />
<path
   d="m 103.17969,65.814453 a 23.804708,6.1736522 0 0 0 -23.80469,6.173828 23.804708,6.1736522 0 0 0 23.80469,6.171875 23.804708,6.1736522 0 0 0 23.80469,-6.171875 23.804708,6.1736522 0 0 0 -23.80469,-6.173828 z"
   id="topshadow"
   style="fill:url(#radialGradient918);"
   transform="matrix(2.392908,0,0,2.4708127,103.63498,-136.54279)" />
<path
   style="fill:#c8c8c8;"
   d="m 302.64356,12.392426 v 26.453251 0.02712 0 c 0.0576,6.847018 21.48203,12.388852 47.88689,12.389477 26.43941,-2.28e-4 47.87536,-5.558485 47.88688,-12.416258 0,-0.04144 0,-0.08333 0,-0.124919 V 12.392822 Z"
   id="contactrim" />
<path
   transform="matrix(2.0118003,0,0,2.0118003,142.95379,-132.40554)"
   style="fill:#dcdcdc;"
   id="contactsurface"
   d="m 103.17969,65.814453 a 23.804708,6.1736522 0 0 0 -23.80469,6.173828 23.804708,6.1736522 0 0 0 23.80469,6.171875 23.804708,6.1736522 0 0 0 23.80469,-6.171875 23.804708,6.1736522 0 0 0 -23.80469,-6.173828 z" />
<path
   style="opacity:0.15;fill:#ffffff;"
   d="M 463.56008,79.34952 A 137.06063,35.546106 0 0 1 359.74855,94.735209 V 498.51208 A 137.06063,35.546106 0 0 0 463.56008,483.11451 Z M 245.10676,81.982738 V 485.77747 a 137.06063,35.546106 0 0 0 34.81113,7.73 V 89.73063 a 137.06063,35.546106 0 0 1 -34.81113,-7.747892 z"
   id="glare" />
<path
   style="opacity:0.14;fill:#000000;"
   d="m 251.12933,247.76496 c -14.00851,-0.0346 -26.39336,2.43938 -37.51149,6.81955 v 188.1422 c 21.72959,-5.4522 41.50158,-12.4522 55.95918,-21.05676 71.35533,-42.47487 100.66783,-144.42947 4.60619,-171.78062 -8.14142,-1.4244 -15.81069,-2.10652 -23.05388,-2.12437 z"
   id="leafshadow" />
<path
   style="fill:#50b657;"
   d="M 270.21613,233.63255 C 142.6195,198.82823 118.10892,364.43606 44.22021,397.31513 c -69.109808,28.0333 130.44095,42.5819 205.4409,6.92491 74.99419,-35.65699 113.65721,-134.44428 20.55502,-170.60749 z"
   id="leaf" />
<path
   style="fill:none;stroke:#4fa157;stroke-width:8;stroke-linecap:round;"
   d="M 61.792744,405.35738 C 199.73599,390.23159 259.85801,217.2782 364.42956,201.21346"
   id="leafstem" /></svg>
