<?xml version="1.0" encoding="UTF-8" standalone="no"?>
<!-- Generator: Adobe Illustrator 19.0.0, SVG Export Plug-In . SVG Version: 6.00 Build 0)  -->

<svg
   xmlns:dc="http://purl.org/dc/elements/1.1/"
   xmlns:cc="http://creativecommons.org/ns#"
   xmlns:rdf="http://www.w3.org/1999/02/22-rdf-syntax-ns#"
   xmlns:svg="http://www.w3.org/2000/svg"
   xmlns="http://www.w3.org/2000/svg"
   xmlns:sodipodi="http://sodipodi.sourceforge.net/DTD/sodipodi-0.dtd"
   xmlns:inkscape="http://www.inkscape.org/namespaces/inkscape"
   version="1.1"
   id="Layer_1"
   x="0px"
   y="0px"
   viewBox="0 0 512 512"
   style="enable-background:new 0 0 512 512;"
   xml:space="preserve"
   sodipodi:docname="icon_dashboard_dark_red.svg"
   inkscape:version="0.92.3 (2405546, 2018-03-11)"><metadata
   id="metadata55"><rdf:RDF><cc:Work
       rdf:about=""><dc:format>image/svg+xml</dc:format><dc:type
         rdf:resource="http://purl.org/dc/dcmitype/StillImage" /><dc:title /></cc:Work></rdf:RDF></metadata><defs
   id="defs53">
	

		
		
	</defs><sodipodi:namedview
   pagecolor="#ffffff"
   bordercolor="#666666"
   borderopacity="1"
   objecttolerance="10"
   gridtolerance="10"
   guidetolerance="10"
   inkscape:pageopacity="0"
   inkscape:pageshadow="2"
   inkscape:window-width="1920"
   inkscape:window-height="1018"
   id="namedview51"
   showgrid="false"
   inkscape:zoom="0.75"
   inkscape:cx="336.9552"
   inkscape:cy="200.00688"
   inkscape:window-x="0"
   inkscape:window-y="0"
   inkscape:window-maximized="1"
   inkscape:current-layer="Layer_1"
   inkscape:snap-smooth-nodes="true"
   inkscape:snap-global="false"
   showguides="true"
   inkscape:guide-bbox="true"><sodipodi:guide
     position="444.20339,407.32204"
     orientation="0,1"
     id="guide850"
     inkscape:locked="false" /><sodipodi:guide
     position="573.83052,105.22034"
     orientation="0,1"
     id="guide852"
     inkscape:locked="false" /></sodipodi:namedview>
<g
   id="g6"
   style="fill:#1e1e1e;fill-opacity:1">
	<g
   id="g4"
   style="fill:#1e1e1e;fill-opacity:1">
		<path
   d="M344.131,104.918c-56.755,0-106.985,28.338-137.383,71.579c-21.62-13.893-46.536-21.219-72.453-21.219    C60.245,155.279,0,215.523,0,289.574c0,47.844,25.767,92.44,67.246,116.383c1.276,0.738,2.722,1.125,4.196,1.125h125.706    c1.473,0,2.92-0.387,4.197-1.125c7.99-4.611,15.482-10.04,22.365-16.188c5.381,5.518,11.172,10.717,17.369,15.542    c1.474,1.148,3.289,1.771,5.157,1.771h195.791c1.868,0,3.682-0.623,5.157-1.771C488.375,373.238,512,324.935,512,272.787    C512,180.223,436.695,104.918,344.131,104.918z M194.858,390.295h-52.169v-25.18c0-4.635-3.758-8.393-8.393-8.393    c-4.635,0-8.393,3.758-8.393,8.393v25.18H73.733c-9.088-5.478-17.272-12.11-24.425-19.632l20.402-20.403    c3.278-3.277,3.278-8.592-0.001-11.869c-3.277-3.279-8.591-3.279-11.87,0l-19.251,19.252c-13.923-19.609-21.8-43.341-21.8-68.07    h25.18c4.635,0,8.393-3.758,8.393-8.393c0-4.635-3.758-8.393-8.393-8.393H18.005c3.57-24.842,14.942-47.183,31.541-64.486    l16.686,16.686c1.639,1.639,3.787,2.459,5.935,2.459c2.147,0,4.296-0.82,5.934-2.459c3.279-3.277,3.279-8.592,0.001-11.869    l-16.09-16.09c17.883-13.999,39.897-22.927,63.889-24.63v24.847c0,4.635,3.758,8.393,8.393,8.393c4.635,0,8.393-3.758,8.393-8.393    v-24.875c19.689,1.384,38.509,7.633,55.1,18.319c-13.681,24.291-21.526,52.287-21.526,82.097    c0,38.574,12.94,75.037,36.342,104.391C207.106,382.096,201.168,386.492,194.858,390.295z M456.75,373.537l-23.593-23.594    c-3.277-3.277-8.59-3.279-11.871,0c-3.278,3.277-3.278,8.592,0,11.869l23.575,23.576c-1.875,1.674-3.79,3.316-5.759,4.908h-86.577    v-25.18c0-4.635-3.758-8.393-8.393-8.393c-4.635,0-8.393,3.758-8.393,8.393v25.18h-86.577c-1.969-1.592-3.884-3.233-5.759-4.908    l23.574-23.576c3.278-3.277,3.278-8.592-0.001-11.869c-3.277-3.279-8.591-3.279-11.87,0l-23.592,23.594    c-0.141-0.157-0.287-0.311-0.427-0.469c-0.308-0.453-0.662-0.884-1.068-1.283c-0.055-0.054-0.121-0.09-0.178-0.143    c-21.835-25.134-34.724-56.708-36.561-90.462h33.344c4.635,0,8.393-3.758,8.393-8.393c0-4.635-3.758-8.393-8.393-8.393h-33.329    c1.945-35.345,16.099-67.48,38.301-92.274l23.509,23.511c1.639,1.639,3.787,2.459,5.935,2.459c2.147,0,4.296-0.82,5.934-2.459    c3.279-3.277,3.279-8.592,0.001-11.869l-23.51-23.512c24.794-22.201,56.928-36.355,92.273-38.3v33.329    c0,4.635,3.758,8.393,8.393,8.393c4.635,0,8.393-3.758,8.393-8.393V121.95c35.345,1.945,67.479,16.099,92.272,38.3l-23.511,23.512    c-3.278,3.277-3.278,8.592,0,11.869c1.639,1.639,3.787,2.459,5.935,2.459s4.296-0.82,5.935-2.459l23.51-23.511    c22.202,24.794,36.356,56.929,38.301,92.274h-33.328c-4.635,0-8.393,3.758-8.393,8.393c0,4.635,3.758,8.393,8.393,8.393h33.344    C493.1,315.789,479.6,348.105,456.75,373.537z"
   id="path2"
   style="fill:#1e1e1e;fill-opacity:1" />
	</g>
</g>
<g
   id="g12"
   style="fill:#e30016;fill-opacity:1">
	<g
   id="g10"
   style="fill:#e30016;fill-opacity:1">
		<path
   d="M391.103,221.619c-2.296-2.297-5.71-3.062-8.763-1.969c-9.556,3.42-57.764,21.016-68.392,31.646    c-6.341,6.34-9.834,14.771-9.834,23.74c0,8.967,3.493,17.398,9.834,23.738h-0.001c6.342,6.342,14.773,9.834,23.741,9.834    c8.968,0,17.4-3.492,23.74-9.832c10.629-10.627,28.224-58.838,31.643-68.394C394.163,227.326,393.397,223.914,391.103,221.619z     M349.556,286.904c-3.17,3.17-7.385,4.916-11.87,4.916c-4.484,0-8.7-1.746-11.87-4.916h-0.001    c-3.17-3.17-4.916-7.385-4.916-11.869c0-4.486,1.746-8.701,4.917-11.871c4.481-4.482,25.44-13.65,45.023-21.283    C363.208,261.461,354.041,282.42,349.556,286.904z"
   id="path8"
   style="fill:#e30016;fill-opacity:1" />
	</g>
</g>
<g
   id="g18"
   style="fill:#e30016;fill-opacity:1">
	<g
   id="g16"
   style="fill:#e30016;fill-opacity:1">
		<path
   d="M150.796,268.095c-7.927-7.928-41.023-20.166-50.978-23.728c-3.056-1.092-6.468-0.328-8.763,1.969    c-2.294,2.295-3.06,5.707-1.967,8.762c3.563,9.955,15.8,43.051,23.727,50.976c5.073,5.074,11.816,7.867,18.991,7.867    c7.173,0,13.917-2.793,18.99-7.865c5.073-5.072,7.867-11.818,7.867-18.992C158.662,279.912,155.869,273.166,150.796,268.095z     M138.926,294.203l-0.001,0.002c-1.902,1.901-4.43,2.949-7.12,2.949s-5.218-1.047-7.121-2.951    c-2.457-2.455-7.871-14.186-13.204-27.443c13.257,5.332,24.988,10.746,27.445,13.203c1.903,1.904,2.95,4.432,2.95,7.121    C141.875,289.775,140.828,292.301,138.926,294.203z"
   id="path14"
   style="fill:#e30016;fill-opacity:1" />
	</g>
</g>
<g
   id="g20">
</g>
<g
   id="g22">
</g>
<g
   id="g24">
</g>
<g
   id="g26">
</g>
<g
   id="g28">
</g>
<g
   id="g30">
</g>
<g
   id="g32">
</g>
<g
   id="g34">
</g>
<g
   id="g36">
</g>
<g
   id="g38">
</g>
<g
   id="g40">
</g>
<g
   id="g42">
</g>
<g
   id="g44">
</g>
<g
   id="g46">
</g>
<g
   id="g48">
</g>
<g
   id="g842"
   transform="translate(-910.75079,-420.16058)">
</g><g
   id="g844"
   transform="translate(-910.75079,-420.16058)">
</g><g
   id="g846"
   transform="translate(-910.75079,-420.16058)">
</g><g
   id="g848"
   transform="translate(-910.75079,-420.16058)">
</g><g
   id="g850"
   transform="translate(-910.75079,-420.16058)">
</g><g
   id="g852"
   transform="translate(-910.75079,-420.16058)">
</g><g
   id="g854"
   transform="translate(-910.75079,-420.16058)">
</g><g
   id="g856"
   transform="translate(-910.75079,-420.16058)">
</g><g
   id="g858"
   transform="translate(-910.75079,-420.16058)">
</g><g
   id="g860"
   transform="translate(-910.75079,-420.16058)">
</g><g
   id="g862"
   transform="translate(-910.75079,-420.16058)">
</g><g
   id="g864"
   transform="translate(-910.75079,-420.16058)">
</g><g
   id="g866"
   transform="translate(-910.75079,-420.16058)">
</g><g
   id="g868"
   transform="translate(-910.75079,-420.16058)">
</g><g
   id="g870"
   transform="translate(-910.75079,-420.16058)">
</g></svg>