<?xml version="1.0" encoding="UTF-8" standalone="no"?>
<svg
   xmlns:dc="http://purl.org/dc/elements/1.1/"
   xmlns:cc="http://creativecommons.org/ns#"
   xmlns:rdf="http://www.w3.org/1999/02/22-rdf-syntax-ns#"
   xmlns:svg="http://www.w3.org/2000/svg"
   xmlns="http://www.w3.org/2000/svg"
   xml:space="preserve"
   style="enable-background:new 0 0 512 512;"
   viewBox="0 0 512 512"
   y="0px"
   x="0px"
   id="Icon"
   version="1.1"><metadata
   id="metadata55"><rdf:RDF><cc:Work
       rdf:about=""><dc:format>image/svg+xml</dc:format><dc:type
         rdf:resource="http://purl.org/dc/dcmitype/StillImage" /><dc:title></dc:title></cc:Work></rdf:RDF></metadata><defs
   id="defs53">
	
</defs>

<path
   style="fill:var(--icon-main);"
   d="m 256.72954,104.81245 c -12.611,-0.0699 -25.09615,1.19842 -37.8418,3.82226 -4.95213,1.01924 -8.48515,3.14655 -11.70508,7.04492 -19.98308,24.18022 -23.40274,55.62272 -10.28125,94.32222 -6.45617,4.8238 -12.29719,10.4201 -17.39258,16.6641 -16.9356,-26.3218 -23.42495,-50.8684 -19.44726,-73.6348 1.61424,-9.2415 -8.97218,-15.6393 -16.40235,-9.91402 -16.49497,12.70932 -29.92677,27.17662 -41.38086,44.56642 -2.78068,4.2235 -3.77534,8.2202 -3.29687,13.2539 2.9686,31.2328 22.79048,55.8892 59.44531,73.9766 -0.70532,4.6361 -1.07932,9.3165 -1.11914,14.0058 0.035,3.3671 0.24231,6.7303 0.6211,10.0762 -30.60456,-6.6348 -52.55991,-19.4051 -65.85157,-38.3242 -5.39226,-7.6765 -17.40874,-4.7127 -18.61523,4.5898 -2.67683,20.6509 -1.94462,40.3739 2.2539,60.7695 1.01938,4.9522 3.14235,8.4852 7.04102,11.7051 23.88555,19.7398 54.86562,23.3059 92.91992,10.7422 6.19362,-3.6189 12.27802,-7.5378 18.40235,-11.6777 -10.61396,-13.7058 -16.3807,-30.5458 -16.39649,-47.8809 -6.4e-4,-43.2543 35.06406,-78.319 78.31836,-78.3183 32.91287,0.031 62.29476,20.6363 73.53516,51.5703 28.63394,-8.3453 62.13998,-13.4596 102.42968,-12.8946 1.26133,0.028 2.51878,0.1508 3.76172,0.3672 -1.16264,-3.8507 -3.18138,-6.8148 -6.48437,-9.5429 -24.17975,-19.9829 -55.62455,-23.4022 -94.32422,-10.2813 -4.82734,-6.4604 -10.42835,-12.3048 -16.67773,-17.4023 26.316,-16.9276 50.85723,-23.4126 73.61914,-19.4356 9.24147,1.6145 15.64012,-8.9759 9.91406,-16.4062 -12.70906,-16.4949 -27.17244,-29.92514 -44.5625,-41.37894 -3.6957,-2.43347 -7.22079,-3.49662 -11.41602,-3.4043 -0.59961,0.0144 -1.21261,0.0499 -1.84179,0.10938 -31.23205,2.96857 -55.88606,22.78886 -73.97266,59.44136 -4.62777,-0.7034 -9.29972,-1.0768 -13.98047,-1.1171 -3.36979,0.036 -6.73553,0.2446 -10.08398,0.625 6.63541,-30.6086 19.40779,-52.56751 38.32812,-65.85942 7.67656,-5.39263 4.71264,-17.40433 -4.58984,-18.61132 -7.74201,-1.00346 -15.35438,-1.52602 -22.91992,-1.56836 z"
   id="icon-maincolor" />

<path
   style="fill:var(--icon-detail);"
   d="M 431.73047,266.06445 C 333.0824,264.681 279.99704,297.09555 234.87891,328.70312 189.76077,360.3107 153.09932,390.33984 80.404297,390.33984 a 8.395839,8.395839 0 1 0 0,16.78907 c 77.429263,0 119.560283,-33.46686 164.109373,-64.67579 40.99869,-28.72168 84.56123,-56.11845 165.25781,-59.27539 -7.09438,7.57552 -14.95454,17.47707 -20.5957,29.23047 -6.41757,13.37106 -9.93007,29.56518 -4.81836,46.24219 5.11171,16.67701 18.55038,32.90792 42.99219,47.31641 a 8.395839,8.395839 0 1 0 8.52734,-14.46485 c -22.05086,-12.99901 -31.86113,-26.00796 -35.46679,-37.77148 -3.60567,-11.76352 -1.30325,-23.21075 3.90234,-34.05664 10.41119,-21.69178 32.32422,-38.49024 32.32422,-38.49024 a 8.395839,8.395839 0 0 0 -4.90625,-15.11914 z"
   id="icon-detailcolor" /></svg>
