<?xml version="1.0" encoding="UTF-8" standalone="no"?>
<!-- Generator: Adobe Illustrator 19.0.0, SVG Export Plug-In . SVG Version: 6.00 Build 0)  -->

<svg
   xmlns:dc="http://purl.org/dc/elements/1.1/"
   xmlns:cc="http://creativecommons.org/ns#"
   xmlns:rdf="http://www.w3.org/1999/02/22-rdf-syntax-ns#"
   xmlns:svg="http://www.w3.org/2000/svg"
   xmlns="http://www.w3.org/2000/svg"
   xmlns:sodipodi="http://sodipodi.sourceforge.net/DTD/sodipodi-0.dtd"
   xmlns:inkscape="http://www.inkscape.org/namespaces/inkscape"
   version="1.1"
   id="Layer_1"
   x="0px"
   y="0px"
   viewBox="0 0 512 512"
   style="enable-background:new 0 0 512 512;"
   xml:space="preserve"
   sodipodi:docname="icon_theme_dark.svg"
   inkscape:version="0.92.3 (2405546, 2018-03-11)"><metadata
   id="metadata55"><rdf:RDF><cc:Work
       rdf:about=""><dc:format>image/svg+xml</dc:format><dc:type
         rdf:resource="http://purl.org/dc/dcmitype/StillImage" /><dc:title /></cc:Work></rdf:RDF></metadata><defs
   id="defs53" /><sodipodi:namedview
   pagecolor="#ffffff"
   bordercolor="#666666"
   borderopacity="1"
   objecttolerance="10"
   gridtolerance="10"
   guidetolerance="10"
   inkscape:pageopacity="0"
   inkscape:pageshadow="2"
   inkscape:window-width="1920"
   inkscape:window-height="1018"
   id="namedview51"
   showgrid="false"
   inkscape:zoom="1"
   inkscape:cx="150.71051"
   inkscape:cy="350.39548"
   inkscape:window-x="0"
   inkscape:window-y="0"
   inkscape:window-maximized="1"
   inkscape:current-layer="Layer_1"
   inkscape:snap-smooth-nodes="true"
   inkscape:snap-global="false" />



<g
   id="g20">
</g>
<g
   id="g22">
</g>
<g
   id="g24">
</g>
<g
   id="g26">
</g>
<g
   id="g28">
</g>
<g
   id="g30">
</g>
<g
   id="g32">
</g>
<g
   id="g34">
</g>
<g
   id="g36">
</g>
<g
   id="g38">
</g>
<g
   id="g40">
</g>
<g
   id="g42">
</g>
<g
   id="g44">
</g>
<g
   id="g46">
</g>
<g
   id="g48">
</g>
<g
   id="g873"
   transform="translate(478.48535,0.39527109)"><circle
     r="7.1500001"
     cy="147.3298"
     cx="-128.30518"
     id="path920"
     style="opacity:1;fill:#e30016;fill-opacity:1;stroke:none;stroke-width:5.00000048;stroke-linecap:butt;stroke-miterlimit:4;stroke-dasharray:none;stroke-opacity:1" /><path
     inkscape:connector-curvature="0"
     id="path834"
     d="m -103.58808,122.73721 c -3.62526,-3.62537 -7.92269,-6.23806 -12.64506,-7.67045 -3.55151,-1.14494 -7.36139,-1.70016 -11.70869,-1.67938 -4.49964,0.0215 -9.57673,0.99404 -14.54679,2.88782 -18.76494,7.14438 -33.99173,27.53708 -38.36606,33.68148 -8.31757,11.68958 -17.5068,22.89763 -27.20428,29.30902 -9.62863,6.36587 -19.31366,8.23789 -30.49813,1.89621 l -6.98683,-7.00338 c -3.97962,-3.99234 -9.32782,-6.20651 -14.95973,-6.20651 -5.63693,-2e-5 -10.98335,2.21591 -14.96249,6.20651 l -10.81788,10.83726 -10e-4,0.001 c -2.76185,2.77458 -2.76162,7.33472 0,10.10942 l 1.85612,1.85895 -15.66265,15.7014 -0.001,0.001 c -2.76185,2.77458 -2.76162,7.33471 0,10.10941 l -1.59375,-1.59375 -39.81757,39.90596 c -12.28472,12.3106 -12.28611,32.39042 -10e-4,44.70103 l 0.003,0.003 10e-4,0.001 c 2.59803,2.59097 6.79983,2.79684 9.62604,0.45299 l 4.34622,-3.59216 c 0.67118,11.78053 6.55168,23.70983 17.08381,34.26706 l 58.67608,58.80308 0.001,10e-4 c 1.38819,1.38824 3.23385,2.09646 5.06575,2.09646 1.82345,0 3.66591,-0.70578 5.05471,-2.08817 l 0.004,-0.004 0.003,-0.003 c 2.76801,-2.77509 2.77491,-7.34435 0.004,-10.12185 l -0.001,-10e-4 -0.0193,-0.0193 -0.006,-0.006 c -6.71827,-6.76198 -6.71379,-17.69753 0.0249,-24.44767 l 40.12274,-40.20845 c 0.97688,0.48069 2.02201,0.80377 3.1295,0.80379 1.8989,0 3.72454,-0.75213 5.06576,-2.09923 l 0.001,-0.001 15.63645,-15.67237 1.83398,1.83964 c 1.34489,1.35055 3.17388,2.10062 5.06991,2.10061 1.90141,2e-5 3.7324,-0.75821 5.07542,-2.11441 l 10.84831,-10.87037 c 8.19907,-8.22099 8.19901,-21.64042 0,-29.86145 l -7.69532,-7.71187 c -2.82928,-2.87383 -3.76251,-8.23549 -3.03697,-14.26781 0.72555,-6.03235 3.04665,-12.5161 5.67619,-16.97057 5.17492,-8.76743 13.2945,-14.60182 22.29733,-21.0019 3.18167,-2.26263 6.41725,-4.56471 9.58462,-7.05173 l 0.001,-0.001 c 15.99729,-12.58024 26.4451,-24.66128 30.877908,-36.32761 3.35726,-8.8322 3.837938,-18.13262 1.226391,-26.2762 -1.452206,-4.78169 -4.049159,-9.07795 -7.662159,-12.70029 l -0.001,-0.001 z m -10.13844,10.11355 10e-4,0.001 c 2.03234,2.03814 3.30572,4.09333 4.58238,8.13725 1.09677,3.47411 0.87132,9.6834 -1.39074,15.63783 -3.21113,8.4527 -12.29355,19.10983 -26.34663,30.15839 l -0.001,-0.001 -0.001,0.001 c -2.91558,2.29623 -5.96352,4.46117 -9.02528,6.63603 l -0.001,0.001 c -9.39784,6.67979 -19.50066,13.81622 -26.33283,25.39371 l -10e-4,-0.004 c -3.41035,5.77681 -6.18566,13.52182 -7.26994,21.52257 l -41.07846,-41.16967 c 11.38039,-1.31614 21.37158,-7.5827 29.61148,-15.05777 9.62918,-8.7354 17.04294,-19.19177 21.78635,-25.8605 7.8172,-10.98322 20.68011,-24.36574 31.79218,-28.59916 l 0.004,0.001 c 3.70427,-1.40813 7.43681,-2.05623 10.91596,-1.94454 2.08757,0.0671 4.08499,0.40728 5.94411,1.01094 l 0.0235,0.007 0.0248,0.008 c 2.58598,0.784 4.73575,2.08288 6.76309,4.11973 z m -141.9572,51.41992 0.001,0.001 7.70082,7.72019 0.001,0.001 0.0138,0.0138 c 0.003,0.003 72.19656,72.35638 74.5901,74.75306 0.0234,0.0234 0.71799,0.72082 0.72779,0.73062 l 0.73196,0.73196 6.93004,6.94418 c 2.66356,2.66922 2.66413,6.96227 -0.001,9.63571 l -5.79072,5.7992 -1.83537,-1.84103 -96.63471,-96.85014 -10e-4,-0.001 c -0.19315,-0.19317 -0.19499,-0.18933 -0.0539,-0.0483 l -1.80364,-1.80647 5.77132,-5.78546 c 1.24403,-1.24827 3.01121,-1.91103 4.81854,-1.91278 l 0.007,0.001 c 1.80976,0 3.57968,0.66255 4.82684,1.91277 z m -18.63476,22.83044 0.17954,0.17953 86.34299,86.5391 -10.59278,10.61767 -86.52529,-86.71864 z m -17.25506,24.21287 56.29229,56.41943 0.007,-0.007 15.48315,15.48315 -0.0221,0.0221 7.85964,7.87902 -39.82175,39.90731 -0.001,0.001 c -4.49639,4.5077 -7.31379,10.06572 -8.5212,15.89057 l -21.10682,-21.15661 -4.97323,-4.97323 -0.97503,-0.97503 -7.26705,-7.27836 -7.54478,-7.6442 0.1021,-0.11059 c -8.03131,-8.75912 -10.85021,-16.53182 -11.17146,-22.79177 -0.3464,-6.75011 2.01249,-11.93715 3.70679,-14.73599 1.80122,-2.97278 1.18585,-6.85568 -1.44875,-9.12472 -1.33589,-1.15376 -3.01098,-1.736 -4.67215,-1.736 -1.61335,1e-5 -3.24608,0.55138 -4.56581,1.64899 l -14.80781,12.2418 c -2.69872,-6.30928 -1.50132,-13.91295 3.65016,-19.07118 z"
     style="fill:#1e1e1e;fill-opacity:1;stroke:none;stroke-width:5;stroke-miterlimit:4;stroke-dasharray:none;stroke-opacity:1" /><path
     id="path848"
     d="m -235.27429,287.72649 -0.007,0.007 3.8876,3.89609 -19.45371,19.45372 c -2.77362,2.77377 -2.77364,7.34948 0,10.12324 1.38704,1.38708 3.23342,2.09506 5.06162,2.09508 1.8222,-3e-5 3.67523,-0.70164 5.06575,-2.10199 l 19.43994,-19.43712 1.46666,1.46949 0.0221,-0.0221 z m -33.39423,14.0427 c -2.77369,-2.77381 -7.34949,-2.77382 -10.12322,0 l -23.14532,23.14531 c -0.0436,-0.0479 -0.0821,-0.0948 -0.12568,-0.14223 l -0.1021,0.11058 7.54478,7.6442 7.26705,7.27837 0.97503,0.97503 4.97323,4.97323 -10.55273,-10.57762 23.2876,-23.28477 c 2.77365,-2.77375 2.77504,-7.3481 10e-4,-10.12185 z"
     style="opacity:1;fill:#e30016;fill-opacity:1;stroke:none;stroke-width:2.33100009;stroke-linecap:butt;stroke-miterlimit:4;stroke-dasharray:none;stroke-opacity:1"
     inkscape:connector-curvature="0" /></g></svg>