<?xml version="1.0" encoding="UTF-8" standalone="no"?>
<svg
   xmlns:dc="http://purl.org/dc/elements/1.1/"
   xmlns:cc="http://creativecommons.org/ns#"
   xmlns:rdf="http://www.w3.org/1999/02/22-rdf-syntax-ns#"
   xmlns:svg="http://www.w3.org/2000/svg"
   xmlns="http://www.w3.org/2000/svg"
   xml:space="preserve"
   style="enable-background:new 0 0 512 512;"
   viewBox="0 0 512 512"
   y="0px"
   x="0px"
   id="Icon"
   version="1.1"><metadata
   id="metadata55"><rdf:RDF><cc:Work
       rdf:about=""><dc:format>image/svg+xml</dc:format><dc:type
         rdf:resource="http://purl.org/dc/dcmitype/StillImage" /><dc:title></dc:title></cc:Work></rdf:RDF></metadata><defs
   id="defs53">
		
	</defs>

<path
   id="icon-detailcolor"
   d="M 155.39062 172.57227 L 115.85742 241.10352 L 115.88281 249.41992 C 115.88256 266.61642 125.5729 282.42417 140.92383 290.85352 C 156.27581 299.28309 175.02887 299.28309 190.38086 290.85352 C 205.73179 282.42417 215.42212 266.61642 215.42188 249.41992 L 215.37695 241.03906 L 175.80664 172.57422 L 165.59766 178.4668 L 155.39062 172.57227 z M 356.60938 172.57227 L 346.40234 178.4668 L 336.19336 172.57422 L 296.62305 241.03906 L 296.57812 249.41992 C 296.57788 266.61642 306.26821 282.42417 321.61914 290.85352 C 336.97113 299.28309 355.72419 299.28309 371.07617 290.85352 C 386.4271 282.42417 396.11744 266.61642 396.11719 249.41992 L 396.14258 241.10352 L 356.60938 172.57227 z M 165.59961 188.41602 L 195.98047 241.03906 L 165.65234 241.03906 L 135.2168 241.03906 L 165.59961 188.41602 z M 346.40039 188.41602 L 376.7832 241.03906 L 346.34766 241.03906 L 316.01953 241.03906 L 346.40039 188.41602 z M 133.89453 257.80078 L 165.65234 257.80078 L 197.41016 257.80078 C 195.1496 265.37453 189.8787 272.00851 182.31445 276.16211 C 172.05396 281.796 159.25072 281.796 148.99023 276.16211 C 141.42598 272.00851 136.15509 265.37453 133.89453 257.80078 z M 314.58984 257.80078 L 346.34766 257.80078 L 378.10547 257.80078 C 375.84491 265.37453 370.57401 272.00851 363.00977 276.16211 C 352.74928 281.796 339.94603 281.796 329.68555 276.16211 C 322.1213 272.00851 316.8504 265.37453 314.58984 257.80078 z "
   style="fill:var(--icon-detail);" /><path
   id="icon-maincolor"
   d="M 256 104.67773 C 237.43514 104.67773 222.20508 119.90779 222.20508 138.47266 C 222.20508 141.86431 222.71799 145.14176 223.66211 148.23828 C 219.20259 150.25489 211.94962 153.44264 203.32422 156.78516 C 189.63648 162.08943 172.80838 167.08008 165.32422 167.08008 C 156.21366 167.08008 149.80538 165.00819 145.70312 163.07422 C 141.60088 161.14024 140.34766 159.81055 140.34766 159.81055 A 8.3818377 8.3818377 0 1 0 128.72461 171.88867 C 128.72461 171.88867 132.46336 175.36462 138.55469 178.23633 C 144.64601 181.10803 153.63217 183.8418 165.32422 183.8418 C 178.64265 183.8418 195.04169 177.97078 209.38086 172.41406 C 219.58253 168.46071 228.21905 164.60093 232.47461 162.65039 C 236.64125 166.70648 241.83601 169.71124 247.61914 171.20508 L 247.61914 359.73047 L 201.9707 359.73047 C 180.67207 359.73047 163.26367 377.13886 163.26367 398.4375 C 163.26367 398.90397 163.27794 399.11774 163.27734 399.07617 L 163.41016 407.32227 L 348.57422 407.32227 L 348.7207 399.08984 C 348.7187 399.17794 348.73633 398.96013 348.73633 398.4375 C 348.73632 377.13887 331.32598 359.73047 310.02734 359.73047 L 264.38086 359.73047 L 264.38086 171.20508 C 270.16399 169.71124 275.35875 166.70648 279.52539 162.65039 C 283.78095 164.60093 292.41747 168.46071 302.61914 172.41406 C 316.95831 177.97078 333.35735 183.8418 346.67578 183.8418 C 358.36783 183.8418 367.35399 181.10803 373.44531 178.23633 C 379.53664 175.36462 383.27539 171.88867 383.27539 171.88867 A 8.3818377 8.3818377 0 1 0 371.65234 159.81055 C 371.65234 159.81055 370.39912 161.14024 366.29688 163.07422 C 362.19461 165.00819 355.78634 167.08008 346.67578 167.08008 C 339.19162 167.08008 322.36352 162.08943 308.67578 156.78516 C 300.05038 153.44264 292.79741 150.25489 288.33789 148.23828 C 289.28201 145.14176 289.79492 141.86431 289.79492 138.47266 C 289.79492 119.90779 274.56486 104.67773 256 104.67773 z M 256 121.43945 C 265.50601 121.43945 273.0332 128.96665 273.0332 138.47266 C 273.0332 147.97866 265.50601 155.50391 256 155.50391 C 246.49399 155.50391 238.9668 147.97866 238.9668 138.47266 C 238.9668 128.96665 246.49399 121.43945 256 121.43945 z M 201.9707 376.49219 L 310.02734 376.49219 C 319.52926 376.49219 327.39082 382.27291 330.50195 390.56055 L 181.49805 390.56055 C 184.60918 382.27291 192.4688 376.49219 201.9707 376.49219 z "
   style="fill:var(--icon-main);" /></svg>
