<?xml version="1.0" encoding="UTF-8" standalone="no"?>
<svg
   xmlns:dc="http://purl.org/dc/elements/1.1/"
   xmlns:cc="http://creativecommons.org/ns#"
   xmlns:rdf="http://www.w3.org/1999/02/22-rdf-syntax-ns#"
   xmlns:svg="http://www.w3.org/2000/svg"
   xmlns="http://www.w3.org/2000/svg"
   enable-background="new"
   xml:space="preserve"
   style="enable-background:new 0 0 512 512;"
   viewBox="0 0 512 512"
   y="0px"
   x="0px"
   id="Icon"
   version="1.1"><metadata
   id="metadata55"><rdf:RDF><cc:Work
       rdf:about=""><dc:format>image/svg+xml</dc:format><dc:type
         rdf:resource="http://purl.org/dc/dcmitype/StillImage" /><dc:title></dc:title></cc:Work></rdf:RDF></metadata>
<defs
   id="defs53">
</defs>


<path
   id="icon-maincolor"
   d="M 256,41.263669 C 137.50358,41.263669 41.26367,137.50357 41.26367,256 41.26367,374.49642 137.50358,470.73633 256,470.73633 374.49642,470.73633 470.73633,374.49642 470.73633,256 470.73633,137.50357 374.49642,41.263669 256,41.263669 Z m -8.38086,21.685547 v 84.669924 h -77.29687 c 4.01874,-11.01918 8.61172,-21.22217 13.69726,-30.42578 17.39042,-31.472477 39.81146,-50.701392 63.59961,-54.244144 z m 16.76172,0.123047 c 23.50627,3.835005 45.63831,22.983375 62.84375,54.121097 5.08555,9.20361 9.67853,19.4066 13.69727,30.42578 h -76.54102 z m 41.11328,1.175782 c 48.40401,12.432765 89.60652,42.691745 116.24219,83.371095 H 358.73047 C 353.98279,133.66571 348.33511,120.73831 341.89649,109.08593 331.73345,90.693292 319.4259,75.286143 305.49414,64.248045 Z m -100.14062,0.310547 c -13.76936,11.015754 -25.93871,26.308223 -36.00586,44.527338 -6.43863,11.65238 -12.08631,24.57978 -16.83399,38.53321 h -62.25 c 26.4233,-40.355 67.18598,-70.445518 115.08985,-83.060548 z M 80.42969,164.38086 h 66.95703 c -6.93027,25.35903 -11.03071,53.50547 -11.68164,83.23828 H 58.21484 c 1.2445,-29.95553 9.12413,-58.17561 22.21485,-83.23828 z m 84.41797,0 h 82.77148 v 83.23828 h -95.14648 c 0.69868,-30.03911 5.12843,-58.30244 12.375,-83.23828 z m 99.5332,0 h 82.01563 c 7.24657,24.93584 11.67631,53.19917 12.375,83.23828 h -94.39063 z m 99.47656,0 h 67.71289 c 13.09072,25.06267 20.97035,53.28275 22.21485,83.23828 h -78.2461 c -0.65093,-29.73281 -4.75137,-57.87925 -11.68164,-83.23828 z m -305.64258,100 h 77.49024 c 0.65094,29.73313 4.75119,57.87947 11.68164,83.23828 H 80.42969 C 67.33897,322.55647 59.45934,294.33638 58.21484,264.38086 Z m 94.25782,0 h 95.14648 v 83.23828 h -82.77148 c -7.24674,-24.93556 -11.67631,-53.19889 -12.375,-83.23828 z m 111.9082,0 h 94.39063 c -0.6987,30.03939 -5.12826,58.30272 -12.375,83.23828 h -82.01563 z m 111.1582,0 h 78.2461 c -1.2445,29.95552 -9.12413,58.17561 -22.21485,83.23828 h -67.71289 c 6.93045,-25.35881 11.0307,-53.50515 11.68164,-83.23828 z m -285.27539,100 h 62.25 c 4.74756,13.9525 10.39563,26.87936 16.83399,38.53125 10.06796,18.22059 22.23903,33.51334 36.00976,44.52929 -47.90544,-12.61446 -88.66978,-42.70452 -115.09375,-83.06054 z m 80.0586,0 h 77.29687 v 84.66797 c -23.78815,-3.54275 -46.20919,-22.77168 -63.59961,-54.24414 -5.08528,-9.20314 -9.67867,-19.40552 -13.69726,-30.42383 z m 94.05859,0 h 76.54102 c -4.01859,11.01831 -8.61199,21.22069 -13.69727,30.42383 -17.20544,31.13771 -39.33748,50.28609 -62.84375,54.12109 z m 94.34961,0 h 63.00586 c -26.63634,40.68037 -67.8405,70.93891 -116.24609,83.37109 13.93314,-11.03828 26.2424,-26.44572 36.40625,-44.83984 6.43835,-11.65189 12.08643,-24.57875 16.83398,-38.53125 z"
   style="fill:var(--icon-main);" /><path
   id="icon-maincolor"
   d="M 350.97656 123.33203 A 33.523998 33.523998 0 0 0 317.45312 156.85742 A 33.523998 33.523998 0 0 0 350.97656 190.38086 A 33.523998 33.523998 0 0 0 384.5 156.85742 A 33.523998 33.523998 0 0 0 350.97656 123.33203 z M 144.33203 222.58789 A 33.523998 33.523998 0 0 0 110.80859 256.11133 A 33.523998 33.523998 0 0 0 144.33203 289.63477 A 33.523998 33.523998 0 0 0 177.85547 256.11133 A 33.523998 33.523998 0 0 0 144.33203 222.58789 z M 256 322.12109 A 33.523998 33.523998 0 0 0 222.47656 355.64453 A 33.523998 33.523998 0 0 0 256 389.16797 A 33.523998 33.523998 0 0 0 289.52344 355.64453 A 33.523998 33.523998 0 0 0 256 322.12109 z "
   style="fill:var(--icon-main);" /></svg>
