<?xml version="1.0" encoding="UTF-8" standalone="no"?>
<svg
   xmlns:dc="http://purl.org/dc/elements/1.1/"
   xmlns:cc="http://creativecommons.org/ns#"
   xmlns:rdf="http://www.w3.org/1999/02/22-rdf-syntax-ns#"
   xmlns:svg="http://www.w3.org/2000/svg"
   xmlns="http://www.w3.org/2000/svg"
   version="1.1"
   id="Icon"
   x="0px"
   y="0px"
   viewBox="0 0 512 512"
   style="enable-background:new 0 0 512 512;"
   xml:space="preserve"><metadata
   id="metadata55"><rdf:RDF><cc:Work
       rdf:about=""><dc:format>image/svg+xml</dc:format><dc:type
         rdf:resource="http://purl.org/dc/dcmitype/StillImage" /><dc:title></dc:title></cc:Work></rdf:RDF></metadata><defs
   id="defs53">
	
</defs>







<path
   d="m 394,261.83203 -2.25586,17.09766 c 0.0277,-0.1527 0.0515,-0.3063 0.0781,-0.45899 h 4.97656 c 11.18106,0 20.27734,9.09121 20.27734,20.26563 0,5.41625 -2.11107,10.50553 -5.94726,14.33398 -2.67216,2.67216 -5.96557,4.48154 -9.56055,5.34571 -2.83703,-5.24475 -6.1025,-10.22983 -9.75391,-14.82618 l -0.0703,-24.66015 -16.63867,1.00781 0.0723,25.28906 c 0.002,0.68713 0.0905,1.37101 0.25977,2.03711 l 0.49805,1.95117 c 0.3065,1.19833 0.87768,2.31515 1.66992,3.26563 9.15066,10.97857 15.66241,24.83208 18.33789,39.01172 0.852,4.51225 5.19953,7.47954 9.71289,6.63086 4.51226,-0.852 7.4798,-5.20063 6.62891,-9.71289 -0.93166,-4.93604 -2.25531,-9.83926 -3.93164,-14.63477 5.41405,-1.77924 10.37488,-4.80567 14.51757,-8.94727 6.97972,-6.96422 10.82227,-16.23331 10.82227,-26.09765 0,-20.34498 -16.55573,-36.89844 -36.90625,-36.89844 z m -271.33789,0.006 -7.44922,0.002 c -9.85659,0 -19.120869,3.83681 -26.083984,10.79883 -6.979724,6.96424 -10.822254,16.23332 -10.822265,26.09766 0,16.28639 10.615079,30.13211 25.287109,35.01172 -7.154553,20.29519 -8.347973,43.76853 1.60156,65.88281 13.22917,29.40379 50.13124,64.45508 150.81055,64.45508 71.97923,0 111.19413,-18.08673 132.51172,-38.73047 7.25681,-7.68353 10.8125,-12.63281 10.8125,-12.63281 6.38443,-9.12742 9.96529,-18.1491 11.94922,-25.79493 1.15296,-4.44476 -1.51618,-8.98265 -5.96094,-10.13671 -4.44033,-1.14743 -8.98376,1.51421 -10.13672,5.95898 -6.27046,24.16568 -32.68989,64.70898 -139.17383,64.70898 -39.39428,0 -71.42978,-5.64724 -95.21484,-16.78515 -19.66892,-9.2115 -33.27072,-21.95089 -40.42969,-37.86328 -13.23581,-29.4204 -1.22846,-63.16598 15.5293,-82.07032 0.0553,-0.062 0.10902,-0.12443 0.16211,-0.1875 -0.008,0.0431 -0.0137,0.0857 -0.0215,0.12891 -0.13167,0.71036 -0.24755,1.42727 -0.35156,2.14648 -0.0243,0.1715 -0.0442,0.34413 -0.0664,0.51563 -0.0741,0.55989 -0.14083,1.12319 -0.19726,1.6875 -0.0243,0.24453 -0.0454,0.49069 -0.0664,0.73633 -0.0454,0.52337 -0.0814,1.04754 -0.11133,1.57422 -0.0133,0.22794 -0.0292,0.4565 -0.0391,0.68554 -0.0321,0.74356 -0.0508,1.492 -0.0508,2.24219 0,0.6816 0.0137,1.38957 0.0391,2.07227 0.0265,0.69377 0.0666,1.40167 0.13086,2.09765 0.0409,0.58533 0.0951,1.16649 0.15821,1.70313 0.0775,0.68934 0.16839,1.35434 0.28125,2.0293 0.0432,0.3242 0.0942,0.64122 0.14843,0.96874 0.17372,1.02682 0.38259,1.97396 0.55078,2.70313 0.0797,0.38285 0.17029,0.74801 0.2754,1.13086 0.062,0.25449 0.12527,0.5108 0.18945,0.75977 0.0642,0.24563 0.13087,0.48547 0.19726,0.70898 l 0.23438,0.8125 c 0.0277,0.0952 0.0588,0.19001 0.0898,0.28516 l 0.0684,0.21679 c 0.0277,0.0896 0.0571,0.17822 0.0859,0.26563 0.0376,0.13278 0.0788,0.26286 0.12305,0.39453 0.14827,0.43485 0.29991,0.87003 0.45703,1.29492 l 0.002,0.002 c 0.006,0.0144 0.01,0.0266 0.0137,0.041 0.0288,0.0819 0.0564,0.1633 0.084,0.23633 0.0786,0.2224 0.16089,0.44361 0.24609,0.66601 l 0.0371,0.0898 c 0.13499,0.35961 0.27777,0.71208 0.42383,1.06836 l 0.0898,0.2207 c 0.0874,0.21134 0.18362,0.43358 0.28321,0.6582 0.10179,0.24895 0.21051,0.50105 0.32226,0.75 0.031,0.0697 0.0645,0.13843 0.0977,0.20703 v 0.002 l 0.008,0.0137 v 0.002 l 0.25977,0.55469 c 0.18589,0.40608 0.38761,0.8042 0.58789,1.19922 l 0.1582,0.3164 c 0.0255,0.052 0.0829,0.16005 0.10937,0.21094 0.22352,0.4249 0.44817,0.85226 0.68164,1.28711 0.0343,0.0631 0.0701,0.12554 0.10547,0.1875 0.19806,0.34744 0.40214,0.69299 0.60352,1.03711 l 0.24414,0.41797 c 0.0786,0.13389 0.15978,0.26481 0.24609,0.39648 l 0.89649,1.39649 c 1.07994,1.64092 2.26053,3.21952 3.50976,4.69336 0.34633,0.41825 0.70902,0.83943 1.09961,1.27539 0.17704,0.19917 0.36372,0.39901 0.54297,0.59375 0.28547,0.30982 0.57756,0.62678 0.89844,0.96094 0.0409,0.0431 0.083,0.0848 0.125,0.12695 10e-4,0.002 0.077,0.077 0.0781,0.0781 0.3762,0.3751 0.75141,0.74879 1.13868,1.125 0.0896,0.0863 0.18049,0.17203 0.27343,0.25391 0.41493,0.39612 0.83775,0.78199 1.27149,1.1582 0.50014,0.44591 1.00221,0.87687 1.51562,1.28516 0.47026,0.38395 0.94212,0.74665 1.44336,1.13281 0.50456,0.38838 1.02083,0.76489 1.52539,1.12891 0.0542,0.0387 0.11265,0.0756 0.16797,0.11328 0.52227,0.35629 1.04395,0.71076 1.57617,1.04492 0.55214,0.36182 1.1138,0.70737 1.625,1.00391 0.55545,0.33084 1.12605,0.65026 1.63282,0.92578 0.60857,0.3408 1.23037,0.65307 1.86328,0.96289 0.53333,0.26002 1.06629,0.50899 1.63281,0.77344 0.0465,0.0221 0.0931,0.0454 0.14062,0.0664 1.1087,0.49349 2.32853,0.97982 3.63086,1.45117 0.29433,0.10623 0.59104,0.19286 0.88868,0.26368 0.0752,0.0177 0.15216,0.0283 0.22851,0.0449 0.22794,0.0487 0.45567,0.0885 0.6836,0.11719 0.031,0.004 0.0597,0.0142 0.0918,0.0176 2.25944,0.25558 4.48466,0.38477 6.61133,0.38477 h 13.63672 c 3.82513,0 7.155,-2.61 8.07226,-6.32227 3.06388,-12.40594 10.31998,-23.63668 20.42774,-31.62109 10.34898,-8.16588 22.7929,-12.48047 35.99219,-12.48047 26.78696,0 49.98875,18.13816 56.42187,44.10742 0.91949,3.71116 4.24655,6.31641 8.06836,6.31641 h 13.63672 c 2.02045,0 4.13043,-0.12617 6.27148,-0.35742 0.073,-0.006 0.14657,-0.0117 0.22071,-0.0195 0.0398,-0.004 0.0785,-0.003 0.11718,-0.008 0.0398,-0.004 0.0813,-0.0159 0.1211,-0.0215 0.23346,-0.0299 0.4677,-0.0714 0.70117,-0.12109 0.0741,-0.0166 0.14853,-0.0311 0.22266,-0.0488 0.28437,-0.0697 0.5655,-0.15127 0.84765,-0.25196 1.22931,-0.44481 2.44308,-0.9274 3.60157,-1.4375 0.0575,-0.0243 0.14753,-0.0653 0.20507,-0.0918 0.53333,-0.24896 1.06682,-0.50001 1.66211,-0.79102 0.57869,-0.28879 1.15451,-0.57748 1.72656,-0.89062 0.55546,-0.30318 1.08622,-0.60711 1.63282,-0.92578 0.5787,-0.33637 1.14512,-0.68311 1.69726,-1.04493 0.56099,-0.35186 1.11264,-0.7262 1.65039,-1.10351 0.54661,-0.38174 1.09019,-0.77713 1.64453,-1.20313 0.47468,-0.36514 0.94738,-0.73212 1.41211,-1.11718 0.23015,-0.18035 0.46269,-0.3714 0.69727,-0.56836 0.0177,-0.0144 0.0342,-0.0275 0.0508,-0.043 0.007,-0.006 0.0148,-0.0114 0.0215,-0.0176 0.24564,-0.20802 0.4955,-0.4289 0.75,-0.66016 0.49017,-0.42046 0.95161,-0.84731 1.42187,-1.29101 0.0266,-0.0243 0.0587,-0.0586 0.0918,-0.0918 0.008,-0.007 0.0137,-0.0148 0.0215,-0.0215 0.42047,-0.39833 0.8406,-0.80414 1.25,-1.22461 0.008,-0.008 0.0165,-0.0176 0.0254,-0.0254 l 0.0156,-0.0156 c 0.0221,-0.0221 0.0435,-0.0462 0.0645,-0.0684 0.0553,-0.0575 0.104,-0.11349 0.1582,-0.16992 0.81437,-0.84093 1.60625,-1.71814 2.37305,-2.64648 1.29016,-1.5347 2.47625,-3.12041 3.56836,-4.78125 l 0.84961,-1.32422 c 0.0852,-0.12835 0.16753,-0.2615 0.24609,-0.39649 l 0.24219,-0.41406 c 0.20138,-0.34301 0.40546,-0.68967 0.60352,-1.03711 0.0354,-0.062 0.0714,-0.12834 0.10547,-0.1914 0.23347,-0.43597 0.4595,-0.86048 0.71289,-1.3418 0.0265,-0.0509 0.0507,-0.10037 0.0762,-0.15235 l 0.1582,-0.3164 c 0.20027,-0.39612 0.40109,-0.79497 0.61133,-1.25195 l 0.24414,-0.51758 c 0.0841,-0.17814 0.16244,-0.3593 0.23437,-0.54297 0.14494,-0.32752 0.29203,-0.66123 0.44141,-1.00977 0.0974,-0.23236 0.18628,-0.45364 0.27149,-0.67383 0.0764,-0.18036 0.14532,-0.35798 0.20507,-0.51953 0.11397,-0.28436 0.22301,-0.58041 0.32813,-0.87695 0.006,-0.0166 0.0139,-0.0322 0.0195,-0.0488 0.031,-0.0841 0.0645,-0.17692 0.0977,-0.27539 0.17925,-0.48686 0.34874,-0.97974 0.50585,-1.47656 0.0111,-0.0332 0.0233,-0.0684 0.0332,-0.10156 0.1881,-0.55656 0.35512,-1.11421 0.50781,-1.63868 0.13832,-0.46473 0.25408,-0.93821 0.36914,-1.40625 0.007,-0.0254 0.0139,-0.0507 0.0195,-0.0762 0.002,-0.008 0.003,-0.0157 0.006,-0.0234 0.001,-0.007 0.004,-0.0128 0.006,-0.0195 0.10179,-0.37067 0.18903,-0.72418 0.26758,-1.09375 0.002,-0.0133 0.006,-0.027 0.008,-0.0391 0.0564,-0.24343 0.11518,-0.52213 0.17383,-0.79101 0.0376,-0.17482 0.0738,-0.33976 0.11133,-0.52344 0.0841,-0.41383 0.1661,-0.84433 0.24023,-1.29688 0.0686,-0.34965 0.12625,-0.69982 0.17383,-1.06054 0.11175,-0.67274 0.20236,-1.33435 0.27539,-1.98828 0.0708,-0.60969 0.12754,-1.23465 0.16406,-1.78126 0.052,-0.6816 0.10432,-1.37394 0.13086,-2.05664 0.0254,-0.6816 0.0391,-1.39066 0.0391,-2.07226 0,-18.54362 -10.02998,-35.73893 -26.1504,-44.86524 -1.33442,-0.76016 -2.70972,-1.46591 -4.11718,-2.10546 v -2.54297 l -16.61133,-3.95117 v 12.21289 c 0,3.62928 2.35141,6.83868 5.8125,7.92968 2.34575,0.74024 4.59846,1.7203 6.7207,2.92969 10.93099,6.18526 17.72657,17.83648 17.72657,30.39844 0,0.47136 -0.007,0.96222 -0.0254,1.43359 -0.0177,0.47136 -0.0586,0.95229 -0.0996,1.5 -0.0244,0.35186 -0.0552,0.70114 -0.0996,1.08399 -0.0476,0.42269 -0.10307,0.82724 -0.17383,1.24218 -0.0232,0.1372 -0.0615,0.38013 -0.0781,0.51954 -0.0299,0.14384 -0.0541,0.29059 -0.0762,0.43554 -0.0852,0.55213 -0.21793,1.14604 -0.34961,1.70703 -0.0177,0.0764 -0.0517,0.22153 -0.0703,0.31446 l -0.0352,0.125 c -0.0266,0.0963 -0.049,0.19253 -0.0723,0.29101 -0.0675,0.27773 -0.14162,0.56016 -0.22461,0.83789 -0.0188,0.0642 -0.037,0.12918 -0.0547,0.19336 -0.0974,0.36182 -0.21423,0.72209 -0.33594,1.07617 -0.0487,0.14383 -0.0919,0.29229 -0.13281,0.43946 -0.0642,0.19252 -0.1312,0.38416 -0.20313,0.57226 l -0.0645,0.18164 c -0.0432,0.10954 -0.0891,0.2277 -0.12109,0.32618 -0.0421,0.0985 -0.0992,0.24195 -0.13672,0.34374 -0.0542,0.14164 -0.10792,0.28423 -0.16211,0.4336 -0.0398,0.1018 -0.0812,0.20796 -0.11328,0.2832 -0.15048,0.35297 -0.31222,0.71605 -0.47266,1.08008 -0.0277,0.062 -0.0554,0.12359 -0.082,0.18555 -0.0686,0.14495 -0.12937,0.28063 -0.18359,0.40234 -0.0985,0.21245 -0.20628,0.42004 -0.3125,0.62695 l -0.15625,0.3125 c -0.18257,0.34853 -0.36828,0.69645 -0.5586,1.05274 -0.14828,0.25782 -0.30069,0.51784 -0.45117,0.77344 l -0.9414,1.49414 c -0.68492,1.0412 -1.47584,2.09507 -2.38868,3.18164 -0.54439,0.64619 -1.1159,1.28246 -1.74218,1.9375 -0.008,0.008 -0.0137,0.0157 -0.0215,0.0234 -0.27883,0.28768 -0.56779,0.56512 -0.85547,0.83399 -0.0299,0.0288 -0.0679,0.0679 -0.10547,0.10547 -0.10844,0.1018 -0.21968,0.19814 -0.32812,0.29883 -0.15159,0.14163 -0.30245,0.28772 -0.46289,0.42382 -0.0896,0.0752 -0.17932,0.15081 -0.26563,0.23047 -0.2224,0.2047 -0.45019,0.40591 -0.6914,0.5918 -0.0952,0.0741 -0.19111,0.15191 -0.28516,0.23047 -0.32087,0.26887 -0.6512,0.51824 -1.00195,0.78711 -0.33306,0.25671 -0.67372,0.50429 -1.01563,0.74219 -0.31866,0.22239 -0.64325,0.44848 -0.97851,0.65429 -0.0653,0.0409 -0.13114,0.0819 -0.19531,0.125 -0.32642,0.21466 -0.65946,0.42218 -0.99805,0.61914 -0.41051,0.23789 -0.81118,0.46686 -1.23828,0.69922 -0.39834,0.21687 -0.79645,0.41691 -1.13282,0.58399 -0.41493,0.20249 -0.82804,0.3977 -1.26953,0.60351 -0.002,0.001 -0.005,9.5e-4 -0.008,0.002 -0.52116,0.22683 -1.07814,0.43516 -1.62695,0.64649 -1.27357,0.11508 -2.51444,0.17383 -3.69727,0.17383 h -7.42383 c -10.27152,-29.99688 -38.46976,-50.42188 -70.70507,-50.42188 -16.73119,0 -33.17172,5.69991 -46.29688,16.05664 -11.2563,8.89173 -19.76284,20.92252 -24.40234,34.36524 h -7.43164 c -1.19943,0 -2.45651,-0.0586 -3.75,-0.17578 -0.0542,-0.021 -0.11291,-0.0415 -0.16602,-0.0625 -0.47911,-0.187 -0.93806,-0.37576 -1.35742,-0.56055 -0.0133,-0.006 -0.0277,-0.012 -0.041,-0.0176 -0.42821,-0.19917 -0.85668,-0.39803 -1.28711,-0.60937 -0.36071,-0.17593 -0.7154,-0.35248 -1.13476,-0.58594 -0.39391,-0.21466 -0.77843,-0.4278 -1.22656,-0.69336 -0.34191,-0.19916 -0.67749,-0.40839 -1.00391,-0.62305 -0.0642,-0.0432 -0.12808,-0.0821 -0.19336,-0.12305 -0.33416,-0.2058 -0.65991,-0.42994 -0.98633,-0.65234 -0.0874,-0.0631 -0.18101,-0.137 -0.26953,-0.20117 -0.25007,-0.18147 -0.50202,-0.36171 -0.76758,-0.56641 -0.35629,-0.27219 -0.71318,-0.54492 -1.06836,-0.83593 -0.0387,-0.031 -0.0745,-0.0609 -0.11328,-0.0918 -0.29212,-0.23015 -0.57696,-0.48099 -0.86133,-0.73438 -0.0332,-0.0299 -0.0673,-0.0599 -0.10156,-0.0898 -0.2899,-0.24896 -0.5685,-0.50814 -0.8418,-0.77148 -0.0752,-0.073 -0.15386,-0.14598 -0.23242,-0.2168 -0.20139,-0.19695 -0.41516,-0.4093 -0.63867,-0.63281 -0.052,-0.052 -0.10017,-0.10312 -0.1543,-0.15625 -0.69488,-0.72696 -1.23812,-1.33023 -1.70507,-1.89453 -0.0232,-0.0277 -0.047,-0.0571 -0.0703,-0.0859 -0.82544,-0.9726 -1.61071,-2.02111 -2.28125,-3.03906 l -0.82422,-1.28516 -0.16796,-0.2832 c -0.15048,-0.2556 -0.3018,-0.51563 -0.45118,-0.77344 -0.18146,-0.33969 -0.35858,-0.67432 -0.55664,-1.05274 l -0.15625,-0.31054 c -0.10512,-0.20801 -0.21271,-0.41769 -0.28906,-0.57813 -0.0686,-0.15269 -0.13901,-0.30068 -0.21094,-0.45117 -0.0266,-0.0642 -0.0532,-0.12918 -0.082,-0.19336 l -0.25976,-0.5918 c -0.0564,-0.12614 -0.11447,-0.25224 -0.1543,-0.34961 l -0.0957,-0.22851 c -0.083,-0.20249 -0.16428,-0.40357 -0.25391,-0.64258 l -0.14062,-0.37109 c -0.0221,-0.0664 -0.0476,-0.13817 -0.0742,-0.20899 -0.0288,-0.0841 -0.0577,-0.16591 -0.0898,-0.25 -0.0697,-0.18478 -0.13615,-0.37524 -0.19922,-0.56445 -0.0465,-0.16818 -0.10068,-0.33513 -0.1582,-0.5 l -0.38281,-1.22656 c -0.0697,-0.23236 -0.12521,-0.47552 -0.18164,-0.70899 l -0.0273,-0.11914 c -0.0299,-0.12725 -0.0886,-0.34762 -0.125,-0.47265 -0.0166,-0.0852 -0.0348,-0.16872 -0.0547,-0.25391 -0.13941,-0.60193 -0.27322,-1.20276 -0.375,-1.80469 -0.0232,-0.14384 -0.0514,-0.29091 -0.0703,-0.4414 -0.0177,-0.13941 -0.0373,-0.27882 -0.0605,-0.41602 -0.0708,-0.41383 -0.12573,-0.82096 -0.17774,-1.28125 -0.0398,-0.34412 -0.0713,-0.69304 -0.0957,-1.04492 -0.006,-0.0797 -0.0117,-0.16058 -0.0195,-0.24024 -0.0409,-0.41715 -0.0646,-0.84177 -0.0801,-1.25781 -0.0188,-0.47136 -0.0273,-0.96111 -0.0273,-1.43359 0,-15.34476 9.8253,-28.7401 24.44531,-33.33203 3.46553,-1.08878 5.82226,-4.30015 5.82226,-7.93164 v -12.21289 l -16.63867,3.95703 v 2.5332 c -0.72696,0.32862 -1.44139,0.67666 -2.14844,1.03516 -0.19141,0.0974 -0.38389,0.19813 -0.57421,0.29882 -0.58533,0.3065 -1.16344,0.6217 -1.73438,0.94922 -0.12393,0.0708 -0.25108,0.13902 -0.375,0.21094 -0.67607,0.39502 -1.3391,0.80475 -1.99414,1.22852 -0.15491,0.10069 -0.30909,0.20373 -0.46289,0.30664 -0.52779,0.34965 -1.04714,0.70966 -1.56055,1.07812 -0.15381,0.11065 -0.31214,0.21806 -0.46484,0.33203 -0.62627,0.4603 -1.24462,0.93222 -1.84766,1.41797 -0.0896,0.073 -0.17599,0.14767 -0.26562,0.2207 -0.52115,0.426 -1.03366,0.86295 -1.53711,1.30665 -0.1527,0.13499 -0.3046,0.26989 -0.45508,0.4082 -0.55214,0.50124 -1.09499,1.01068 -1.625,1.53515 -0.0221,0.0221 -0.046,0.0404 -0.0684,0.0625 -0.55103,0.54771 -1.08575,1.11265 -1.61133,1.6836 -0.13278,0.14384 -0.26481,0.29144 -0.39648,0.4375 -0.43153,0.48132 -0.85402,0.96914 -1.26563,1.46484 -0.093,0.11176 -0.1883,0.22112 -0.28125,0.33399 -0.48796,0.59639 -0.96157,1.20484 -1.42187,1.82226 -0.0996,0.13278 -0.19338,0.26821 -0.29297,0.4043 -0.37399,0.5112 -0.73576,1.03022 -1.08984,1.55469 -0.10622,0.15712 -0.21521,0.31444 -0.32032,0.47265 -0.42489,0.6451 -0.83851,1.2979 -1.23242,1.96289 -0.0443,0.0752 -0.0865,0.15133 -0.13086,0.22657 -0.35076,0.59529 -0.68615,1.19781 -1.01367,1.80859 -0.0963,0.18036 -0.19195,0.36346 -0.28711,0.54492 -0.32641,0.62628 -0.64239,1.25778 -0.94336,1.89844 -0.031,0.0653 -0.0639,0.13087 -0.0937,0.19726 -0.32531,0.70152 -0.63146,1.41471 -0.92578,2.13282 -0.0752,0.18478 -0.14767,0.3727 -0.2207,0.55859 -0.23236,0.58754 -0.45663,1.17789 -0.66797,1.77539 -0.0343,0.10733 -0.0813,0.21832 -0.12109,0.33008 V 279.5332 l -16.93555,-1.0664 c -0.0608,1.33442 -0.1297,2.6741 -0.15625,3.99414 -0.0199,0.9892 0.14643,1.96078 0.46289,2.87695 v 16.8125 c -4.01213,4.85416 -7.70955,10.32952 -10.93164,16.25586 -8.87293,-2.15764 -15.488283,-10.14528 -15.488283,-19.66992 0,-5.41626 2.11107,-10.50358 5.947263,-14.33203 3.82734,-3.82734 8.91688,-5.9375 14.33203,-5.9375 h 5.83399 z m 87.29297,19.71484 c -0.54329,0 -1.08725,0.0554 -1.625,0.16602 -0.53222,0.0996 -1.05372,0.26652 -1.55274,0.4668 -0.51009,0.21023 -0.98663,0.46492 -1.4414,0.76367 -0.45476,0.31092 -0.8764,0.6546 -1.26367,1.04297 -0.37731,0.37732 -0.73139,0.79784 -1.03125,1.26367 -0.29986,0.4437 -0.55344,0.93066 -0.76368,1.42969 -0.21023,0.49903 -0.36591,1.02051 -0.47656,1.55273 -0.11065,0.54329 -0.15625,1.08757 -0.15625,1.63086 0,2.1842 0.88751,4.33367 2.42774,5.875 0.38838,0.38838 0.80891,0.73139 1.26367,1.03125 0.45477,0.29986 0.93131,0.56647 1.4414,0.76563 0.49902,0.21024 1.02052,0.37698 1.55274,0.47656 0.53222,0.11065 1.08758,0.16601 1.63086,0.16601 0.53223,0 1.08692,-0.0553 1.61914,-0.16601 0.53222,-0.0996 1.05175,-0.26522 1.55078,-0.47656 0.51009,-0.19916 0.98859,-0.46688 1.44336,-0.76563 0.45477,-0.29986 0.8764,-0.64287 1.26367,-1.03125 1.5524,-1.54133 2.4375,-3.6908 2.4375,-5.875 0,-0.54329 -0.0553,-1.08757 -0.16601,-1.63086 -0.11065,-0.53222 -0.26523,-1.0537 -0.47657,-1.55273 -0.21023,-0.49903 -0.46492,-0.98599 -0.76367,-1.42969 -0.29986,-0.46583 -0.64287,-0.88746 -1.03125,-1.26367 -0.38838,-0.38837 -0.8089,-0.73205 -1.26367,-1.04297 -0.45477,-0.29986 -0.93327,-0.55344 -1.44336,-0.76367 -0.49903,-0.19917 -1.01856,-0.36722 -1.55078,-0.4668 -0.53776,-0.11065 -1.08172,-0.16602 -1.625,-0.16602 z m 92.09765,0 c -0.54328,0 -1.08529,0.0554 -1.62304,0.16602 -0.53222,0.0996 -1.05371,0.26652 -1.55274,0.4668 -0.51009,0.21023 -0.98664,0.46492 -1.4414,0.76367 -0.45477,0.31092 -0.8764,0.6546 -1.26367,1.04297 -0.37732,0.37732 -0.7314,0.79784 -1.03126,1.26367 -0.29986,0.4437 -0.55539,0.93066 -0.76562,1.42969 -0.21023,0.49903 -0.36591,1.03158 -0.47656,1.55273 -0.11064,0.54329 -0.1543,1.08757 -0.1543,1.63086 0,2.1842 0.88751,4.33367 2.42774,5.875 0.38837,0.38838 0.8089,0.73204 1.26367,1.04297 0.45476,0.29985 0.93131,0.55475 1.4414,0.75391 0.49903,0.21024 1.02052,0.37698 1.55274,0.47656 0.53222,0.11065 1.07586,0.16601 1.61914,0.16601 0.54329,0 1.09668,-0.0553 1.6289,-0.16601 0.53222,-0.0996 1.05372,-0.26522 1.55274,-0.47656 0.51009,-0.19916 0.98664,-0.45516 1.44141,-0.75391 0.45476,-0.31093 0.87639,-0.65459 1.26367,-1.04297 1.54133,-1.54133 2.42773,-3.6908 2.42773,-5.875 0,-2.18421 -0.8875,-4.33561 -2.42773,-5.87695 -0.38728,-0.38727 -0.80781,-0.73205 -1.26367,-1.04297 -0.45477,-0.29986 -0.93132,-0.55344 -1.44141,-0.76367 -0.49902,-0.19917 -1.02052,-0.36722 -1.55274,-0.4668 -0.53775,-0.11065 -1.08171,-0.16602 -1.625,-0.16602 z"
   id="icon-maincolor" style="fill:var(--icon-main);" />



<path
   d="m 280.92675,47.919377 c -5.6411,-0.09483 -9.81082,1.092833 -12.3961,2.165429 -7.88594,3.269682 -12.95895,10.014996 -13.2411,17.604395 -0.27884,7.477643 4.06413,14.219378 11.61812,18.030121 2.35792,1.189474 3.4986,2.125153 4.01533,2.645203 -1.15849,1.851153 -6.88814,8.306313 -33.87537,18.998305 -45.56074,18.0457 -72.89381,52.78175 -87.80152,78.74216 -13.6252,23.72882 -22.89258,50.38897 -26.5838,75.6777 v 0.0562 l -1.61435,16.62973 16.93661,1.06543 c 8.77112,-3.30729 17.9495,-6.24346 27.42878,-8.77842 l 16.63406,-3.95699 c 10e-4,-3e-4 0.003,2.9e-4 0.004,0 23.64993,-4.97087 48.49535,-7.48824 73.95747,-7.48824 25.46283,0 50.3068,2.51708 73.95963,7.48824 v 0 0 l 16.61247,3.95051 0.0587,0.0195 c 9.83756,2.6333 19.33797,5.6924 28.39048,9.14581 l 0.0708,0.0238 16.63837,-1.00708 2.25612,-17.09869 h -0.0111 C 400.03395,193.65954 373.0663,113.42958 328.57443,72.193004 307.8289,52.954128 291.69144,48.100387 280.922,47.919432 Z m -1.22964,16.605966 c 8.11432,-0.22579 21.27455,4.737272 37.59901,19.871383 21.30099,19.741954 39.05215,50.384434 49.98425,86.284434 9.37748,30.79244 12.80726,62.58706 10.01891,91.15989 h -3.28704 c -10.81149,-3.81185 -22.14281,-7.11008 -33.84945,-9.82872 0,0 0,-0.002 0,-0.002 -26.79249,-6.19633 -55.10508,-9.33814 -84.14928,-9.33814 -29.04419,0 -57.35891,3.14181 -84.1514,9.33814 h -0.004 c -11.11577,2.57812 -21.90256,5.69057 -32.24158,9.27116 3.71006,-22.35768 12.16694,-46.17049 24.06611,-66.89279 h -0.007 c 13.58656,-23.66113 38.40897,-55.28432 79.50503,-71.56296 30.74154,-12.18022 44.08397,-22.35241 44.60955,-34.013698 0.22462,-4.989152 -1.91389,-12.151364 -13.38154,-17.937187 -1.54355,-0.777861 -2.52052,-1.785163 -2.49175,-2.565237 0.0299,-0.791139 0.97828,-2.027019 2.99098,-2.86131 1.312,-0.543562 2.91647,-0.870684 4.78902,-0.922789 z"
   id="icon-detailcolor" style="fill:var(--icon-detail);" /></svg>

