<?xml version="1.0" encoding="UTF-8" standalone="no"?>
<svg
   xmlns:dc="http://purl.org/dc/elements/1.1/"
   xmlns:cc="http://creativecommons.org/ns#"
   xmlns:rdf="http://www.w3.org/1999/02/22-rdf-syntax-ns#"
   xmlns:svg="http://www.w3.org/2000/svg"
   xmlns="http://www.w3.org/2000/svg"
   height="512"
   width="302.43387"
   version="1.1"
   id="Icon"
   x="0px"
   y="0px"
   viewBox="0 0 302.43387 512"
   xml:space="preserve"><metadata
   id="metadata55"><rdf:RDF><cc:Work
       rdf:about=""><dc:format>image/svg+xml</dc:format><dc:type
         rdf:resource="http://purl.org/dc/dcmitype/StillImage" /><dc:title></dc:title></cc:Work></rdf:RDF></metadata>
<defs
   id="defs53">
</defs>

<path
   style="fill:var(--icon-main)"
   d="m 151.81915,104.7859 c -10.35938,-0.0577 -20.61413,0.9852 -31.08399,3.14062 -4.06741,0.83715 -6.96862,2.5833 -9.61328,5.78516 -21.146458,25.58782 -19.724908,61.07246 4.26367,106.45703 -2.9618,2.9618 -5.46533,6.16706 -7.62109,9.75976 -28.062068,-31.27948 -39.843838,-59.79242 -35.345708,-85.53711 1.32606,-7.59047 -7.36984,-12.8469 -13.47265,-8.14453 -13.54788,10.43867 -24.57888,22.3206 -33.98633,36.60352 -2.28424,3.46896 -3.10186,6.75432 -2.70898,10.88867 3.141,33.04575 29.23927,57.13286 78.292958,72.26172 0,4.18913 0.49538,8.22504 1.51172,12.28906 -41.960228,-2.27545 -70.452498,-14.10438 -85.476558,-35.49023 -4.42918,-6.30499 -14.29579,-3.87097 -15.28711,3.76953 -2.19836999,16.9614 -1.59710999,33.16034 1.85156,49.91211 0.83715,4.06741 2.58135,6.97058 5.78321,9.61523 25.58782,21.14647 61.07441,19.7249 106.458978,-4.26367 2.9618,2.96179 6.16706,5.46533 9.75977,7.62109 -31.279488,28.06207 -59.792408,39.84191 -85.537108,35.34375 -7.59047,-1.32605 -12.84562,7.37181 -8.14258,13.47461 10.43867,13.54788 22.31864,24.57888 36.60156,33.98633 3.46896,2.28424 6.75432,3.09991 10.88867,2.70703 33.045748,-3.141 57.132858,-29.23732 72.261718,-78.29101 4.18913,0 8.227,-0.49665 12.29102,-1.51367 -2.27545,41.96024 -14.10634,70.45251 -35.49219,85.47656 -6.30499,4.42918 -3.87098,14.29578 3.76953,15.28711 16.9614,2.19836 33.16034,1.59711 49.91211,-1.85156 4.06741,-0.83715 6.97058,-2.58135 9.61524,-5.78321 21.14646,-25.58782 19.7249,-61.07442 -4.26368,-106.45898 2.9618,-2.9618 5.46534,-6.16706 7.6211,-9.75977 28.06208,31.27948 39.8419,59.79241 35.34375,85.53711 -1.32605,7.59046 7.37181,12.84758 13.47461,8.14453 13.54789,-10.43866 24.57888,-22.32058 33.98632,-36.60351 2.28424,-3.46896 3.09991,-6.75431 2.70703,-10.88867 -3.141,-33.04574 -29.23733,-57.13286 -78.29101,-72.26172 0,-4.18913 -0.49537,-8.22504 -1.51172,-12.28907 41.96024,2.27545 70.45056,14.1044 85.47461,35.49024 4.42919,6.30499 14.29579,3.87293 15.28711,-3.76758 2.19836,-16.96072 1.59907,-33.15966 -1.84961,-49.91211 -0.83714,-4.06741 -2.58331,-6.97057 -5.78516,-9.61523 -25.58782,-21.14647 -61.07247,-19.72491 -106.45703,4.26367 -2.96181,-2.96181 -6.16705,-5.46534 -9.75976,-7.6211 0.005,-0.004 0.009,-0.008 0.0137,-0.0117 -7.62395,-4.59622 -16.54054,-7.25491 -26.07031,-7.25782 -0.005,0.0165 -0.0105,0.0323 -0.0156,0.0488 -4.18913,0 -8.22698,0.49537 -12.29101,1.51172 2.27545,-41.96024 14.10634,-70.45251 35.49218,-85.47656 6.30501,-4.42918 3.87097,-14.29578 -3.76953,-15.28711 -6.36052,-0.82439 -12.61445,-1.25446 -18.83007,-1.28906 z m -0.60157,117.42968 c 18.70867,0 33.78321,15.07649 33.78321,33.78516 0,18.70867 -15.07454,33.7832 -33.78321,33.7832 -18.70867,0 -33.78515,-15.07453 -33.78515,-33.7832 0,-18.70867 15.07648,-33.78516 33.78515,-33.78516 z"
   id="icon-maincolor" />

<path
   style="fill:var(--icon-detail)"
   d="m 224.99102,126.94605 c -0.49228,0.0108 -0.99492,0.0407 -1.51172,0.0898 -33.03461,3.13994 -57.11629,29.22049 -72.24609,78.24218 9.53059,0.003 18.45274,2.65432 26.07812,7.25 31.27092,-28.04797 59.77692,-39.82133 85.51562,-35.32422 7.59047,1.32605 12.84562,-7.3718 8.14258,-13.4746 -10.43866,-13.54788 -22.31864,-24.57888 -36.60156,-33.98633 -3.03534,-1.99871 -5.93099,-2.87272 -9.37695,-2.79688 z"
   id="icon-detailcolor" />

















</svg>
