<?xml version="1.0" encoding="UTF-8" standalone="no"?>
<svg
   xmlns:dc="http://purl.org/dc/elements/1.1/"
   xmlns:cc="http://creativecommons.org/ns#"
   xmlns:rdf="http://www.w3.org/1999/02/22-rdf-syntax-ns#"
   xmlns:svg="http://www.w3.org/2000/svg"
   xmlns="http://www.w3.org/2000/svg"
   xml:space="preserve"
   style="enable-background:new 0 0 512 512;"
   viewBox="0 0 512 512"
   y="0px"
   x="0px"
   id="Icon"
   version="1.1"><metadata
   id="metadata55"><rdf:RDF><cc:Work
       rdf:about=""><dc:format>image/svg+xml</dc:format><dc:type
         rdf:resource="http://purl.org/dc/dcmitype/StillImage" /><dc:title></dc:title></cc:Work></rdf:RDF></metadata><defs
   id="defs53">
	
</defs>

<path
   style="fill:var(--icon-main);"
   d="m 116.2442,241.31158 c -23.2726,0 -42.2969,18.94471 -42.2969,42.18554 v 63.94336 h -8.2578 c -4.6717,-0.0661 -8.4942,3.70283 -8.4942,8.375 0,4.67217 3.8224,8.44107 8.4942,8.375 h 380.6211 c 4.6717,0.0661 8.4941,-3.70283 8.4941,-8.375 0,-4.67217 -3.8224,-8.4411 -8.4941,-8.375 h -8.2578 v -63.94336 c 0,-23.24083 -19.0243,-42.18554 -42.2969,-42.18554 z m 0,16.75 h 279.5117 c 14.312,0 25.5469,11.21373 25.5469,25.43554 v 63.94336 H 90.6973 v -63.94336 c 0,-14.22181 11.2349,-25.43554 25.5469,-25.43554 z"
   id="icon-maincolor" />

<path
   id="icon-detailcolor"
   d="m 255.7423,147.80962 c -4.6231,0.069 -8.3158,3.87101 -8.25,8.49415 v 59.76171 c -0.066,4.67171 3.7028,8.49428 8.375,8.49428 4.6722,0 8.4411,-3.82257 8.375,-8.49428 v -59.76171 c 0.067,-4.72105 -3.779,-8.56462 -8.5,-8.49415 z m -121.289,4.57813 c -5.9925,0.0484 -9.9969,6.19088 -7.6231,11.69336 l 22.8945,55.20312 c 1.7308,4.33707 6.6748,6.4215 10.9883,4.63282 4.3135,-1.78868 6.3306,-6.75962 4.4844,-11.04883 l -22.8945,-55.20313 c -1.2779,-3.20956 -4.3952,-5.30533 -7.8496,-5.27734 z m 243.0937,0 c -3.4545,-0.028 -6.5718,2.06778 -7.8496,5.27734 l -22.8945,55.20313 c -1.8465,4.28925 0.1707,9.2601 4.4843,11.04883 4.3137,1.78873 9.2576,-0.29556 10.9883,-4.63282 L 385.17,164.08111 c 2.3738,-5.50248 -1.6305,-11.64495 -7.623,-11.69336 z M 22.3185,189.35259 c -7.5187,0.003 -11.2262,9.14314 -5.834,14.38282 l 42.2578,42.25781 c 3.255,3.35925 8.63,3.40129 11.9375,0.0937 3.3075,-3.3075 3.2655,-8.68256 -0.094,-11.9375 L 28.328,191.89161 c -1.5778,-1.62383 -3.7457,-2.53976 -6.0098,-2.53907 z m 467.3613,0 c -2.2634,-1.5e-4 -4.4305,0.91573 -6.0078,2.53907 l -42.2578,42.25781 c -3.36,3.25479 -3.4035,8.63163 -0.096,11.93945 3.3078,3.30782 8.6846,3.26429 11.9394,-0.0957 l 42.2578,-42.25781 c 5.3922,-5.23966 1.6847,-14.38002 -5.8339,-14.38282 z"
   style="fill:var(--icon-detail);" />

</svg>
