<?xml version="1.0" encoding="UTF-8" standalone="no"?>
<svg
   xmlns:dc="http://purl.org/dc/elements/1.1/"
   xmlns:cc="http://creativecommons.org/ns#"
   xmlns:rdf="http://www.w3.org/1999/02/22-rdf-syntax-ns#"
   xmlns:svg="http://www.w3.org/2000/svg"
   xmlns="http://www.w3.org/2000/svg"
   id="Icon"
   version="1.1"
   viewBox="0 0 79.745056 79.745049"
   height="79.745049mm"
   width="79.745056mm">
  <defs
     id="defs2" />
  <metadata
     id="metadata5">
    <rdf:RDF>
      <cc:Work
         rdf:about="">
        <dc:format>image/svg+xml</dc:format>
        <dc:type
           rdf:resource="http://purl.org/dc/dcmitype/StillImage" />
        <dc:title></dc:title>
      </cc:Work>
    </rdf:RDF>
  </metadata>
  <g
     transform="translate(-101.87929,-58.368079)"
     id="layer1">
    <path
       id="icon-maincolor" style="fill:#f5f5f5;"
       transform="matrix(0.26458333,0,0,0.26458333,101.87929,58.368079)"
       d="M 46.234375,0 C 39.598568,0 32.963605,2.5422543 27.878906,7.6269531 L 7.6269531,27.878906 c -10.1693975,10.169398 -10.1693975,26.543493 0,36.712891 L 93.734375,150.69922 7.6269531,236.80664 c -10.1693975,10.1694 -10.1693975,26.54349 0,36.71289 l 20.2519529,20.25195 c 10.169398,10.1694 26.543493,10.1694 36.712891,0 l 86.107423,-86.10742 86.10742,86.10742 c 10.1694,10.1694 26.54349,10.1694 36.71289,0 l 20.25195,-20.25195 c 10.1694,-10.1694 10.1694,-26.54349 0,-36.71289 l -86.10742,-86.10742 86.10742,-86.107423 c 10.1694,-10.169398 10.1694,-26.543493 0,-36.712891 L 273.51953,7.6269531 c -10.1694,-10.1693975 -26.54349,-10.1693975 -36.71289,0 L 150.69922,93.734375 64.591797,7.6269531 C 59.507098,2.5422543 52.870182,0 46.234375,0 Z"
       />
  </g>
</svg>
