<?xml version="1.0" encoding="UTF-8" standalone="no"?>
<svg
   xmlns:dc="http://purl.org/dc/elements/1.1/"
   xmlns:cc="http://creativecommons.org/ns#"
   xmlns:rdf="http://www.w3.org/1999/02/22-rdf-syntax-ns#"
   xmlns:svg="http://www.w3.org/2000/svg"
   xmlns="http://www.w3.org/2000/svg"
   xml:space="preserve"
   style="enable-background:new 0 0 512 512;"
   viewBox="0 0 512 512"
   y="0px"
   x="0px"
   id="Icon"
   version="1.1"><metadata
   id="metadata55"><rdf:RDF><cc:Work
       rdf:about=""><dc:format>image/svg+xml</dc:format><dc:type
         rdf:resource="http://purl.org/dc/dcmitype/StillImage" /><dc:title></dc:title></cc:Work></rdf:RDF></metadata><defs
   id="defs53">
</defs>

<path
   style="fill:var(--icon-main);fill-opacity:1;stroke-width:1"
   d="M 295.22455,281.00945 V 154.01561 c 0,-21.62486 -17.59743,-39.21777 -39.22681,-39.21777 -21.62599,0 -39.22003,17.59291 -39.22003,39.21777 v 126.99271 c -16.06682,12.23919 -25.52925,31.1426 -25.52925,51.44342 0,35.70393 29.04535,64.75041 64.74928,64.75041 35.70619,0 64.7538,-29.04648 64.7538,-64.75041 0,-20.29856 -9.46243,-39.20197 -25.52699,-51.44229 z m -39.22681,99.26124 c -26.36679,0 -47.81782,-21.45103 -47.81782,-47.81895 0,-16.13455 8.11355,-31.08277 21.70387,-39.98646 2.38734,-1.56447 3.82651,-4.22722 3.82651,-7.08074 V 154.01561 c 0,-12.28885 9.99859,-22.28631 22.28857,-22.28631 12.2945,0 22.29535,9.99746 22.29535,22.28631 v 131.36893 c 0,2.85465 1.43804,5.51627 3.82651,7.08074 13.58806,8.90482 21.70161,23.85304 21.70161,39.98646 -0.002,26.36792 -21.45554,47.81895 -47.8246,47.81895 z"
   id="icon-maincolor" /><path
   style="fill:var(--icon-detail);fill-opacity:1;stroke-width:1"
   d="M 264.46573,305.60635 V 193.72553 c 0,-4.67534 -3.78926,-8.46573 -8.46573,-8.46573 -4.67647,0 -8.46573,3.79039 -8.46573,8.46573 v 111.88082 c -11.40503,3.59285 -19.67435,14.24726 -19.67435,26.84539 0,15.53969 12.597,28.14121 28.14008,28.14121 15.54647,0 28.14234,-12.60152 28.14234,-28.14121 -10e-4,-12.59926 -8.27045,-23.25479 -19.67661,-26.84539 z"
   id="icon-detailcolor" /></svg>
