<?xml version="1.0" encoding="UTF-8" standalone="no"?>
<svg
   xmlns:dc="http://purl.org/dc/elements/1.1/"
   xmlns:cc="http://creativecommons.org/ns#"
   xmlns:rdf="http://www.w3.org/1999/02/22-rdf-syntax-ns#"
   xmlns:svg="http://www.w3.org/2000/svg"
   xmlns="http://www.w3.org/2000/svg"
   xml:space="preserve"
   style="enable-background:new 0 0 512 512;"
   viewBox="0 0 512 512"
   y="0px"
   x="0px"
   id="Icon"
   version="1.1"><metadata
   id="metadata55"><rdf:RDF><cc:Work
       rdf:about=""><dc:format>image/svg+xml</dc:format><dc:type
         rdf:resource="http://purl.org/dc/dcmitype/StillImage" /><dc:title></dc:title></cc:Work></rdf:RDF></metadata>
<defs
   id="defs53">
</defs>

<path
   id="icon-maincolor"
   d="M 256 104.91797 C 200.47682 104.91797 151.21101 132.04752 120.63672 173.71094 L 120.63086 173.7207 C 120.61236 173.7478 113.29143 184.46226 109.22852 191.47461 C 95.817216 215.58423 88.130859 243.29358 88.130859 272.78516 C 88.130859 311.35916 101.07066 347.82373 124.47266 377.17773 C 124.46666 377.18373 124.45932 377.18786 124.45312 377.19336 C 126.70462 379.97119 132.11979 386.54064 135.58008 389.76953 C 140.96108 395.28753 146.75028 400.48555 152.94727 405.31055 C 154.42127 406.45855 156.23747 407.08203 158.10547 407.08203 L 353.89648 407.08203 C 355.76448 407.08203 357.57773 406.45855 359.05273 405.31055 C 400.24383 373.23734 423.86914 324.93511 423.86914 272.78711 C 423.86914 180.22311 348.564 104.91797 256 104.91797 z M 247.60742 121.94922 L 247.60742 155.2793 C 247.60742 159.9143 251.365 163.67186 256 163.67188 C 260.635 163.67188 264.39258 159.9143 264.39258 155.2793 L 264.39258 121.94922 C 299.73758 123.89422 331.87301 138.049 356.66602 160.25 L 333.1543 183.76172 C 329.8763 187.03872 329.8763 192.35386 333.1543 195.63086 C 334.7933 197.26986 336.94184 198.08984 339.08984 198.08984 C 341.23784 198.08984 343.38444 197.26986 345.02344 195.63086 L 368.5332 172.11914 C 390.7352 196.91314 404.89094 229.04953 406.83594 264.39453 L 373.50781 264.39453 C 368.87281 264.39453 365.11328 268.15211 365.11328 272.78711 C 365.11328 277.42211 368.87281 281.17969 373.50781 281.17969 L 406.85156 281.17969 C 404.96956 315.78869 391.46914 348.10511 368.61914 373.53711 L 345.02539 349.94336 C 341.74839 346.66636 336.4353 346.66436 333.1543 349.94336 C 329.8763 353.22036 329.8763 358.5355 333.1543 361.8125 L 356.73047 385.38867 C 354.85547 387.06267 352.9397 388.70486 350.9707 390.29688 L 264.39453 390.29688 L 264.39453 365.11523 C 264.39453 360.48023 260.63695 356.72266 256.00195 356.72266 C 251.36695 356.72266 247.60742 360.48023 247.60742 365.11523 L 247.60742 390.29688 L 161.03125 390.29688 C 159.06225 388.70488 157.14648 387.06367 155.27148 385.38867 L 178.8457 361.8125 C 182.1237 358.5355 182.1247 353.22036 178.8457 349.94336 C 175.5687 346.66436 170.25361 346.66436 166.97461 349.94336 L 143.38281 373.53711 C 143.24181 373.38011 143.09703 373.22636 142.95703 373.06836 C 142.64903 372.61536 142.29467 372.18416 141.88867 371.78516 C 141.83367 371.73116 141.76794 371.69556 141.71094 371.64258 C 119.87594 346.50858 106.98544 314.93369 105.14844 281.17969 L 138.49219 281.17969 C 143.12719 281.17969 146.88672 277.42211 146.88672 272.78711 C 146.88672 268.15211 143.12719 264.39453 138.49219 264.39453 L 105.16406 264.39453 C 107.10906 229.04953 121.26284 196.91314 143.46484 172.11914 L 166.97461 195.63086 C 168.61361 197.26986 170.7602 198.08984 172.9082 198.08984 C 175.0552 198.08984 177.20575 197.26986 178.84375 195.63086 C 182.12275 192.35386 182.12175 187.03872 178.84375 183.76172 L 155.33398 160.25 C 180.12798 138.049 212.26242 123.89422 247.60742 121.94922 z M 296.54297 219.17383 C 295.7577 219.21992 294.97223 219.37714 294.20898 219.65039 C 284.65298 223.07039 236.44441 240.66688 225.81641 251.29688 C 219.47541 257.63687 215.98242 266.06616 215.98242 275.03516 C 215.98242 284.00216 219.47541 292.43344 225.81641 298.77344 C 232.15841 305.11544 240.58864 308.60742 249.55664 308.60742 C 258.52464 308.60742 266.95687 305.11539 273.29688 298.77539 C 283.92588 288.14839 301.52045 239.93881 304.93945 230.38281 C 306.03145 227.32681 305.26666 223.91414 302.97266 221.61914 C 301.25066 219.89639 298.89877 219.03555 296.54297 219.17383 z M 282.70898 241.88086 C 275.07798 261.46086 265.91078 282.4203 261.42578 286.9043 C 258.25578 290.0743 254.03969 291.82031 249.55469 291.82031 C 245.07069 291.82031 240.85555 290.0743 237.68555 286.9043 L 237.68359 286.9043 C 234.51359 283.7343 232.76758 279.51916 232.76758 275.03516 C 232.76758 270.54916 234.51455 266.33406 237.68555 263.16406 C 242.16655 258.68206 263.12598 249.51386 282.70898 241.88086 z "
   style="fill:var(--icon-main);fill-opacity:1" />
















</svg>
