<?xml version="1.0" encoding="UTF-8" standalone="no"?>
<svg
   xmlns:dc="http://purl.org/dc/elements/1.1/"
   xmlns:cc="http://creativecommons.org/ns#"
   xmlns:rdf="http://www.w3.org/1999/02/22-rdf-syntax-ns#"
   xmlns:svg="http://www.w3.org/2000/svg"
   xmlns="http://www.w3.org/2000/svg"
   height="512"
   width="512"
   version="1.1"
   id="Icon"
   x="0px"
   y="0px"
   viewBox="0 0 512 512"
   xml:space="preserve"><metadata
   id="metadata55"><rdf:RDF><cc:Work
       rdf:about=""><dc:format>image/svg+xml</dc:format><dc:type
         rdf:resource="http://purl.org/dc/dcmitype/StillImage" /><dc:title></dc:title></cc:Work></rdf:RDF></metadata><defs
   id="defs53">
</defs>



<path
   id="icon-maincolor" style="fill:var(--icon-main)"
   d="m 255.98047,101.53711 c -11.66367,0 -19.66333,1.64667 -25.0957,7.23047 -5.43238,5.5838 -5.38352,12.56371 -5.45704,17.27539 -0.0735,4.71168 -0.19485,8.17009 -1.625,11.09375 -1.43014,2.92365 -4.266,6.29462 -12.9375,9.88672 -8.67107,3.5918 -13.06063,3.21299 -16.14062,2.15625 -3.07999,-1.05675 -5.61173,-3.41853 -8.99805,-6.69922 -3.38632,-3.2807 -8.29107,-8.24854 -16.08203,-8.35352 -7.79096,-0.10497 -14.616,4.38741 -22.86719,12.63867 -8.25111,8.25157 -12.74351,15.07632 -12.63867,22.86719 0.10485,7.79088 5.07295,12.69552 8.35352,16.08203 3.28057,3.38652 5.64242,5.91958 6.69922,9 1.05679,3.08043 1.4355,7.47089 -2.15625,16.14258 -3.59175,8.67178 -6.96362,11.50672 -9.88868,12.9375 -2.92505,1.43079 -6.38548,1.55213 -11.0996,1.62696 -4.71413,0.0748 -11.69637,0.0298 -17.2793,5.46484 -5.58293,5.43508 -7.23045,13.43807 -7.23047,25.10742 0,11.6693 1.64728,19.67051 7.23047,25.10547 5.58319,5.43496 12.56515,5.39032 17.2793,5.46484 4.71414,0.0745 8.17665,0.19449 11.10156,1.625 2.9249,1.43051 6.29503,4.26614 9.88672,12.9375 3.59176,8.67201 3.21305,13.0621 2.15625,16.14258 -1.05681,3.08048 -3.41867,5.61358 -6.69922,9 -3.28055,3.38642 -8.24869,8.29116 -8.35352,16.08203 -0.10483,7.79087 4.38756,14.61565 12.63867,22.86719 8.25116,8.25155 15.0742,12.74346 22.86524,12.63867 7.79104,-0.10478 12.69763,-5.07275 16.08398,-8.35351 3.38636,-3.28077 5.91802,-5.64239 8.99805,-6.69922 3.08002,-1.05683 7.4696,-1.43541 16.14062,2.15625 8.67114,3.59219 11.50701,6.96342 12.9375,9.88867 1.4305,2.92525 1.55149,6.38613 1.625,11.09961 0.0735,4.71347 0.0235,11.69358 5.45508,17.2793 5.43161,5.58571 13.43352,7.23421 25.09766,7.23437 11.66442,0 19.66496,-1.65068 25.09961,-7.23047 5.43464,-5.57978 5.39865,-12.55985 5.47851,-17.27539 0.0799,-4.71554 0.20499,-8.17928 1.63868,-11.10742 1.43369,-2.92814 4.27118,-6.29857 12.9375,-9.88867 8.67102,-3.59166 13.06059,-3.21308 16.14062,-2.15625 3.08003,1.05683 5.61169,3.41845 8.99805,6.69922 3.38636,3.28076 8.29294,8.24873 16.08398,8.35351 7.79104,0.10479 14.6141,-4.38712 22.86524,-12.63867 8.25114,-8.25154 12.74349,-15.07435 12.63867,-22.86523 -0.10482,-7.79088 -5.07296,-12.69757 -8.35352,-16.08399 -3.28056,-3.38642 -5.6424,-5.91952 -6.69922,-9 -1.05681,-3.08048 -1.43551,-7.47057 2.15625,-16.14258 3.59171,-8.67136 6.96376,-11.50698 9.88868,-12.9375 2.92492,-1.43051 6.38546,-1.55048 11.0996,-1.625 4.71415,-0.0745 11.69612,-0.0299 17.2793,-5.46484 5.58318,-5.43497 7.23049,-13.43617 7.23047,-25.10547 0,-11.66935 -1.64754,-19.67234 -7.23047,-25.10742 -5.58293,-5.43509 -12.56516,-5.39002 -17.2793,-5.46484 -4.71413,-0.0748 -8.17455,-0.19617 -11.0996,-1.62696 -2.92506,-1.43079 -6.29694,-4.26573 -9.88868,-12.9375 -3.59174,-8.67168 -3.21305,-13.06215 -2.15625,-16.14258 1.05681,-3.08042 3.41864,-5.61348 6.69922,-9 3.28058,-3.38651 8.24869,-8.29114 8.35352,-16.08203 0.10483,-7.79088 -4.38753,-14.61563 -12.63867,-22.86719 -8.25118,-8.25126 -15.07623,-12.74364 -22.86719,-12.63867 -7.79096,0.10498 -12.6957,5.07282 -16.08203,8.35352 -3.38633,3.28069 -5.91805,5.64247 -8.99805,6.69922 -3.08,1.05675 -7.46956,1.43555 -16.14062,-2.15625 -8.66707,-3.5903 -11.50637,-6.96128 -12.93946,-9.88672 -1.43309,-2.92544 -1.55684,-6.38476 -1.63672,-11.09766 -0.0799,-4.7129 -0.0442,-11.69172 -5.47851,-17.26953 -5.43427,-5.57781 -13.43375,-7.22895 -25.09766,-7.23242 z m -0.002,16.76172 h 0.002 c 9.8149,0.003 12.83716,1.9046 13.09375,2.16797 0.25661,0.26339 0.65127,1.41506 0.72656,5.85742 0.0753,4.44235 -0.0986,11.1644 3.3418,18.1875 3.44041,7.0231 10.39929,13.36726 21.57812,17.99805 11.18411,4.63277 20.59358,5.06452 27.99414,2.52539 7.40057,-2.53914 12.02973,-7.4223 15.22266,-10.51563 3.19293,-3.09332 4.28425,-3.62796 4.64453,-3.63281 0.36028,-0.005 3.84177,0.78505 10.78711,7.73047 6.94537,6.94571 7.73728,10.4283 7.73242,10.78906 -0.005,0.36076 -0.53961,1.45339 -3.63281,4.64648 -3.0932,3.1931 -7.97665,7.82193 -10.51563,15.22266 -2.53897,7.40073 -2.10719,16.81148 2.5254,27.99609 4.63254,11.18465 10.98146,18.14416 18.00976,21.58204 7.0283,3.43787 13.75435,3.25757 18.19922,3.32812 4.44487,0.0706 5.59328,0.46535 5.85156,0.7168 0.25829,0.25144 2.16211,3.27291 2.16211,13.0957 2e-5,9.82273 -1.90409,12.84258 -2.16211,13.09375 -0.25802,0.25117 -1.4067,0.64653 -5.85156,0.7168 -4.44486,0.0703 -11.17077,-0.10934 -18.19922,3.32812 -7.02845,3.43747 -13.37716,10.39573 -18.00976,21.58008 -4.63255,11.18488 -5.06437,20.5953 -2.5254,27.99609 2.53898,7.4008 7.4224,12.03157 10.51563,15.22461 3.09323,3.19305 3.62796,4.28395 3.63281,4.64453 0.005,0.36059 -0.78701,3.84333 -7.73242,10.78907 -6.94538,6.94572 -10.42691,7.73531 -10.78711,7.73047 -0.3602,-0.005 -1.45163,-0.53949 -4.64453,-3.63282 -3.1929,-3.09333 -7.82212,-7.97633 -15.22266,-10.51562 -7.40053,-2.53929 -16.80999,-2.10724 -27.99414,2.52539 h -0.002 c -11.17962,4.63127 -18.13635,10.9785 -21.57617,18.00391 -3.43982,7.0254 -3.26651,13.75015 -3.3418,18.19531 -0.0753,4.44516 -0.47228,5.60021 -0.72851,5.86328 -0.25623,0.26307 -3.27556,2.16406 -13.0918,2.16406 -9.8165,-1.3e-4 -12.83121,-1.90227 -13.08008,-2.1582 -0.24887,-0.25593 -0.64355,-1.40933 -0.71289,-5.85547 -0.0693,-4.44614 0.11111,-11.17221 -3.32617,-18.20117 -3.43729,-7.02897 -10.39596,-13.37848 -21.58008,-18.01172 h -0.002 c -11.18415,-4.63263 -20.59361,-5.06469 -27.99414,-2.52539 -7.40053,2.53929 -12.02977,7.42229 -15.22266,10.51562 -3.19289,3.09333 -4.28433,3.62797 -4.64453,3.63282 -0.36021,0.005 -3.84172,-0.78475 -10.78711,-7.73047 -6.94538,-6.94574 -7.73532,-10.42847 -7.73047,-10.78907 0.005,-0.36059 0.53764,-1.45148 3.63086,-4.64453 3.09322,-3.19304 7.97666,-7.82381 10.51563,-15.22461 2.53896,-7.40079 2.10715,-16.81121 -2.5254,-27.99609 -4.63257,-11.18435 -10.98132,-18.14261 -18.00976,-21.58008 -7.02845,-3.43747 -13.75436,-3.25786 -18.19922,-3.32812 -4.44486,-0.0703 -5.59353,-0.46562 -5.85156,-0.7168 -0.25803,-0.25118 -2.16211,-3.27102 -2.16211,-13.09375 1e-5,-9.8228 1.90382,-12.84426 2.16211,-13.0957 0.25828,-0.25145 1.4067,-0.64625 5.85156,-0.7168 4.44486,-0.0705 11.17093,0.10975 18.19922,-3.32812 7.02829,-3.43788 13.37721,-10.39739 18.00976,-21.58204 4.63259,-11.18461 5.06435,-20.59536 2.5254,-27.99609 -2.53896,-7.40073 -7.42243,-12.02956 -10.51563,-15.22266 -3.0932,-3.19309 -3.626,-4.28571 -3.63086,-4.64648 -0.005,-0.36077 0.78513,-3.84335 7.73047,-10.78906 6.94536,-6.94543 10.42683,-7.73533 10.78711,-7.73047 0.36028,0.005 1.45161,0.53949 4.64453,3.63281 3.19292,3.09333 7.82209,7.97649 15.22266,10.51563 7.40056,2.53914 16.81002,2.10738 27.99414,-2.52539 11.18372,-4.63277 18.14439,-10.98022 21.58203,-18.00782 3.43763,-7.02759 3.25682,-13.75304 3.32617,-18.19726 0.0693,-4.44423 0.46283,-5.59263 0.71094,-5.84766 0.24809,-0.255 3.26496,-2.1579 13.08008,-2.1582 z"
    />

<path
   id="icon-detailcolor" style="fill:var(--icon-detail)"
   d="m 256,171.32422 c -46.66635,0 -84.67578,38.00943 -84.67578,84.67578 0,46.66635 38.00943,84.67578 84.67578,84.67578 46.66635,0 84.67578,-38.00943 84.67578,-84.67578 0,-46.66635 -38.00943,-84.67578 -84.67578,-84.67578 z m 0,16.76172 c 37.60749,0 67.91406,30.30657 67.91406,67.91406 0,37.60749 -30.30657,67.91406 -67.91406,67.91406 -37.60749,0 -67.91406,-30.30657 -67.91406,-67.91406 0,-37.60749 30.30657,-67.91406 67.91406,-67.91406 z"
    /></svg>
