<?xml version="1.0" encoding="UTF-8" standalone="no"?>
<svg
   xmlns:dc="http://purl.org/dc/elements/1.1/"
   xmlns:cc="http://creativecommons.org/ns#"
   xmlns:rdf="http://www.w3.org/1999/02/22-rdf-syntax-ns#"
   xmlns:svg="http://www.w3.org/2000/svg"
   xmlns="http://www.w3.org/2000/svg"
   xml:space="preserve"
   style="enable-background:new 0 0 512 512;"
   viewBox="0 0 512 512"
   y="0px"
   x="0px"
   id="Icon"
   version="1.1"><metadata
   id="metadata55"><rdf:RDF><cc:Work
       rdf:about=""><dc:format>image/svg+xml</dc:format><dc:type
         rdf:resource="http://purl.org/dc/dcmitype/StillImage" /><dc:title></dc:title></cc:Work></rdf:RDF></metadata><defs
   id="defs53">
</defs>

<path
style="fill:var(--icon-main)"
   d="m 295.92355,209.04168 c -11.70949,0 -21.39843,9.68699 -21.39843,21.39648 v 100.33375 l -48.18165,51.71484 c -4.99009,5.35908 -1.19176,14.09077 6.13086,14.09375 h 256.6875 c 7.32262,-0.003 11.12095,-8.73467 6.13086,-14.09375 L 447.11105,330.77191 V 230.43816 c 0,-11.70949 -9.68895,-21.39648 -21.39843,-21.39648 z m 0,16.76171 h 129.78907 c 2.71327,0 4.63476,1.92149 4.63476,4.63477 v 90.16773 H 291.28879 v -90.16773 c 0,-2.71328 1.92148,-4.63477 4.63476,-4.63477 z m -4.63476,111.56422 h 139.05859 l 39.55078,42.45117 H 251.73801 Z"
   id="icon-maincolor" />

<path
style="fill:var(--icon-main)"
   d="m 151.64318,239.80111 c -1.23481,-1.16353 -2.7937,-1.92488 -4.47052,-2.18347 l -44.53666,0.0469 c -2.639228,-0.40631 -5.314148,0.46929 -7.202288,2.3575 l -31.44829,31.44829 c -1.879196,1.87912 -2.755928,4.53802 -2.362994,7.16636 l 0.812068,43.18598 -45.536684,45.53669 c -3.272856,3.27296 -3.272858,8.57937 -5e-6,11.85235 3.272957,3.27286 8.579367,3.27284 11.852331,-10e-6 l 48.525297,-48.52531 c 1.879111,-1.87967 2.755392,-4.53922 2.361641,-7.16774 l -0.810698,-43.18462 27.276172,-27.27617 20.28348,0.49882 -26.470748,26.47074 c -1.9643,1.96514 -2.8271,4.77597 -2.30363,7.50474 l -0.28862,25.16719 c 0.33126,1.72745 1.19758,3.30691 2.47625,4.5147 5.121258,4.52164 12.600788,12.32625 17.285448,17.28546 1.2078,1.27866 2.78725,2.145 4.51472,2.47625 l 25.16719,-0.28865 c 2.72876,0.52347 5.53958,-0.33928 7.50472,-2.3036 l 26.47075,-26.47075 0.49882,20.28347 -27.27616,27.27617 -43.18462,-0.81069 c -2.62857,-0.39374 -5.28809,0.48252 -7.16775,2.36163 l -25.079789,25.07979 c -0.009,0.008 -0.01812,0.0168 -0.02765,0.0248 -3.272858,3.27295 -3.272858,8.57936 0,11.85233 3.272823,3.27404 8.58031,3.27449 11.853704,0.001 l 22.117395,-22.11741 43.18601,0.81206 c 2.62833,0.39296 5.28726,-0.48377 7.16635,-2.36299 l 31.44831,-31.44829 c 1.88822,-1.88821 2.76378,-4.56306 2.3575,-7.20228 l 0.0469,-44.53664 c -0.25861,-1.67679 -1.01996,-3.23568 -2.18347,-4.47052 -3.24147,-3.43845 -8.68305,-3.51911 -12.02495,-0.17817 l -36.91181,36.9118 -18.1486,1.63379 -14.13662,-14.13661 1.63382,-18.14862 36.91177,-36.91178 c 3.34094,-3.34192 3.26029,-8.78349 -0.17815,-12.02496 z"
   id="icon-maincolor" />

<path
style="fill:var(--icon-detail)"
   d="m 306.10155,115.42048 c -69.6232,0 -126.24414,56.61898 -126.24414,126.24219 a 8.3818386,8.3818386 0 1 0 16.76172,0 c 0,-60.56435 48.91808,-109.48047 109.48242,-109.48047 a 8.3818386,8.3818386 0 1 0 0,-16.76172 z m 0,49.79492 c -42.12223,0 -76.44921,34.32503 -76.44922,76.44727 a 8.3818377,8.3818377 0 1 0 16.76172,0 c 0,-33.06338 26.62413,-59.68555 59.6875,-59.68555 a 8.3818377,8.3818377 0 1 0 0,-16.76172 z"
   id="icon-detailcolor" /></svg>
