<?xml version="1.0" encoding="UTF-8" standalone="no"?>
<svg
   xmlns:dc="http://purl.org/dc/elements/1.1/"
   xmlns:cc="http://creativecommons.org/ns#"
   xmlns:rdf="http://www.w3.org/1999/02/22-rdf-syntax-ns#"
   xmlns:svg="http://www.w3.org/2000/svg"
   xmlns="http://www.w3.org/2000/svg"
   xml:space="preserve"
   style="enable-background:new 0 0 512 512;"
   viewBox="0 0 512 512"
   y="0px"
   x="0px"
   id="Icon"
   version="1.1"><metadata
   id="metadata55"><rdf:RDF><cc:Work
       rdf:about=""><dc:format>image/svg+xml</dc:format><dc:type
         rdf:resource="http://purl.org/dc/dcmitype/StillImage" /><dc:title></dc:title></cc:Work></rdf:RDF></metadata>
<defs
   id="defs53">
</defs>

<path
   style="fill:none;fill-opacity:1;stroke:var(--icon-detail);stroke-width:16.76199913;stroke-linecap:butt;stroke-linejoin:miter;stroke-miterlimit:4;stroke-dasharray:none;stroke-opacity:1"
   d="M 89.105455,292.80732 H 418.72061"
   id="icon-detailcolor" /><path
   id="icon-maincolor"
   d="M 112.25977 95.890625 C 94.525821 95.890625 80.287109 110.84427 80.287109 128.73438 L 80.287109 318.55078 C 80.287109 336.44089 94.525821 351.39453 112.25977 351.39453 L 226.77539 351.39453 C 226.73924 351.70956 226.71646 352.02865 226.7168 352.35352 C 226.7168 352.35352 226.4902 375.39191 223.19531 383.96875 C 221.54787 388.25717 219.1937 392.18485 216.22461 394.82031 C 213.25554 397.45578 209.82472 399.1211 204.08594 399.12109 C 199.40724 399.04959 195.57422 402.82271 195.57422 407.50195 C 195.57422 412.18119 199.40722 415.95428 204.08594 415.88281 C 204.59494 415.88281 205.09704 415.86716 205.59766 415.84766 L 315.05078 415.84766 C 315.55141 415.86726 316.0535 415.88281 316.5625 415.88281 C 321.2412 415.95431 325.07422 412.18119 325.07422 407.50195 C 325.07422 402.82271 321.24119 399.04959 316.5625 399.12109 C 310.82371 399.1211 307.39291 397.45578 304.42383 394.82031 C 301.45475 392.18485 299.10056 388.25717 297.45312 383.96875 C 294.15823 375.39191 293.93164 352.35352 293.93164 352.35352 C 293.93191 352.02865 293.9092 351.70956 293.87305 351.39453 L 399.74023 351.39453 C 417.47417 351.39453 431.71289 336.44089 431.71289 318.55078 L 431.71289 128.73438 C 431.71289 110.84427 417.47417 95.890625 399.74023 95.890625 L 112.25977 95.890625 z M 112.25977 112.65234 L 399.74023 112.65234 C 408.14613 112.65234 414.95117 119.52045 414.95117 128.73438 L 414.95117 318.55078 C 414.95117 327.76471 408.14613 334.63281 399.74023 334.63281 L 112.25977 334.63281 C 103.85386 334.63281 97.048828 327.76471 97.048828 318.55078 L 97.048828 128.73438 C 97.048828 119.52045 103.85386 112.65234 112.25977 112.65234 z M 243.50977 351.39453 L 277.0332 351.39453 L 277.0332 382.2168 A 16.763675 16.763675 0 1 1 243.50977 382.2168 L 243.50977 351.39453 z "
   style="color:#000000;font-style:normal;font-variant:normal;font-weight:normal;font-stretch:normal;font-size:medium;line-height:normal;font-family:sans-serif;font-variant-ligatures:normal;font-variant-position:normal;font-variant-caps:normal;font-variant-numeric:normal;font-variant-alternates:normal;font-feature-settings:normal;text-indent:0;text-align:start;text-decoration:none;text-decoration-line:none;text-decoration-style:solid;text-decoration-color:#000000;letter-spacing:normal;word-spacing:normal;text-transform:none;writing-mode:lr-tb;direction:ltr;text-orientation:mixed;dominant-baseline:auto;baseline-shift:baseline;text-anchor:start;white-space:normal;shape-padding:0;clip-rule:nonzero;display:inline;overflow:visible;visibility:visible;opacity:1;isolation:auto;mix-blend-mode:normal;color-interpolation:sRGB;color-interpolation-filters:linearRGB;solid-color:#000000;solid-opacity:1;vector-effect:none;fill:var(--icon-main);fill-opacity:1;fill-rule:nonzero;stroke:none;stroke-width:16.76199913;stroke-linecap:round;stroke-linejoin:miter;stroke-miterlimit:4;stroke-dasharray:none;stroke-dashoffset:0;stroke-opacity:1;color-rendering:auto;image-rendering:auto;shape-rendering:auto;text-rendering:auto;enable-background:accumulate" /></svg>
