<?xml version="1.0" encoding="UTF-8" standalone="no"?>
<svg
   xmlns:dc="http://purl.org/dc/elements/1.1/"
   xmlns:cc="http://creativecommons.org/ns#"
   xmlns:rdf="http://www.w3.org/1999/02/22-rdf-syntax-ns#"
   xmlns:svg="http://www.w3.org/2000/svg"
   xmlns="http://www.w3.org/2000/svg"
   xml:space="preserve"
   viewBox="0 0 512 512"
   y="0px"
   x="0px"
   id="Icon"
   version="1.1"
   width="512"
   height="512"><metadata
   id="metadata55"><rdf:RDF><cc:Work
       rdf:about=""><dc:format>image/svg+xml</dc:format><dc:type
         rdf:resource="http://purl.org/dc/dcmitype/StillImage" /><dc:title></dc:title></cc:Work></rdf:RDF></metadata><defs
   id="defs53">
</defs>




<path
   id="icon-maincolor" style="fill:var(--icon-main)"
   d="M 432.10766,103.0492 381.62767,52.570042 c -4.19904,-4.198198 -9.78124,-6.511028 -15.72036,-6.511028 H 202.76544 c -12.25867,0 -22.23139,9.972715 -22.23139,22.231387 V 117.24531 H 95.61271 c -12.25867,0 -22.23139,9.97272 -22.23139,22.23139 v 211.30147 c 0,10.79825 16.79615,10.78313 16.79615,0 V 139.47586 c 0,-2.99644 2.43796,-5.43524 5.43524,-5.43524 h 159.58024 v 37.54192 c 0,12.25867 9.97356,22.23139 22.23223,22.23139 h 37.2463 V 443.7096 c 0,2.99643 -2.43796,5.43524 -5.43523,5.43524 H 95.61271 c -2.99644,0 -5.43524,-2.43797 -5.43524,-5.43524 v -92.93143 c 0,-10.79825 -16.79615,-10.78313 -16.79615,0 v 92.93143 c 0,12.25867 9.97272,22.23139 22.23139,22.23139 h 213.6227 c 12.25867,0 22.23139,-9.97272 22.23139,-22.23139 v -48.9549 h 84.9205 c 12.25867,0 22.23139,-9.97272 22.23139,-22.23139 V 118.76956 c -8.4e-4,-5.93828 -2.31283,-11.52132 -6.51103,-15.72036 z m -20.97084,2.78396 h -26.56059 c -2.99643,0 -5.43524,-2.43796 -5.43524,-5.43607 V 73.83733 Z m -139.14856,65.75022 v -26.56059 l 31.99499,31.99499 h -26.55891 c -2.99728,0 -5.43608,-2.43796 -5.43608,-5.4344 z M 416.3873,377.95854 H 331.4668 V 189.95585 c 0,-5.93912 -2.31283,-11.52216 -6.51187,-15.72036 l -50.47832,-50.47915 c -4.19904,-4.1982 -9.78124,-6.51103 -15.72036,-6.51103 H 197.33021 V 68.290401 c 0,-2.996434 2.43796,-5.435235 5.43523,-5.435235 h 159.58024 v 37.541924 c 0,12.25867 9.97272,22.23223 22.23139,22.23223 h 37.24631 v 249.89483 c -0.002,2.99643 -2.43964,5.43439 -5.43608,5.43439 z"/>

<path
   id="icon-detailcolor" style="fill:var(--icon-detail)"
   d="m 129.54506,208.4173 c -10.78313,0 -10.79824,16.79492 0,16.79492 h 58.00391 c 10.78313,0 10.79824,-16.79492 0,-16.79492 z m 0,35.17969 c -10.78313,0 -10.79824,16.79687 0,16.79687 h 144.83789 c 10.78313,0 10.79825,-16.79687 0,-16.79687 z m 0,37.37109 c -10.78313,0 -10.79824,16.79492 0,16.79492 h 144.83789 c 10.78313,0 10.79825,-16.79492 0,-16.79492 z m 0,36.27344 c -10.78313,0 -10.79824,16.79687 0,16.79687 h 144.83789 c 10.78313,0 10.79825,-16.79687 0,-16.79687 z m 0,36.27539 c -10.78313,0 -10.79824,16.79687 0,16.79687 h 144.83789 c 10.78313,0 10.79825,-16.79687 0,-16.79687 z"/></svg>
