<?xml version="1.0" encoding="UTF-8" standalone="no"?>
<svg
   xmlns:dc="http://purl.org/dc/elements/1.1/"
   xmlns:cc="http://creativecommons.org/ns#"
   xmlns:rdf="http://www.w3.org/1999/02/22-rdf-syntax-ns#"
   xmlns:svg="http://www.w3.org/2000/svg"
   xmlns="http://www.w3.org/2000/svg"
   xml:space="preserve"
   viewBox="0 0 512 512"
   y="0px"
   x="0px"
   id="Icon"
   version="1.1"
   width="512"
   height="512"><metadata
   id="metadata55"><rdf:RDF><cc:Work
       rdf:about=""><dc:format>image/svg+xml</dc:format><dc:type
         rdf:resource="http://purl.org/dc/dcmitype/StillImage" /><dc:title></dc:title></cc:Work></rdf:RDF></metadata><defs
   id="defs53">
</defs>


<path
   style="fill:none;stroke:var(--icon-main);stroke-width:33.52399826;stroke-linecap:round;"
   id="icon-maincolor"
   d="m 170.19676,250.87683 a 135.60605,142.0835 0 0 1 125.21786,-38.25214 135.60605,142.0835 0 0 1 98.08365,90.08334" />

<path
   id="icon-detailcolor"
   d="M 118.4082 192.30664 A 16.763675 16.763675 0 0 0 101.89844 209.30469 L 101.89844 299.7793 A 16.763675 16.763675 0 0 0 108.83594 316.39062 A 16.763675 16.763675 0 0 0 121.03125 319.41406 L 212.00781 319.41406 A 16.763675 16.763675 0 1 0 212.00781 285.89062 L 135.42383 285.89062 L 135.42383 209.30469 A 16.763675 16.763675 0 0 0 118.4082 192.30664 z "
   style="fill:var(--icon-detail);" />



</svg>
