<?xml version="1.0" encoding="UTF-8" standalone="no"?>
<!-- Generator: Adobe Illustrator 19.0.0, SVG Export Plug-In . SVG Version: 6.00 Build 0)  -->

<svg
   xmlns:dc="http://purl.org/dc/elements/1.1/"
   xmlns:cc="http://creativecommons.org/ns#"
   xmlns:rdf="http://www.w3.org/1999/02/22-rdf-syntax-ns#"
   xmlns:svg="http://www.w3.org/2000/svg"
   xmlns="http://www.w3.org/2000/svg"
   xmlns:xlink="http://www.w3.org/1999/xlink"
   xmlns:sodipodi="http://sodipodi.sourceforge.net/DTD/sodipodi-0.dtd"
   xmlns:inkscape="http://www.inkscape.org/namespaces/inkscape"
   version="1.1"
   id="Layer_1"
   x="0px"
   y="0px"
   viewBox="0 0 512 512"
   style="enable-background:new 0 0 512 512;"
   xml:space="preserve"
   sodipodi:docname="icon_profile_energysaver.svg"
   inkscape:version="0.92.3 (2405546, 2018-03-11)"><metadata
   id="metadata55"><rdf:RDF><cc:Work
       rdf:about=""><dc:format>image/svg+xml</dc:format><dc:type
         rdf:resource="http://purl.org/dc/dcmitype/StillImage" /><dc:title></dc:title></cc:Work></rdf:RDF></metadata><defs
   id="defs53">
	

		
		
	<radialGradient
   inkscape:collect="always"
   xlink:href="#linearGradient916"
   id="radialGradient918"
   cx="103.17969"
   cy="71.987305"
   fx="103.17969"
   fy="71.987305"
   r="23.804689"
   gradientTransform="matrix(1,0,0,0.25931241,0,53.320103)"
   gradientUnits="userSpaceOnUse" /><linearGradient
   inkscape:collect="always"
   id="linearGradient916"><stop
     style="stop-color:#000000;stop-opacity:1"
     offset="0"
     id="stop912" /><stop
     style="stop-color:#000000;stop-opacity:0"
     offset="1"
     id="stop914" /></linearGradient><radialGradient
   inkscape:collect="always"
   xlink:href="#linearGradient916"
   id="radialGradient839"
   gradientUnits="userSpaceOnUse"
   gradientTransform="matrix(0.99763266,0,0,0.25931241,0.24426123,53.320103)"
   cx="103.17969"
   cy="71.987305"
   fx="103.17969"
   fy="71.987305"
   r="23.804689" /><radialGradient
   inkscape:collect="always"
   xlink:href="#linearGradient916"
   id="radialGradient847"
   gradientUnits="userSpaceOnUse"
   gradientTransform="matrix(0.99763266,0,0,0.25931241,0.24426123,53.320103)"
   cx="103.17969"
   cy="71.987305"
   fx="103.17969"
   fy="71.987305"
   r="23.804689" /></defs><sodipodi:namedview
   pagecolor="#ffffff"
   bordercolor="#666666"
   borderopacity="1"
   objecttolerance="10"
   gridtolerance="10"
   guidetolerance="10"
   inkscape:pageopacity="0"
   inkscape:pageshadow="2"
   inkscape:window-width="1920"
   inkscape:window-height="1018"
   id="namedview51"
   showgrid="false"
   inkscape:zoom="1.0606602"
   inkscape:cx="282.17241"
   inkscape:cy="224.38405"
   inkscape:window-x="0"
   inkscape:window-y="0"
   inkscape:window-maximized="1"
   inkscape:current-layer="Layer_1"
   inkscape:snap-smooth-nodes="true"
   inkscape:snap-global="false"
   showguides="true"
   inkscape:guide-bbox="true"><sodipodi:guide
     position="444.20339,407.32204"
     orientation="0,1"
     id="guide850"
     inkscape:locked="false" /><sodipodi:guide
     position="573.83052,105.22034"
     orientation="0,1"
     id="guide852"
     inkscape:locked="false" /></sodipodi:namedview>


















<g
   id="g1139"><g
     transform="matrix(1.5233944,0,0,1.5233944,-78.570726,-116.71335)"
     id="g20"
     style="stroke-width:0.65642881">
</g><g
     transform="matrix(1.5233944,0,0,1.5233944,-78.570726,-116.71335)"
     id="g22"
     style="stroke-width:0.65642881">
</g><g
     transform="matrix(1.5233944,0,0,1.5233944,-78.570726,-116.71335)"
     id="g24"
     style="stroke-width:0.65642881">
</g><g
     transform="matrix(1.5233944,0,0,1.5233944,-78.570726,-116.71335)"
     id="g26"
     style="stroke-width:0.65642881">
</g><g
     transform="matrix(1.5233944,0,0,1.5233944,-78.570726,-116.71335)"
     id="g28"
     style="stroke-width:0.65642881">
</g><g
     transform="matrix(1.5233944,0,0,1.5233944,-78.570726,-116.71335)"
     id="g30"
     style="stroke-width:0.65642881">
</g><g
     transform="matrix(1.5233944,0,0,1.5233944,-78.570726,-116.71335)"
     id="g32"
     style="stroke-width:0.65642881">
</g><g
     transform="matrix(1.5233944,0,0,1.5233944,-78.570726,-116.71335)"
     id="g34"
     style="stroke-width:0.65642881">
</g><g
     transform="matrix(1.5233944,0,0,1.5233944,-78.570726,-116.71335)"
     id="g36"
     style="stroke-width:0.65642881">
</g><g
     transform="matrix(1.5233944,0,0,1.5233944,-78.570726,-116.71335)"
     id="g38"
     style="stroke-width:0.65642881">
</g><g
     transform="matrix(1.5233944,0,0,1.5233944,-78.570726,-116.71335)"
     id="g40"
     style="stroke-width:0.65642881">
</g><g
     transform="matrix(1.5233944,0,0,1.5233944,-78.570726,-116.71335)"
     id="g42"
     style="stroke-width:0.65642881">
</g><g
     transform="matrix(1.5233944,0,0,1.5233944,-78.570726,-116.71335)"
     id="g44"
     style="stroke-width:0.65642881">
</g><g
     transform="matrix(1.5233944,0,0,1.5233944,-78.570726,-116.71335)"
     id="g46"
     style="stroke-width:0.65642881">
</g><g
     transform="matrix(1.5233944,0,0,1.5233944,-78.570726,-116.71335)"
     id="g48"
     style="stroke-width:0.65642881">
</g><g
     transform="matrix(1.5233944,0,0,1.5233944,-1466.0034,-756.78362)"
     id="g842"
     style="stroke-width:0.65642881">
</g><g
     transform="matrix(1.5233944,0,0,1.5233944,-1466.0034,-756.78362)"
     id="g844"
     style="stroke-width:0.65642881">
</g><g
     transform="matrix(1.5233944,0,0,1.5233944,-1466.0034,-756.78362)"
     id="g846"
     style="stroke-width:0.65642881">
</g><g
     transform="matrix(1.5233944,0,0,1.5233944,-1466.0034,-756.78362)"
     id="g848"
     style="stroke-width:0.65642881">
</g><g
     transform="matrix(1.5233944,0,0,1.5233944,-1466.0034,-756.78362)"
     id="g850"
     style="stroke-width:0.65642881">
</g><g
     transform="matrix(1.5233944,0,0,1.5233944,-1466.0034,-756.78362)"
     id="g852"
     style="stroke-width:0.65642881">
</g><g
     transform="matrix(1.5233944,0,0,1.5233944,-1466.0034,-756.78362)"
     id="g854"
     style="stroke-width:0.65642881">
</g><g
     transform="matrix(1.5233944,0,0,1.5233944,-1466.0034,-756.78362)"
     id="g856"
     style="stroke-width:0.65642881">
</g><g
     transform="matrix(1.5233944,0,0,1.5233944,-1466.0034,-756.78362)"
     id="g858"
     style="stroke-width:0.65642881">
</g><g
     transform="matrix(1.5233944,0,0,1.5233944,-1466.0034,-756.78362)"
     id="g860"
     style="stroke-width:0.65642881">
</g><g
     transform="matrix(1.5233944,0,0,1.5233944,-1466.0034,-756.78362)"
     id="g862"
     style="stroke-width:0.65642881">
</g><g
     transform="matrix(1.5233944,0,0,1.5233944,-1466.0034,-756.78362)"
     id="g864"
     style="stroke-width:0.65642881">
</g><g
     transform="matrix(1.5233944,0,0,1.5233944,-1466.0034,-756.78362)"
     id="g866"
     style="stroke-width:0.65642881">
</g><g
     transform="matrix(1.5233944,0,0,1.5233944,-1466.0034,-756.78362)"
     id="g868"
     style="stroke-width:0.65642881">
</g><g
     transform="matrix(1.5233944,0,0,1.5233944,-1466.0034,-756.78362)"
     id="g870"
     style="stroke-width:0.65642881">
</g><path
     transform="matrix(6.8270199,0,0,7.0492832,-353.87844,-38.973067)"
     sodipodi:type="inkscape:offset"
     inkscape:radius="0"
     inkscape:original="M 103.17969 65.814453 A 23.804708 6.1736522 0 0 0 79.375 71.988281 A 23.804708 6.1736522 0 0 0 103.17969 78.160156 A 23.804708 6.1736522 0 0 0 126.98438 71.988281 A 23.804708 6.1736522 0 0 0 103.17969 65.814453 z "
     style="fill:url(#radialGradient847);fill-opacity:1;stroke-width:0.04757744;filter:url(#filter896)"
     id="path849"
     d="m 103.17969,65.814453 a 23.804708,6.1736522 0 0 0 -23.80469,6.173828 23.804708,6.1736522 0 0 0 23.80469,6.171875 23.804708,6.1736522 0 0 0 23.80469,-6.171875 23.804708,6.1736522 0 0 0 -23.80469,-6.173828 z" /><path
     d="m 103.17969,65.814453 a 23.804708,6.1736522 0 0 0 -23.80469,6.173828 23.804708,6.1736522 0 0 0 23.80469,6.171875 23.804708,6.1736522 0 0 0 23.80469,-6.171875 23.804708,6.1736522 0 0 0 -23.80469,-6.173828 z"
     id="path845"
     style="opacity:0.7;fill:url(#radialGradient839);fill-opacity:1;stroke-width:0.04757744;filter:url(#filter896)"
     inkscape:original="M 103.17969 65.814453 A 23.804708 6.1736522 0 0 0 79.375 71.988281 A 23.804708 6.1736522 0 0 0 103.17969 78.160156 A 23.804708 6.1736522 0 0 0 126.98438 71.988281 A 23.804708 6.1736522 0 0 0 103.17969 65.814453 z "
     inkscape:radius="0"
     sodipodi:type="inkscape:offset"
     transform="matrix(6.8270199,0,0,7.0492832,-353.87844,-38.973067)" /><path
     style="fill:#50aa57;fill-opacity:1;stroke:none;stroke-width:0.78938872px;stroke-linecap:butt;stroke-linejoin:miter;stroke-opacity:1;filter:url(#filter896)"
     d="m 222.87478,216.36122 c -87.48842,-56.97416 -145.906165,61.56511 -209.379173,68.42865 -58.711381,4.37569 87.747523,63.50692 152.723293,54.82308 64.97001,-8.68383 117.88914,-73.58752 56.65588,-123.25173 z"
     id="path911"
     inkscape:connector-curvature="0"
     sodipodi:nodetypes="cczc" /><path
     style="fill:none;stroke:#4f9957;stroke-width:4.37085247;stroke-linecap:round;stroke-linejoin:miter;stroke-miterlimit:4;stroke-dasharray:none;stroke-opacity:1;filter:url(#filter896)"
     d="M 24.75769,295.07723 C 132.08143,317.02718 219.03439,201.56836 301.50784,214.752"
     id="path913"
     inkscape:connector-curvature="0"
     sodipodi:nodetypes="cc" /><path
     inkscape:connector-curvature="0"
     id="ellipse856"
     d="m 350.53621,427.54034 a 137.06063,35.546106 0 0 0 -116.32879,16.83175 h -20.58958 v 17.97126 a 137.06063,35.546106 0 0 0 -0.11517,0.7409 137.06063,35.546106 0 0 0 137.06233,35.54684 137.06063,35.546106 0 0 0 137.02777,-35.37128 h 0.11517 V 444.37209 H 466.98018 A 137.06063,35.546106 0 0 0 350.55925,427.54034 Z"
     style="fill:#464646;fill-opacity:1;stroke-width:0.2739372;filter:url(#filter896)" /><ellipse
     ry="35.546104"
     rx="137.06064"
     cy="444.80478"
     cx="350.53076"
     id="ellipse860"
     style="fill:#646464;fill-opacity:1;stroke-width:0.2739372;filter:url(#filter896)" /><rect
     style="fill:#3da921;fill-opacity:1;stroke-width:1.18271291;filter:url(#filter896)"
     id="rect835"
     width="257.45905"
     height="296.0376"
     x="221.80318"
     y="148.47618" /><ellipse
     style="opacity:1;fill:#41b121;fill-opacity:1;stroke-width:0.24696466;filter:url(#filter896)"
     id="ellipse837"
     cx="350.53076"
     cy="148.70531"
     rx="128.4678"
     ry="30.823235" /><ellipse
     ry="30.823235"
     rx="128.85252"
     cy="443.98718"
     cx="350.53076"
     id="ellipse833"
     style="fill:#39a321;fill-opacity:1;stroke-width:0.24733423;filter:url(#filter896)" /><path
     inkscape:connector-curvature="0"
     id="rect831"
     d="M 213.61784,59.170501 V 446.38942 c 3.19552,18.89577 63.26572,33.961 136.91837,33.96094 73.64688,6e-5 133.71708,-15.06517 136.91261,-33.96094 V 59.170501 Z"
     style="opacity:0.32000002;fill:#87f3f5;fill-opacity:1;stroke-width:1.46534228;filter:url(#filter896)" /><path
     inkscape:connector-curvature="0"
     id="path817"
     d="m 350.53621,23.77241 a 137.06063,35.546106 0 0 0 -121.1077,18.9502 h -15.94885 v 16.552015 a 137.06063,35.546106 0 0 0 0,0.04494 137.06063,35.546106 0 0 0 0,0.03001 v 0.127965 0 a 137.06063,35.546106 0 0 0 137.03351,35.377255 137.06063,35.546106 0 0 0 137.05657,-35.534957 137.06063,35.546106 0 0 0 0,-0.122024 V 42.723158 H 471.64391 A 137.06063,35.546106 0 0 0 350.53621,23.772974 Z"
     style="fill:#464646;fill-opacity:1;stroke-width:0.2739372;filter:url(#filter896)" /><path
     transform="matrix(5.7577112,0,0,5.7577112,-243.54355,-370.19689)"
     sodipodi:type="inkscape:offset"
     inkscape:radius="0"
     inkscape:original="M 103.17969 65.814453 A 23.804708 6.1736522 0 0 0 79.375 71.988281 A 23.804708 6.1736522 0 0 0 103.17969 78.160156 A 23.804708 6.1736522 0 0 0 126.98438 71.988281 A 23.804708 6.1736522 0 0 0 103.17969 65.814453 z "
     style="fill:#646464;fill-opacity:1;stroke-width:0.04757744;filter:url(#filter896)"
     id="path867"
     d="m 103.17969,65.814453 a 23.804708,6.1736522 0 0 0 -23.80469,6.173828 23.804708,6.1736522 0 0 0 23.80469,6.171875 23.804708,6.1736522 0 0 0 23.80469,-6.171875 23.804708,6.1736522 0 0 0 -23.80469,-6.173828 z" /><path
     transform="matrix(2.392908,0,0,2.4708127,103.63498,-136.54279)"
     sodipodi:type="inkscape:offset"
     inkscape:radius="0"
     inkscape:original="M 103.17969 65.814453 A 23.804708 6.1736522 0 0 0 79.375 71.988281 A 23.804708 6.1736522 0 0 0 103.17969 78.160156 A 23.804708 6.1736522 0 0 0 126.98438 71.988281 A 23.804708 6.1736522 0 0 0 103.17969 65.814453 z "
     style="fill:url(#radialGradient918);fill-opacity:1;stroke-width:0.04757744;filter:url(#filter896)"
     id="path910"
     d="m 103.17969,65.814453 a 23.804708,6.1736522 0 0 0 -23.80469,6.173828 23.804708,6.1736522 0 0 0 23.80469,6.171875 23.804708,6.1736522 0 0 0 23.80469,-6.171875 23.804708,6.1736522 0 0 0 -23.80469,-6.173828 z" /><path
     sodipodi:nodetypes="ccccccccc"
     inkscape:connector-curvature="0"
     id="path893"
     d="m 302.64356,12.392426 v 26.453251 0.02712 0 c 0.0576,6.847018 21.48203,12.388852 47.88689,12.389477 26.43941,-2.28e-4 47.87536,-5.558485 47.88688,-12.416258 0,-0.04144 0,-0.08333 0,-0.124919 V 12.392822 Z"
     style="fill:#c8c8c8;fill-opacity:1;stroke-width:0.09571631;filter:url(#filter896)" /><path
     d="m 103.17969,65.814453 a 23.804708,6.1736522 0 0 0 -23.80469,6.173828 23.804708,6.1736522 0 0 0 23.80469,6.171875 23.804708,6.1736522 0 0 0 23.80469,-6.171875 23.804708,6.1736522 0 0 0 -23.80469,-6.173828 z"
     id="path891"
     style="fill:#dcdcdc;fill-opacity:1;stroke-width:0.04757744;filter:url(#filter896)"
     inkscape:original="M 103.17969 65.814453 A 23.804708 6.1736522 0 0 0 79.375 71.988281 A 23.804708 6.1736522 0 0 0 103.17969 78.160156 A 23.804708 6.1736522 0 0 0 126.98438 71.988281 A 23.804708 6.1736522 0 0 0 103.17969 65.814453 z "
     inkscape:radius="0"
     sodipodi:type="inkscape:offset"
     transform="matrix(2.0118003,0,0,2.0118003,142.95379,-132.40554)" /><path
     inkscape:connector-curvature="0"
     id="path871"
     d="M 463.56008,79.34952 A 137.06063,35.546106 0 0 1 359.74855,94.735209 V 498.51208 A 137.06063,35.546106 0 0 0 463.56008,483.11451 Z M 245.10676,81.982738 V 485.77747 a 137.06063,35.546106 0 0 0 34.81113,7.73 V 89.73063 a 137.06063,35.546106 0 0 1 -34.81113,-7.747892 z"
     style="opacity:0.15;fill:#ffffff;fill-opacity:1;stroke-width:0.2739372;filter:url(#filter896)" /><path
     inkscape:connector-curvature="0"
     id="path907"
     d="m 251.12933,247.76496 c -14.00851,-0.0346 -26.39336,2.43938 -37.51149,6.81955 v 188.1422 c 21.72959,-5.4522 41.50158,-12.4522 55.95918,-21.05676 71.35533,-42.47487 100.66783,-144.42947 4.60619,-171.78062 -8.14142,-1.4244 -15.81069,-2.10652 -23.05388,-2.12437 z"
     style="opacity:0.13800001;fill:#000000;fill-opacity:1;stroke-width:1.46534228;filter:url(#filter896)" /><path
     sodipodi:nodetypes="cczc"
     inkscape:connector-curvature="0"
     id="path901"
     d="M 270.21613,233.63255 C 142.6195,198.82823 118.10892,364.43606 44.22021,397.31513 c -69.109808,28.0333 130.44095,42.5819 205.4409,6.92491 74.99419,-35.65699 113.65721,-134.44428 20.55502,-170.60749 z"
     style="fill:#50b657;fill-opacity:1;stroke:none;stroke-width:0.99999988px;stroke-linecap:butt;stroke-linejoin:miter;stroke-opacity:1" /><path
     sodipodi:nodetypes="cc"
     inkscape:connector-curvature="0"
     id="path903"
     d="M 61.792744,405.35738 C 199.73599,390.23159 259.85801,217.2782 364.42956,201.21346"
     style="fill:none;stroke:#4fa157;stroke-width:5.53700876;stroke-linecap:round;stroke-linejoin:miter;stroke-miterlimit:4;stroke-dasharray:none;stroke-opacity:1" /></g></svg>