<?xml version="1.0" encoding="UTF-8" standalone="no"?>
<!-- Generator: Adobe Illustrator 19.0.0, SVG Export Plug-In . SVG Version: 6.00 Build 0)  -->

<svg
   xmlns:dc="http://purl.org/dc/elements/1.1/"
   xmlns:cc="http://creativecommons.org/ns#"
   xmlns:rdf="http://www.w3.org/1999/02/22-rdf-syntax-ns#"
   xmlns:svg="http://www.w3.org/2000/svg"
   xmlns="http://www.w3.org/2000/svg"
   xmlns:sodipodi="http://sodipodi.sourceforge.net/DTD/sodipodi-0.dtd"
   xmlns:inkscape="http://www.inkscape.org/namespaces/inkscape"
   version="1.1"
   id="Layer_1"
   x="0px"
   y="0px"
   viewBox="0 0 512 512"
   style="enable-background:new 0 0 512 512;"
   xml:space="preserve"
   sodipodi:docname="icon_language_dark.svg"
   inkscape:version="0.92.3 (2405546, 2018-03-11)"><metadata
   id="metadata55"><rdf:RDF><cc:Work
       rdf:about=""><dc:format>image/svg+xml</dc:format><dc:type
         rdf:resource="http://purl.org/dc/dcmitype/StillImage" /><dc:title /></cc:Work></rdf:RDF></metadata><defs
   id="defs53" /><sodipodi:namedview
   pagecolor="#ffffff"
   bordercolor="#666666"
   borderopacity="1"
   objecttolerance="10"
   gridtolerance="10"
   guidetolerance="10"
   inkscape:pageopacity="0"
   inkscape:pageshadow="2"
   inkscape:window-width="1920"
   inkscape:window-height="1052"
   id="namedview51"
   showgrid="false"
   inkscape:zoom="1.3037281"
   inkscape:cx="330.71394"
   inkscape:cy="285.00412"
   inkscape:window-x="1920"
   inkscape:window-y="0"
   inkscape:window-maximized="1"
   inkscape:current-layer="Layer_1"
   inkscape:snap-smooth-nodes="true"
   inkscape:snap-global="false" />



<g
   id="g20">
</g>
<g
   id="g22">
</g>
<g
   id="g24">
</g>
<g
   id="g26">
</g>
<g
   id="g28">
</g>
<g
   id="g30">
</g>
<g
   id="g32">
</g>
<g
   id="g34">
</g>
<g
   id="g36">
</g>
<g
   id="g38">
</g>
<g
   id="g40">
</g>
<g
   id="g42">
</g>
<g
   id="g44">
</g>
<g
   id="g46">
</g>
<g
   id="g48">
</g>
<g
   id="g832"><path
     id="path2022"
     d="m 367.72789,229.77935 h -85.50941 v -36.52116 l 27.78963,-19.84912 c 2.19266,-1.56681 3.49435,-4.09412 3.49435,-6.78877 0,-2.69682 -1.30169,-5.22414 -3.49435,-6.79095 l -28.12429,-20.08816 c -2.19701,-14.78144 -14.97268,-26.15763 -30.3539,-26.15763 H 144.27429 c -16.92413,0 -30.69073,13.7666 -30.69073,30.69073 V 251.5321 c 0,16.92195 13.7666,30.68855 30.69073,30.68855 h 85.50723 v 36.52116 l -27.78964,19.84912 c -2.19266,1.5668 -3.49434,4.0963 -3.49434,6.79094 0,2.69465 1.30168,5.22414 3.49434,6.78877 l 28.1243,20.08816 c 2.197,14.78144 14.97267,26.15764 30.35389,26.15764 h 107.25782 c 16.92194,0 30.68855,-13.76878 30.68855,-30.69073 V 260.47007 c 0,-16.92412 -13.76661,-30.69072 -30.68855,-30.69072 z m -223.4536,35.75187 c -7.72104,0 -14.0013,-6.28026 -14.0013,-14.0013 V 144.27211 c 0,-7.71886 6.28026,-13.99912 14.0013,-13.99912 h 107.25563 c 7.71886,0 13.99913,6.28026 13.99913,13.99912 0,2.69682 1.30169,5.22631 3.49435,6.79095 l 21.77666,15.55506 -21.77666,15.55507 c -2.19266,1.56681 -3.49435,4.0963 -3.49435,6.79095 v 40.81521 h -5.05898 c -16.92195,0 -30.68855,13.7666 -30.68855,30.68855 v 5.06332 z m 237.45272,102.19449 c 0,7.72103 -6.28027,14.0013 -13.99912,14.0013 H 260.47007 c -7.71886,0 -13.99913,-6.28027 -13.99913,-14.0013 0,-2.69465 -1.30168,-5.22414 -3.49435,-6.78877 l -21.77666,-15.55507 21.77666,-15.55507 c 2.19267,-1.5668 3.49435,-4.09629 3.49435,-6.79094 v -62.56579 c 0,-7.72103 6.28027,-14.0013 13.99913,-14.0013 h 13.38196 0.0217 0.0218 93.83238 c 7.71886,0 13.99913,6.28027 13.99913,14.0013 z m 0,0"
     inkscape:connector-curvature="0"
     style="fill:#1e1e1e;fill-opacity:1;stroke-width:1.33333349" /><path
     style="fill:#e30016;fill-opacity:1;stroke-width:1.33333349"
     inkscape:connector-curvature="0"
     d="m 321.5625,285.09349 c -0.80405,-2.68161 -4.11151,-3.93548 -7.50807,-3.93548 -3.30746,0 -6.61493,1.25387 -7.41897,3.93548 l -17.25226,56.2225 c -0.0891,0.35857 -0.1782,0.71496 -0.1782,0.89315 0,2.86198 4.20061,4.82646 7.32988,4.82646 1.96666,0 3.48565,-0.62368 3.93331,-2.32305 l 3.39439,-11.88904 h 20.47062 l 3.39874,11.88904 c 0.44548,1.69937 1.96448,2.32305 3.93114,2.32305 3.12926,0 7.32987,-2.05358 7.32987,-4.82646 0,-0.26729 -0.0891,-0.53675 -0.17819,-0.89315 z m -15.28561,38.61168 7.77536,-27.43976 7.77971,27.43976 z m 0,0"
     id="path2058" /><path
     style="fill:#1e1e1e;fill-opacity:1;stroke-width:1.33333349"
     inkscape:connector-curvature="0"
     d="m 223.54037,190.50921 c 2.59685,0 4.70476,-2.10791 4.70476,-4.70694 0,-2.59903 -2.10791,-4.70694 -4.70476,-4.70694 h -20.9335 v -11.42617 c 0,-2.59903 -2.10791,-4.70694 -4.70694,-4.70694 -2.59686,0 -4.70476,2.10791 -4.70476,4.70694 v 11.42617 h -20.9335 c -2.59686,0 -4.70477,2.10791 -4.70477,4.70694 0,2.59903 2.10791,4.70694 4.70477,4.70694 h 6.48671 c 1.03657,9.9376 5.32193,18.91903 11.76735,25.87513 -5.34366,3.19881 -11.58481,5.04594 -18.25406,5.04594 -2.59686,0 -4.70477,2.10574 -4.70477,4.70477 0,2.59903 2.10791,4.70694 4.70477,4.70694 9.52254,0 18.3562,-2.97715 25.63826,-8.04048 7.28424,5.06333 16.1179,8.04048 25.64044,8.04048 2.59685,0 4.70476,-2.10791 4.70476,-4.70694 0,-2.59903 -2.10791,-4.70477 -4.70476,-4.70477 -6.66926,0 -12.91041,-1.84279 -18.25406,-5.04594 6.44542,-6.9561 10.73078,-15.93753 11.76735,-25.87513 z m -25.64044,19.99472 c -5.14808,-5.34366 -8.6446,-12.28238 -9.66813,-19.99472 h 19.33844 c -1.02353,7.71234 -4.52006,14.65106 -9.67031,19.99472 z m 0,0"
     id="path2062" /></g></svg>