<?xml version="1.0" encoding="UTF-8" standalone="no"?>
<!-- Generator: Adobe Illustrator 19.0.0, SVG Export Plug-In . SVG Version: 6.00 Build 0)  -->

<svg
   xmlns:dc="http://purl.org/dc/elements/1.1/"
   xmlns:cc="http://creativecommons.org/ns#"
   xmlns:rdf="http://www.w3.org/1999/02/22-rdf-syntax-ns#"
   xmlns:svg="http://www.w3.org/2000/svg"
   xmlns="http://www.w3.org/2000/svg"
   xmlns:sodipodi="http://sodipodi.sourceforge.net/DTD/sodipodi-0.dtd"
   xmlns:inkscape="http://www.inkscape.org/namespaces/inkscape"
   version="1.1"
   id="Layer_1"
   x="0px"
   y="0px"
   viewBox="0 0 512 512"
   style="enable-background:new 0 0 512 512;"
   xml:space="preserve"
   sodipodi:docname="icon_help_dark_red.svg"
   inkscape:version="0.92.3 (2405546, 2018-03-11)"><metadata
   id="metadata55"><rdf:RDF><cc:Work
       rdf:about=""><dc:format>image/svg+xml</dc:format><dc:type
         rdf:resource="http://purl.org/dc/dcmitype/StillImage" /><dc:title /></cc:Work></rdf:RDF></metadata><defs
   id="defs53" /><sodipodi:namedview
   pagecolor="#ffffff"
   bordercolor="#666666"
   borderopacity="1"
   objecttolerance="10"
   gridtolerance="10"
   guidetolerance="10"
   inkscape:pageopacity="0"
   inkscape:pageshadow="2"
   inkscape:window-width="1920"
   inkscape:window-height="1018"
   id="namedview51"
   showgrid="false"
   inkscape:zoom="1.84375"
   inkscape:cx="248.05985"
   inkscape:cy="240.1657"
   inkscape:window-x="0"
   inkscape:window-y="0"
   inkscape:window-maximized="1"
   inkscape:current-layer="Layer_1"
   inkscape:snap-smooth-nodes="true"
   inkscape:snap-global="false"
   inkscape:measure-start="398.473,197.127"
   inkscape:measure-end="0,0" />



<g
   id="g20">
</g>
<g
   id="g22">
</g>
<g
   id="g24">
</g>
<g
   id="g26">
</g>
<g
   id="g28">
</g>
<g
   id="g30">
</g>
<g
   id="g32">
</g>
<g
   id="g34">
</g>
<g
   id="g36">
</g>
<g
   id="g38">
</g>
<g
   id="g40">
</g>
<g
   id="g42">
</g>
<g
   id="g44">
</g>
<g
   id="g46">
</g>
<g
   id="g48">
</g>
<g
   id="g842"><path
     sodipodi:nodetypes="ccsccsccsccsccccsccsccsccscccsccsccccsccscccsccsccsccscc"
     inkscape:connector-curvature="0"
     id="circle909"
     d="m 232.23438,115.72852 c -59.76971,10.07486 -106.98227,57.47851 -116.77149,117.34375 0.73964,-0.12559 1.48963,-0.19336 2.24805,-0.19336 h 14.78515 c 9.43913,-50.57847 49.08428,-90.40057 99.56836,-100.10352 v -15.06445 c 0,-0.65318 0.0601,-1.31811 0.16993,-1.98242 z m 47.53124,0 c 0.10986,0.66431 0.16993,1.32924 0.16993,1.98242 v 15.06445 c 50.30297,9.66814 89.84189,49.24064 99.46289,99.56055 h 14.89062 c 0.72677,0 1.44727,0.0605 2.15625,0.17773 C 386.45452,172.9123 339.34929,125.77202 279.76562,115.72852 Z m -47.70117,51.61523 c -31.72223,8.565 -56.71926,33.71977 -65.05273,65.53516 h 9.3789 c 2.60159,0 5.12076,0.71625 7.35352,2.33984 7.08528,-24.61806 26.35111,-43.9857 50.91016,-51.20703 -1.6919,-2.22401 -2.58985,-5.01067 -2.58985,-7.6211 z m 47.8711,0 v 9.04687 c 0,2.61043 -0.89795,5.39709 -2.58985,7.6211 24.41824,7.17993 43.60563,26.36628 50.78907,50.7832 2.23094,-1.68327 4.80978,-2.45898 7.47461,-2.45898 h 9.23046 c -8.47482,-31.55774 -33.36325,-56.47611 -64.90429,-64.99219 z m -96.26367,109.48633 c -2.21512,1.5872 -4.70727,2.29101 -7.28126,2.29101 h -9.46093 c 8.25299,31.95956 33.31096,57.24583 65.13476,65.83789 v -9.3496 c 0,-2.51299 0.83151,-5.19018 2.40235,-7.3711 -24.55493,-7.28923 -43.78759,-26.73153 -50.79492,-51.4082 z m 144.53515,0.42773 c -7.10722,24.47383 -26.26075,43.73335 -50.67383,50.98047 1.57084,2.18092 2.40235,4.85811 2.40235,7.3711 v 9.3496 c 31.64277,-8.54318 56.59248,-33.5929 64.98828,-65.29492 h -9.31445 c -2.6362,0 -5.18794,-0.76049 -7.40235,-2.40625 z m -212.79687,1.66016 c 9.67798,60.03342 56.98059,107.59659 116.88281,117.66797 -0.14708,-0.76895 -0.22852,-1.54036 -0.22852,-2.29688 V 379.5293 c -50.58556,-9.72246 -90.28866,-49.68485 -99.625,-100.40821 h -14.72851 c -0.77647,0 -1.54413,-0.0714 -2.30078,-0.20312 z m 281.08789,0.55664 c -0.72618,0.12328 -1.46397,0.18945 -2.20899,0.18945 h -14.83203 c -9.51923,50.46495 -49.11691,90.17757 -99.52148,99.86524 v 14.75976 c 0,0.75652 -0.0814,1.52793 -0.22852,2.29688 59.71679,-10.0402 106.91098,-57.3409 116.79102,-117.11133 z"
     style="color:#000000;font-style:normal;font-variant:normal;font-weight:normal;font-stretch:normal;font-size:medium;line-height:normal;font-family:sans-serif;font-variant-ligatures:normal;font-variant-position:normal;font-variant-caps:normal;font-variant-numeric:normal;font-variant-alternates:normal;font-feature-settings:normal;text-indent:0;text-align:start;text-decoration:none;text-decoration-line:none;text-decoration-style:solid;text-decoration-color:#000000;letter-spacing:normal;word-spacing:normal;text-transform:none;writing-mode:lr-tb;direction:ltr;text-orientation:mixed;dominant-baseline:auto;baseline-shift:baseline;text-anchor:start;white-space:normal;shape-padding:0;clip-rule:nonzero;display:inline;overflow:visible;visibility:visible;opacity:1;isolation:auto;mix-blend-mode:normal;color-interpolation:sRGB;color-interpolation-filters:linearRGB;solid-color:#000000;solid-opacity:1;vector-effect:none;fill:#1e1e1e;fill-opacity:1;fill-rule:nonzero;stroke:none;stroke-width:16.76199913;stroke-linecap:butt;stroke-linejoin:miter;stroke-miterlimit:4;stroke-dasharray:none;stroke-dashoffset:0;stroke-opacity:1;color-rendering:auto;image-rendering:auto;shape-rendering:auto;text-rendering:auto;enable-background:accumulate" /><rect
     style="opacity:1;fill:none;fill-opacity:1;stroke:#1e1e1e;stroke-width:16.76199913;stroke-linecap:round;stroke-miterlimit:4;stroke-dasharray:none;stroke-opacity:1"
     id="rect837"
     width="35.990288"
     height="65.717598"
     x="238.00485"
     y="114.19205"
     ry="3.5193682"
     rx="3.2482493" /><rect
     rx="3.2482493"
     ry="3.5193682"
     y="114.19205"
     x="-273.99515"
     height="65.717598"
     width="35.990288"
     id="rect839"
     style="opacity:1;fill:none;fill-opacity:1;stroke:#1e1e1e;stroke-width:16.76199913;stroke-linecap:round;stroke-miterlimit:4;stroke-dasharray:none;stroke-opacity:1"
     transform="rotate(-90)" /><rect
     style="opacity:1;fill:none;fill-opacity:1;stroke:#e30016;stroke-width:16.76199913;stroke-linecap:round;stroke-miterlimit:4;stroke-dasharray:none;stroke-opacity:1"
     id="rect841"
     width="35.990288"
     height="65.717598"
     x="-273.99515"
     y="332.09033"
     ry="3.5193682"
     rx="3.2482493"
     transform="rotate(-90)" /><rect
     rx="3.2482493"
     ry="3.5193682"
     y="332.09036"
     x="238.00485"
     height="65.717598"
     width="35.990288"
     id="rect843"
     style="opacity:1;fill:none;fill-opacity:1;stroke:#1e1e1e;stroke-width:16.76199913;stroke-linecap:round;stroke-miterlimit:4;stroke-dasharray:none;stroke-opacity:1" /></g></svg>