<?xml version="1.0" encoding="UTF-8" standalone="no"?>
<svg
   xmlns:dc="http://purl.org/dc/elements/1.1/"
   xmlns:cc="http://creativecommons.org/ns#"
   xmlns:rdf="http://www.w3.org/1999/02/22-rdf-syntax-ns#"
   xmlns:svg="http://www.w3.org/2000/svg"
   xmlns="http://www.w3.org/2000/svg"
   xml:space="preserve"
   style="enable-background:new 0 0 512 512;"
   viewBox="0 0 512 512"
   y="0px"
   x="0px"
   id="Icon"
   version="1.1"><metadata
   id="metadata55"><rdf:RDF><cc:Work
       rdf:about=""><dc:format>image/svg+xml</dc:format><dc:type
         rdf:resource="http://purl.org/dc/dcmitype/StillImage" /><dc:title></dc:title></cc:Work></rdf:RDF></metadata><defs
   id="defs53">
</defs>

<path
   id="icon-maincolor"
   d="m 271.16387,113.52734 c -4.61032,0 -8.34765,3.73734 -8.34765,8.34766 v 2.7832 h -4.84961 c -11.45512,0 -21.98068,5.24568 -28.87891,14.39063 -6.89878,9.1455 -9.05149,20.70831 -5.90429,31.72265 l 22.1582,77.54688 c 4.0549,14.19159 12.42606,26.39092 24.20898,35.2793 2.52554,1.90502 5.15997,3.60425 7.87696,5.11914 l 24.3457,57.46679 v 6.02539 c 0,16.30362 -13.26278,29.56836 -29.56641,29.56836 -16.30363,0 -29.56836,-13.26474 -29.56836,-29.56836 v -57.25195 c 0,-26.39078 -21.47053,-47.86133 -47.86133,-47.86133 -26.39079,0 -47.86132,21.47055 -47.86132,47.86133 v 19.7168 c 2.73884,-0.57228 5.52822,-0.86803 8.32617,-0.88281 2.81119,9.7e-4 5.61511,0.28561 8.36914,0.8496 v -19.68359 c 0,-17.18462 13.9814,-31.16601 31.16601,-31.16601 17.18462,0 31.16602,13.98139 31.16602,31.16601 v 57.25195 c 0,25.50979 20.75387,46.26368 46.26367,46.26368 25.50979,0 46.26367,-20.75389 46.26367,-46.26368 v -6.02539 l 24.34766,-57.46679 c 2.71699,-1.51489 5.35001,-3.21412 7.875,-5.11914 11.78292,-8.88782 20.15409,-21.08771 24.20898,-35.2793 l 22.15821,-77.54688 c 3.1472,-11.01378 0.99392,-22.57771 -5.9043,-31.72265 -6.89822,-9.14551 -17.42324,-14.39063 -28.87891,-14.39063 h -4.8496 v -2.78125 c 0,-4.61031 -3.73929,-8.34765 -8.34961,-8.34765 -4.61031,0 -8.34766,3.73734 -8.34766,8.34765 v 22.26172 c 0,4.61031 3.73735,8.34766 8.34766,8.34766 4.61032,0 8.34961,-3.73735 8.34961,-8.34766 v -2.7832 h 4.8496 c 6.16806,0 11.83453,2.82385 15.54883,7.74805 3.7143,4.9242 4.87433,11.15106 3.17969,17.08203 l -22.15625,77.54687 c -6.18308,21.64078 -26.22178,36.75586 -48.72851,36.75586 -22.50676,0 -42.54349,-15.11564 -48.72657,-36.75586 l -22.15625,-77.54883 c -1.69464,-5.93097 -0.53656,-12.15587 3.17774,-17.08007 3.7143,-4.92476 9.38273,-7.74805 15.55078,-7.74805 h 4.84961 v 2.78125 c 0,4.61032 3.73733,8.34766 8.34765,8.34766 4.61032,0 8.34766,-3.73734 8.34766,-8.34766 V 121.875 c 0,-4.61032 -3.73734,-8.34766 -8.34766,-8.34766 z m 27.57618,182.69727 c 3.7271,0.63167 7.52938,0.95898 11.38281,0.95898 3.85343,0 7.65376,-0.32731 11.38086,-0.95898 l -11.38086,26.86523 z"
   style="fill:var(--icon-main);fill-opacity:1;stroke-width:0.99997264" /><path
   id="icon-detailcolor"
   d="m 155.242,313.79102 a 41.787384,41.787384 0 0 0 -8.32617,0.88281 v 0.0449 c -19.02897,3.87792 -33.39258,20.74277 -33.39258,40.90039 0,12.22694 5.28433,23.24383 13.68945,30.88477 0.87132,0.7921 1.78278,1.54066 2.71875,2.25781 a 41.787384,41.787384 0 0 0 0.57617,0.4375 c 0.76169,0.56305 1.54578,1.09614 2.34571,1.60742 a 41.787384,41.787384 0 0 0 1.38672,0.84961 c 0.60196,0.35255 1.21337,0.68895 1.83398,1.01172 a 41.787384,41.787384 0 0 0 2.22852,1.07617 c 0.40064,0.17895 0.80377,0.35298 1.21093,0.51953 a 41.787384,41.787384 0 0 0 3.07813,1.12305 c 0.20647,0.0659 0.41325,0.13056 0.62109,0.19336 a 41.787384,41.787384 0 0 0 3.60547,0.91992 c 0.0144,0.003 0.0285,0.007 0.043,0.01 0.11286,0.0231 0.2286,0.0383 0.3418,0.0605 a 41.787384,41.787384 0 0 0 3.66015,0.55469 c 0.17439,0.0184 0.35037,0.0307 0.52539,0.0469 a 41.787384,41.787384 0 0 0 3.59375,0.17968 c 0.0942,6.3e-4 0.18692,0.008 0.28125,0.008 0.16836,0 0.33407,-0.0117 0.50196,-0.0137 a 41.787384,41.787384 0 0 0 2.05078,-0.0723 c 0.2458,-0.0149 0.48972,-0.0375 0.73437,-0.0566 a 41.787384,41.787384 0 0 0 3.58594,-0.4336 c 0.15807,-0.0263 0.31518,-0.0559 0.47266,-0.084 a 41.787384,41.787384 0 0 0 3.66601,-0.82422 c 0.10991,-0.0301 0.21858,-0.0628 0.32813,-0.0937 a 41.787384,41.787384 0 0 0 3.57617,-1.1875 c 0.149,-0.0572 0.29713,-0.1169 0.44531,-0.17578 a 41.787384,41.787384 0 0 0 3.27149,-1.46485 c 0.20745,-0.10396 0.41366,-0.2091 0.61914,-0.3164 a 41.787384,41.787384 0 0 0 2.88476,-1.65625 c 0.27458,-0.17252 0.54812,-0.34671 0.81836,-0.52539 a 41.787384,41.787384 0 0 0 2.46094,-1.75977 c 0.32068,-0.247 0.64185,-0.49399 0.95508,-0.75 a 41.787384,41.787384 0 0 0 2.11133,-1.85351 c 0.34031,-0.3183 0.68023,-0.63742 1.00976,-0.9668 a 41.787384,41.787384 0 0 0 0.008,-0.006 41.787384,41.787384 0 0 0 1.86914,-2.00781 c 0.31764,-0.36197 0.63429,-0.72481 0.93946,-1.09766 a 41.787384,41.787384 0 0 0 1.6582,-2.18164 c 0.28652,-0.40076 0.56927,-0.80374 0.8418,-1.21484 a 41.787384,41.787384 0 0 0 1.50976,-2.46289 c 0.18701,-0.32943 0.37255,-0.65924 0.55078,-0.99414 a 41.787384,41.787384 0 0 0 1.39258,-2.88282 c 0.12503,-0.28605 0.24649,-0.57394 0.36524,-0.86328 a 41.787384,41.787384 0 0 0 1.1582,-3.17578 c 0.08,-0.25177 0.15315,-0.50596 0.22851,-0.75976 a 41.787384,41.787384 0 0 0 0.81446,-3.1836 c 0.0743,-0.34981 0.13772,-0.70368 0.20312,-1.05664 a 41.787384,41.787384 0 0 0 0.41016,-2.71875 c 0.0669,-0.56945 0.12038,-1.1426 0.16406,-1.71875 a 41.787384,41.787384 0 0 0 0.10938,-2.1543 c 0.008,-0.34257 0.0254,-0.6828 0.0254,-1.02734 0,-1.24726 -0.0564,-2.48142 -0.16407,-3.70117 a 41.787384,41.787384 0 0 0 -0.29687,-2.44922 c -0.10341,-0.69683 -0.22575,-1.38701 -0.36328,-2.07227 a 41.787384,41.787384 0 0 0 -0.41211,-1.83593 c -0.18909,-0.76105 -0.39467,-1.51574 -0.625,-2.25977 a 41.787384,41.787384 0 0 0 -0.54297,-1.63086 c -0.44715,-1.25704 -0.94667,-2.48888 -1.50781,-3.6875 -5.52074,-11.7925 -16.39805,-20.59722 -29.48047,-23.26367 v -0.0781 a 41.787384,41.787384 0 0 0 -8.36914,-0.8496 z m 0.0215,16.78515 c 13.80925,0 25.04297,11.23372 25.04297,25.04297 0,13.80925 -11.23372,25.04492 -25.04297,25.04492 -13.80925,0 -25.04492,-11.23567 -25.04492,-25.04492 0,-13.80925 11.23567,-25.04297 25.04492,-25.04297 z m 0,16.69531 a 8.3479919,8.3479919 0 0 0 -8.34765,8.34766 8.3479919,8.3479919 0 0 0 8.34765,8.34766 8.3479919,8.3479919 0 0 0 8.34766,-8.34766 8.3479919,8.3479919 0 0 0 -8.34766,-8.34766 z"
   style="fill:var(--icon-detail);fill-opacity:1;stroke-width:0.99997264" /></svg>
