<?xml version="1.0" encoding="UTF-8" standalone="no"?>
<svg
   xmlns:dc="http://purl.org/dc/elements/1.1/"
   xmlns:cc="http://creativecommons.org/ns#"
   xmlns:rdf="http://www.w3.org/1999/02/22-rdf-syntax-ns#"
   xmlns:svg="http://www.w3.org/2000/svg"
   xmlns="http://www.w3.org/2000/svg"
   xml:space="preserve"
   style="enable-background:new 0 0 512 512;"
   viewBox="0 0 512 512"
   y="0px"
   x="0px"
   id="Icon"
   version="1.1"><metadata
   id="metadata55"><rdf:RDF><cc:Work
       rdf:about=""><dc:format>image/svg+xml</dc:format><dc:type
         rdf:resource="http://purl.org/dc/dcmitype/StillImage" /><dc:title></dc:title></cc:Work></rdf:RDF></metadata><defs
   id="defs53">
	
</defs>


<path
   style="fill:var(--icon-main);" id="icon-maincolor"
   d="M 76.054688 264.375 C 63.106899 264.375 52.421875 275.06002 52.421875 288.00781 L 52.421875 365.29492 C 52.421875 378.24271 63.106899 388.92773 76.054688 388.92773 L 153.3418 388.92773 C 166.28958 388.92773 176.97461 378.24271 176.97461 365.29492 L 176.97461 288.00781 C 176.97461 275.06002 166.28958 264.375 153.3418 264.375 L 76.054688 264.375 z M 217.35742 264.375 C 204.40963 264.375 193.72461 275.06002 193.72461 288.00781 L 193.72461 365.29492 C 193.72461 378.24271 204.40963 388.92773 217.35742 388.92773 L 294.64258 388.92773 C 307.59037 388.92773 318.27539 378.24271 318.27539 365.29492 L 318.27539 288.00781 C 318.27539 275.06002 307.59037 264.375 294.64258 264.375 L 217.35742 264.375 z M 358.6582 264.375 C 345.71042 264.375 335.02539 275.06002 335.02539 288.00781 L 335.02539 365.29492 C 335.02539 378.24271 345.71042 388.92773 358.6582 388.92773 L 435.94531 388.92773 C 448.8931 388.92773 459.57813 378.24271 459.57812 365.29492 L 459.57812 288.00781 C 459.57812 275.06002 448.8931 264.375 435.94531 264.375 L 358.6582 264.375 z M 76.054688 281.125 L 153.3418 281.125 C 157.29981 281.125 160.22461 284.0498 160.22461 288.00781 L 160.22461 365.29492 C 160.22461 369.25294 157.29981 372.17773 153.3418 372.17773 L 76.054688 372.17773 C 72.096671 372.17773 69.171875 369.25294 69.171875 365.29492 L 69.171875 288.00781 C 69.171875 284.0498 72.096671 281.125 76.054688 281.125 z M 217.35742 281.125 L 294.64258 281.125 C 298.60059 281.125 301.52539 284.0498 301.52539 288.00781 L 301.52539 365.29492 C 301.52539 369.25294 298.60059 372.17773 294.64258 372.17773 L 217.35742 372.17773 C 213.39941 372.17773 210.47461 369.25294 210.47461 365.29492 L 210.47461 288.00781 C 210.47461 284.0498 213.39941 281.125 217.35742 281.125 z M 358.6582 281.125 L 435.94531 281.125 C 439.90333 281.125 442.82812 284.0498 442.82812 288.00781 L 442.82812 365.29492 C 442.82812 369.25294 439.90333 372.17773 435.94531 372.17773 L 358.6582 372.17773 C 354.70019 372.17773 351.77539 369.25294 351.77539 365.29492 L 351.77539 288.00781 C 351.77539 284.0498 354.70019 281.125 358.6582 281.125 z " /><path
    id="icon-detailcolor" style="fill:var(--icon-detail);"
   d="m 217.35742,123.07227 c -12.94779,0 -23.63281,10.68502 -23.63281,23.63281 v 77.28711 c 0,12.94779 10.68502,23.63281 23.63281,23.63281 h 77.28516 c 12.94779,0 23.63281,-10.68502 23.63281,-23.63281 v -77.28711 c 0,-12.94779 -10.68502,-23.63281 -23.63281,-23.63281 z m 0,16.75 h 77.28516 c 3.95801,0 6.88281,2.92479 6.88281,6.88281 v 77.28711 c 0,3.95801 -2.9248,6.88281 -6.88281,6.88281 h -77.28516 c -3.95801,0 -6.88281,-2.9248 -6.88281,-6.88281 v -77.28711 c 0,-3.95802 2.9248,-6.88281 6.88281,-6.88281 z"
 /></svg>
