<?xml version="1.0" encoding="UTF-8" standalone="no"?>
<!-- Generator: Adobe Illustrator 19.0.0, SVG Export Plug-In . SVG Version: 6.00 Build 0)  -->

<svg
   xmlns:dc="http://purl.org/dc/elements/1.1/"
   xmlns:cc="http://creativecommons.org/ns#"
   xmlns:rdf="http://www.w3.org/1999/02/22-rdf-syntax-ns#"
   xmlns:svg="http://www.w3.org/2000/svg"
   xmlns="http://www.w3.org/2000/svg"
   xmlns:sodipodi="http://sodipodi.sourceforge.net/DTD/sodipodi-0.dtd"
   xmlns:inkscape="http://www.inkscape.org/namespaces/inkscape"
   version="1.1"
   id="Layer_1"
   x="0px"
   y="0px"
   viewBox="0 0 512 512"
   style="enable-background:new 0 0 512 512;"
   xml:space="preserve"
   sodipodi:docname="icon_battery_bright_red.svg"
   inkscape:version="0.92.3 (2405546, 2018-03-11)"><metadata
   id="metadata55"><rdf:RDF><cc:Work
       rdf:about=""><dc:format>image/svg+xml</dc:format><dc:type
         rdf:resource="http://purl.org/dc/dcmitype/StillImage" /><dc:title></dc:title></cc:Work></rdf:RDF></metadata><defs
   id="defs53" /><sodipodi:namedview
   pagecolor="#ffffff"
   bordercolor="#666666"
   borderopacity="1"
   objecttolerance="10"
   gridtolerance="10"
   guidetolerance="10"
   inkscape:pageopacity="0"
   inkscape:pageshadow="2"
   inkscape:window-width="1920"
   inkscape:window-height="1018"
   id="namedview51"
   showgrid="false"
   inkscape:zoom="1.3"
   inkscape:cx="240.44727"
   inkscape:cy="269.8384"
   inkscape:window-x="1920"
   inkscape:window-y="0"
   inkscape:window-maximized="1"
   inkscape:current-layer="Layer_1"
   inkscape:snap-smooth-nodes="true"
   inkscape:snap-global="false"
   showguides="true"
   inkscape:guide-bbox="true"><sodipodi:guide
     position="558.64408,635.66103"
     orientation="0,1"
     id="guide850"
     inkscape:locked="false" /></sodipodi:namedview>



<g
   id="g20">
</g>
<g
   id="g22">
</g>
<g
   id="g24">
</g>
<g
   id="g26">
</g>
<g
   id="g28">
</g>
<g
   id="g30">
</g>
<g
   id="g32">
</g>
<g
   id="g34">
</g>
<g
   id="g36">
</g>
<g
   id="g38">
</g>
<g
   id="g40">
</g>
<g
   id="g42">
</g>
<g
   id="g44">
</g>
<g
   id="g46">
</g>
<g
   id="g48">
</g>
<g
   id="g873"><path
     sodipodi:nodetypes="sscsssssssscssssssssssss"
     inkscape:connector-curvature="0"
     id="path2-9"
     d="m 227.76172,111.34823 c -7.89426,0 -14.25,6.35574 -14.25,14.25 v 8.02505 h -8.4668 c -13.79409,0 -25.01172,11.22081 -25.01172,25.01368 v 216.87281 c 0,13.78981 11.22069,25.01367 25.01172,25.01367 h 101.9082 c 13.79837,0 25.01368,-11.22386 25.01368,-25.01367 V 158.63696 c 0,-13.79226 -11.2153,-25.01368 -25.01368,-25.01368 h -8.46093 v -8.02505 c 0,-7.89426 -6.35574,-14.25 -14.25,-14.25 z m -22.7168,38.95083 h 101.9082 c 4.59947,0 8.3418,3.74211 8.3418,8.3379 v 216.87476 c 0,4.59517 -3.74233,8.33594 -8.3418,8.33594 h -101.9082 c -4.59946,0 -8.33984,-3.73403 -8.33984,-8.33594 V 158.63696 c 0,-4.59518 3.74038,-8.3379 8.33984,-8.3379 z"
     style="fill:#ffffff;fill-opacity:1;stroke-width:0.99999994" /><path
     sodipodi:nodetypes="sssssssss"
     inkscape:connector-curvature="0"
     id="rect833"
     d="m 227.76224,316.86181 h 56.48011 c 7.89426,0 14.24956,6.3553 14.24956,14.24956 v 21.69803 c 0,7.89426 -6.3553,14.24956 -14.24956,14.24956 h -56.48011 c -7.89426,0 -14.24956,-6.3553 -14.24956,-14.24956 v -21.69803 c 0,-7.89426 6.3553,-14.24956 14.24956,-14.24956 z"
     style="opacity:1;fill:#ffffff;fill-opacity:1;stroke:none;stroke-width:16.76200104;stroke-linecap:round;stroke-miterlimit:4;stroke-dasharray:none;stroke-opacity:1" /><path
     style="opacity:1;fill:#ffffff;fill-opacity:1;stroke:none;stroke-width:16.76200104;stroke-linecap:round;stroke-miterlimit:4;stroke-dasharray:none;stroke-opacity:1"
     d="m 227.76224,249.87653 h 56.48011 c 7.89426,0 14.24956,6.3553 14.24956,14.24956 v 21.69803 c 0,7.89426 -6.3553,14.24956 -14.24956,14.24956 h -56.48011 c -7.89426,0 -14.24956,-6.3553 -14.24956,-14.24956 v -21.69803 c 0,-7.89426 6.3553,-14.24956 14.24956,-14.24956 z"
     id="path855"
     inkscape:connector-curvature="0"
     sodipodi:nodetypes="sssssssss" /><path
     sodipodi:nodetypes="sssssssss"
     inkscape:connector-curvature="0"
     id="path857"
     d="m 227.76224,182.89348 h 56.48011 c 7.89426,0 14.24956,6.3553 14.24956,14.24956 v 21.69803 c 0,7.89426 -6.3553,14.24956 -14.24956,14.24956 h -56.48011 c -7.89426,0 -14.24956,-6.3553 -14.24956,-14.24956 v -21.69803 c 0,-7.89426 6.3553,-14.24956 14.24956,-14.24956 z"
     style="opacity:1;fill:#e30016;fill-opacity:1;stroke:none;stroke-width:16.76200104;stroke-linecap:round;stroke-miterlimit:4;stroke-dasharray:none;stroke-opacity:1" /></g></svg>