<?xml version="1.0" encoding="UTF-8" standalone="no"?>
<svg
   xmlns:dc="http://purl.org/dc/elements/1.1/"
   xmlns:cc="http://creativecommons.org/ns#"
   xmlns:rdf="http://www.w3.org/1999/02/22-rdf-syntax-ns#"
   xmlns:svg="http://www.w3.org/2000/svg"
   xmlns="http://www.w3.org/2000/svg"
   xml:space="preserve"
   style="enable-background:new 0 0 512 512;"
   viewBox="0 0 512 512"
   y="0px"
   x="0px"
   id="Icon"
   version="1.1"><metadata
   id="metadata55"><rdf:RDF><cc:Work
       rdf:about=""><dc:format>image/svg+xml</dc:format><dc:type
         rdf:resource="http://purl.org/dc/dcmitype/StillImage" /><dc:title></dc:title></cc:Work></rdf:RDF></metadata><defs
   id="defs53" />


<path
   style="fill:var(--icon-main);fill-opacity:1;stroke-width:0.99999994"
   d="M 227.76172 111.34766 C 219.86746 111.34766 213.51172 117.7034 213.51172 125.59766 L 213.51172 133.62305 L 205.04492 133.62305 C 191.25083 133.62305 180.0332 144.84385 180.0332 158.63672 L 180.0332 375.50977 C 180.0332 389.29958 191.25389 400.52344 205.04492 400.52344 L 306.95312 400.52344 C 320.75149 400.52344 331.9668 389.29958 331.9668 375.50977 L 331.9668 158.63672 C 331.9668 144.84446 320.75151 133.62305 306.95312 133.62305 L 298.49219 133.62305 L 298.49219 125.59766 C 298.49219 117.7034 292.13645 111.34766 284.24219 111.34766 L 227.76172 111.34766 z M 205.04492 150.29883 L 306.95312 150.29883 C 311.55259 150.29883 315.29492 154.04093 315.29492 158.63672 L 315.29492 375.51172 C 315.29492 380.10689 311.55259 383.84766 306.95312 383.84766 L 205.04492 383.84766 C 200.44546 383.84766 196.70508 380.11363 196.70508 375.51172 L 196.70508 158.63672 C 196.70508 154.04154 200.44546 150.29883 205.04492 150.29883 z M 227.76172 249.87695 C 219.86746 249.87695 213.51172 256.23269 213.51172 264.12695 L 213.51172 285.82422 C 213.51172 293.71848 219.86746 300.07422 227.76172 300.07422 L 284.24219 300.07422 C 292.13645 300.07422 298.49219 293.71848 298.49219 285.82422 L 298.49219 264.12695 C 298.49219 256.23269 292.13645 249.87695 284.24219 249.87695 L 227.76172 249.87695 z M 227.76172 316.86133 C 219.86746 316.86133 213.51172 323.21707 213.51172 331.11133 L 213.51172 352.80859 C 213.51172 360.70285 219.86746 367.05859 227.76172 367.05859 L 284.24219 367.05859 C 292.13645 367.05859 298.49219 360.70285 298.49219 352.80859 L 298.49219 331.11133 C 298.49219 323.21707 292.13645 316.86133 284.24219 316.86133 L 227.76172 316.86133 z "
   id="icon-maincolor" />
<path id="icon-detailcolor"
   d="m 227.76224,182.89348 h 56.48011 c 7.89426,0 14.24956,6.3553 14.24956,14.24956 v 21.69803 c 0,7.89426 -6.3553,14.24956 -14.24956,14.24956 h -56.48011 c -7.89426,0 -14.24956,-6.3553 -14.24956,-14.24956 v -21.69803 c 0,-7.89426 6.3553,-14.24956 14.24956,-14.24956 z"
   style="opacity:1;fill:var(--icon-detail);fill-opacity:1;stroke:none;stroke-width:16.76200104;stroke-linecap:round;stroke-miterlimit:4;stroke-dasharray:none;stroke-opacity:1" /></svg>
