<?xml version="1.0" encoding="UTF-8" standalone="no"?>
<svg
   xmlns:dc="http://purl.org/dc/elements/1.1/"
   xmlns:cc="http://creativecommons.org/ns#"
   xmlns:rdf="http://www.w3.org/1999/02/22-rdf-syntax-ns#"
   xmlns:svg="http://www.w3.org/2000/svg"
   xmlns="http://www.w3.org/2000/svg"
   xml:space="preserve"
   style="enable-background:new 0 0 512 512;"
   viewBox="0 0 512 512"
   y="0px"
   x="0px"
   id="Icon"
   version="1.1"><metadata
   id="metadata55"><rdf:RDF><cc:Work
       rdf:about=""><dc:format>image/svg+xml</dc:format><dc:type
         rdf:resource="http://purl.org/dc/dcmitype/StillImage" /><dc:title></dc:title></cc:Work></rdf:RDF></metadata><defs
   id="defs53">
</defs>

<path
   id="icon-maincolor"
   d="M 256 96.480469 C 184.93444 96.480469 127.14453 154.27038 127.14453 225.33594 C 127.14453 286.84569 170.44108 338.40125 228.16406 351.15625 L 223.66992 367.92773 L 201.9707 367.92773 C 180.67207 367.92773 163.26367 385.33613 163.26367 406.63477 C 163.26367 407.10124 163.27794 407.31501 163.27734 407.27344 L 163.41016 415.51953 L 348.57422 415.51953 L 348.7207 407.28711 C 348.7187 407.37521 348.73633 407.1574 348.73633 406.63477 C 348.73632 385.33613 331.32598 367.92773 310.02734 367.92773 L 288.33008 367.92773 L 283.83594 351.15625 C 341.55892 338.40125 384.85547 286.84569 384.85547 225.33594 C 384.85547 154.27038 327.06556 96.480469 256 96.480469 z M 256 113.24219 C 318.00671 113.24219 368.09375 163.32923 368.09375 225.33594 C 368.09375 287.34264 318.00671 337.42969 256 337.42969 C 193.99329 337.42969 143.90625 287.34264 143.90625 225.33594 C 143.90625 163.32923 193.99329 113.24219 256 113.24219 z M 256 154.6875 C 217.08115 154.6875 185.35156 186.41709 185.35156 225.33594 C 185.35156 264.25478 217.08115 295.98438 256 295.98438 C 294.91885 295.98438 326.64844 264.25478 326.64844 225.33594 C 326.64844 186.41709 294.91885 154.6875 256 154.6875 z M 256 171.44922 C 285.85999 171.44922 309.88672 195.47595 309.88672 225.33594 C 309.88672 255.19593 285.85999 279.22266 256 279.22266 C 226.14001 279.22266 202.11328 255.19593 202.11328 225.33594 C 202.11328 195.47595 226.14001 171.44922 256 171.44922 z M 244.83398 353.70312 C 248.51511 354.02044 252.23786 354.19141 256 354.19141 C 259.76214 354.19141 263.48489 354.02044 267.16602 353.70312 L 270.97656 367.92773 L 241.02344 367.92773 L 244.83398 353.70312 z M 201.9707 384.68945 L 310.02734 384.68945 C 319.52926 384.68945 327.39082 390.47018 330.50195 398.75781 L 181.49805 398.75781 C 184.60918 390.47018 192.4688 384.68945 201.9707 384.68945 z "
   style="color:#000000;font-style:normal;font-variant:normal;font-weight:normal;font-stretch:normal;font-size:medium;line-height:normal;font-family:sans-serif;font-variant-ligatures:normal;font-variant-position:normal;font-variant-caps:normal;font-variant-numeric:normal;font-variant-alternates:normal;font-feature-settings:normal;text-indent:0;text-align:start;text-decoration:none;text-decoration-line:none;text-decoration-style:solid;text-decoration-color:#000000;letter-spacing:normal;word-spacing:normal;text-transform:none;writing-mode:lr-tb;direction:ltr;text-orientation:mixed;dominant-baseline:auto;baseline-shift:baseline;text-anchor:start;white-space:normal;shape-padding:0;clip-rule:nonzero;display:inline;overflow:visible;visibility:visible;opacity:1;isolation:auto;mix-blend-mode:normal;color-interpolation:sRGB;color-interpolation-filters:linearRGB;solid-color:#000000;solid-opacity:1;vector-effect:none;fill:var(--icon-main);fill-opacity:1;fill-rule:nonzero;stroke:none;stroke-width:16.76199913;stroke-linecap:round;stroke-linejoin:miter;stroke-miterlimit:4;stroke-dasharray:none;stroke-dashoffset:0;stroke-opacity:1;color-rendering:auto;image-rendering:auto;shape-rendering:auto;text-rendering:auto;enable-background:accumulate" /><path
   id="icon-detailcolor"
   d="M 308.37109 142.24609 A 8.3809996 8.3809996 0 0 0 299.99023 150.62695 A 8.3809996 8.3809996 0 0 0 308.37109 159.00781 A 8.3809996 8.3809996 0 0 0 316.75195 150.62695 A 8.3809996 8.3809996 0 0 0 308.37109 142.24609 z M 256 191.54102 C 237.43514 191.54102 222.20508 206.77107 222.20508 225.33594 C 222.20508 243.9008 237.43514 259.13086 256 259.13086 C 274.56486 259.13086 289.79492 243.9008 289.79492 225.33594 C 289.79492 206.77107 274.56486 191.54102 256 191.54102 z M 256 208.30273 C 265.50601 208.30273 273.0332 215.82993 273.0332 225.33594 C 273.0332 234.84194 265.50601 242.36914 256 242.36914 C 246.49399 242.36914 238.9668 234.84194 238.9668 225.33594 C 238.9668 215.82993 246.49399 208.30273 256 208.30273 z "
   style="color:#000000;font-style:normal;font-variant:normal;font-weight:normal;font-stretch:normal;font-size:medium;line-height:normal;font-family:sans-serif;font-variant-ligatures:normal;font-variant-position:normal;font-variant-caps:normal;font-variant-numeric:normal;font-variant-alternates:normal;font-feature-settings:normal;text-indent:0;text-align:start;text-decoration:none;text-decoration-line:none;text-decoration-style:solid;text-decoration-color:#000000;letter-spacing:normal;word-spacing:normal;text-transform:none;writing-mode:lr-tb;direction:ltr;text-orientation:mixed;dominant-baseline:auto;baseline-shift:baseline;text-anchor:start;white-space:normal;shape-padding:0;clip-rule:nonzero;display:inline;overflow:visible;visibility:visible;opacity:1;isolation:auto;mix-blend-mode:normal;color-interpolation:sRGB;color-interpolation-filters:linearRGB;solid-color:#000000;solid-opacity:1;vector-effect:none;fill:var(--icon-detail);fill-opacity:1;fill-rule:nonzero;stroke:none;stroke-width:16.76199913;stroke-linecap:round;stroke-linejoin:miter;stroke-miterlimit:4;stroke-dasharray:none;stroke-dashoffset:0;stroke-opacity:1;color-rendering:auto;image-rendering:auto;shape-rendering:auto;text-rendering:auto;enable-background:accumulate" /></svg>
