<?xml version="1.0" encoding="UTF-8" standalone="no"?>
<svg
   xmlns:dc="http://purl.org/dc/elements/1.1/"
   xmlns:cc="http://creativecommons.org/ns#"
   xmlns:rdf="http://www.w3.org/1999/02/22-rdf-syntax-ns#"
   xmlns:svg="http://www.w3.org/2000/svg"
   xmlns="http://www.w3.org/2000/svg"
   height="512"
   width="512"
   version="1.1"
   id="Icon"
   x="0px"
   y="0px"
   viewBox="0 0 512 512"
   xml:space="preserve"><metadata
   id="metadata55"><rdf:RDF><cc:Work
       rdf:about=""><dc:format>image/svg+xml</dc:format><dc:type
         rdf:resource="http://purl.org/dc/dcmitype/StillImage" /><dc:title></dc:title></cc:Work></rdf:RDF></metadata><defs
   id="defs53">
</defs>


<path
   id="icon-maincolor" style="fill:var(--icon-main)"
   d="M 140.12891 101.66016 C 118.79785 101.66016 101.66016 119.61341 101.66016 141.23438 L 101.66016 370.76172 C 101.66016 392.38269 118.79667 410.33984 140.12891 410.33984 L 371.87109 410.33984 C 393.20333 410.33984 410.33984 392.38269 410.33984 370.76172 L 410.33984 171.26758 A 8.3818377 8.3818377 0 0 0 407.88477 165.33984 L 346.66016 104.11523 A 8.3818377 8.3818377 0 0 0 340.73242 101.66016 L 140.12891 101.66016 z M 140.12891 118.42188 L 151.69141 118.42188 L 151.69141 191.96289 C 151.69141 207.86227 164.38504 221.21484 180.19922 221.21484 L 285.37695 221.21484 C 301.19133 221.21484 314.01467 207.87718 313.88477 191.89648 L 313.88477 118.42188 L 337.26172 118.42188 L 393.57812 174.73828 L 393.57812 370.76172 C 393.57812 383.70485 383.8734 393.57814 371.87109 393.57812 L 360.01562 393.57812 L 360.01562 278.45117 C 360.01562 262.55179 347.322 249.20117 331.50781 249.20117 L 180.2168 249.20117 C 164.40262 249.20117 151.70898 262.55179 151.70898 278.45117 L 151.70898 393.57812 L 140.12891 393.57812 C 128.1266 393.57812 118.42185 383.70485 118.42188 370.76172 L 118.42188 141.23438 C 118.42188 128.29126 128.12543 118.42185 140.12891 118.42188 z M 168.45312 118.42188 L 297.12305 118.42188 L 297.12305 191.96289 A 8.3818377 8.3818377 0 0 0 297.12305 192.03125 C 297.18105 199.17071 291.86102 204.45117 285.37695 204.45117 L 180.19922 204.45117 C 173.71498 204.45117 168.45315 199.18443 168.45312 191.96289 L 168.45312 118.42188 z M 255.80469 135.04688 A 8.3818377 8.3818377 0 0 0 247.42383 143.42773 L 247.42383 179.51562 A 8.3818377 8.3818377 0 0 0 255.80469 187.89648 L 270.05664 187.89648 A 8.3818377 8.3818377 0 0 0 278.4375 179.51562 L 278.4375 143.42773 A 8.3818377 8.3818377 0 0 0 270.05664 135.04688 L 255.80469 135.04688 z M 180.2168 265.96289 L 331.50781 265.96289 C 337.99207 265.96289 343.25391 271.22963 343.25391 278.45117 L 343.25391 393.57812 L 168.4707 393.57812 L 168.4707 278.45117 C 168.4707 271.22963 173.73255 265.96289 180.2168 265.96289 z "
    />

<path
   id="icon-detailcolor" style="fill:var(--icon-detail)"
   d="M 210.31641 287.88867 A 8.3818377 8.3818377 0 1 0 210.31641 304.65039 L 301.46094 304.65039 A 8.3818377 8.3818377 0 1 0 301.46094 287.88867 L 210.31641 287.88867 z M 210.31641 321.38086 A 8.3818377 8.3818377 0 1 0 210.31641 338.14258 L 301.46094 338.14258 A 8.3818377 8.3818377 0 1 0 301.46094 321.38086 L 210.31641 321.38086 z M 210.31641 354.74609 A 8.3818377 8.3818377 0 1 0 210.31641 371.50781 L 301.46094 371.50781 A 8.3818377 8.3818377 0 1 0 301.46094 354.74609 L 210.31641 354.74609 z "
    /></svg>
