<?xml version="1.0" encoding="UTF-8" standalone="no"?>
<svg
   xmlns:dc="http://purl.org/dc/elements/1.1/"
   xmlns:cc="http://creativecommons.org/ns#"
   xmlns:rdf="http://www.w3.org/1999/02/22-rdf-syntax-ns#"
   xmlns:svg="http://www.w3.org/2000/svg"
   xmlns="http://www.w3.org/2000/svg"
   xml:space="preserve"
   style="enable-background:new 0 0 512 512;"
   viewBox="0 0 512 512"
   y="0px"
   x="0px"
   id="Icon"
   version="1.1"><metadata
   id="metadata55"><rdf:RDF><cc:Work
       rdf:about=""><dc:format>image/svg+xml</dc:format><dc:type
         rdf:resource="http://purl.org/dc/dcmitype/StillImage" /><dc:title></dc:title></cc:Work></rdf:RDF></metadata><defs
   id="defs53">
</defs>

<path
   id="icon-maincolor"
   d="M 218.31641 74.789062 C 209.39439 74.716122 200.81409 78.223976 194.49805 84.523438 C 188.18201 90.826215 184.6534 99.392428 184.70312 108.31445 L 184.70312 118.92383 L 141.24609 118.92383 C 124.96033 118.92683 111.20436 131.00583 109.0957 147.15234 C 106.99036 163.30217 117.18902 178.50801 132.92773 182.68555 L 132.92773 391.80273 C 132.92773 404.16294 137.46149 415.77106 145.37891 424.09961 C 153.25987 432.45137 164.2268 437.193 175.70508 437.21289 L 336.29492 437.21289 C 347.77652 437.19299 358.74345 432.45137 366.62109 424.09961 C 374.53851 415.77106 379.07227 404.16294 379.07227 391.80273 L 379.07227 182.68555 C 394.81098 178.50801 405.00965 163.30217 402.9043 147.15234 C 400.79564 131.00583 387.03968 118.92715 370.75391 118.92383 L 327.29688 118.92383 L 327.29688 108.31445 C 327.34657 99.392428 323.81799 90.826214 317.50195 84.523438 C 311.18592 78.223975 302.60561 74.716121 293.68359 74.789062 L 218.31641 74.789062 z M 218.31641 91.763672 L 293.68359 91.763672 C 298.10647 91.687422 302.37076 93.401593 305.50391 96.521484 C 308.64038 99.63806 310.37667 103.89488 310.32031 108.31445 L 310.32031 118.92383 L 201.67969 118.92383 L 201.67969 108.31445 C 201.62329 103.89488 203.35962 99.641375 206.49609 96.521484 C 209.62924 93.401593 213.89353 91.687416 218.31641 91.763672 z M 141.24609 135.90039 L 370.75391 135.90039 C 379.19187 135.90039 386.03125 142.73976 386.03125 151.17773 C 386.03125 159.61569 379.19187 166.45508 370.75391 166.45508 L 141.24609 166.45508 C 132.80813 166.45508 125.96875 159.61569 125.96875 151.17773 C 125.96875 142.73976 132.80813 135.90039 141.24609 135.90039 z M 149.9043 183.43164 L 362.0957 183.43164 L 362.0957 391.80273 C 362.0957 407.77021 350.8069 420.23828 336.29492 420.23828 L 175.70508 420.23828 C 161.19311 420.23828 149.9043 407.77021 149.9043 391.80273 L 149.9043 183.43164 z M 205.92188 206.0957 C 201.23376 206.0957 197.43555 209.89586 197.43555 214.58398 L 197.43555 375 C 197.43555 379.68482 201.23376 383.48828 205.92188 383.48828 C 210.61001 383.48828 214.41016 379.68482 214.41016 375 L 214.41016 214.58398 C 214.41016 209.89586 210.61 206.0957 205.92188 206.0957 z M 256 206.0957 C 251.31187 206.0957 247.51172 209.89586 247.51172 214.58398 L 247.51172 375 C 247.51172 379.68482 251.31187 383.48828 256 383.48828 C 260.68812 383.48828 264.48828 379.68482 264.48828 375 L 264.48828 214.58398 C 264.48828 209.89586 260.68812 206.0957 256 206.0957 z M 306.07812 206.0957 C 301.39 206.0957 297.58984 209.89586 297.58984 214.58398 L 297.58984 375 C 297.58984 379.68482 301.39001 383.48828 306.07812 383.48828 C 310.76625 383.48828 314.56445 379.68482 314.56445 375 L 314.56445 214.58398 C 314.56445 209.89586 310.76625 206.0957 306.07812 206.0957 z "
   style="fill:var(--icon-main);fill-opacity:1;stroke-width:1.3333292" /></svg>
