<?xml version="1.0" encoding="UTF-8" standalone="no"?>
<svg
   xmlns:dc="http://purl.org/dc/elements/1.1/"
   xmlns:cc="http://creativecommons.org/ns#"
   xmlns:rdf="http://www.w3.org/1999/02/22-rdf-syntax-ns#"
   xmlns:svg="http://www.w3.org/2000/svg"
   xmlns="http://www.w3.org/2000/svg"
   xml:space="preserve"
   style="enable-background:new 0 0 512 512;"
   viewBox="0 0 512 512"
   y="0px"
   x="0px"
   id="Icon"
   version="1.1"><metadata
   id="metadata55"><rdf:RDF><cc:Work
       rdf:about=""><dc:format>image/svg+xml</dc:format><dc:type
         rdf:resource="http://purl.org/dc/dcmitype/StillImage" /><dc:title></dc:title></cc:Work></rdf:RDF></metadata>
<defs
   id="defs53">
</defs>

<path
   id="icon-maincolor"
   d="M 175.96289 104.29492 C 163.35197 104.29492 152.9375 114.70939 152.9375 127.32031 L 152.9375 147.12695 L 143.7207 147.12695 A 8.3818377 8.3818377 0 1 0 143.7207 163.88867 L 152.9375 163.88867 L 152.9375 180.60547 L 143.7207 180.60547 A 8.3818377 8.3818377 0 1 0 143.7207 197.36719 L 152.9375 197.36719 L 152.9375 214.125 L 143.7207 214.125 A 8.3818377 8.3818377 0 1 0 143.7207 230.88672 L 152.9375 230.88672 L 152.9375 247.62891 L 143.7207 247.62891 A 8.3818377 8.3818377 0 1 0 143.7207 264.39258 L 152.9375 264.39258 L 152.9375 281.08594 L 143.7207 281.08594 A 8.3818377 8.3818377 0 1 0 143.7207 297.84766 L 152.9375 297.84766 L 152.9375 314.60547 L 143.7207 314.60547 A 8.3818377 8.3818377 0 1 0 143.7207 331.36719 L 152.9375 331.36719 L 152.9375 348.11133 L 143.7207 348.11133 A 8.3818377 8.3818377 0 1 0 143.7207 364.87305 L 152.9375 364.87305 L 152.9375 384.67969 C 152.9375 397.29061 163.35197 407.70508 175.96289 407.70508 L 353.75391 407.70508 C 366.36483 407.70508 376.7793 397.29061 376.7793 384.67969 L 376.7793 127.32031 C 376.7793 114.70939 366.36483 104.29492 353.75391 104.29492 L 175.96289 104.29492 z M 175.96289 121.05859 L 353.75391 121.05859 C 357.36862 121.05859 360.01758 123.7056 360.01758 127.32031 L 360.01758 384.67969 C 360.01758 388.2944 357.36862 390.94336 353.75391 390.94336 L 175.96289 390.94336 C 172.34818 390.94336 169.69922 388.2944 169.69922 384.67969 L 169.69922 364.87305 L 178.4707 364.87305 A 8.3818377 8.3818377 0 1 0 178.4707 348.11133 L 169.69922 348.11133 L 169.69922 331.36719 L 178.4707 331.36719 A 8.3818377 8.3818377 0 1 0 178.4707 314.60547 L 169.69922 314.60547 L 169.69922 297.84766 L 178.4707 297.84766 A 8.3818377 8.3818377 0 1 0 178.4707 281.08594 L 169.69922 281.08594 L 169.69922 264.39258 L 178.4707 264.39258 A 8.3818377 8.3818377 0 1 0 178.4707 247.62891 L 169.69922 247.62891 L 169.69922 230.88672 L 178.4707 230.88672 A 8.3818377 8.3818377 0 1 0 178.4707 214.125 L 169.69922 214.125 L 169.69922 197.36719 L 178.4707 197.36719 A 8.3818377 8.3818377 0 1 0 178.4707 180.60547 L 169.69922 180.60547 L 169.69922 163.88867 L 178.4707 163.88867 A 8.3818377 8.3818377 0 1 0 178.4707 147.12695 L 169.69922 147.12695 L 169.69922 127.32031 C 169.69922 123.7056 172.34818 121.05859 175.96289 121.05859 z "
   style="fill:var(--icon-main);" /><path
   id="icon-detailcolor"
   d="M 222.18164 180.4375 A 8.3818377 8.3818377 0 1 0 222.18164 197.19922 L 313.08594 197.19922 A 8.3818377 8.3818377 0 1 0 313.08594 180.4375 L 222.18164 180.4375 z M 222.18164 213.76562 A 8.3818377 8.3818377 0 1 0 222.18164 230.52734 L 293.91211 230.52734 A 8.3818377 8.3818377 0 1 0 293.91211 213.76562 L 222.18164 213.76562 z "
   style="fill:var(--icon-detail);" /></svg>
