<?xml version="1.0" encoding="UTF-8" standalone="no"?>
<svg
   xmlns:dc="http://purl.org/dc/elements/1.1/"
   xmlns:cc="http://creativecommons.org/ns#"
   xmlns:rdf="http://www.w3.org/1999/02/22-rdf-syntax-ns#"
   xmlns:svg="http://www.w3.org/2000/svg"
   xmlns="http://www.w3.org/2000/svg"
   version="1.1"
   id="Icon"
   x="0px"
   y="0px"
   viewBox="0 0 512 512"
   style="enable-background:new 0 0 512 512;"
   xml:space="preserve"><metadata
   id="metadata55"><rdf:RDF><cc:Work
       rdf:about=""><dc:format>image/svg+xml</dc:format><dc:type
         rdf:resource="http://purl.org/dc/dcmitype/StillImage" /><dc:title></dc:title></cc:Work></rdf:RDF></metadata><defs
   id="Icon">
</defs>

<path
   style="fill:none;stroke:var(--icon-main);stroke-width:16.762;stroke-linecap:round;stroke-opacity:1"
   id="icon-maincolor"
   d="m 356.92146,356.92146 c -29.6945,29.69451 -21.15999,-18.09682 -59.95773,-2.02627 -38.79774,16.07055 1.03065,43.82931 -40.96373,43.82931 -41.99437,0 -2.16598,-27.75876 -40.96372,-43.82931 -38.79775,-16.07055 -30.26323,31.72078 -59.95774,2.02627 -29.69451,-29.6945 18.09682,-21.15999 2.02627,-59.95773 C 141.03426,258.16599 113.2755,297.99438 113.2755,256 c 0,-41.99437 27.75876,-2.16598 43.82931,-40.96372 16.07055,-38.79775 -31.72078,-30.26323 -2.02627,-59.95774 29.6945,-29.69451 21.15999,18.09682 59.95773,2.02627 C 253.83401,141.03426 214.00562,113.2755 256,113.2755 c 41.99437,0 2.16598,27.75876 40.96372,43.82931 38.79775,16.07055 30.26323,-31.72078 59.95774,-2.02627 29.69451,29.6945 -18.09682,21.15999 -2.02627,59.95773 16.07055,38.79774 43.82931,-1.03065 43.82931,40.96373 0,41.99437 -27.75876,2.16598 -43.82931,40.96372 -16.07055,38.79775 31.72078,30.26323 2.02627,59.95774 z" /><circle
   style="fill:none;stroke:var(--icon-detail); stroke-width:16.762; stroke-linecap:round;stroke-opacity:1"
   id="icon-detailcolor"
   cx="256"
   cy="256"
   r="56.965614" /></svg>
