<?xml version="1.0" encoding="UTF-8" standalone="no"?>
<svg
   xmlns:dc="http://purl.org/dc/elements/1.1/"
   xmlns:cc="http://creativecommons.org/ns#"
   xmlns:rdf="http://www.w3.org/1999/02/22-rdf-syntax-ns#"
   xmlns:svg="http://www.w3.org/2000/svg"
   xmlns="http://www.w3.org/2000/svg"
   height="512"
   width="512"
   xml:space="preserve"
   viewBox="0 0 512 512"
   y="0px"
   x="0px"
   id="Icon"
   version="1.1"><defs
   id="defs8" /><metadata
   id="metadata55"><rdf:RDF><cc:Work
       rdf:about=""><dc:format>image/svg+xml</dc:format><dc:type
         rdf:resource="http://purl.org/dc/dcmitype/StillImage" /><dc:title></dc:title></cc:Work></rdf:RDF></metadata>


<path
   id="icon-maincolor"
   style="fill:var(--icon-main)"
   d="m 188.16437,20.480001 c -52.49319,-0.0028 -95.171261,42.935963 -95.175073,95.653039 -2.5e-5,0.0114 -2.5e-5,0.0228 0,0.0341 0.02184,4.04562 0.767229,8.02989 1.297343,12.03546 -38.602322,6.11948 -68.264113,38.66254 -68.286639,78.70135 -0.0046,43.91567 35.093696,79.75288 78.598899,80.74976 l 54.5226,0.21203 c 53.3284,0.14206 158.7753,-0.56418 264.03639,-0.10961 34.63905,0.003 62.84281,-28.38534 62.84211,-63.14938 7e-4,-31.96428 -24.20531,-57.47209 -54.97179,-61.54296 0.3428,-3.34743 0.88593,-6.67115 0.90561,-10.03914 10e-5,-0.0171 10e-5,-0.0332 0,-0.0504 C 431.93473,95.510811 385.43404,48.720943 328.22179,48.717891 h -0.0162 c -21.21519,0.028 -41.29604,7.592243 -58.5907,19.69914 -16.92097,-29.132855 -47.46505,-47.901505 -81.45055,-47.93703 z m 0,15.330936 c 30.83848,0.03225 58.87218,17.888583 72.07805,45.956876 2.13701,4.531789 7.97542,5.829032 11.83062,2.628828 15.80831,-13.133328 35.65607,-20.31837 56.14875,-20.349609 48.88029,0.0027 88.38205,39.702778 88.3811,88.927338 -0.0323,4.97554 -0.47447,9.95274 -1.3315,14.85299 -0.83148,4.81939 3.00036,9.17483 7.8865,8.96279 26.3062,-0.002 47.51171,21.29243 47.51117,47.81664 5.1e-4,25.2793 -19.27497,45.76187 -43.85632,47.63157 -112.67918,0.32058 -227.27224,0.1707 -323.23805,0.1707 -34.679543,-1.51577 -62.247472,-30.18272 -62.243753,-65.50507 0.01964,-34.90645 27.032652,-63.52349 61.629223,-65.3847 4.68513,-0.2573 8.04225,-4.62622 7.08507,-9.21976 -1.11883,-5.31595 -1.69309,-10.73256 -1.72499,-16.16649 v -0.0162 -0.0179 c 0.0218,-44.461401 35.69437,-80.290306 79.84413,-80.287974 z M 162.05218,315.46039 c -7.61283,0 -13.98328,6.36864 -13.98328,13.98148 V 441.3836 c 0,2.08114 0.48948,4.06196 1.33688,5.85241 l -51.757186,29.88923 c -6.780686,3.9476 -4.034569,14.31884 3.811176,14.39476 h 149.90969 159.17078 c 7.84577,-0.0758 10.59188,-10.44715 3.81116,-14.39476 l -52.12554,-30.10125 c 0.78521,-1.73422 1.23446,-3.64198 1.23446,-5.64039 V 329.44187 c 0,-7.61284 -6.37044,-13.98148 -13.98328,-13.98148 z m 1.45907,15.44054 H 348.01617 V 439.92274 H 163.51125 Z m 2.59289,124.46236 h 179.79172 l 6.44,3.77882 29.25314,16.91399 H 251.36946 130.411 l 29.2729,-16.91399 z" />

<path
   id="icon-detailcolor"
   style="fill:var(--icon-detail)"
   d="m 260.06356,105.88726 a 7.7122112,7.7122112 0 0 0 -5.30078,2.33414 l -21.30555,21.30556 a 7.7122112,7.7122112 0 0 0 -3.20562,5.65296 7.7122112,7.7122112 0 0 0 0,0.002 7.7122112,7.7122112 0 0 0 -0.0127,0.24258 7.7122112,7.7122112 0 0 0 3.2775,6.86046 l 21.24624,21.24625 a 7.7122112,7.7122112 0 1 0 10.90523,-10.90523 l -9.06882,-9.06883 c 18.97911,0.23799 35.9915,11.78083 43.28671,29.49212 7.37178,17.89716 3.29972,38.45495 -10.30867,52.13992 -13.60837,13.68497 -33.97774,17.75459 -51.74101,10.35538 -17.76325,-7.39918 -29.33937,-24.80228 -29.33937,-44.18156 a 7.6664189,7.6664189 0 1 0 -15.33274,0 c 0,25.50172 15.30721,48.55952 38.77656,58.33556 23.46934,9.77602 50.55978,4.35309 68.50946,-13.69759 17.94968,-18.05069 23.31865,-45.22231 13.61133,-68.78977 -9.63525,-23.39238 -32.30968,-38.7561 -57.49461,-38.98319 l 9.10116,-9.10117 a 7.7122112,7.7122112 0 0 0 -5.60444,-13.23938 z" /></svg>
