<?xml version="1.0" encoding="UTF-8" standalone="no"?>
<svg
   xmlns:dc="http://purl.org/dc/elements/1.1/"
   xmlns:cc="http://creativecommons.org/ns#"
   xmlns:rdf="http://www.w3.org/1999/02/22-rdf-syntax-ns#"
   xmlns:svg="http://www.w3.org/2000/svg"
   xmlns="http://www.w3.org/2000/svg"
   xml:space="preserve"
   style="enable-background:new 0 0 512 512;"
   viewBox="0 0 512 512"
   y="0px"
   x="0px"
   id="Icon"
   version="1.1"><metadata
   id="metadata55"><rdf:RDF><cc:Work
       rdf:about=""><dc:format>image/svg+xml</dc:format><dc:type
         rdf:resource="http://purl.org/dc/dcmitype/StillImage" /><dc:title></dc:title></cc:Work></rdf:RDF></metadata><defs
   id="defs53">
	
</defs>







<path
  
   id="icon-maincolor" style="fill:var(--icon-main);"
   d="m 331.45898,96.25091 -2.17969,5.06054 -28.16992,65.36328 16.42775,30.73047 v 61.53907 h 16.75 v -65.73438 l -14.60157,-27.31641 22.79297,-52.89257 h 0.33008 l 22.79492,52.89257 -14.60156,27.31641 v 65.73438 h 16.75 V 197.4052 l 16.42773,-30.73047 -30.35156,-70.42382 z m -164.04687,0.004 v 0.002 c -1.6959,0.0504 -3.33844,0.61434 -4.70703,1.61718 l -31.45899,31.52539 c -2.1535,1.57892 -3.42579,4.08753 -3.42578,6.75782 v 44.47461 c 0,2.65754 1.26214,5.15759 3.39844,6.73828 l 31.10937,29.96484 c 0.0194,54.34194 -0.0156,108.71038 -0.0156,163.02734 0,19.45926 15.92747,35.38672 35.38672,35.38672 19.45926,0 35.38671,-15.92746 35.38672,-35.38672 0.0284,-54.31761 0.0156,-108.6867 0.0156,-163.02929 l 31.10938,-29.96289 c 2.1363,-1.58064 3.39658,-4.07881 3.39648,-6.73633 l 0.002,-44.47656 c 10e-6,-2.67034 -1.27424,-5.18083 -3.42773,-6.75977 L 232.7227,97.87214 c -0.34211,-0.25075 -0.6995,-0.47526 -1.07226,-0.66992 -1.1183,-0.58399 -2.36087,-0.90945 -3.63281,-0.94727 -4.72339,-0.13928 -8.62625,3.65146 -8.62696,8.37696 l -0.002,34.55859 -11.67773,13.98828 h -19.99219 l -11.67578,-13.98633 -0.002,-34.56054 c -6e-4,-4.7255 -3.90539,-8.51625 -8.6289,-8.37696 z m -8.13282,27.58789 -0.002,19.79297 c 6.1e-4,2.77854 1.37805,5.37616 3.67774,6.93555 l 17.59375,18 c 1.45569,0.98727 3.18515,1.49152 4.94335,1.4414 6.81851,-0.42401 17.62601,-0.19413 24.44532,0 1.7582,0.0501 3.48766,-0.45411 4.94336,-1.4414 l 17.58984,-18 c 2.2997,-1.55938 3.67714,-4.15699 3.67774,-6.93555 l 0.002,-19.79297 14.69337,13.98828 v 38.57422 l -31.10742,29.96485 c -2.13711,1.58027 -3.39999,4.08042 -3.40039,6.73828 v 167.2539 c 0,10.46949 -8.16723,18.63672 -18.63672,18.63672 -10.46948,0 -18.63672,-8.16723 -18.63672,-18.63672 0.0503,-55.70573 0.0273,-111.50416 0.0273,-167.2539 -4e-4,-2.65787 -1.26142,-5.15807 -3.39844,-6.73828 L 144.582,176.4053 v -38.57422 z m 38.43555,247.37305 a 8.375,8.375 0 0 0 -8.375,8.375 8.375,8.375 0 0 0 8.375,8.375 8.375,8.375 0 0 0 8.375,-8.375 8.375,8.375 0 0 0 -8.375,-8.375 z"
   />


<path
   id="icon-detailcolor" style="fill:var(--icon-detail);"
   d="m 307.26269,251.35052 c 4.8e-4,43.00957 -0.0117,86.02797 -0.0117,129.01171 0,19.45926 15.92748,35.38672 35.38673,35.38672 19.45924,0 35.38675,-15.92746 35.38675,-35.38672 0.0191,-37.40302 0.0123,-74.83485 0.01,-112.26171 h 0.002 v -16.75 h -16.76171 -37.24417 z m 16.76367,16.75 h 37.24809 v 112.26171 c 0,10.46949 -8.16731,18.63672 -18.63676,18.63672 -10.46947,0 -18.63672,-8.16723 -18.63672,-18.63672 0.0338,-37.39206 0.0286,-74.82933 0.0254,-112.26171 z" />
</svg>
