<?xml version="1.0" encoding="UTF-8" standalone="no"?>
<svg
   xmlns:dc="http://purl.org/dc/elements/1.1/"
   xmlns:cc="http://creativecommons.org/ns#"
   xmlns:rdf="http://www.w3.org/1999/02/22-rdf-syntax-ns#"
   xmlns:svg="http://www.w3.org/2000/svg"
   xmlns="http://www.w3.org/2000/svg"
   xml:space="preserve"
   style="enable-background:new 0 0 512 512;"
   viewBox="0 0 512 512"
   y="0px"
   x="0px"
   id="Icon"
   version="1.1"><metadata
   id="metadata55"><rdf:RDF><cc:Work
       rdf:about=""><dc:format>image/svg+xml</dc:format><dc:type
         rdf:resource="http://purl.org/dc/dcmitype/StillImage" /><dc:title></dc:title></cc:Work></rdf:RDF></metadata><defs
   id="defs53" />

<path
   id="icon-maincolor"
   d="m 241.25391,105.81055 c -6.10899,0 -10.76756,4.86241 -11.51368,10.36523 -57.48395,10.75075 -102.88417,56.11718 -113.68945,113.58203 -5.45124,0.79934 -10.24023,5.43338 -10.24023,11.4961 v 29.49218 c 0,6.03953 4.75246,10.66077 10.17773,11.48633 10.70107,57.6298 56.18752,103.15175 113.79883,113.90625 0.87791,5.37229 5.47435,10.05078 11.4668,10.05078 h 29.49218 c 5.99245,0 10.58889,-4.67849 11.4668,-10.05078 58.527,-10.92589 104.54382,-57.7327 114.28516,-116.66406 -0.72618,0.12328 -1.46397,0.18945 -2.20899,0.18945 h -14.83203 c -9.36449,49.64465 -47.84546,88.86223 -97.08008,99.34766 v -34.75586 c 30.47976,-9.14802 54.3684,-33.71037 62.54688,-64.5918 h -9.31445 c -2.6362,0 -5.18794,-0.76049 -7.40235,-2.40625 -6.93227,23.87138 -25.32727,42.77642 -48.88281,50.41797 -2.08739,-2.37888 -5.09441,-3.9668 -8.57813,-3.9668 h -29.49218 c -3.48372,0 -6.49074,1.58792 -8.57813,3.9668 -22.89508,-7.42724 -40.91194,-25.49505 -48.26953,-48.42187 2.33366,-2.08447 3.88477,-5.06382 3.88477,-8.50782 v -29.49218 c 0,-3.40733 -1.5165,-6.36212 -3.8086,-8.44336 7.42831,-22.8808 25.48677,-40.88569 48.39844,-48.2461 2.07717,2.24732 5.00544,3.72657 8.37305,3.72657 h 29.49218 c 3.36761,0 6.29588,-1.47925 8.37305,-3.72657 23.5703,7.57205 42.00729,26.40874 49.01563,50.23047 2.23094,-1.68327 4.80977,-2.45898 7.47461,-2.45898 h 9.23046 c -8.2547,-30.73809 -32.08408,-55.17068 -62.46289,-64.28906 v -34.75391 c 49.13365,10.464 87.5572,49.54271 97.02149,99.04297 h 14.89062 c 0.72677,0 1.44727,0.0605 2.15625,0.17773 -9.85089,-58.76676 -55.78557,-105.4154 -114.18554,-116.33789 -0.74612,-5.50282 -5.40469,-10.36523 -11.51368,-10.36523 z m 5.13281,16.76172 h 19.22656 v 48.95703 h -19.22656 z m -16.76367,10.7207 v 34.75391 c -29.47919,8.84849 -52.78992,32.11817 -61.6875,61.57617 h -34.76758 c 10.32919,-48.20899 48.22437,-86.05859 96.45508,-96.33008 z M 122.57227,246.38672 h 48.95703 v 19.22656 h -48.95703 z m 10.53125,35.99023 h 34.73632 c 8.82827,29.60241 32.20179,53.00022 61.78321,61.87891 v 34.75586 c -48.33199,-10.29339 -86.28522,-48.28084 -96.51953,-96.63477 z m 113.2832,58.09375 h 19.22656 v 48.95703 h -19.22656 z"
   style="color:#000000;font-style:normal;font-variant:normal;font-weight:normal;font-stretch:normal;font-size:medium;line-height:normal;font-family:sans-serif;font-variant-ligatures:normal;font-variant-position:normal;font-variant-caps:normal;font-variant-numeric:normal;font-variant-alternates:normal;font-feature-settings:normal;text-indent:0;text-align:start;text-decoration:none;text-decoration-line:none;text-decoration-style:solid;text-decoration-color:#000000;letter-spacing:normal;word-spacing:normal;text-transform:none;writing-mode:lr-tb;direction:ltr;text-orientation:mixed;dominant-baseline:auto;baseline-shift:baseline;text-anchor:start;white-space:normal;shape-padding:0;clip-rule:nonzero;display:inline;overflow:visible;visibility:visible;opacity:1;isolation:auto;mix-blend-mode:normal;color-interpolation:sRGB;color-interpolation-filters:linearRGB;solid-color:#000000;solid-opacity:1;vector-effect:none;fill:var(--icon-main);fill-opacity:1;fill-rule:nonzero;stroke:none;stroke-width:16.76199913;stroke-linecap:butt;stroke-linejoin:miter;stroke-miterlimit:4;stroke-dasharray:none;stroke-dashoffset:0;stroke-opacity:1;color-rendering:auto;image-rendering:auto;shape-rendering:auto;text-rendering:auto;enable-background:accumulate" /><rect
   style="opacity:1;fill:none;fill-opacity:1;stroke:var(--icon-detail);stroke-width:16.76199913;stroke-linecap:round;stroke-miterlimit:4;stroke-dasharray:none;stroke-opacity:1"
   id="icon-detailcolor"
   width="35.990288"
   height="65.717598"
   x="-273.99515"
   y="332.09033"
   ry="3.5193682"
   rx="3.2482493"
   transform="rotate(-90)" /></svg>
