<?xml version="1.0" encoding="UTF-8" standalone="no"?>
<!-- Generator: Adobe Illustrator 19.0.0, SVG Export Plug-In . SVG Version: 6.00 Build 0)  -->

<svg
   xmlns:dc="http://purl.org/dc/elements/1.1/"
   xmlns:cc="http://creativecommons.org/ns#"
   xmlns:rdf="http://www.w3.org/1999/02/22-rdf-syntax-ns#"
   xmlns:svg="http://www.w3.org/2000/svg"
   xmlns="http://www.w3.org/2000/svg"
   xmlns:sodipodi="http://sodipodi.sourceforge.net/DTD/sodipodi-0.dtd"
   xmlns:inkscape="http://www.inkscape.org/namespaces/inkscape"
   version="1.1"
   id="Layer_1"
   x="0px"
   y="0px"
   viewBox="0 0 511.992 511.992"
   style="enable-background:new 0 0 511.992 511.992;"
   xml:space="preserve"
   inkscape:version="0.91 r13725"
   sodipodi:docname="information.svg"><metadata
     id="metadata59"><rdf:RDF><cc:Work
         rdf:about=""><dc:format>image/svg+xml</dc:format><dc:type
           rdf:resource="http://purl.org/dc/dcmitype/StillImage" /><dc:title></dc:title></cc:Work></rdf:RDF></metadata><defs
     id="defs57" /><sodipodi:namedview
     pagecolor="#ffffff"
     bordercolor="#666666"
     borderopacity="1"
     objecttolerance="10"
     gridtolerance="10"
     guidetolerance="10"
     inkscape:pageopacity="0"
     inkscape:pageshadow="2"
     inkscape:window-width="1920"
     inkscape:window-height="1030"
     id="namedview55"
     showgrid="false"
     inkscape:zoom="1.6933858"
     inkscape:cx="255.99601"
     inkscape:cy="255.99601"
     inkscape:window-x="1920"
     inkscape:window-y="24"
     inkscape:window-maximized="1"
     inkscape:current-layer="Layer_1"
     showguides="true"
     inkscape:guide-bbox="true"><sodipodi:guide
       position="256.40456,143.10952"
       orientation="1,0"
       id="guide8152" /></sodipodi:namedview><g
     id="g46"
     transform="matrix(1.5000234,0,0,1.5000234,-0.00399134,-264.02011)"><polygon
       id="polygon48"
       points="213.359,421.391 234.672,496 106.672,496 127.938,421.422 "
       style="fill:#ccd1d9" /></g><path
     id="path50"
     d="m 31.988508,383.99 c -8.812638,0 -15.98425,-7.17161 -15.98425,-15.98425 l 0,-304.012743 c 0,-8.812638 7.171612,-16.00825 15.98425,-16.00825 l 448.014992,0 c 8.81263,0 16.00825,7.195612 16.00825,16.00825 l 0,304.012743 c 0,8.81264 -7.19562,15.98425 -16.00825,15.98425 l -448.014992,0 z"
     inkscape:connector-curvature="0"
     style="fill:#f9f9f9" /><path
     id="path52"
     d="m 480.0035,32.000508 -448.014992,0 c -17.671776,0 -31.99249934,14.320723 -31.99249934,31.992499 l 0,304.012743 c 0,17.67178 14.32072334,31.9925 31.99249934,31.9925 l 448.014992,0 c 17.67177,0 31.9925,-14.32072 31.9925,-31.9925 l 0,-304.012743 c 0,-17.671776 -14.32073,-31.992499 -31.9925,-31.992499 z m 0,336.005242 -448.014992,0 0,-304.012743 448.014992,0 0,304.012743 z"
     inkscape:connector-curvature="0"
     style="fill:#e6e9ed" /><rect
     id="rect54"
     height="46.593727"
     width="464.16422"
     y="335.98926"
     x="23.925882"
     style="fill:#e6e9ed" /><path
     id="path56"
     d="m 271.99225,368.00575 c 0,8.83664 -7.14911,15.98425 -15.98425,15.98425 -8.83514,0 -16.00825,-7.14911 -16.00825,-15.98425 0,-8.83514 7.17161,-16.00825 16.00825,-16.00825 8.83664,0 15.98425,7.17161 15.98425,16.00825 z"
     inkscape:connector-curvature="0"
     style="fill:#434a54" /><path
     id="path58"
     d="m 352.0095,447.999 -192.003,0 c -8.83663,0 -16.00824,7.17161 -16.00824,16.00825 0,8.83663 7.17161,15.98425 16.00824,15.98425 l 192.003,0 c 8.83664,0 15.98425,-7.14912 15.98425,-15.98425 0,-8.83514 -7.14911,-16.00825 -15.98425,-16.00825 z"
     inkscape:connector-curvature="0"
     style="fill:#e6e9ed" /><path
     style="fill:#e05353;fill-opacity:1"
     inkscape:connector-curvature="0"
     d="m 349.94259,210.54913 c 0,51.89792 -41.987,93.87611 -93.87611,93.87611 -51.88912,0 -94.01707,-41.987 -94.01707,-93.87611 0,-51.88912 42.11914,-94.01707 94.01707,-94.01707 51.89792,0 93.87611,42.11914 93.87611,94.01707 z"
     id="path7261" /><g
     transform="matrix(4.2777612,0,0,4.2777612,-631.77246,-287.54889)"
     style="font-style:normal;font-weight:normal;font-size:40px;line-height:125%;font-family:sans-serif;letter-spacing:0px;word-spacing:0px;fill:#ffffff;fill-opacity:1;stroke:none;stroke-width:1px;stroke-linecap:butt;stroke-linejoin:miter;stroke-opacity:1"
     id="flowRoot7246"><path
       d="m 212.89109,130.20247 0,-1.2 -0.96,-0.08 c -1.8,-0.2 -2.48,-1.12 -2.48,-3.32 l 0,-14.8 -1.36,0 c -2.44,0.44 -3.76,0.64 -5.88,0.8 l 0,1.2 0.8,0.08 c 2.08,0.2 2.64,0.92 2.64,3.32 l 0,9.4 c 0,2.2 -0.72,3.12 -2.48,3.32 l -1,0.08 0,1.2 10.72,0 z m -3.08,-25.2 c 0,-1.28 -1.08,-2.36 -2.32,-2.36 -1.32,0 -2.4,1.04 -2.4,2.36 0,1.28 1.08,2.36 2.36,2.36 1.28,0 2.36,-1.08 2.36,-2.36 z"
       style="font-style:normal;font-variant:normal;font-weight:normal;font-stretch:normal;font-family:'TeX Gyre Bonum Math';-inkscape-font-specification:'TeX Gyre Bonum Math';fill:#ffffff"
       id="path8024" /></g></svg>