<?xml version="1.0" encoding="UTF-8" standalone="no"?>
<svg
   xmlns:osb="http://www.openswatchbook.org/uri/2009/osb"
   xmlns:dc="http://purl.org/dc/elements/1.1/"
   xmlns:cc="http://creativecommons.org/ns#"
   xmlns:rdf="http://www.w3.org/1999/02/22-rdf-syntax-ns#"
   xmlns:svg="http://www.w3.org/2000/svg"
   xmlns="http://www.w3.org/2000/svg"
   id="Icon"
   version="1.1"
   viewBox="0 0 63.138672 43.469002"
   width="63.138672"
   height="43.469002">

  <metadata
     id="metadata5">
    <rdf:RDF>
      <cc:Work
         rdf:about="">
        <dc:format>image/svg+xml</dc:format>
        <dc:type
           rdf:resource="http://purl.org/dc/dcmitype/StillImage" />
        <dc:title></dc:title>
      </cc:Work>
    </rdf:RDF>
  </metadata>
  <path
     id="icon-maincolor" style="fill:var(--icon-main);"

     d="M 31.412109,18.426702 0.19140625,18.467718 0,20.475531 h 0.2890625 l 4.3417969,0.06055 V 33.51264 H 7.9082031 V 20.536078 l 22.2675779,-0.154297 -3.132812,4.947265 -2.052735,-3.527344 -0.08594,-0.144531 h -3.140625 l 0.277344,0.447266 3.367187,5.527344 -6.125,8.707031 -0.324219,0.46875 h 2.148438 v -0.0078 c 14.1525,0.02811 27.69141,-0.06573 41.839844,-0.123047 l 0.0293,-0.265624 0.128907,-1.363282 0.0332,-0.322265 -40.669922,0.07813 3.888672,-5.710938 2.550781,4.269531 0.08594,0.146485 h 3.146484 l -0.275391,-0.453125 -3.847656,-6.222657 5.21875,-7.949218 0.302734,-0.457032 z m 25.875,3.09961 c -0.464689,0 -0.902186,0.03637 -1.308593,0.105469 -0.411724,0.06886 -0.794218,0.176019 -1.144532,0.314453 -0.350211,0.138905 -0.668175,0.314363 -0.960937,0.517578 -0.293285,0.203293 -0.553233,0.439909 -0.78125,0.705078 l -0.0039,0.0078 c -0.224472,0.264697 -0.424614,0.558164 -0.595703,0.875 -0.162437,0.318093 -0.301281,0.664141 -0.41211,1.035157 -0.105095,0.365756 -0.181415,0.755806 -0.234375,1.167969 -0.05328,0.410513 -0.07813,0.842733 -0.07813,1.291015 0,0.452522 0.02484,0.880503 0.07813,1.291016 0.0489,0.411691 0.124957,0.807405 0.230469,1.18164 0.106345,0.378398 0.241441,0.728685 0.404297,1.050782 0.162541,0.325395 0.354174,0.622531 0.578125,0.894531 0.228538,0.273335 0.484636,0.51791 0.773437,0.730469 0.288801,0.20769 0.606558,0.387309 0.960938,0.533203 0.354694,0.146993 0.737282,0.256268 1.152343,0.330078 0.411725,0.07272 0.857411,0.109375 1.333985,0.109375 0.459787,0 0.894917,-0.03637 1.306641,-0.105469 0.414954,-0.07413 0.801709,-0.183262 1.160156,-0.326172 0.354694,-0.142989 0.684912,-0.321607 0.986328,-0.529297 0.301,-0.207377 0.568635,-0.447368 0.8125,-0.720703 0.240737,-0.272863 0.453589,-0.570304 0.632812,-0.896484 0.175157,-0.32139 0.324558,-0.672462 0.439454,-1.050781 0.235419,-0.745723 0.355468,-1.575837 0.355468,-2.492188 v -0.0039 c 0,-0.908185 -0.12005,-1.730203 -0.355468,-2.462891 -0.114895,-0.371409 -0.259813,-0.718319 -0.439454,-1.035156 -0.179223,-0.322175 -0.386321,-0.615769 -0.626953,-0.880859 -0.239903,-0.264776 -0.50913,-0.495926 -0.810547,-0.699219 -0.29735,-0.203215 -0.624808,-0.374511 -0.982422,-0.517578 -0.354379,-0.138434 -0.736449,-0.245353 -1.152343,-0.314453 -0.410891,-0.06855 -0.850023,-0.105469 -1.31836,-0.105469 z m -12.333984,0.0039 c -0.09696,0 -0.256838,-7.4e-5 -0.472656,0.0078 -0.170675,0 -0.336826,0.0031 -0.507813,0.01172 -0.18329,0.0047 -0.354564,0.01288 -0.521484,0.02148 -0.18329,0.0078 -0.354723,0.01556 -0.517578,0.02734 -0.187355,0.01335 -0.353668,0.0246 -0.503906,0.0332 -0.138459,0.01257 -0.29734,0.02529 -0.476563,0.04492 l -0.126953,0.01172 c -0.267949,0.02434 -0.50469,0.0507 -0.675781,0.06641 l -0.265625,0.02734 v 11.607422 l 0.261718,0.0293 c 0.126259,0.01257 0.244161,0.0226 0.367188,0.03516 0.113644,0.0078 0.255531,0.02142 0.417969,0.0332 l 0.449218,0.0293 0.462891,0.03125 c 0.147112,0.0086 0.315076,0.01749 0.490234,0.02539 0.158371,0.0086 0.32542,0.0077 0.496094,0.01563 0.163688,7e-4 0.329646,0.0098 0.492188,0.0098 l 0.460937,0.0078 c 0.550598,0 1.062489,-0.0414 1.539063,-0.119141 0.476469,-0.07295 0.917298,-0.19072 1.316406,-0.341797 0.394209,-0.154294 0.76166,-0.342637 1.08789,-0.5625 0.329463,-0.224493 0.626645,-0.4769 0.882813,-0.765624 0.252518,-0.2859 0.472488,-0.599109 0.660156,-0.945313 0.18329,-0.34212 0.332316,-0.712102 0.451172,-1.115234 0.113644,-0.395515 0.200363,-0.809727 0.257813,-1.25 0.05619,-0.43988 0.08398,-0.895889 0.08398,-1.369141 0,-0.487935 -0.03525,-0.94364 -0.109375,-1.367188 -0.07288,-0.427315 -0.186977,-0.823443 -0.333984,-1.177734 -0.147007,-0.358767 -0.328589,-0.684706 -0.53711,-0.974609 -0.211857,-0.297285 -0.455666,-0.561742 -0.728515,-0.789063 v -0.0078 c -0.273267,-0.224416 -0.571401,-0.424859 -0.896485,-0.591797 v 0.0078 c -0.326543,-0.167016 -0.676647,-0.300107 -1.046875,-0.402343 -0.375025,-0.10145 -0.766899,-0.179836 -1.173828,-0.228516 -0.407657,-0.0534 -0.834779,-0.07617 -1.283203,-0.07617 z m -26.677734,0.119141 v 7.916015 c 0,0.249307 -0.0087,0.472743 -0.02539,0.671875 -0.01262,0.203214 -0.0325,0.392226 -0.06055,0.554688 v 0.0078 c -0.02075,0.138435 -0.06227,0.255286 -0.115234,0.353516 -0.04921,0.08959 -0.114047,0.163407 -0.191407,0.216797 l -0.0039,0.0078 c -0.09363,0.06878 -0.204555,0.134867 -0.322265,0.191407 -0.126259,0.05748 -0.259918,0.109537 -0.410157,0.154297 -0.147007,0.04091 -0.31418,0.07724 -0.501953,0.09766 -0.183602,0.02434 -0.385583,0.03711 -0.605469,0.03711 -0.183707,0 -0.355355,-0.0089 -0.509765,-0.02148 -0.159622,-0.01099 -0.305221,-0.02644 -0.435547,-0.05078 -0.118856,-0.02481 -0.224576,-0.05874 -0.322266,-0.107422 -0.09821,-0.04484 -0.182825,-0.105532 -0.259765,-0.169922 v -0.0078 c -0.0734,-0.06478 -0.139013,-0.151067 -0.195313,-0.248047 -0.06547,-0.110716 -0.119386,-0.237792 -0.160156,-0.380859 -0.04473,-0.146129 -0.07748,-0.324031 -0.101562,-0.53125 -0.02074,-0.204471 -0.0332,-0.445494 -0.0332,-0.71875 v -7.96875 H 11.25782 v 7.746094 c 10e-7,0.379497 0.0267,0.733021 0.08008,1.0625 0.05296,0.333482 0.135682,0.635124 0.246093,0.904297 0.109474,0.272864 0.247358,0.520196 0.40625,0.74414 0.162438,0.228578 0.345048,0.428412 0.552735,0.603516 h 0.0039 c 0.20852,0.171021 0.432514,0.317665 0.677734,0.439453 0.24397,0.12218 0.507504,0.219939 0.792969,0.292969 0.280564,0.07373 0.579122,0.131872 0.888672,0.164062 0.309444,0.03769 0.63381,0.05664 0.972656,0.05664 0.406511,0 0.798386,-0.02859 1.173828,-0.08984 0.370228,-0.05662 0.715786,-0.14206 1.029297,-0.259765 0.322164,-0.114092 0.615822,-0.253652 0.888672,-0.41211 0.272015,-0.159635 0.518396,-0.337977 0.738281,-0.537109 0.215923,-0.203215 0.405761,-0.423099 0.572266,-0.660157 0.167024,-0.239491 0.305131,-0.492859 0.419922,-0.761718 0.109577,-0.265169 0.195023,-0.542002 0.251953,-0.826172 0.05338,-0.285899 0.08203,-0.579591 0.08203,-0.876953 v -0.0039 -7.589843 z m 14.291015,0.01953 v 11.855469 h 6.730469 0.269531 l 0.02344,-0.273438 0.09961,-1.111328 0.02734,-0.314453 -0.314453,-0.0078 -4.072266,-0.08203 v -3.449218 l 3.3125,-0.07617 0.263672,-0.0098 0.02344,-0.259766 0.09961,-1.039062 0.03125,-0.31836 -0.322266,-0.0078 -3.408203,-0.04492 v -3.082031 l 3.636719,-0.04883 h 0.265625 l 0.02734,-0.259766 0.111328,-1.144531 0.03125,-0.326172 z m 11.919922,1.591797 c 0.264717,0 0.516603,0.0147 0.761719,0.04297 0.243969,0.02945 0.475323,0.07432 0.695312,0.130859 v 0.0078 c 0.215819,0.05732 0.419809,0.134092 0.603516,0.236328 0.186522,0.102235 0.362426,0.224743 0.517578,0.363281 0.158893,0.146993 0.305799,0.317916 0.431641,0.513672 0.12626,0.199288 0.239944,0.432568 0.333984,0.697265 0.195903,0.52861 0.292969,1.216545 0.292969,2.054688 0,0.358767 -0.0048,0.67866 -0.02148,0.958984 -0.01668,0.293986 -0.03515,0.553183 -0.06445,0.789063 -0.03211,0.228028 -0.0647,0.439383 -0.105468,0.638672 -0.04025,0.19175 -0.08571,0.358689 -0.138672,0.509765 -0.04879,0.145815 -0.10591,0.280556 -0.16211,0.402344 -0.05745,0.114799 -0.115101,0.217224 -0.175781,0.302734 v 0.0078 c -0.06151,0.08143 -0.127042,0.163298 -0.201172,0.236328 -0.06475,0.06886 -0.133321,0.134866 -0.207031,0.191406 -0.138874,0.102157 -0.29248,0.186736 -0.458984,0.259766 -0.167025,0.06965 -0.350811,0.123232 -0.550782,0.164062 -0.203203,0.03604 -0.438303,0.06474 -0.703125,0.08594 h -0.0039 c -0.256585,0.01571 -0.548229,0.02734 -0.86914,0.02734 h -0.101563 -0.126953 c -0.06881,-0.0039 -0.16931,-0.01163 -0.271484,-0.01953 h -0.02148 l -0.158203,-0.01172 -0.134766,-0.01758 v -0.0039 -8.517578 c 0.0415,-0.0039 0.07726,-0.0038 0.109375,-0.01172 l 0.160157,-0.01172 0.154296,-0.01172 0.154297,-0.0078 c 0.07288,-0.0079 0.176119,-0.0078 0.261719,-0.0078 z m 12.800781,0.183594 c 0.248452,0 0.478716,0.02555 0.691407,0.07031 0.203203,0.04484 0.394585,0.109629 0.566406,0.199219 h 0.0039 c 0.167859,0.08551 0.32581,0.194049 0.46875,0.320312 0.141794,0.130346 0.268599,0.278375 0.378906,0.445313 h 0.0039 c 0.113643,0.171099 0.211385,0.362446 0.296875,0.574219 0.08956,0.215779 0.157503,0.448546 0.214843,0.705078 0.05745,0.264776 0.0989,0.545003 0.126953,0.83789 0.02815,0.293201 0.04102,0.607177 0.04102,0.949219 v 0.0078 c 0,0.252134 7.76e-4,0.476649 -0.0078,0.675781 -0.0041,0.212637 -0.01668,0.431059 -0.0293,0.654297 -0.01668,0.208475 -0.03141,0.411784 -0.05664,0.599609 -0.02003,0.199131 -0.05014,0.384138 -0.07422,0.554688 -0.03211,0.167095 -0.06413,0.319724 -0.101562,0.466797 -0.0367,0.142988 -0.07251,0.265461 -0.113281,0.375 l -0.0039,0.0078 c -0.03264,0.102157 -0.07268,0.186821 -0.109375,0.244141 h -0.0039 c -0.0293,0.04491 -0.05805,0.07335 -0.08203,0.08984 l -0.01172,0.0078 c -0.113645,0.08143 -0.24503,0.156313 -0.386719,0.220703 -0.147008,0.06565 -0.301564,0.120069 -0.472656,0.167969 -0.170986,0.04907 -0.371334,0.08503 -0.595703,0.109375 -0.223221,0.02435 -0.477667,0.03711 -0.757812,0.03711 -0.256586,0 -0.491372,-0.02359 -0.703126,-0.07227 -0.207267,-0.04523 -0.395635,-0.120001 -0.558593,-0.212891 -0.166505,-0.09407 -0.314827,-0.208231 -0.449219,-0.341797 -0.130325,-0.13443 -0.247329,-0.293646 -0.349609,-0.46875 -0.105094,-0.182485 -0.195402,-0.387561 -0.269532,-0.607422 -0.07694,-0.224023 -0.140706,-0.464094 -0.185547,-0.720703 -0.04483,-0.264698 -0.08261,-0.549409 -0.107421,-0.851563 -0.02001,-0.293278 -0.03125,-0.606068 -0.03125,-0.935546 0,-0.541252 0.01108,-1.023032 0.03516,-1.44336 0.02805,-0.414518 0.07009,-0.776011 0.123047,-1.085937 0.05328,-0.296892 0.117952,-0.536961 0.195312,-0.720703 0.06443,-0.158378 0.139437,-0.268829 0.216797,-0.330078 0.09769,-0.08143 0.218964,-0.151627 0.357422,-0.216797 0.141794,-0.0647 0.308482,-0.11735 0.492187,-0.16211 v -0.0078 c 0.187357,-0.0446 0.387857,-0.08113 0.59961,-0.105469 0.204454,-0.02513 0.420315,-0.03711 0.648437,-0.03711 z" />
  
<path
     d="m 40.794922,38.010015 v 5.371094 h 0.826172 v -5.371094 z m -19.863281,0.0918 c -1.555068,0 -1.949219,0.81188 -1.949219,2.685547 0,1.775053 0.363809,2.677734 1.949219,2.677734 0.485485,0 1.12394,-0.09211 1.480468,-0.167969 l -0.02344,-0.697265 c -0.326185,0.0531 -0.933443,0.113281 -1.320313,0.113281 -1.024069,0 -1.21289,-0.49967 -1.21289,-1.925781 0,-1.471625 0.235608,-1.935547 1.191406,-1.935547 0.371699,0 1.000441,0.06236 1.341797,0.123047 l 0.0293,-0.683594 c -0.326185,-0.07586 -0.947743,-0.189453 -1.486328,-0.189453 z m 10.554687,0.386719 V 39.58814 H 31 v 0.705078 h 0.486328 v 1.759766 c 0,1.09234 0.265864,1.412109 1.123047,1.412109 0.2655,0 0.773437,-0.09961 0.773437,-0.09961 l -0.03711,-0.660156 c 0,0 -0.410648,0.02344 -0.623047,0.02344 -0.394456,0 -0.417968,-0.196698 -0.417968,-0.765625 V 40.29322 h 1.046874 v -0.70508 h -1.046874 v -1.099609 z m -6.828125,1.015625 c -1.266812,0 -1.691406,0.730101 -1.691406,1.958984 0,1.259226 0.394252,2.001953 1.691406,2.001953 1.30474,0 1.691406,-0.742727 1.691406,-2.001953 0,-1.228883 -0.424595,-1.958984 -1.691406,-1.958984 z m 4.371094,0 c -0.493071,0 -1.046875,0.320312 -1.046875,0.320312 V 39.58814 h -0.81836 v 3.792969 h 0.826172 V 40.43775 c 0,0 0.417451,-0.197266 0.857422,-0.197266 0.576513,0 0.675782,0.372289 0.675782,1.130859 v 2.009766 h 0.818359 v -2.033203 c 0,-1.244055 -0.258089,-1.84375 -1.3125,-1.84375 z m 7.103515,0 c -0.644784,0.121372 -1.291015,0.539062 -1.291015,0.539062 V 39.58814 h -0.818359 v 3.792969 h 0.826171 v -2.646485 c 0,0 0.592906,-0.2658 1.283203,-0.402343 z m 2.111329,0 c -1.266811,0 -1.691407,0.730101 -1.691407,1.958984 0,1.259226 0.394253,2.001953 1.691407,2.001953 1.30474,0 1.691406,-0.742727 1.691406,-2.001953 0,-1.228883 -0.424594,-1.958984 -1.691406,-1.958984 z m -13.585938,0.699218 c 0.667541,0 0.857422,0.379825 0.857422,1.259766 0,0.879941 -0.151953,1.304688 -0.857422,1.304688 -0.70547,0 -0.857422,-0.424747 -0.857422,-1.304688 0,-0.879941 0.18988,-1.259766 0.857422,-1.259766 z m 13.585938,0 c 0.667542,0 0.857422,0.379825 0.857421,1.259766 0,0.879941 -0.151951,1.304688 -0.857421,1.304688 -0.70547,0 -0.857422,-0.424747 -0.857422,-1.304688 0,-0.879941 0.189881,-1.259766 0.857422,-1.259766 z"
     id="icon-detailcolor" style="fill:var(--icon-detail);"/>


  <path
     d="m 44.519531,38.060796 c -1.577824,0 -1.919922,0.941744 -1.919922,2.716797 0,1.729539 0.349683,2.685547 1.919922,2.685547 0.500656,0 1.075566,-0.0843 1.447266,-0.160156 l -0.02148,-0.5 c -0.364113,0.06827 -0.926763,0.136719 -1.351562,0.136719 -1.19854,0 -1.386719,-0.69807 -1.386719,-2.16211 0,-1.494382 0.20485,-2.193359 1.373047,-2.193359 0.409628,0 1.023878,0.07604 1.365234,0.136719 l 0.02148,-0.492188 c -0.333771,-0.06827 -0.908681,-0.167969 -1.447266,-0.167969 z m 10.31836,0.373047 V 39.594 h -0.539063 v 0.492187 h 0.539063 v 1.996094 c 0,1.09234 0.265548,1.386719 1.046875,1.386719 0.265499,0 0.773437,-0.08203 0.773437,-0.08203 l -0.03906,-0.470703 c 0,0 -0.461429,0.04492 -0.673829,0.04492 -0.493071,0 -0.546874,-0.235659 -0.546874,-1.0625 v -1.8125 h 1.207031 V 39.594 H 55.39844 v -1.160157 z m 8.255859,1.076172 c -0.728227,0.144128 -1.388672,0.599609 -1.388672,0.599609 V 39.594 h -0.560547 v 3.792968 h 0.56836 v -2.785156 c 0,0 0.667803,-0.371497 1.380859,-0.515625 z m -14.917969,0.0078 c -0.963384,0 -1.583984,0.552857 -1.583984,1.99414 0,1.289568 0.371684,1.951172 1.501953,1.951172 0.614441,0 1.478516,-0.123047 1.478516,-0.123047 l -0.01563,-0.447265 c 0,0 -0.825604,0.06836 -1.394532,0.06836 -0.743398,0 -0.99414,-0.424658 -0.99414,-1.236328 h 2.501953 l 0.03125,-0.431641 c 0,-1.244054 -0.516494,-1.77539 -1.525391,-1.77539 z m 4.15625,0 c -0.561341,0 -1.175781,0.341796 -1.175781,0.341796 V 39.594 h -0.560547 v 3.792968 h 0.568359 V 40.30689 c 0,0 0.524143,-0.28125 1.070313,-0.28125 0.70547,0 0.818359,0.371735 0.818359,1.373047 v 1.988281 h 0.560547 v -2.003906 c 0,-1.350254 -0.234423,-1.865234 -1.28125,-1.865234 z m 6.392578,0 c -0.963383,0 -1.583984,0.552857 -1.583984,1.99414 0,1.289568 0.371684,1.951172 1.501953,1.951172 0.614441,0 1.478516,-0.123047 1.478516,-0.123047 l -0.01563,-0.447265 c 0,0 -0.825605,0.06836 -1.394531,0.06836 -0.743398,0 -0.994141,-0.424658 -0.994141,-1.236328 H 60.21875 L 60.25,41.293218 c 0,-1.244054 -0.516493,-1.77539 -1.525391,-1.77539 z M 48.175781,39.99633 c 0.667541,0 0.957032,0.332812 0.957031,1.273438 h -1.972656 c 0.0076,-0.917869 0.37084,-1.273438 1.015625,-1.273438 z m 10.548828,0 c 0.667542,0 0.957032,0.332812 0.957032,1.273438 h -1.972657 c 0.0076,-0.917869 0.370841,-1.273438 1.015625,-1.273438 z"
     id="icon-maincolor" style="fill:var(--icon-main);" />
  
<path
     d="m 27.280251,2.8012092 c -0.09901,-0.00114 -0.198355,-4e-5 -0.297217,0.00229 -2.636331,0.060618 -5.205202,1.282526 -6.905261,3.5051444 -2.459986,3.2161265 -2.421736,7.6417694 -0.05028,10.8003674 h 1.74978 C 19.091499,14.40498 18.813201,10.144721 21.130322,7.1153753 23.452776,4.0790556 27.652236,3.233123 30.968643,5.1342975 a 0.66311599,0.66311599 0 1 0 0.65924,-1.1497563 C 30.262334,3.2017212 28.765365,2.8163066 27.280251,2.8012607 Z M 13.208267,5.808015 c -1.151643,0.00795 -2.304922,0.2825191 -3.3643593,0.829079 -2.4215689,1.2492707 -3.9703142,3.723081 -4.0347728,6.447144 -0.034096,1.440954 0.3508067,2.83256 1.06931,4.024719 h 1.613462 C 7.5962262,15.998709 7.1005523,14.589724 7.1354364,13.115526 7.1884802,10.873948 8.4590903,8.8439056 10.451749,7.8159008 12.44441,6.7879017 14.835888,6.9286463 16.693301,8.1846333 A 0.66311599,0.66311599 0 1 0 17.436343,7.0862676 C 16.307738,6.3231044 15.014296,5.8980728 13.701021,5.8203034 c -0.164159,-0.00973 -0.328234,-0.013444 -0.492754,-0.0123 z"
     id="icon-detailcolor" style="fill:var(--icon-detail);"/>
  
<path
     id="icon-maincolor"
     d="M 13.25918,2.973215e-8 C 12.259897,2.973215e-8 11.58795,0.14299301 11.137938,0.60554754 10.687926,1.0681022 10.69049,1.6490388 10.684165,2.0544134 10.677837,2.4597938 10.66857,2.7698017 10.538087,3.0365598 10.4076,3.3033123 10.148246,3.6047217 9.3914761,3.9182078 8.6347351,4.2316654 8.2383811,4.2018826 7.9573729,4.1054631 7.6763658,4.0090494 7.450466,3.7964164 7.1591236,3.5141604 6.8677806,3.2319044 6.4582309,2.8191441 5.8128208,2.8104484 5.1674113,2.8017527 4.5909456,3.1760574 3.8840202,3.8829788 3.1771063,4.5899345 2.8027999,5.1663801 2.8114859,5.811785 2.8201702,6.45719 3.2329522,6.8667237 3.515199,7.1580873 3.7974435,7.4494451 4.0100875,7.6752877 4.1065058,7.9563365 4.2029235,8.2373797 4.2327023,8.6339099 3.9192459,9.3907 3.6057878,10.147496 3.3042113,10.406765 3.0373382,10.53731 2.7704645,10.667848 2.4605178,10.677208 2.0549355,10.683644 1.6493537,10.690108 1.068047,10.68822 0.60555183,11.138195 0.14305606,11.588444 4.1510718e-6,12.260703 1.4646731e-7,13.260475 c 0,0.999767 0.14303474353269,1.672037 0.60555168353269,2.122275 0.46251697,0.450237 1.04379897,0.44788 1.44938367,0.454294 0.4055834,0.0064 0.7157995,0.01579 0.9826612,0.146334 0.2641163,0.129177 0.562088,0.386226 0.872065,1.125116 H 5.3160525 C 5.2682432,16.950821 5.2137863,16.790031 5.1443333,16.622341 4.7485337,15.666768 4.2116026,15.081255 3.6200962,14.791962 3.0285898,14.502669 2.4601957,14.517275 2.0759162,14.511205 c -0.3842813,-0.0061 -0.5042375,-0.03862 -0.5454621,-0.07874 -0.041225,-0.0401 -0.2043544,-0.318309 -0.2043544,-1.171988 4e-6,-0.85369 0.1631076,-1.132101 0.2043544,-1.172256 0.041247,-0.04016 0.1611819,-0.07264 0.5454621,-0.07874 0.3842795,-0.0061 0.9526868,0.0083 1.54418,-0.281015 C 4.2115894,11.439135 4.7485337,10.853685 5.1443333,9.8980834 5.5401341,8.9424875 5.5745383,8.1489695 5.36086,7.5261276 5.1471829,6.9032915 4.7349769,6.5115725 4.4675557,6.2355122 4.2001334,5.9594577 4.1383612,5.8514936 4.1375855,5.7939131 4.1367846,5.7363269 4.2180037,5.4242194 4.8216137,4.8205768 5.4252277,4.216957 5.7374072,4.1357723 5.7949505,4.1365446 5.8524939,4.1371167 5.9602503,4.1990851 6.2362923,4.4665183 6.5123342,4.7339515 6.9040841,5.1461282 7.5269076,5.3598197 8.1497329,5.5735111 8.9433105,5.5391115 9.8988646,5.1432964 10.854386,4.7474756 11.439939,4.2107442 11.729245,3.6193156 12.01855,3.027887 12.00401,2.4593533 12.010005,2.0751344 c 0.006,-0.3842189 0.03861,-0.5039623 0.07848,-0.5449409 0.03986,-0.040961 0.317541,-0.2040517 1.170439,-0.2040975 h 2.64e-4 c 0.852879,3.032e-4 1.131423,0.1634909 1.171993,0.205133 0.04058,0.041648 0.07301,0.1613913 0.07951,0.5454615 0.0065,0.3840644 -0.0072,0.952335 0.282313,1.5434031 0.289546,0.5910625 0.87476,1.1275536 1.829862,1.5232028 0.955553,0.3958151 1.749392,0.4302147 2.372215,0.2165233 0.07261,-0.024886 0.141467,-0.05309 0.20798,-0.082878 0.710954,-0.8774374 1.544759,-1.6100798 2.459501,-2.1909134 -0.31738,-0.185499 -0.62655,-0.2799847 -0.953393,-0.2755797 -0.645411,0.0087 -1.054957,0.421456 -1.346302,0.703712 -0.291344,0.282256 -0.517241,0.494889 -0.798249,0.5913027 C 18.28361,4.2018826 17.88725,4.2316654 17.130515,3.9182078 16.374126,3.6048761 16.114643,3.3034438 15.983905,3.0365598 15.853165,2.7696701 15.843663,2.4598854 15.836791,2.0544134 15.82992,1.6489415 15.831127,1.0678963 15.380944,0.60580498 14.930746,0.14371384 14.258746,2.9751463e-4 13.259444,2.9732154e-8 Z M 33.408378,5.3795052 a 0.13260992,0.13260992 0 0 0 -0.09557,0.038845 l -6.571184,5.8211098 0.0015,0.0017 a 0.66304962,0.66304962 0 0 0 -0.03264,0.02952 0.66304962,0.66304962 0 0 0 0,0.937592 0.66304962,0.66304962 0 0 0 0.937853,0 0.66304962,0.66304962 0 0 0 0.02978,-0.03209 l 0.0011,0.0011 5.825255,-6.5750687 -2.65e-4,-2.632e-4 a 0.13260992,0.13260992 0 0 0 -0.0039,-0.1833766 0.13260992,0.13260992 0 0 0 -0.09195,-0.038845 z m 0.931637,1.5817386 a 0.66311604,0.66311604 0 0 0 -0.548053,1.0000127 c 1.702639,2.9773835 1.207454,6.7152815 -1.207993,9.1472375 h 1.747758 c 2.116384,-2.819356 2.400007,-6.677644 0.611248,-9.8056288 A 0.66311604,0.66311604 0 0 0 34.340015,6.9612438 Z M 16.430422,10.093891 c -4.238456,0 -2.563692,0.0103 -6.802216,0.01579 L 9.5523176,10.8494 c 3.8202804,0.0085 1.7799604,-0.02597 5.5970714,-0.0078 l -1.194784,1.886323 -0.815602,-1.400696 h -1.19608 l 1.389038,2.278974 -2.460019,3.497588 c 4.238591,0 2.577032,-0.01842 6.815684,-0.03598 0.02425,-0.248194 0.04903,-0.495409 0.0733,-0.743597 l -5.550451,0.01865 1.483315,-2.177962 1.004417,1.683004 h 1.200223 l -1.57267,-2.546522 z"
     style="fill:var(--icon-main);" />
</svg>
