<?xml version="1.0" encoding="UTF-8" standalone="no"?>
<svg
   xmlns:osb="http://www.openswatchbook.org/uri/2009/osb"
   xmlns:dc="http://purl.org/dc/elements/1.1/"
   xmlns:cc="http://creativecommons.org/ns#"
   xmlns:rdf="http://www.w3.org/1999/02/22-rdf-syntax-ns#"
   xmlns:svg="http://www.w3.org/2000/svg"
   xmlns="http://www.w3.org/2000/svg"
   height="43.930511"
   width="63.138672"
   viewBox="0 0 63.138672 43.930512"
   version="1.1"
   id="Icon">
  <defs
     id="defs2">
    <linearGradient
       id="linearGradient12666"
       osb:paint="solid">
      <stop
         style="stop-color:#e27b00;stop-opacity:1;"
         offset="0"
         id="stop12664" />
    </linearGradient>
  </defs>
  <metadata
     id="metadata5">
    <rdf:RDF>
      <cc:Work
         rdf:about="">
        <dc:format>image/svg+xml</dc:format>
        <dc:type
           rdf:resource="http://purl.org/dc/dcmitype/StillImage" />
        <dc:title></dc:title>
      </cc:Work>
    </rdf:RDF>
  </metadata>
  <path
     id="icon-maincolor"
     d="M 12.848185,2.3400879e-6 C 11.878219,2.3400879e-6 11.215492,0.13760534 10.766612,0.59900934 10.31773,1.0604663 10.3221,1.6374033 10.315973,2.0295383 c -0.0061,0.392188 -0.01581,0.681618 -0.136189,0.92785 -0.12042,0.246175 -0.3591135,0.529511 -1.0828611,0.829308 -0.7236966,0.299744 -1.0936767,0.268328 -1.3530235,0.17937 C 7.4845526,3.8770463 7.2728155,3.6788253 6.9909895,3.4058123 6.7091352,3.1326853 6.3038896,2.7224083 5.6601107,2.7138003 c -0.6437673,-0.009 -1.2104802,0.362286 -1.8966685,1.048537 -0.6861772,0.686194 -1.0571863,1.252902 -1.0485378,1.896669 0.00867,0.643771 0.4189811,1.050136 0.6920128,1.331986 0.2730485,0.281902 0.4712761,0.493512 0.5602535,0.752909 0.088989,0.259398 0.1204004,0.628135 -0.1793697,1.351917 -0.2997701,0.723672 -0.5830099,0.9623897 -0.8293081,1.0828607 -0.2463096,0.120477 -0.536598,0.131105 -0.9289579,0.137296 -0.3923599,0.0067 -0.9691947,0.0052 -1.43052877,0.451746 C 0.13768364,11.21685 0,11.879881 0,12.850402 c 0,0.970409 0.13765543,1.633603 0.59900623,2.082682 0.46134557,0.449078 1.03816887,0.445555 1.43052877,0.451746 0.3923599,0.0062 0.6826598,0.01594 0.9289579,0.136188 0.2462872,0.120465 0.529538,0.359138 0.8293081,1.082861 0.038319,0.09245 0.0716,0.178779 0.09965,0.260197 H 5.309122 C 5.2537536,16.615316 5.1707262,16.353325 5.0566756,16.07795 4.671619,15.148341 4.1444304,14.5724 3.561928,14.287574 2.9794147,14.002686 2.4219654,14.016625 2.0516794,14.010769 c -0.3702917,-0.0062 -0.4698773,-0.03753 -0.4949275,-0.062 -0.025039,-0.02421 -0.1837986,-0.279265 -0.1837986,-1.098363 0,-0.819268 0.1587421,-1.073997 0.1837986,-1.098362 0.025096,-0.02421 0.124619,-0.05726 0.4949275,-0.06311 0.370297,-0.0062 0.9277463,0.008 1.5102486,-0.276805 C 4.1444194,11.127236 4.671619,10.55142 5.0566756,9.6217493 5.4417265,8.6921403 5.4763504,7.9121243 5.2659403,7.2988013 5.0555129,6.6854163 4.6500249,6.3003903 4.3923434,6.0343553 c -0.257687,-0.265982 -0.304007,-0.35917 -0.3044856,-0.39417 0,-0.03486 0.068513,-0.326537 0.6477239,-0.905706 0.5791936,-0.579227 0.870747,-0.648174 0.9057063,-0.647724 0.034943,0 0.1281607,0.04876 0.3941702,0.3067 0.2659863,0.257709 0.6499898,0.662047 1.2633387,0.87249 0.6133484,0.210447 1.3944438,0.174729 2.3240555,-0.210372 0.9295606,-0.385048 1.5054776,-0.911205 1.7903756,-1.49364 0.284905,-0.582436 0.269919,-1.141114 0.275698,-1.511356 0.0057,-0.370191 0.03897,-0.469006 0.06311,-0.493821 0.02414,-0.02477 0.27747,-0.183798 1.096147,-0.183798 0.818668,0 1.073543,0.159417 1.098363,0.184906 0.02487,0.02534 0.05793,0.124847 0.06422,0.494927 0.0062,0.370075 -0.0083,0.927046 0.276805,1.509142 0.285135,0.582096 0.862316,1.108706 1.791483,1.49364 0.929587,0.385101 1.709611,0.420819 2.322949,0.210372 0.613348,-0.210443 0.997339,-0.614781 1.263338,-0.87249 0.265998,-0.25771 0.359217,-0.306251 0.39417,-0.3067 0.03005,0 0.251938,0.05185 0.680941,0.43403 0.358902,-0.297491 0.738455,-0.569287 1.136008,-0.816021 -0.658882,-0.647429 -1.210107,-0.999403 -1.834664,-0.990962 -0.643784,0.009 -1.050137,0.418885 -1.331987,0.692012 -0.281843,0.273013 -0.494664,0.471234 -0.754017,0.560254 -0.259336,0.08896 -0.628219,0.120374 -1.351916,-0.17937 -0.723365,-0.299686 -0.962183,-0.582966 -1.082861,-0.829308 -0.120668,-0.246342 -0.13065,-0.535605 -0.137295,-0.92785 -0.0066,-0.39225 -0.0034,-0.969636 -0.452854,-1.43052896 C 14.481839,0.13811334 13.819287,2.8634009e-4 12.849292,4.3400879e-6 Z M 34.373658,7.6210003 33.304083,8.8633023 c 0.583887,1.024541 0.918993,2.2104467 0.918993,3.4777787 0,1.725361 -0.619571,3.301535 -1.646437,4.521888 h 1.924349 c 0.817851,-1.3146 1.292126,-2.863653 1.292126,-4.521888 0,-1.742352 -0.52368,-3.3641827 -1.419456,-4.7200807 z m -18.74192,2.204476 c -3.527418,0 -2.13374,0.0087 -5.661218,0.01329 L 9.907408,10.45438 c 3.179396,0.0071 1.481317,-0.02176 4.658076,-0.0066 L 13.5712,12.017773 12.892475,10.851869 h -0.995392 l 1.155939,1.896669 -2.047251,2.910882 c 3.527533,0 2.144704,-0.01524 5.67229,-0.02989 0.02015,-0.206558 0.04069,-0.412382 0.0609,-0.618936 l -4.619324,0.0155 1.234552,-1.812519 0.835951,1.400633 h 0.998713 l -1.308735,-2.119219 z"
     style="fill:var(--icon-main)" />
  <path
     id="icon-detail"
     d="m 27.203298,3.7512653 c -4.734807,0 -8.589816,3.854995 -8.589816,8.5898157 0,1.658179 0.474277,3.207288 1.292126,4.521888 h 1.924349 c -1.026877,-1.220353 -1.645329,-2.796583 -1.645329,-4.521888 0,-3.8861237 3.132561,-7.0186697 7.01867,-7.0186697 1.265539,0 2.450857,0.33335 3.474458,0.915671 l 1.242301,-1.070682 c -1.355029,-0.894164 -2.976106,-1.416135 -4.716759,-1.416135 z m -13.938797,2.060537 c -3.9907908,0 -7.2401148,3.249331 -7.2401148,7.2401147 0,1.397599 0.3990579,2.703007 1.0883977,3.811052 H 8.7348617 C 7.8693457,15.834374 7.3486221,14.50612 7.3486221,13.051917 c 0,-3.2754457 2.6404241,-5.9169857 5.9158789,-5.9169857 1.066676,0 2.064731,0.282063 2.92749,0.772839 l 1.047431,-0.902384 c -1.142098,-0.753717 -2.507789,-1.193584 -3.974921,-1.193584 z m 19.885678,0.407457 a 0.15703798,0.15703798 0 0 0 -0.09744,0.0454 l -6.328872,5.4519527 a 0.78518989,0.78518989 0 0 0 -0.07972,0.06865 0.78518989,0.78518989 0 0 0 0,1.109435 0.78518989,0.78518989 0 0 0 1.110542,0 0.78518989,0.78518989 0 0 0 0.07197,-0.08304 l 5.447523,-6.3244427 a 0.15703798,0.15703798 0 0 0 0,-0.222551 0.15703798,0.15703798 0 0 0 -0.124008,-0.0454 z"
     style="fill:var(--icon-detail)" />
  <path
     style="fill:var(--icon-main);"
     d="M 31.412109,18.426702 0.19140625,18.467718 0,20.475531 h 0.2890625 l 4.3417969,0.06055 V 33.51264 H 7.9082031 V 20.536078 l 22.2675779,-0.154297 -3.132812,4.947265 -2.052735,-3.527344 -0.08594,-0.144531 h -3.140625 l 0.277344,0.447266 3.367187,5.527344 -6.125,8.707031 -0.324219,0.46875 h 2.148438 v -0.0078 c 14.1525,0.02811 27.69141,-0.06573 41.839844,-0.123047 l 0.0293,-0.265624 0.128907,-1.363282 0.0332,-0.322265 -40.669922,0.07813 3.888672,-5.710938 2.550781,4.269531 0.08594,0.146485 h 3.146484 l -0.275391,-0.453125 -3.847656,-6.222657 5.21875,-7.949218 0.302734,-0.457032 z m 25.875,3.09961 c -0.464689,0 -0.902186,0.03637 -1.308593,0.105469 -0.411724,0.06886 -0.794218,0.176019 -1.144532,0.314453 -0.350211,0.138905 -0.668175,0.314363 -0.960937,0.517578 -0.293285,0.203293 -0.553233,0.439909 -0.78125,0.705078 l -0.0039,0.0078 c -0.224472,0.264697 -0.424614,0.558164 -0.595703,0.875 -0.162437,0.318093 -0.301281,0.664141 -0.41211,1.035157 -0.105095,0.365756 -0.181415,0.755806 -0.234375,1.167969 -0.05328,0.410513 -0.07813,0.842733 -0.07813,1.291015 0,0.452522 0.02484,0.880503 0.07813,1.291016 0.0489,0.411691 0.124957,0.807405 0.230469,1.18164 0.106345,0.378398 0.241441,0.728685 0.404297,1.050782 0.162541,0.325395 0.354174,0.622531 0.578125,0.894531 0.228538,0.273335 0.484636,0.51791 0.773437,0.730469 0.288801,0.20769 0.606558,0.387309 0.960938,0.533203 0.354694,0.146993 0.737282,0.256268 1.152343,0.330078 0.411725,0.07272 0.857411,0.109375 1.333985,0.109375 0.459787,0 0.894917,-0.03637 1.306641,-0.105469 0.414954,-0.07413 0.801709,-0.183262 1.160156,-0.326172 0.354694,-0.142989 0.684912,-0.321607 0.986328,-0.529297 0.301,-0.207377 0.568635,-0.447368 0.8125,-0.720703 0.240737,-0.272863 0.453589,-0.570304 0.632812,-0.896484 0.175157,-0.32139 0.324558,-0.672462 0.439454,-1.050781 0.235419,-0.745723 0.355468,-1.575837 0.355468,-2.492188 v -0.0039 c 0,-0.908185 -0.12005,-1.730203 -0.355468,-2.462891 -0.114895,-0.371409 -0.259813,-0.718319 -0.439454,-1.035156 -0.179223,-0.322175 -0.386321,-0.615769 -0.626953,-0.880859 -0.239903,-0.264776 -0.50913,-0.495926 -0.810547,-0.699219 -0.29735,-0.203215 -0.624808,-0.374511 -0.982422,-0.517578 -0.354379,-0.138434 -0.736449,-0.245353 -1.152343,-0.314453 -0.410891,-0.06855 -0.850023,-0.105469 -1.31836,-0.105469 z m -12.333984,0.0039 c -0.09696,0 -0.256838,-7.4e-5 -0.472656,0.0078 -0.170675,0 -0.336826,0.0031 -0.507813,0.01172 -0.18329,0.0047 -0.354564,0.01288 -0.521484,0.02148 -0.18329,0.0078 -0.354723,0.01556 -0.517578,0.02734 -0.187355,0.01335 -0.353668,0.0246 -0.503906,0.0332 -0.138459,0.01257 -0.29734,0.02529 -0.476563,0.04492 l -0.126953,0.01172 c -0.267949,0.02434 -0.50469,0.0507 -0.675781,0.06641 l -0.265625,0.02734 v 11.607422 l 0.261718,0.0293 c 0.126259,0.01257 0.244161,0.0226 0.367188,0.03516 0.113644,0.0078 0.255531,0.02142 0.417969,0.0332 l 0.449218,0.0293 0.462891,0.03125 c 0.147112,0.0086 0.315076,0.01749 0.490234,0.02539 0.158371,0.0086 0.32542,0.0077 0.496094,0.01563 0.163688,7e-4 0.329646,0.0098 0.492188,0.0098 l 0.460937,0.0078 c 0.550598,0 1.062489,-0.0414 1.539063,-0.119141 0.476469,-0.07295 0.917298,-0.19072 1.316406,-0.341797 0.394209,-0.154294 0.76166,-0.342637 1.08789,-0.5625 0.329463,-0.224493 0.626645,-0.4769 0.882813,-0.765624 0.252518,-0.2859 0.472488,-0.599109 0.660156,-0.945313 0.18329,-0.34212 0.332316,-0.712102 0.451172,-1.115234 0.113644,-0.395515 0.200363,-0.809727 0.257813,-1.25 0.05619,-0.43988 0.08398,-0.895889 0.08398,-1.369141 0,-0.487935 -0.03525,-0.94364 -0.109375,-1.367188 -0.07288,-0.427315 -0.186977,-0.823443 -0.333984,-1.177734 -0.147007,-0.358767 -0.328589,-0.684706 -0.53711,-0.974609 -0.211857,-0.297285 -0.455666,-0.561742 -0.728515,-0.789063 v -0.0078 c -0.273267,-0.224416 -0.571401,-0.424859 -0.896485,-0.591797 v 0.0078 c -0.326543,-0.167016 -0.676647,-0.300107 -1.046875,-0.402343 -0.375025,-0.10145 -0.766899,-0.179836 -1.173828,-0.228516 -0.407657,-0.0534 -0.834779,-0.07617 -1.283203,-0.07617 z m -26.677734,0.119141 v 7.916015 c 0,0.249307 -0.0087,0.472743 -0.02539,0.671875 -0.01262,0.203214 -0.0325,0.392226 -0.06055,0.554688 v 0.0078 c -0.02075,0.138435 -0.06227,0.255286 -0.115234,0.353516 -0.04921,0.08959 -0.114047,0.163407 -0.191407,0.216797 l -0.0039,0.0078 c -0.09363,0.06878 -0.204555,0.134867 -0.322265,0.191407 -0.126259,0.05748 -0.259918,0.109537 -0.410157,0.154297 -0.147007,0.04091 -0.31418,0.07724 -0.501953,0.09766 -0.183602,0.02434 -0.385583,0.03711 -0.605469,0.03711 -0.183707,0 -0.355355,-0.0089 -0.509765,-0.02148 -0.159622,-0.01099 -0.305221,-0.02644 -0.435547,-0.05078 -0.118856,-0.02481 -0.224576,-0.05874 -0.322266,-0.107422 -0.09821,-0.04484 -0.182825,-0.105532 -0.259765,-0.169922 v -0.0078 c -0.0734,-0.06478 -0.139013,-0.151067 -0.195313,-0.248047 -0.06547,-0.110716 -0.119386,-0.237792 -0.160156,-0.380859 -0.04473,-0.146129 -0.07748,-0.324031 -0.101562,-0.53125 -0.02074,-0.204471 -0.0332,-0.445494 -0.0332,-0.71875 v -7.96875 H 11.25782 v 7.746094 c 10e-7,0.379497 0.0267,0.733021 0.08008,1.0625 0.05296,0.333482 0.135682,0.635124 0.246093,0.904297 0.109474,0.272864 0.247358,0.520196 0.40625,0.74414 0.162438,0.228578 0.345048,0.428412 0.552735,0.603516 h 0.0039 c 0.20852,0.171021 0.432514,0.317665 0.677734,0.439453 0.24397,0.12218 0.507504,0.219939 0.792969,0.292969 0.280564,0.07373 0.579122,0.131872 0.888672,0.164062 0.309444,0.03769 0.63381,0.05664 0.972656,0.05664 0.406511,0 0.798386,-0.02859 1.173828,-0.08984 0.370228,-0.05662 0.715786,-0.14206 1.029297,-0.259765 0.322164,-0.114092 0.615822,-0.253652 0.888672,-0.41211 0.272015,-0.159635 0.518396,-0.337977 0.738281,-0.537109 0.215923,-0.203215 0.405761,-0.423099 0.572266,-0.660157 0.167024,-0.239491 0.305131,-0.492859 0.419922,-0.761718 0.109577,-0.265169 0.195023,-0.542002 0.251953,-0.826172 0.05338,-0.285899 0.08203,-0.579591 0.08203,-0.876953 v -0.0039 -7.589843 z m 14.291015,0.01953 v 11.855469 h 6.730469 0.269531 l 0.02344,-0.273438 0.09961,-1.111328 0.02734,-0.314453 -0.314453,-0.0078 -4.072266,-0.08203 v -3.449218 l 3.3125,-0.07617 0.263672,-0.0098 0.02344,-0.259766 0.09961,-1.039062 0.03125,-0.31836 -0.322266,-0.0078 -3.408203,-0.04492 v -3.082031 l 3.636719,-0.04883 h 0.265625 l 0.02734,-0.259766 0.111328,-1.144531 0.03125,-0.326172 z m 11.919922,1.591797 c 0.264717,0 0.516603,0.0147 0.761719,0.04297 0.243969,0.02945 0.475323,0.07432 0.695312,0.130859 v 0.0078 c 0.215819,0.05732 0.419809,0.134092 0.603516,0.236328 0.186522,0.102235 0.362426,0.224743 0.517578,0.363281 0.158893,0.146993 0.305799,0.317916 0.431641,0.513672 0.12626,0.199288 0.239944,0.432568 0.333984,0.697265 0.195903,0.52861 0.292969,1.216545 0.292969,2.054688 0,0.358767 -0.0048,0.67866 -0.02148,0.958984 -0.01668,0.293986 -0.03515,0.553183 -0.06445,0.789063 -0.03211,0.228028 -0.0647,0.439383 -0.105468,0.638672 -0.04025,0.19175 -0.08571,0.358689 -0.138672,0.509765 -0.04879,0.145815 -0.10591,0.280556 -0.16211,0.402344 -0.05745,0.114799 -0.115101,0.217224 -0.175781,0.302734 v 0.0078 c -0.06151,0.08143 -0.127042,0.163298 -0.201172,0.236328 -0.06475,0.06886 -0.133321,0.134866 -0.207031,0.191406 -0.138874,0.102157 -0.29248,0.186736 -0.458984,0.259766 -0.167025,0.06965 -0.350811,0.123232 -0.550782,0.164062 -0.203203,0.03604 -0.438303,0.06474 -0.703125,0.08594 h -0.0039 c -0.256585,0.01571 -0.548229,0.02734 -0.86914,0.02734 h -0.101563 -0.126953 c -0.06881,-0.0039 -0.16931,-0.01163 -0.271484,-0.01953 h -0.02148 l -0.158203,-0.01172 -0.134766,-0.01758 v -0.0039 -8.517578 c 0.0415,-0.0039 0.07726,-0.0038 0.109375,-0.01172 l 0.160157,-0.01172 0.154296,-0.01172 0.154297,-0.0078 c 0.07288,-0.0079 0.176119,-0.0078 0.261719,-0.0078 z m 12.800781,0.183594 c 0.248452,0 0.478716,0.02555 0.691407,0.07031 0.203203,0.04484 0.394585,0.109629 0.566406,0.199219 h 0.0039 c 0.167859,0.08551 0.32581,0.194049 0.46875,0.320312 0.141794,0.130346 0.268599,0.278375 0.378906,0.445313 h 0.0039 c 0.113643,0.171099 0.211385,0.362446 0.296875,0.574219 0.08956,0.215779 0.157503,0.448546 0.214843,0.705078 0.05745,0.264776 0.0989,0.545003 0.126953,0.83789 0.02815,0.293201 0.04102,0.607177 0.04102,0.949219 v 0.0078 c 0,0.252134 7.76e-4,0.476649 -0.0078,0.675781 -0.0041,0.212637 -0.01668,0.431059 -0.0293,0.654297 -0.01668,0.208475 -0.03141,0.411784 -0.05664,0.599609 -0.02003,0.199131 -0.05014,0.384138 -0.07422,0.554688 -0.03211,0.167095 -0.06413,0.319724 -0.101562,0.466797 -0.0367,0.142988 -0.07251,0.265461 -0.113281,0.375 l -0.0039,0.0078 c -0.03264,0.102157 -0.07268,0.186821 -0.109375,0.244141 h -0.0039 c -0.0293,0.04491 -0.05805,0.07335 -0.08203,0.08984 l -0.01172,0.0078 c -0.113645,0.08143 -0.24503,0.156313 -0.386719,0.220703 -0.147008,0.06565 -0.301564,0.120069 -0.472656,0.167969 -0.170986,0.04907 -0.371334,0.08503 -0.595703,0.109375 -0.223221,0.02435 -0.477667,0.03711 -0.757812,0.03711 -0.256586,0 -0.491372,-0.02359 -0.703126,-0.07227 -0.207267,-0.04523 -0.395635,-0.120001 -0.558593,-0.212891 -0.166505,-0.09407 -0.314827,-0.208231 -0.449219,-0.341797 -0.130325,-0.13443 -0.247329,-0.293646 -0.349609,-0.46875 -0.105094,-0.182485 -0.195402,-0.387561 -0.269532,-0.607422 -0.07694,-0.224023 -0.140706,-0.464094 -0.185547,-0.720703 -0.04483,-0.264698 -0.08261,-0.549409 -0.107421,-0.851563 -0.02001,-0.293278 -0.03125,-0.606068 -0.03125,-0.935546 0,-0.541252 0.01108,-1.023032 0.03516,-1.44336 0.02805,-0.414518 0.07009,-0.776011 0.123047,-1.085937 0.05328,-0.296892 0.117952,-0.536961 0.195312,-0.720703 0.06443,-0.158378 0.139437,-0.268829 0.216797,-0.330078 0.09769,-0.08143 0.218964,-0.151627 0.357422,-0.216797 0.141794,-0.0647 0.308482,-0.11735 0.492187,-0.16211 v -0.0078 c 0.187357,-0.0446 0.387857,-0.08113 0.59961,-0.105469 0.204454,-0.02513 0.420315,-0.03711 0.648437,-0.03711 z"
     id="icon-maincolor" />
  <path
     id="icon-detailcolor"
     d="M 40.794922 38.470703 L 40.794922 43.841797 L 41.621094 43.841797 L 41.621094 38.470703 L 40.794922 38.470703 z M 20.931641 38.5625 C 19.376573 38.5625 18.982422 39.37438 18.982422 41.248047 C 18.982422 43.0231 19.346231 43.925781 20.931641 43.925781 C 21.417126 43.925781 22.055581 43.833667 22.412109 43.757812 L 22.388672 43.060547 C 22.062487 43.113647 21.455229 43.173828 21.068359 43.173828 C 20.04429 43.173828 19.855469 42.674158 19.855469 41.248047 C 19.855469 39.776422 20.091077 39.3125 21.046875 39.3125 C 21.418574 39.3125 22.047316 39.374856 22.388672 39.435547 L 22.417969 38.751953 C 22.091784 38.676093 21.470226 38.5625 20.931641 38.5625 z M 31.486328 38.949219 L 31.486328 40.048828 L 31 40.048828 L 31 40.753906 L 31.486328 40.753906 L 31.486328 42.513672 C 31.486328 43.606012 31.752192 43.925781 32.609375 43.925781 C 32.874875 43.925781 33.382812 43.826172 33.382812 43.826172 L 33.345703 43.166016 C 33.345703 43.166016 32.935055 43.189453 32.722656 43.189453 C 32.3282 43.189453 32.304688 42.992755 32.304688 42.423828 L 32.304688 40.753906 L 33.351562 40.753906 L 33.351562 40.048828 L 32.304688 40.048828 L 32.304688 38.949219 L 31.486328 38.949219 z M 24.658203 39.964844 C 23.391391 39.964844 22.966797 40.694945 22.966797 41.923828 C 22.966797 43.183054 23.361049 43.925781 24.658203 43.925781 C 25.962943 43.925781 26.349609 43.183054 26.349609 41.923828 C 26.349609 40.694945 25.925014 39.964844 24.658203 39.964844 z M 29.029297 39.964844 C 28.536226 39.964844 27.982422 40.285156 27.982422 40.285156 L 27.982422 40.048828 L 27.164062 40.048828 L 27.164062 43.841797 L 27.990234 43.841797 L 27.990234 40.898438 C 27.990234 40.898438 28.407685 40.701172 28.847656 40.701172 C 29.424169 40.701172 29.523438 41.073461 29.523438 41.832031 L 29.523438 43.841797 L 30.341797 43.841797 L 30.341797 41.808594 C 30.341797 40.564539 30.083708 39.964844 29.029297 39.964844 z M 36.132812 39.964844 C 35.488028 40.086216 34.841797 40.503906 34.841797 40.503906 L 34.841797 40.048828 L 34.023438 40.048828 L 34.023438 43.841797 L 34.849609 43.841797 L 34.849609 41.195312 C 34.849609 41.195312 35.442515 40.929512 36.132812 40.792969 L 36.132812 39.964844 z M 38.244141 39.964844 C 36.97733 39.964844 36.552734 40.694945 36.552734 41.923828 C 36.552734 43.183054 36.946987 43.925781 38.244141 43.925781 C 39.548881 43.925781 39.935547 43.183054 39.935547 41.923828 C 39.935547 40.694945 39.510953 39.964844 38.244141 39.964844 z M 24.658203 40.664062 C 25.325744 40.664062 25.515625 41.043887 25.515625 41.923828 C 25.515625 42.803769 25.363672 43.228516 24.658203 43.228516 C 23.952733 43.228516 23.800781 42.803769 23.800781 41.923828 C 23.800781 41.043887 23.990661 40.664062 24.658203 40.664062 z M 38.244141 40.664062 C 38.911683 40.664062 39.101563 41.043887 39.101562 41.923828 C 39.101562 42.803769 38.949611 43.228516 38.244141 43.228516 C 37.538671 43.228516 37.386719 42.803769 37.386719 41.923828 C 37.386719 41.043887 37.5766 40.664062 38.244141 40.664062 z "
     style="fill:var(--icon-detail)" />
  <path
     id="icon-maincolor"
     d="M 44.519531 38.521484 C 42.941707 38.521484 42.599609 39.463228 42.599609 41.238281 C 42.599609 42.96782 42.949292 43.923828 44.519531 43.923828 C 45.020187 43.923828 45.595097 43.839532 45.966797 43.763672 L 45.945312 43.263672 C 45.581199 43.331942 45.018549 43.400391 44.59375 43.400391 C 43.39521 43.400391 43.207031 42.702321 43.207031 41.238281 C 43.207031 39.743899 43.411881 39.044922 44.580078 39.044922 C 44.989706 39.044922 45.603956 39.120959 45.945312 39.181641 L 45.966797 38.689453 C 45.633026 38.621183 45.058116 38.521484 44.519531 38.521484 z M 54.837891 38.894531 L 54.837891 40.054688 L 54.298828 40.054688 L 54.298828 40.546875 L 54.837891 40.546875 L 54.837891 42.542969 C 54.837891 43.635309 55.103439 43.929688 55.884766 43.929688 C 56.150265 43.929688 56.658203 43.847656 56.658203 43.847656 L 56.619141 43.376953 C 56.619141 43.376953 56.157712 43.421875 55.945312 43.421875 C 55.452241 43.421875 55.398438 43.186216 55.398438 42.359375 L 55.398438 40.546875 L 56.605469 40.546875 L 56.605469 40.054688 L 55.398438 40.054688 L 55.398438 38.894531 L 54.837891 38.894531 z M 63.09375 39.970703 C 62.365523 40.114831 61.705078 40.570312 61.705078 40.570312 L 61.705078 40.054688 L 61.144531 40.054688 L 61.144531 43.847656 L 61.712891 43.847656 L 61.712891 41.0625 C 61.712891 41.0625 62.380694 40.691003 63.09375 40.546875 L 63.09375 39.970703 z M 48.175781 39.978516 C 47.212397 39.978516 46.591797 40.531373 46.591797 41.972656 C 46.591797 43.262224 46.963481 43.923828 48.09375 43.923828 C 48.708191 43.923828 49.572266 43.800781 49.572266 43.800781 L 49.556641 43.353516 C 49.556641 43.353516 48.731037 43.421875 48.162109 43.421875 C 47.418711 43.421875 47.167969 42.997217 47.167969 42.185547 L 49.669922 42.185547 L 49.701172 41.753906 C 49.701172 40.509852 49.184678 39.978516 48.175781 39.978516 z M 52.332031 39.978516 C 51.77069 39.978516 51.15625 40.320312 51.15625 40.320312 L 51.15625 40.054688 L 50.595703 40.054688 L 50.595703 43.847656 L 51.164062 43.847656 L 51.164062 40.767578 C 51.164062 40.767578 51.688205 40.486328 52.234375 40.486328 C 52.939845 40.486328 53.052734 40.858063 53.052734 41.859375 L 53.052734 43.847656 L 53.613281 43.847656 L 53.613281 41.84375 C 53.613281 40.493496 53.378858 39.978516 52.332031 39.978516 z M 58.724609 39.978516 C 57.761226 39.978516 57.140625 40.531373 57.140625 41.972656 C 57.140625 43.262224 57.512309 43.923828 58.642578 43.923828 C 59.257019 43.923828 60.121094 43.800781 60.121094 43.800781 L 60.105469 43.353516 C 60.105469 43.353516 59.279864 43.421875 58.710938 43.421875 C 57.96754 43.421875 57.716797 42.997217 57.716797 42.185547 L 60.21875 42.185547 L 60.25 41.753906 C 60.25 40.509852 59.733507 39.978516 58.724609 39.978516 z M 48.175781 40.457031 C 48.843322 40.457031 49.132813 40.789843 49.132812 41.730469 L 47.160156 41.730469 C 47.167756 40.8126 47.530996 40.457031 48.175781 40.457031 z M 58.724609 40.457031 C 59.392151 40.457031 59.681641 40.789843 59.681641 41.730469 L 57.708984 41.730469 C 57.716584 40.8126 58.079825 40.457031 58.724609 40.457031 z "
     style="fill:var(--icon-main);" />
</svg>
