<?xml version="1.0" encoding="UTF-8" standalone="no"?>
<!-- Generator: Adobe Illustrator 19.0.0, SVG Export Plug-In . SVG Version: 6.00 Build 0)  -->

<svg
   xmlns:dc="http://purl.org/dc/elements/1.1/"
   xmlns:cc="http://creativecommons.org/ns#"
   xmlns:rdf="http://www.w3.org/1999/02/22-rdf-syntax-ns#"
   xmlns:svg="http://www.w3.org/2000/svg"
   xmlns="http://www.w3.org/2000/svg"
   xmlns:sodipodi="http://sodipodi.sourceforge.net/DTD/sodipodi-0.dtd"
   xmlns:inkscape="http://www.inkscape.org/namespaces/inkscape"
   version="1.1"
   id="Layer_1"
   x="0px"
   y="0px"
   viewBox="0 0 511.6 511.6"
   style="enable-background:new 0 0 511.6 511.6;"
   xml:space="preserve"
   inkscape:version="0.91 r13725"
   sodipodi:docname="benutzerinfos.svg"><metadata
     id="metadata63"><rdf:RDF><cc:Work
         rdf:about=""><dc:format>image/svg+xml</dc:format><dc:type
           rdf:resource="http://purl.org/dc/dcmitype/StillImage" /><dc:title></dc:title></cc:Work></rdf:RDF></metadata><defs
     id="defs61" /><sodipodi:namedview
     pagecolor="#ffffff"
     bordercolor="#666666"
     borderopacity="1"
     objecttolerance="10"
     gridtolerance="10"
     guidetolerance="10"
     inkscape:pageopacity="0"
     inkscape:pageshadow="2"
     inkscape:window-width="1920"
     inkscape:window-height="1027"
     id="namedview59"
     showgrid="false"
     inkscape:zoom="1.3047474"
     inkscape:cx="218.00601"
     inkscape:cy="229.1718"
     inkscape:window-x="1920"
     inkscape:window-y="25"
     inkscape:window-maximized="1"
     inkscape:current-layer="Layer_1" /><path
     style="fill:#E6E9ED;"
     d="M468.977,127.901V74.614c0-11.772-9.555-21.327-21.326-21.327H21.32C9.547,53.287,0,62.842,0,74.614  v53.287H468.977z"
     id="path3" /><polygon
     style="fill:#656D78;"
     points="468.977,415.676 395.878,415.676 0,415.676 0,95.926 468.977,95.926 468.977,319.079 "
     id="polygon5" /><path
     style="fill:#ED5564;"
     d="M42.631,74.614c0,5.886-4.771,10.648-10.656,10.648S21.32,80.5,21.32,74.614  S26.09,63.95,31.975,63.95S42.631,68.729,42.631,74.614z"
     id="path7" /><path
     style="fill:#FFCE54;"
     d="M74.606,74.614c0,5.886-4.77,10.648-10.655,10.648c-5.887,0-10.656-4.762-10.656-10.648  s4.769-10.663,10.655-10.663S74.606,68.729,74.606,74.614z"
     id="path9" /><path
     style="fill:#A0D468;"
     d="M106.58,74.614c0,5.886-4.77,10.648-10.655,10.648S85.27,80.5,85.27,74.614S90.04,63.95,95.925,63.95  S106.58,68.729,106.58,74.614z"
     id="path11" /><path
     style="fill:#FC6E51;"
     d="M373.052,138.565H53.294c-5.886,0-10.663,4.762-10.663,10.647c0,5.886,4.777,10.664,10.663,10.664  h319.758c5.87,0,10.647-4.778,10.647-10.664C383.699,143.326,378.922,138.565,373.052,138.565z"
     id="path13" /><path
     style="fill:#AC92EB;"
     d="M53.294,202.514h170.531c5.886,0,10.655-4.777,10.655-10.664c0-5.886-4.77-10.663-10.655-10.663  H53.294c-5.886,0-10.663,4.777-10.663,10.663C42.631,197.737,47.408,202.514,53.294,202.514z"
     id="path15" /><path
     style="fill:#48cfad"
     d="m 239.776,223.826 -186.482,0 c -5.886,0 -10.663,4.778 -10.663,10.664 0,5.886 4.777,10.648 10.663,10.648 l 186.481,0 c 5.885,0 10.647,-4.762 10.647,-10.648 0,-5.886 -4.762,-10.664 -10.646,-10.664 z"
     id="path17"
     inkscape:connector-curvature="0"
     sodipodi:nodetypes="sssssss" /><path
     style="fill:#5D9CEC;"
     d="M53.294,287.777h149.212c5.886,0,10.663-4.778,10.663-10.664s-4.777-10.648-10.663-10.648H53.294  c-5.886,0-10.663,4.763-10.663,10.648S47.408,287.777,53.294,287.777z"
     id="path19" /><path
     style="fill:#FFCE54;"
     d="M223.825,309.087H53.294c-5.886,0-10.663,4.777-10.663,10.664c0,5.886,4.777,10.663,10.663,10.663  h170.531c5.886,0,10.655-4.777,10.655-10.663C234.481,313.863,229.711,309.087,223.825,309.087z"
     id="path21" /><path
     style="fill:#ED5564;"
     d="M138.556,351.725H53.294c-5.886,0-10.663,4.777-10.663,10.664c0,5.886,4.777,10.647,10.663,10.647  h85.262c5.886,0,10.663-4.762,10.663-10.647C149.219,356.503,144.442,351.725,138.556,351.725z"
     id="path23" /><g
     id="g29" /><g
     id="g31" /><g
     id="g33" /><g
     id="g35" /><g
     id="g37" /><g
     id="g39" /><g
     id="g41" /><g
     id="g43" /><g
     id="g45" /><g
     id="g47" /><g
     id="g49" /><g
     id="g51" /><g
     id="g53" /><g
     id="g55" /><g
     id="g57" /><g
     id="g8079"
     transform="translate(11.027916,12.759606)"><path
       id="path17-3"
       d="m 475.41652,420.40936 -1.1362,-0.32871 c -16.52073,-4.42924 -22.10869,-8.69338 -29.46774,-11.4821 -26.09365,-9.93465 -32.87785,-17.10459 -34.61292,-20.50419 -0.0705,-0.11707 -0.11707,-0.23415 -0.17561,-0.37373 l -0.21163,-30.30076 -61.88781,-0.70393 -61.87729,0.70393 -0.21163,30.30076 c -0.057,0.13958 -0.10357,0.25666 -0.17411,0.37373 -1.73357,3.3996 -8.51927,10.56954 -34.61292,20.50419 -7.35756,2.78872 -12.94702,7.05286 -29.46774,11.4821 l -1.1377,0.32871 c -15.04081,4.99059 -25.15257,18.93422 -25.15257,34.68196 l 0,43.74908 152.63396,0 152.64748,0 0,-43.74908 c 0.002,-15.74774 -10.11176,-29.69137 -25.15557,-34.68196 z"
       style="fill:#48cfad"
       inkscape:connector-curvature="0" /><path
       id="path19-6"
       d="m 433.79876,298.76507 c 0,55.79553 -53.19442,107.13931 -85.87415,107.13931 -32.67672,0 -85.86064,-51.34378 -85.86064,-107.13931 0,-55.79553 38.4433,-92.5878 85.86064,-92.5878 47.43086,0 85.87415,36.79227 85.87415,92.5878 z"
       style="fill:#eac6bb"
       inkscape:connector-curvature="0" /><path
       id="path21-7"
       d="m 392.25155,210.98324 c 0,0 -1.66303,-14.83368 16.10947,-25.52029 7.53466,-4.5223 -112.83383,-25.96457 -143.04003,50.07849 -11.35303,28.5882 -2.96433,70.62921 -2.96433,70.62921 l 26.16419,-46.89052 c 0,0 28.50714,6.65512 59.40376,6.65512 30.89813,0 60.44692,-6.65512 60.44692,-6.65512 l 25.42573,39.62603 c 0,0 9.77105,-38.05605 -1.17222,-63.27016 -10.94178,-25.21561 -40.37349,-24.65276 -40.37349,-24.65276 z"
       style="fill:#ffce54"
       inkscape:connector-curvature="0" /></g></svg>